<svg width="48" height="48" xmlns="http://www.w3.org/2000/svg"><g fill="none" fill-rule="evenodd"><path d="M43.032 48H4.968A4.968 4.968 0 010 43.032V4.968A4.968 4.968 0 014.968 0h38.064A4.968 4.968 0 0148 4.968v38.064A4.968 4.968 0 0143.032 48" fill="#533379"/><path d="M36.374 16.533v-2.07a1.4 1.4 0 00-1.035-1.35v-4.28C35.34 5.611 33.374 3 30.95 3H16.016c-2.426 0-4.392 2.611-4.392 5.833v30.333c0 3.222 1.966 5.834 4.392 5.834h14.931c2.426 0 4.391-2.612 4.391-5.834V23.79a1.401 1.401 0 001.035-1.352v-2.07a1.4 1.4 0 00-1.035-1.35v-1.132a1.402 1.402 0 001.035-1.352zm-5.316-11.99a.507.507 0 110 1.013.507.507 0 010-1.014zm-1.948 0a.508.508 0 110 1.015.508.508 0 010-1.016zm-8.988 0h6.858a.507.507 0 010 1.013h-6.858a.507.507 0 010-1.014zm5.092 38.631h-2.88a2.414 2.414 0 01-2.415-2.415c0-.325.263-.588.588-.588h6.534c.325 0 .588.263.588.588a2.415 2.415 0 01-2.415 2.415zm8.096-7.704c0 1.574-.96 2.851-2.146 2.851H15.801c-1.186 0-2.147-1.277-2.147-2.85V9.851c0-1.575.961-2.852 2.147-2.852h15.363c1.186 0 2.146 1.277 2.146 2.851v25.62z" fill="#FEFEFE"/><path d="M29.592 8.512H17.489c-1.09 0-1.973.884-1.973 1.974v24.002c0 1.09.883 1.974 1.973 1.974h12.103c1.09 0 1.974-.884 1.974-1.974V10.486c0-1.09-.884-1.974-1.974-1.974zm-1.963 20.712a.67.67 0 11-1.339 0V17.091a.67.67 0 011.339 0v12.133zm2.151-6.087a.67.67 0 11-1.339 0V11.004a.67.67 0 111.339 0v12.133z" fill="#FEFEFE"/></g></svg>