<?xml version="1.0" encoding="UTF-8"?>
<svg width="48px" height="48px" viewBox="0 0 48 48" version="1.1" xmlns="http://www.w3.org/2000/svg" xmlns:xlink="http://www.w3.org/1999/xlink">
    <title>health-advice/get-tested copy</title>
    <g id="NY-App" stroke="none" stroke-width="1" fill="none" fill-rule="evenodd">
        <g id="exposure-landing" transform="translate(-20.000000, -752.000000)" fill-rule="nonzero">
            <g id="health-advice/get-tested-copy" transform="translate(20.000000, 752.000000)">
                <path d="M42.8715,47.594 L5.1295,47.594 C2.4085,47.594 0.2035,45.389 0.2035,42.668 L0.2035,4.926 C0.2035,2.205 2.4085,0 5.1295,0 L42.8715,0 C45.5925,0 47.7975,2.205 47.7975,4.926 L47.7975,42.668 C47.7975,45.389 45.5925,47.594 42.8715,47.594" id="Fill-1" fill="#523178"></path>
                <path d="M27.6877651,26.9274629 L25.8947651,29.2213422 C23.1184352,27.5492866 20.8043295,25.1786664 19.1714892,22.3338723 L21.412834,20.4960473 C21.9529744,20.0527865 22.1337011,19.292005 21.852834,18.643837 L19.8098685,13.9281654 C19.5071815,13.2297736 18.7559901,12.8583583 18.0343168,13.0502706 L14.1448685,14.0844603 C13.3939213,14.2857343 12.9083887,15.0307378 13.0145237,15.8188663 C14.41666,26.0538517 22.2647583,34.0981524 32.2501099,35.5353422 C33.0191385,35.6446782 33.7462949,35.1467855 33.9422134,34.3767387 L34.9511789,30.390443 C35.1380064,29.6507717 34.7759927,28.8810233 34.0950754,28.5701137 L29.4951789,26.4760741 C28.8626469,26.1879263 28.12009,26.3733746 27.6877651,26.9274629 Z" id="Path" fill="#FFFFFF"></path>
            </g>
        </g>
    </g>
</svg>