<svg viewBox="0 0 48 48" xmlns="http://www.w3.org/2000/svg" xmlns:xlink="http://www.w3.org/1999/xlink"><defs><path id="a" d="M0 0h48v48H0z"/><path id="c" d="M0 48h48V0H0z"/></defs><g fill="none" fill-rule="evenodd"><mask id="b" fill="#fff"><use xlink:href="#a"/></mask><path d="M43.032 48H4.968A4.968 4.968 0 010 43.032V4.968A4.968 4.968 0 014.968 0h38.064A4.968 4.968 0 0148 4.968v38.064A4.968 4.968 0 0143.032 48" fill="#483066" mask="url(#b)"/><path d="M10.225 30.572a1.695 1.695 0 003.39 0l.037-13.904c-3.427 0-3.427 3.86-3.427 3.86v10.044zm-.728 0a1.695 1.695 0 01-3.392 0L6.07 16.668c3.427 0 3.427 3.86 3.427 3.86v10.044z" fill="#FFFFFE"/><path d="M4.098 21.836c-.778 0-1.408-.63-1.408-1.408C2.69 13 4.833 9.143 4.924 8.982a1.41 1.41 0 012.452 1.386c-.034.06-1.87 3.477-1.87 10.06 0 .778-.63 1.408-1.408 1.408m8.715-17.132a2.968 2.968 0 11-5.905.623 2.97 2.97 0 015.905-.623" fill="#FFFFFE"/><path d="M6.052 8.27v8.365a3.79 3.79 0 007.581 0V8.27h-7.58z" fill="#FFFFFE"/><path d="M15.505 21.836c.778 0 1.408-.63 1.408-1.408 0-7.427-2.143-11.285-2.234-11.446a1.41 1.41 0 00-2.452 1.386c.033.06 1.87 3.477 1.87 10.06 0 .778.63 1.408 1.408 1.408m23.767 1.644c4.504-.471 7.77-4.511 7.294-9.013a8.195 8.195 0 00-9.009-7.292 8.198 8.198 0 00-7.294 9.013c.475 4.497 4.508 7.762 9.01 7.292m4.389 7.244c-.888.063-2.307.142-4.516 1.022-2.21.882-5.103 2.743-6.469 2.934-.076-1.372.729-3.959 3.001-5.079 1.628-.8 4.336.175 5.303.58 1.17-.27 2.088-.364 2.427-.416.55-.084.698.726.254.96zm-11.957.5a2.596 2.596 0 01-2.592-2.594 2.595 2.595 0 012.592-2.592 2.594 2.594 0 012.592 2.592 2.595 2.595 0 01-2.592 2.593zm14.367-6.298H29.747c-.521-.06-1.03.083-1.5.346-.696.282-1.996 1.024-2.245 2.744-.124.85-.235 1.777-.284 2.623 2.527-.433 4.53.816 5.416 2.457.97 1.795.619 4.892-.805 6.048 1.032-.145 1.645-.107 2.601.185 1.277.392 1.528 1.913 1.605 1.896 4.051-.88 8.254-3.646 9.773-4.718a3.41 3.41 0 00.818-4.753l-.006-.008h1.098l-.146-6.82zM39.093 40.82c-1.25.626-2.609 1.16-4.159 1.432-.054.009 1.438 3.993 1.505 3.993 2.707.012 4.615 0 6.646 0 1.556 0 3.097-1.582 3.097-2.933 0-1.817.066-7.357-.237-6.996-1.37 1.632-4.357 3.257-6.852 4.505" fill="#FFFFFE"/><path d="M37.898 31.175c-1.25.504-2.76 1.308-3.832 1.9-.075.041.266-1.83 2.05-2.687 1.634-.785 3.635.165 3.564.186-.583.175-1.216.372-1.782.601m-4.494-2.535a1.693 1.693 0 11-3.387.001 1.693 1.693 0 013.387 0m-2.637 6.488a4.076 4.076 0 11-8.106.855 4.076 4.076 0 018.106-.855" fill="#FFFFFE"/><mask id="d" fill="#fff"><use xlink:href="#c"/></mask><path fill="#FFFFFE" mask="url(#d)" d="M22.062 46.245h9.831v-6.22h-9.831z"/><path d="M35.234 46.245c-.838-3.425-1.834-5.115-1.906-5.241a1.934 1.934 0 00-3.366 1.902c.022.042.64 1.11 1.266 3.339h4.006z" fill="#FFFFFE" mask="url(#d)"/><path stroke="#FFFFFE" stroke-width="1.5" mask="url(#d)" d="M19.733 46.25l.012-1.5"/><path stroke="#FFFFFE" stroke-width="1.5" stroke-dasharray="2.964,1.976" mask="url(#d)" d="M19.761 42.774l.31-38.536"/><path stroke="#FFFFFE" stroke-width="1.5" mask="url(#d)" d="M20.079 3.25l.012-1.5"/></g></svg>