<svg viewBox="0 0 48 48" xmlns="http://www.w3.org/2000/svg" xmlns:xlink="http://www.w3.org/1999/xlink"><defs><path id="a" d="M0 0h48v48H0z"/></defs><g fill="none" fill-rule="evenodd"><mask id="b" fill="#fff"><use xlink:href="#a"/></mask><path d="M43.032 48H4.968A4.968 4.968 0 010 43.032V4.968A4.968 4.968 0 014.968 0h38.064A4.968 4.968 0 0148 4.968v38.064A4.968 4.968 0 0143.032 48" fill="#483066" mask="url(#b)"/><path d="M37.7 37.197c.043-.357.308-.552.468-.667l.016-.01.02-.016a.293.293 0 00.026-.019l.017-.014c1.47-1.124 2.393-2.747 2.393-4.552 0-.914-.233-1.716-.658-2.496l-.002-5.009c.001-.159-.107-.216-.239-.127l-3.214 2.099a8.398 8.398 0 00-3.163-.609 8.382 8.382 0 00-3.119.592l-3.293-2.086c-.133-.086-.242-.028-.242.131l-.003 5.006a5.35 5.35 0 00-.618 2.499c0 1.814.93 3.442 2.41 4.566l.036.027.01.008.016.01c.16.115.425.31.47.667.18 1.446-2.305 7.979-2.625 8.573h13.917c-.32-.594-2.805-7.127-2.624-8.573" fill="#FFFFFE"/><path d="M9.682 26.982c.33.017.71-.185.998-.58.538-.74.923-2.02 1.385-3.325-.32 2.335-.633 5-.479 5.526.345 1.18 1.02 1.785 1.283 2.322l.031.068c.042.095.104.225.058.515a.744.744 0 01-.019.086c-.294 1.151-2.262 3.673-2.923 4.586-.293.405-.558.782-.796 1.14-1.377 2.065-1.862 3.45-1.758 5.574L8.488 46l18.332-.23.072-2.876c.123-2.493-.567-3.964-2.555-6.714-.66-.913-2.629-3.435-2.923-4.586-.007-.03-.015-.058-.02-.086-.045-.29.017-.42.06-.515l.03-.068c.263-.537.938-1.143 1.283-2.322.154-.526-.16-3.19-.48-5.526.463 1.304.848 2.585 1.386 3.324.288.396.668.598.998.581.36.017.674-.214.771-.72.363-1.9 2.012-3.668 1.427-5.496-.46-1.438-1.155-1.558-2.142-1.744a12.422 12.422 0 01-.899-.208c-.963-.303-2.787-1.214-4.066-1.31-.68-.05-2.077.251-2.585.257-.51-.006-1.863-.267-2.647-.257-1.152.016-3.04 1.007-4.005 1.31-.304.081-.606.153-.899.208-.987.186-1.682.306-2.142 1.744-.585 1.828 1.064 3.595 1.427 5.495.097.507.411.738.771.721m29.984-13.75c-.809 1.58-5.552-.826-9.194-2.266a21.298 21.298 0 00-2.726-.883c.113-.168.188-.319.24-.453a1.574 1.574 0 00-.007-1.23c-.416-.955-1.452-1.442-2.964-1.442-.887 0-1.936.168-3.121.506-2.444.7-4.382 1.848-5.003 2.235a98.565 98.565 0 015.02-1.589c2.434-.697 4.731-.71 5.285.557.51 1.168-1.71 2.594-4.884 3.968-1.964.851-4.228 1.677-6.173 2.224-3.251 1.01-6.785 1.238-7.747-1.433-1.165-3.237 3.62-6.618 8.612-9.032 1.836-.889 3.327-1.342 5.131-1.392 2.218-.063 6.082 1.801 9.049 3.431 5.705 3.136 9.315 5.174 8.482 6.8" fill="#FFFFFE"/><path d="M27.39 10.517c.753.174 1.732.457 2.897.917.64.254 1.332.544 2 .825 1.38.58 2.787 1.169 4.016 1.556-.06.442-.546.73-1.412.728-1.687-.002-5.492-2.23-7.836-3.711.127-.11.239-.215.335-.315m-.753.647c1.87 1.187 4.446 2.713 6.41 3.45-.225.117-.553.17-.978.132-1.306-.113-3.912-1.848-5.865-3.28a9.58 9.58 0 00.433-.302m2.519 3.516c-.996-.148-2.539-1.313-4.078-2.547.24-.13.461-.255.662-.376 1.393 1.03 2.911 2.136 4.353 2.83-.207.115-.522.155-.937.093" fill="#FFFFFE"/><path stroke="#9E9F9E" stroke-width="4" stroke-linecap="round" stroke-linejoin="round" d="M3.688 3.688l40.624 40.624"/></g></svg>