<svg width="48" height="48" xmlns="http://www.w3.org/2000/svg"><g fill="none" fill-rule="evenodd"><path d="M43.032 48H4.968A4.968 4.968 0 010 43.032V4.968A4.968 4.968 0 014.968 0h38.064A4.968 4.968 0 0148 4.968v38.064A4.968 4.968 0 0143.032 48" fill="#533379"/><path d="M42.873 42.704h-6.274v-.522c.967-.571 1.642-1.74 1.716-2.94h-6.893c.074 1.2.749 2.369 1.716 2.94v.522H31.19a.217.217 0 00-.217.216v1.298c0 .12.097.216.217.216h.649v1.083c0 .119.096.216.216.216h1.298c.12 0 .216-.097.216-.216v-1.083h6.924v1.083c0 .119.096.216.216.216h1.298a.216.216 0 00.216-.216v-1.083h.649c.12 0 .216-.096.216-.216V42.92a.216.216 0 00-.216-.216M38.33 38.16a.216.216 0 00-.216-.216h-6.491a.216.216 0 00-.216.216v.65h6.923v-.65zm-3.678-1.514a.216.216 0 010 .433.215.215 0 00-.216.216c0 .12.096.216.216.216a.65.65 0 000-1.298.216.216 0 010-.432c.12 0 .216-.097.216-.217a.216.216 0 00-.216-.216.65.65 0 000 1.298m1.298 0a.216.216 0 010 .433.215.215 0 00-.216.216c0 .12.096.216.216.216a.65.65 0 000-1.298.216.216 0 010-.432c.12 0 .216-.097.216-.217a.216.216 0 00-.216-.216.65.65 0 000 1.298m-2.596 0a.216.216 0 010 .433.215.215 0 00-.216.216c0 .12.096.216.216.216a.65.65 0 000-1.298.216.216 0 010-.432c.12 0 .216-.097.216-.217a.216.216 0 00-.216-.216.65.65 0 000 1.298" fill="#FEFEFE"/><path d="M42.327 42.271c.208-.31.33-.682.33-1.082V38.16a.217.217 0 00-.217-.216h-3.461a.216.216 0 00-.216.216v3.029c0 .4.12.772.329 1.082h3.235z" fill="#FEFEFE"/><path stroke="#FEFEFE" stroke-width="1.5" stroke-linecap="round" stroke-linejoin="round" d="M26.864 45V3"/><path d="M14.634 41.313a2.188 2.188 0 104.375 0l.047-17.943c-4.422 0-4.422 4.98-4.422 4.98v12.962zm-.939 0a2.188 2.188 0 11-4.376 0L9.273 23.37c4.422 0 4.422 4.98 4.422 4.98v12.962z" fill="#FEFEFE"/><path d="M6.728 30.04a1.817 1.817 0 01-1.817-1.818c0-9.585 2.766-14.563 2.883-14.77a1.816 1.816 0 013.164 1.788c-.043.08-2.413 4.486-2.413 12.982a1.818 1.818 0 01-1.817 1.817M17.975 7.93a3.83 3.83 0 01-3.41 4.212 3.832 3.832 0 113.41-4.212" fill="#FEFEFE"/><path d="M9.25 12.532v10.794a4.892 4.892 0 109.783 0V12.532H9.25z" fill="#FEFEFE"/><path d="M21.448 30.04a1.817 1.817 0 001.817-1.818c0-9.585-2.766-14.563-2.883-14.77a1.816 1.816 0 00-3.164 1.788c.043.08 2.413 4.486 2.413 12.982 0 1.003.814 1.817 1.817 1.817" fill="#FEFEFE"/><path stroke="#FEFEFE" stroke-width="1.5" stroke-linecap="round" stroke-linejoin="round" d="M30.043 27.254v-3"/></g></svg>