<svg width="48" height="48" xmlns="http://www.w3.org/2000/svg"><g fill="none" fill-rule="evenodd"><path d="M43.032 48H4.97A4.968 4.968 0 010 43.032V4.968A4.968 4.968 0 014.968 0h38.065A4.968 4.968 0 0148 4.968v38.064A4.968 4.968 0 0143.032 48" fill="#533379"/><path d="M13.735 13.277a3.3 3.3 0 011.867-.725l-.983-3.325 4.285.641 4.803-1.11-.17.99-.496 2.882.465 2.943.201 1.275-4.9.378s-.325.642-.55.83l.166-.028.443-.034 4.9-.379.832-.064-.13-.823-.2-1.275-.072-.444a6.883 6.883 0 00-4.679-11.936 6.882 6.882 0 00-6.882 6.887 6.84 6.84 0 00.801 3.227c.102.022.203.05.3.09m16.454 2.387a.95.95 0 000-1.354c-.373-.372-1.874-.52-1.874-.52s.141 1.5.52 1.874a.95.95 0 001.353 0M26.68 17.18a.96.96 0 001.354 0 .952.952 0 000-1.355c-.373-.378-1.873-.519-1.873-.519s.145 1.5.518 1.873" fill="#FEFEFE"/><path d="M25.491 37.944v-4.646c0-.166.141-.307.308-.307h3.845v.179c0 .533.537.95 1.222.95h7.1c.685 0 1.222-.417 1.222-.95v-.18h4.342c.167 0 .307.142.307.308v4.771c0 .167-.14.308-.307.308H25.799a.312.312 0 01-.308-.308v-.125zm12.72-5.58l-.085.11-.021.027h-6.688l-.04-.027-.16-.11-.596-.407-2.008-1.373 2.067-1.4.253-.316 3.162-3.956 6.042 4.97-1.61 2.075-.316.408zm9.21 6.186h-2.643c.058-.15.093-.311.093-.481v-4.771c0-.74-.602-1.341-1.341-1.341h-3.747l1.729-2.226-.509-.42-7.058-5.806-3.328 4.199-1.753-6.48a3.437 3.437 0 00-2.268-2.07h.057c-1.467-.495-5.342-.88-7.046-.901v-.006h-.175v.006c-.349.005-.8.022-1.303.056l-5.708 8.596-.587.886-.028-.017-.197-.13.18-.304.012-.012.203-.343 5.161-8.597.756-1.263a2.43 2.43 0 00.208-.418 2.443 2.443 0 00-.975-2.956 2.51 2.51 0 00-1.309-.377h-.006a2.45 2.45 0 00-1.974 1.009c-.006 0-.011-.005-.011-.005a1.2 1.2 0 00-.908-.418h-.018l-.118.005a1.21 1.21 0 00-1.066 1.332l.209 1.89-1.985 2.887L3.04 30.126c-.343.547-.428 1.388-.231 2.262.198.869.638 1.597 1.179 1.93.338.219.801.332 1.332.332.891 0 1.996-.338 2.617-.981h.005l3.898-4.073-.118 8.348h12.735v.125c0 .17.035.332.093.48H0v5.205h48V38.55h-.579z" fill="#FEFEFE"/></g></svg>