<svg viewBox="0 0 48 48" xmlns="http://www.w3.org/2000/svg"><g fill="none" fill-rule="evenodd"><path d="M42.871 47.594H5.13a4.925 4.925 0 01-4.925-4.926V4.926A4.925 4.925 0 015.13 0h37.74a4.925 4.925 0 014.926 4.926v37.742a4.925 4.925 0 01-4.925 4.926" fill="#523178" fill-rule="nonzero"/><path d="M39.55 18.592c-.459 0-.853.272-1.027.66H27.377a1.393 1.393 0 00-.127-1.69l-2.759-2.954c1.022.53 3.553 2.269 5.29 3.555a1.751 1.751 0 002.424-.33 1.676 1.676 0 00-.337-2.378c-1.08-.801-4.859-3.149-7.361-4.688l-6.538 2.694a.61.61 0 01-.796-.318.59.59 0 01.324-.781l5.75-2.37-1.05-.64c-.648-.483-1.535-.367-1.873-.243l-7.173 2.656c-.586.185-1.043.603-1.225 1.232L9.067 22.38 4 26.68v10.891L29.555 23.78a1.688 1.688 0 00.937-2.22c-.365-.863-1.375-1.276-2.26-.919l-.383.156c-3.454 1.403-5.006 2.637-6.68 1.85-1.867-.88-2.514-2.137-2.163-4.115.243-1.35.976-2.488 2.068-3.203.074-.049.154-.08.232-.122l3.61 4.046H20.55a.445.445 0 00-.45.44c0 .244.202-.56.45-.56h17.974c.174.389.568.661 1.028.661v-1.201z" fill="#FFF" fill-rule="nonzero"/><path fill="#FFF" d="M20 19h19v1H20z"/><rect fill="#FFF" transform="matrix(-1 0 0 1 79 0)" x="36" y="18.5" width="7" height="2" rx="1"/><path d="M23.248 9.992l1.363.838-6.968 3-1.508-.573.747-1.129 6.366-2.136z" fill="#FFF"/></g></svg>