<svg width="48" height="48" xmlns="http://www.w3.org/2000/svg"><g fill="none" fill-rule="evenodd"><path d="M43.032 48H4.968A4.968 4.968 0 010 43.032V4.968A4.968 4.968 0 014.968 0h38.064A4.968 4.968 0 0148 4.968v38.064A4.968 4.968 0 0143.032 48" fill="#533379"/><path stroke="#FEFEFE" stroke-width="1.5" stroke-linecap="round" stroke-linejoin="round" d="M8.37 40.225h31.044V20.39h3.45L24 7.024l-8.133 5.763V7.024h-4.263v8.784L5.135 20.39H8.37z"/><path d="M16.483 37.161a1.193 1.193 0 102.387 0l.025-9.787c-2.412 0-2.412 2.717-2.412 2.717v7.07zm-.512 0a1.193 1.193 0 11-2.387 0l-.025-9.787c2.412 0 2.412 2.717 2.412 2.717v7.07z" fill="#FEFEFE"/><path d="M12.17 31.012a.992.992 0 01-.99-.992c0-5.227 1.508-7.943 1.572-8.055a.991.991 0 011.726.975c-.024.043-1.317 2.447-1.317 7.08a.991.991 0 01-.99.992m6.134-12.059a2.09 2.09 0 11-4.155.439 2.09 2.09 0 014.155-.439" fill="#FEFEFE"/><path d="M13.546 21.463v5.888a2.668 2.668 0 005.336 0v-5.888h-5.336z" fill="#FEFEFE"/><path d="M20.2 31.012a.992.992 0 00.99-.992c0-5.227-1.509-7.943-1.573-8.055a.991.991 0 00-1.726.975c.025.043 1.318 2.447 1.318 7.08 0 .548.444.992.99.992M24 40.225h15.415V20.39h3.449L24 7.024z" fill="#FEFEFE"/><path stroke="#FEFEFE" stroke-width="1.271" stroke-linecap="round" stroke-linejoin="round" d="M24 40.225h15.415V20.39h3.449L24 7.024z"/><path d="M32.123 37.161a1.193 1.193 0 102.387 0l.025-9.787c-2.412 0-2.412 2.717-2.412 2.717v7.07zm-.511 0a1.193 1.193 0 11-2.387 0l-.025-9.787c2.412 0 2.412 2.717 2.412 2.717v7.07z" fill="#533379"/><path d="M27.81 31.012a.992.992 0 01-.99-.992c0-5.227 1.509-7.943 1.573-8.055a.991.991 0 011.726.975c-.024.043-1.317 2.447-1.317 7.08a.991.991 0 01-.991.992m6.135-12.059a2.09 2.09 0 11-4.155.439 2.09 2.09 0 014.155-.439" fill="#533379"/><path d="M29.187 21.463v5.888a2.668 2.668 0 005.336 0v-5.888h-5.336z" fill="#533379"/><path d="M35.84 31.012a.992.992 0 00.991-.992c0-5.227-1.509-7.943-1.573-8.055a.991.991 0 00-1.726.975c.024.043 1.317 2.447 1.317 7.08 0 .548.444.992.991.992" fill="#533379"/><path stroke="#FEFEFE" stroke-width="1.5" d="M21.34 20.296h2.033"/><path fill="#FEFEFE" d="M20.965 22.734h.75v-4.875h-.75z"/><path stroke="#6B53A2" stroke-width="1.5" d="M25.544 20.296h-2.12"/><path fill="#6B53A2" d="M25.169 22.734h.75v-4.875h-.75z"/></g></svg>