<svg width="48" height="48" xmlns="http://www.w3.org/2000/svg"><g fill="none" fill-rule="evenodd"><path d="M19.235 11a4.285 4.285 0 108.524.9 4.286 4.286 0 10-8.524-.9" fill="#FEFEFE"/><path d="M43.032 48H4.968A4.968 4.968 0 010 43.032V4.968A4.968 4.968 0 014.968 0h38.064A4.968 4.968 0 0148 4.968v38.064A4.968 4.968 0 0143.032 48" fill="#533379"/><path d="M34.283 11.586c.6 5.68-3.52 10.775-9.202 11.37-5.677.593-10.765-3.526-11.365-9.2-.596-5.687 3.524-10.772 9.203-11.37 5.683-.597 10.768 3.526 11.364 9.2M46.34 42.674c-2.224-10.653-5.15-15.829-5.352-16.185-.791-1.392-2.166-2.232-3.641-2.423v-.058H10.942v.016a4.899 4.899 0 00-3.93 2.465c-.205.362-3.205 4.663-5.437 15.676 0 1.692 1.156 4.293 5.408 4.293h34.596c2.766 0 4.762-1.98 4.762-3.784" fill="#FEFEFE"/><path d="M32.876 12.737H31.51v.349h1.366c.91 0 1.735.37 2.336.97a3.295 3.295 0 010 4.672 3.293 3.293 0 01-2.336.97H31.51v.35h1.366c1.006 0 1.92-.411 2.582-1.073a3.647 3.647 0 000-5.165 3.644 3.644 0 00-2.582-1.073" fill="#533379"/><path d="M32.876 12.737H31.51v.349h1.366c.91 0 1.735.37 2.336.97a3.295 3.295 0 010 4.672 3.293 3.293 0 01-2.336.97H31.51v.35h1.366c1.006 0 1.92-.411 2.582-1.073a3.647 3.647 0 000-5.165 3.644 3.644 0 00-2.582-1.073z" stroke="#533379" stroke-width=".627"/><path d="M17.427 20.438h13.146l.024.146c.004.027.027.049.051.049h.478a.055.055 0 00.056-.056v-8.369a.056.056 0 00-.056-.056h-.478c-.024 0-.047.022-.051.049l-.024.146H17.427l-.024-.146c-.005-.027-.028-.05-.051-.05h-.478a.056.056 0 00-.056.058v8.367c0 .032.024.056.056.056h.478c.023 0 .046-.022.051-.049l.024-.145zm13.699.544h-.478a.398.398 0 01-.342-.195H17.694a.398.398 0 01-.342.195h-.478a.406.406 0 01-.405-.405v-8.369c0-.223.182-.405.405-.405h.478a.4.4 0 01.342.194h12.612a.4.4 0 01.342-.194h.478c.223 0 .405.181.405.405v8.368a.406.406 0 01-.405.405z" fill="#533379"/><path d="M17.427 20.438h13.146l.024.146c.004.027.027.049.051.049h.478a.055.055 0 00.056-.056v-8.369a.056.056 0 00-.056-.056h-.478c-.024 0-.047.022-.051.049l-.024.146H17.427l-.024-.146c-.005-.027-.028-.05-.051-.05h-.478a.056.056 0 00-.056.058v8.367c0 .032.024.056.056.056h.478c.023 0 .046-.022.051-.049l.024-.145zm13.699.544h-.478a.398.398 0 01-.342-.195H17.694a.398.398 0 01-.342.195h-.478a.406.406 0 01-.405-.405v-8.369c0-.223.182-.405.405-.405h.478a.4.4 0 01.342.194h12.612a.4.4 0 01.342-.194h.478c.223 0 .405.181.405.405v8.368a.406.406 0 01-.405.405z" stroke="#533379" stroke-width=".627"/><path d="M11.469 16.392c0-1.006.41-1.92 1.073-2.582a3.64 3.64 0 012.582-1.073h1.366v.35h-1.366c-.909 0-1.736.368-2.337.97a3.298 3.298 0 000 4.671c.601.601 1.428.97 2.336.97h1.367v.35h-1.366c-1.007 0-1.92-.41-2.583-1.073a3.648 3.648 0 01-1.073-2.583" fill="#533379"/><path d="M11.469 16.392c0-1.006.41-1.92 1.073-2.582a3.64 3.64 0 012.582-1.073h1.366v.35h-1.366c-.909 0-1.736.368-2.337.97a3.298 3.298 0 000 4.671c.601.601 1.428.97 2.336.97h1.367v.35h-1.366c-1.007 0-1.92-.41-2.583-1.073a3.648 3.648 0 01-1.073-2.583" stroke="#533379" stroke-width=".627"/><path fill="#533379" d="M16.818 13.634h14.505v-.35H16.818z"/><path stroke="#533379" stroke-width=".627" d="M16.818 13.634h14.505v-.35H16.818z"/><path fill="#533379" d="M16.818 15.603h14.505v-.35H16.818z"/><path stroke="#533379" stroke-width=".627" d="M16.818 15.603h14.505v-.35H16.818z"/><path fill="#533379" d="M16.818 17.572h14.505v-.35H16.818z"/><path stroke="#533379" stroke-width=".627" d="M16.818 17.572h14.505v-.35H16.818z"/><path fill="#533379" d="M16.818 19.54h14.505v-.348H16.818z"/><path stroke="#533379" stroke-width=".627" d="M16.818 19.54h14.505v-.348H16.818z"/></g></svg>