<svg width="48" height="48" xmlns="http://www.w3.org/2000/svg"><g fill="none" fill-rule="evenodd"><path d="M4.968 48h38.064A4.968 4.968 0 0048 43.032V4.968A4.968 4.968 0 0043.032 0H4.968A4.968 4.968 0 000 4.968v38.064A4.968 4.968 0 004.968 48" fill="#533379"/><path stroke="#FEFEFE" stroke-width="1.5" stroke-linecap="round" stroke-linejoin="round" d="M43.66 40.6H23.322V16.747h-3.45L38.736 3.379l5.037 3.569"/><path d="M14.75 37.742a1.048 1.048 0 11-2.096 0l-.023-8.596c2.119 0 2.119 2.387 2.119 2.387v6.209zm.45 0a1.048 1.048 0 102.097 0l.02-8.596c-2.117 0-2.117 2.387-2.117 2.387v6.209z" fill="#FEFEFE"/><path d="M18.537 32.34a.87.87 0 00.871-.87c0-4.591-1.326-6.976-1.382-7.076a.87.87 0 00-1.516.857c.021.038 1.156 2.15 1.156 6.219 0 .48.39.87.871.87m-5.388-10.591a1.835 1.835 0 103.65.385 1.835 1.835 0 00-3.65-.385" fill="#FEFEFE"/><path d="M17.329 23.954v5.172a2.343 2.343 0 01-4.687 0v-5.172h4.687z" fill="#FEFEFE"/><path d="M11.485 32.34a.871.871 0 01-.87-.87c0-4.591 1.325-6.976 1.381-7.076a.87.87 0 011.516.857c-.02.038-1.156 2.15-1.156 6.219 0 .48-.39.87-.87.87m19.761 5.286a1.165 1.165 0 11-2.329 0l-.025-9.551c2.354 0 2.354 2.65 2.354 2.65v6.9zm.5 0a1.165 1.165 0 102.33 0l.024-9.551c-2.354 0-2.354 2.65-2.354 2.65v6.9z" fill="#FEFEFE"/><path d="M35.456 31.625a.967.967 0 00.967-.968c0-5.102-1.472-7.752-1.535-7.863a.968.968 0 00-1.684.953c.023.041 1.284 2.389 1.284 6.91 0 .535.433.968.968.968m-5.987-11.77a2.04 2.04 0 104.058.428 2.04 2.04 0 00-4.058-.428" fill="#FEFEFE"/><path d="M34.114 22.305v5.746a2.604 2.604 0 11-5.208 0v-5.746h5.208z" fill="#FEFEFE"/><path d="M27.62 31.625a.967.967 0 01-.967-.968c0-5.102 1.472-7.752 1.534-7.863a.968.968 0 011.685.953c-.023.041-1.285 2.389-1.285 6.91a.967.967 0 01-.967.968" fill="#FEFEFE"/><path stroke="#FEFEFE" stroke-width="1.5" stroke-linecap="round" stroke-linejoin="round" d="M20.045 40.48h-9.633v3.083H4.797"/><path stroke="#A6A8AB" stroke-width="4" stroke-linecap="round" stroke-linejoin="round" d="M3.688 3.688l40.624 40.624"/></g></svg>