<svg viewBox="0 0 48 48" xmlns="http://www.w3.org/2000/svg" xmlns:xlink="http://www.w3.org/1999/xlink"><defs><path id="a" d="M0 0h48v48H0z"/><path id="c" d="M0 .869h19.106v15.57H0z"/></defs><g fill="none" fill-rule="evenodd"><mask id="b" fill="#fff"><use xlink:href="#a"/></mask><path d="M43.032 48H4.968A4.968 4.968 0 010 43.032V4.968A4.968 4.968 0 014.968 0h38.064A4.968 4.968 0 0148 4.968v38.064A4.968 4.968 0 0143.032 48" fill="#483066" mask="url(#b)"/><path d="M15.9 31.427a4.15 4.15 0 01-.707-.067l-2.444 10.702c-.028.112-.223.666-1.366.666a4.36 4.36 0 01-.572-.041l-6.222-2.983c-1.228-1.165-.784-1.828-.732-1.896l7.107-8.437-1.4-.736-6.878 8.164c-.551.625-1.063 2.29.94 4.122a.777.777 0 00.189.127l6.434 3.084a.776.776 0 00.215.066c.323.05.632.075.919.075 2.018 0 2.769-1.258 2.876-1.883l2.528-11.07a4.218 4.218 0 01-.887.107zm4.18-7.73c.169-.176.369-.35.589-.516.034.882.194 1.89.382 2.805a20.161 20.161 0 01-.971-2.29m3.869-2.897l-.498-.24.202-.42a.772.772 0 00-.364-1.031l-6.015-2.883a.764.764 0 00-.507-.056l-5.419 1.24a.77.77 0 00-.521 1.093l.236.484a.766.766 0 00.367.36 358.46 358.46 0 003.299 1.529s1.517-.09 1.69-.09c.019 0 .036.005.056.006a.774.774 0 00.018-.562.776.776 0 00-.412-.44c-.009-.003-.795-.353-2.731-1.252l3.5-.801 5.075 2.432-.305.635c-.574.276-1.859.964-2.717 1.893.014.05.035.1.046.153l.042.286c.001.016-.002.032-.001.047.018.247-.01.493-.062.734-.022.102-.037.206-.072.305.108.106.208.219.303.335l.059.076c.447.572.739 1.249.846 1.974.537 1.035 1.212 2.028 1.953 2.383a.58.58 0 00.807-.688c-.35-1.18-1.136-4.303-.989-5.87.243-.132.475-.25.673-.336a.784.784 0 00.233-.161l.54.259c.442.212.923.129 1.135-.313.212-.443-.025-.87-.467-1.081" fill="#FFFFFE"/><g transform="translate(0 14)"><mask id="d" fill="#fff"><use xlink:href="#c"/></mask><path d="M19.09 12.938a3.18 3.18 0 00-1.547-2.443c.005-.004.007-.01.012-.015.087-.091.16-.193.223-.301.162-.28.24-.602.21-.93l-.002-.017-.023-.155a1.554 1.554 0 00-.337-.685 1.575 1.575 0 00-1.521-.541l-1.804.37-.63.13-3.905-2.19L0 .869v8.314l10.102 4.813 1.438.692 2.93 1.409a3.182 3.182 0 002.432.184c.047-.015.089-.042.136-.06a3.166 3.166 0 001.72-1.531 3.187 3.187 0 00.333-1.752" fill="#FFFFFE" mask="url(#d)"/></g><path d="M42.146 46.883H29.458V1.116h12.688a4.737 4.737 0 014.737 4.737v36.293a4.737 4.737 0 01-4.737 4.737" fill="#FFFFFE"/><path d="M35.617 40.45l-.429-1.5.214-.177a.51.51 0 00.187-.395.519.519 0 10-1.037 0c0 .153.068.297.187.394l.214.177-.429 1.502h1.093zm-1.168 2.32a1.767 1.767 0 01-1.765-1.765v-12.22c0-.972.792-1.764 1.765-1.764h1.243c.973 0 1.765.792 1.765 1.765v.424l-.424.005h-1.498a1.308 1.308 0 000 2.614h1.922v9.176c0 .973-.792 1.765-1.765 1.765H34.45z" fill="#FFFFFE"/><path d="M35.07 38.497l-.062-.052a.083.083 0 01-.032-.067c0-.052.043-.095.095-.095.05 0 .094.043.094.095a.085.085 0 01-.032.068l-.062.05zm.622-11.9h-1.243a2.191 2.191 0 00-2.188 2.189v12.219c0 1.207.982 2.189 2.188 2.189h1.243a2.192 2.192 0 002.189-2.19v-9.597h-2.346a.884.884 0 010-1.767h2.346v-.848a2.193 2.193 0 00-2.19-2.194zm-1.41 14.278h1.576a.242.242 0 00.233-.31l-.42-1.465a.935.935 0 00.342-.722.943.943 0 00-1.884 0c0 .283.126.545.34.722l-.42 1.466a.242.242 0 00.234.309zm1.41-13.43c.74 0 1.34.6 1.34 1.34v.006h-1.497c-.954 0-1.731.777-1.731 1.73 0 .955.777 1.732 1.73 1.732h1.499v8.752c0 .74-.601 1.342-1.341 1.342h-1.243a1.343 1.343 0 01-1.341-1.342v-12.22c0-.74.602-1.34 1.34-1.34h1.244z" fill="#483066"/><path d="M35.536 31.72a1.199 1.199 0 010-2.395h7.673a1.199 1.199 0 010 2.394h-7.673z" fill="#FFFFFE"/><path d="M43.209 28.9h-7.674c-.893 0-1.621.729-1.621 1.622 0 .894.728 1.622 1.62 1.622h7.675c.894 0 1.622-.728 1.622-1.622 0-.893-.728-1.621-1.622-1.621m0 .848a.774.774 0 010 1.547h-7.674a.774.774 0 010-1.547h7.674" fill="#483066"/></g></svg>