<svg width="48" height="48" xmlns="http://www.w3.org/2000/svg"><g fill="none" fill-rule="evenodd"><path d="M43.032 48H4.968A4.968 4.968 0 010 43.032V4.968A4.968 4.968 0 014.968 0h38.064A4.968 4.968 0 0148 4.968v38.064A4.968 4.968 0 0143.032 48" fill="#533379"/><path stroke="#FEFEFE" stroke-width="1.5" stroke-linecap="round" stroke-linejoin="round" d="M8.706 40.224H39.75V20.39h3.45L24.337 7.023l-8.133 5.763V7.023H11.94v8.784L5.472 20.39h3.234z"/><path d="M16.053 36.791a.998.998 0 001.997 0l.021-8.187c-2.018 0-2.018 2.271-2.018 2.271v5.916zm-.429 0a.998.998 0 01-1.997 0l-.02-8.187c2.017 0 2.017 2.271 2.017 2.271v5.916z" fill="#FEFEFE"/><path d="M12.445 31.646a.829.829 0 01-.83-.829c0-4.373 1.263-6.645 1.317-6.74a.83.83 0 011.444.816c-.02.037-1.101 2.047-1.101 5.924a.83.83 0 01-.83.83m5.132-10.09a1.747 1.747 0 01-1.556 1.922 1.75 1.75 0 111.556-1.922" fill="#FEFEFE"/><path d="M13.595 23.657v4.926a2.232 2.232 0 104.466 0v-4.926h-4.466z" fill="#FEFEFE"/><path d="M19.162 31.646a.83.83 0 00.83-.829c0-4.373-1.263-6.645-1.316-6.74a.831.831 0 00-1.445.816c.02.037 1.102 2.047 1.102 5.924 0 .459.371.83.83.83m5.461 5.287a.855.855 0 101.712 0l.018-7.019c-1.73 0-1.73 1.95-1.73 1.95v5.07zm-.367 0a.855.855 0 01-1.712 0l-.017-7.019c1.729 0 1.729 1.95 1.729 1.95v5.07z" fill="#FEFEFE"/><path d="M21.532 32.525a.71.71 0 01-.712-.711c0-3.75 1.082-5.698 1.128-5.779a.71.71 0 011.238.7c-.017.032-.945 1.756-.945 5.079a.71.71 0 01-.71.71m4.399-8.648a1.498 1.498 0 11-2.98.316 1.498 1.498 0 012.98-.316" fill="#FEFEFE"/><path d="M22.518 25.676v4.222a1.913 1.913 0 103.827 0v-4.222h-3.827z" fill="#FEFEFE"/><path d="M27.29 32.525a.71.71 0 00.71-.711c0-3.75-1.082-5.698-1.128-5.779a.71.71 0 00-1.238.7c.017.032.945 1.756.945 5.079a.71.71 0 00.71.71m5.766 4.315a.951.951 0 001.902 0l.02-7.798c-1.922 0-1.922 2.164-1.922 2.164v5.634zm-.408 0a.951.951 0 01-1.902 0l-.02-7.798c1.922 0 1.922 2.164 1.922 2.164v5.634z" fill="#FEFEFE"/><path d="M29.619 31.939a.79.79 0 01-.79-.79c0-4.166 1.202-6.329 1.253-6.419a.79.79 0 011.376.777c-.02.035-1.05 1.95-1.05 5.642a.79.79 0 01-.79.79m4.889-9.609a1.665 1.665 0 11-3.31.35 1.665 1.665 0 013.31-.35" fill="#FEFEFE"/><path d="M30.715 24.33v4.692a2.126 2.126 0 004.252 0V24.33h-4.252z" fill="#FEFEFE"/><path d="M36.017 31.939a.79.79 0 00.79-.79c0-4.166-1.203-6.329-1.253-6.419a.791.791 0 00-1.376.777c.019.035 1.049 1.95 1.049 5.642 0 .436.353.79.79.79" fill="#FEFEFE"/></g></svg>