<svg width="48" height="48" xmlns="http://www.w3.org/2000/svg"><g fill="none" fill-rule="evenodd"><path d="M43.032 48H4.968A4.968 4.968 0 010 43.032V4.968A4.968 4.968 0 014.968 0h38.064A4.968 4.968 0 0148 4.968v38.064A4.968 4.968 0 0143.032 48" fill="#533379"/><path fill="#FEFEFE" d="M12.754 45.881h22.769v-11.57h-22.77z"/><path d="M35.138 45.939c-.366-1.881-.8-3.324-1.286-4.17H13.184c-.155 0-.311-.007-.466-.025-3.1-.345-7.161-1.033-10.622-2.406 0-3.365-.065-15.503-.065-19.758a48.189 48.189 0 013.983-3.277 4.229 4.229 0 115.004 6.82c-3.283 2.418-6.54 5.78-7.433 7.577 1.656.988 5.965 2.156 9.84 2.61h22.097c.667 0 1.325.159 1.92.462 3.242 1.652 5.139 6.22 6.205 11.82-1.324.372-4.75.347-8.51.347" fill="#FEFEFE"/><path d="M32.782 22.427a39.426 39.426 0 00-17.288 0c-.293.066-.556.04-.799-.028 0 .025-.003.048-.003.072 0 5.218 4.225 9.45 9.446 9.45 5.217 0 9.446-4.232 9.446-9.45 0-.024-.003-.047-.003-.072a1.593 1.593 0 01-.799.028" fill="#FEFEFE"/><path d="M24.138 20.622c2.965 0 5.935.33 8.829.98a.922.922 0 00.216.026c.112 0 .267-.023.374-.131.116-.116.14-.29.14-.416 0-.36-.214-.771-.56-1.076a.845.845 0 01.255-1.424c.212-.08.305-.229.305-.479 0-.357-.214-.77-.56-1.075a.847.847 0 01.257-1.422c.21-.08.303-.23.303-.479 0-.603-.525-1.27-1.101-1.4a38.824 38.824 0 00-16.917 0c-.576.13-1.101.796-1.101 1.4 0 .25.094.399.303.48a.845.845 0 01.256 1.421c-.345.305-.56.718-.56 1.075 0 .25.095.4.306.48a.847.847 0 01.255 1.424c-.346.303-.56.715-.56 1.075 0 .43.284.617.73.52a40.343 40.343 0 018.83-.979m9.045 2.697a2.64 2.64 0 01-.586-.066 38.783 38.783 0 00-16.918 0c-1.506.341-2.792-.68-2.792-2.172 0-.534.169-1.084.476-1.572-.307-.378-.476-.861-.476-1.407 0-.534.169-1.08.475-1.57-.307-.378-.475-.861-.475-1.405 0-1.407 1.063-2.747 2.422-3.05a40.432 40.432 0 0117.658 0c1.357.303 2.42 1.643 2.42 3.05 0 .543-.167 1.027-.473 1.405.304.49.474 1.037.474 1.57a2.2 2.2 0 01-.476 1.407c.306.488.476 1.038.476 1.572 0 .63-.226 1.201-.634 1.611-.403.404-.961.627-1.571.627M18.322 10.054a.844.844 0 01-.846-.846c0-.3-.098-.61-.211-.966-.134-.43-.288-.915-.288-1.477 0-.677.349-1.23.629-1.674.181-.287.368-.583.368-.771 0-.302-.097-.61-.21-.968-.135-.427-.288-.914-.288-1.477h1.692c0 .303.097.612.209.969.135.428.288.914.288 1.476 0 .676-.348 1.23-.628 1.674-.181.287-.368.583-.368.77 0 .302.097.61.21.967.135.429.289.915.289 1.477a.845.845 0 01-.846.846m5.908-.589a.845.845 0 01-.846-.846c0-.301-.097-.61-.21-.966-.135-.43-.289-.915-.289-1.477 0-.676.35-1.23.63-1.674.18-.287.367-.583.367-.771 0-.303-.098-.611-.21-.97a6.94 6.94 0 01-.229-.853c.577 0 1.307.018 1.743.018.03.106.064.215.1.329.134.428.287.914.287 1.476 0 .676-.348 1.229-.628 1.673-.18.287-.368.584-.368.772 0 .302.097.61.21.966.135.429.29.915.29 1.477a.846.846 0 01-.847.846m5.908.589a.844.844 0 01-.845-.846c0-.3-.098-.61-.211-.966-.134-.43-.29-.916-.29-1.477 0-.677.35-1.23.63-1.674.182-.287.368-.583.368-.771 0-.302-.097-.61-.21-.968-.135-.427-.287-.914-.287-1.477h1.69c0 .302.099.612.21.969.136.428.289.914.289 1.476 0 .676-.348 1.23-.63 1.674-.18.287-.367.583-.367.77 0 .302.098.61.21.967.135.429.289.915.289 1.477a.844.844 0 01-.846.846" fill="#FEFEFE"/></g></svg>