<svg width="48" height="48" xmlns="http://www.w3.org/2000/svg"><g fill="none" fill-rule="evenodd"><path d="M42.871 47.594H5.13a4.925 4.925 0 01-4.925-4.926V4.926A4.925 4.925 0 015.13 0h37.74a4.925 4.925 0 014.926 4.926v37.742a4.925 4.925 0 01-4.925 4.926" fill="#533379"/><path d="M43.785 25.108a.513.513 0 000-1.025h-2.93c-.191 0-1.515-.018-2.173.613a1.219 1.219 0 00-.386.896.5.5 0 00.998.001c0-.074.023-.11.08-.166.262-.253 1.011-.319 1.456-.319h.674v1.197h-1.215c-.367 0-.665.32-.665.684 0 .366.298.684.665.684h3.496c.368 0 .665-.318.665-.684a.683.683 0 00-.666-.684h-.904v-1.197h.904zm-6.822 4.815v9.67a1.95 1.95 0 001.957 1.945h6.352a1.95 1.95 0 001.957-1.945v-9.67a1.95 1.95 0 00-1.957-1.945H38.92a1.95 1.95 0 00-1.957 1.945zm1.172 0a.78.78 0 01.785-.772h6.352c.433 0 .784.346.784.772v9.67a.778.778 0 01-.784.772H38.92a.78.78 0 01-.785-.772v-9.67zM35.572 9.22h3.64c1.652 0 1.297 1.482 1.297 1.482v2.088h3.337V8.01h-9.558c.106 1.02 1.284 1.21 1.284 1.21M23.599 20.38h3.27v-.765H23.6zm4.833-7.011c-3.117 0-4.38 2.123-4.611 3.256l-.03.124v2.293h2.952v-1.924c.034-.076.102-.183.205-.303.304-.355.803-.513 1.484-.513H48v-2.933H28.432zm-3.298 11.986c.852 0 1.546-.71 1.546-1.58 0-.778-1.174-2.507-1.308-2.702l-.238-.346-.238.346c-.013.019-.324.472-.642 1.022-.448.78-.666 1.329-.666 1.68 0 .87.693 1.58 1.546 1.58m-2.433 16.016a4.084 4.084 0 003.873-2.769 4.052 4.052 0 00-2.573-5.136l-.78-.274a1.673 1.673 0 00.988-2.142 1.689 1.689 0 00-2.163-1.004l-3.56 1.286a1.83 1.83 0 00-.25.113L0 25.433v9.341l21.4 6.386c.43.142.871.211 1.301.211" fill="#FEFEFE"/><path d="M18.192 30.532l3.56-1.286a2.554 2.554 0 013.263 1.513 2.52 2.52 0 01-.188 2.121c.995.469 1.8 1.25 2.299 2.246.152.305.272.62.358.943a4.045 4.045 0 00-.992-5.178l-.637-.524a1.683 1.683 0 001.672-1.671 1.684 1.684 0 00-1.683-1.685l-3.786-.015a1.659 1.659 0 00-.276.022L0 9.563v10.765l9.129 7.19 9.062 3.014zm-2.987 12.42c.016.087.285 1.486 1.262 3.158h1.459c-.75-1.102-1.36-2.104-1.525-2.635H48v-1.162H15.098l.107.639z" fill="#FEFEFE"/></g></svg>