<svg width="32" height="24" xmlns="http://www.w3.org/2000/svg"><path d="M25.914 3l1.414 1.414L9.414 22.328 8 20.914 25.914 3zM18 18a2 2 0 01-3.1 1.67L16.572 18H18zm-.371-13.732c.992.34 1.824.97 2.413 1.777L9.086 17H9a1 1 0 01-.117-1.993L9 15h.5a4.04 4.04 0 001.485-2.767L11 12V9.12c0-1.05.324-2.14.864-2.902l.139-.183.143-.178c1.324-1.569 3.533-2.255 5.483-1.589zm3.637 9.037a4.04 4.04 0 001.057 1.543L22.5 15h.5a.992.992 0 011.003.942.993.993 0 01-.881 1.041L23 16.99l-.002-.002-.024.012h-5.403l3.695-3.695z" fill="currentColor"/></svg>