<svg xmlns="http://www.w3.org/2000/svg" viewBox="0 0 32 24"><defs/><path fill="currentColor" fill-rule="evenodd" d="M13.63 19.34c.73 0 1.32.6 1.32 1.33 0 .73-.6 1.33-1.32 1.33-.73 0-1.31-.6-1.31-1.33 0-.74.58-1.33 1.31-1.33zm4.74 0c.73 0 1.31.6 1.31 1.33 0 .73-.58 1.33-1.31 1.33-.73 0-1.32-.6-1.32-1.33 0-.74.6-1.33 1.32-1.33zM9.95 17.2c.72 0 1.31.6 1.31 1.33 0 .74-.59 1.33-1.31 1.33-.73 0-1.32-.6-1.32-1.33 0-.73.6-1.33 1.32-1.33zm12.1 0c.73 0 1.32.6 1.32 1.33 0 .74-.6 1.33-1.32 1.33-.72 0-1.31-.6-1.31-1.33 0-.73.59-1.33 1.31-1.33zM16 6.21c3.2 0 5.79 2.62 5.79 5.86 0 3.23-2.6 5.85-5.79 5.85a5.82 5.82 0 01-5.79-5.85c0-3.24 2.6-5.86 5.79-5.86zm-8.68 6.74c.72 0 1.31.6 1.31 1.33 0 .74-.59 1.33-1.31 1.33-.73 0-1.32-.6-1.32-1.33 0-.73.59-1.33 1.32-1.33zm17.36 0c.73 0 1.32.6 1.32 1.33 0 .74-.59 1.33-1.32 1.33-.72 0-1.31-.6-1.31-1.33 0-.73.59-1.33 1.31-1.33zM7.32 8.4c.72 0 1.31.6 1.31 1.33 0 .73-.59 1.33-1.31 1.33-.73 0-1.32-.6-1.32-1.33 0-.74.59-1.33 1.32-1.33zm17.36 0c.73 0 1.32.6 1.32 1.33 0 .73-.59 1.33-1.32 1.33-.72 0-1.31-.6-1.31-1.33 0-.74.59-1.33 1.31-1.33zM9.42 4.13c.73 0 1.32.6 1.32 1.33 0 .73-.6 1.33-1.32 1.33-.73 0-1.31-.6-1.31-1.33 0-.74.58-1.33 1.31-1.33zm12.63 0c.73 0 1.32.6 1.32 1.33 0 .73-.6 1.33-1.32 1.33-.72 0-1.31-.6-1.31-1.33 0-.74.59-1.33 1.31-1.33zM13.63 2c.73 0 1.32.6 1.32 1.33 0 .74-.6 1.33-1.32 1.33-.73 0-1.31-.6-1.31-1.33 0-.73.58-1.33 1.31-1.33zm4.74 0c.73 0 1.31.6 1.31 1.33 0 .74-.58 1.33-1.31 1.33-.73 0-1.32-.6-1.32-1.33 0-.73.6-1.33 1.32-1.33z"/></svg>