<svg xmlns="http://www.w3.org/2000/svg" width="32" height="24" viewBox="0 0 32 24">
  <g fill="none" fill-rule="evenodd" transform="translate(3)">
    <path fill="#1E407B" d="M18.58,1.66 L13,12 L23.94,16.91 C24.74,12.33 24.6,9.39 23.8,7.81 C22.4585064,5.4525802 20.6880915,3.36674652 18.58,1.66 Z"/>
    <path fill="#FFF" fill-opacity=".793" d="M18.58,1.66 L13,12 L23.94,16.91 C24.74,12.33 24.6,9.39 23.8,7.81 C22.4585064,5.4525802 20.6880915,3.36674652 18.58,1.66 Z"/>
    <path fill="#579FD2" fill-rule="nonzero" d="M18.7,1.44 C22.5809563,3.53486816 25.0000408,7.58975125 25.0000408,12 C25.0044617,13.7003507 24.6429441,15.3817487 23.94,16.93 L23.94,16.93 L21.75,15.93 C23.82218,11.343378 21.9918355,5.9353437 17.56,3.55 L17.56,3.55 Z M16.409,5.676 L16.5983081,5.78273086 C19.7576078,7.63089134 21.0376884,11.57552 19.53,14.94 L19.53,14.94 L17.7,14.12 C18.8252784,11.6407151 17.8263038,8.71389461 15.42,7.44 L15.42,7.44 L16.409,5.676 Z M14.13,9.9 C14.9078476,10.3126138 15.3958219,11.1195003 15.400006,12 C15.4007631,12.3443574 15.32922,12.685039 15.19,13 L15.19,13 L13,12 Z"/>
    <path fill="currentColor" fill-rule="nonzero" d="M5.25397552,2.82420619 C9.02515078,-0.357705557 14.3596623,-0.906868909 18.7,1.44 L18.7,1.44 L17.56,3.55 C14.0914044,1.67874838 9.83111446,2.12013187 6.81981155,4.66272751 C3.80850864,7.20532315 2.65938005,11.3313859 3.92285907,15.0645291 C5.18633809,18.7976724 8.60514431,21.3777216 12.5416675,21.5688317 C16.4781907,21.7599418 20.1308423,19.5231972 21.75,15.93 L21.75,15.93 L23.94,16.91 C21.9193321,21.4114694 17.3491713,24.2172177 12.420577,23.9820927 C7.49198277,23.7469678 3.20967285,20.5189011 1.62670322,15.8455155 C0.0437335843,11.17213 1.48280027,6.00611795 5.25397552,2.82420619 Z M8.35293407,6.49574777 C10.6144006,4.58514 13.8148884,4.25356957 16.42,5.66 L16.42,5.66 L15.46,7.44 C13.57071,6.40926496 11.2424895,6.64369762 9.59661505,8.03039466 C7.95074057,9.41709171 7.32463272,11.6717664 8.01982649,13.7085622 C8.71502026,15.745358 10.588994,17.1467115 12.7392376,17.2377275 C14.8894812,17.3287435 16.8751733,16.0907629 17.74,14.12 L17.74,14.12 L19.57,14.94 C18.3593359,17.641656 15.6183268,19.3268653 12.661084,19.1876944 C9.70384133,19.0485235 7.13321151,17.113343 6.18162165,14.3099291 C5.23003179,11.5065151 6.09146752,8.40635554 8.35293407,6.49574777 Z M13,9.59999896 C13.3963996,9.59962134 13.7859881,9.70305192 14.13,9.9 L14.13,9.9 L13,12 L15.19,13 C14.6932961,14.0836614 13.476487,14.6385089 12.332626,14.3029215 C11.1887651,13.9673342 10.4645854,12.8430371 10.63207,11.662789 C10.7995546,10.4825408 11.8079346,9.60410475 13,9.59999896 Z"/>
  </g>
</svg>
