<svg xmlns="http://www.w3.org/2000/svg" viewBox="0 0 32 24"><defs/><g fill="none" fill-rule="evenodd"><path fill="currentColor" d="M21.58 1.66L16 12l10.94 4.91c.8-4.58.66-7.52-.14-9.1a21.76 21.76 0 00-5.22-6.15z"/><path fill="#FFF" fill-opacity=".79" d="M21.58 1.66L16 12l10.94 4.91c.8-4.58.66-7.52-.14-9.1a21.76 21.76 0 00-5.22-6.15z"/><path fill="currentColor" fill-rule="nonzero" d="M21.7 1.44a12 12 0 015.24 15.49l-2.19-1c2.07-4.59.24-10-4.19-12.38zm-2.3 4.24l.2.1a7.2 7.2 0 012.93 9.16l-1.83-.82a5.15 5.15 0 00-2.28-6.68l.99-1.76zM17.14 9.9a2.39 2.39 0 011.06 3.1L16 12z"/><path fill="currentColor" fill-rule="nonzero" d="M8.25 2.82A12 12 0 0121.7 1.44l-1.14 2.11a9.59 9.59 0 104.19 12.38l2.19.98A12 12 0 118.25 2.82zm3.1 3.68a7.2 7.2 0 018.07-.84l-.96 1.78a5.22 5.22 0 102.28 6.68l1.83.82A7.2 7.2 0 1111.35 6.5zM16 9.6c.4 0 .79.1 1.13.3L16 12l2.19 1A2.4 2.4 0 1116 9.6z"/></g></svg>
