<?xml version="1.0" encoding="UTF-8"?>
<svg width="32px" height="24px" viewBox="0 0 32 24" version="1.1" xmlns="http://www.w3.org/2000/svg" xmlns:xlink="http://www.w3.org/1999/xlink">
    <title>icon10</title>
    <defs>
        <path d="M16,5.32907052e-15 C15.4893853,5.32907052e-15 15.0762415,0.413143807 15.0762415,0.923758538 L15.0762415,1.08159498 C15.0762415,1.5229832 14.7666605,1.91674359 14.3297028,1.98818534 C14.119808,2.02030644 13.910467,2.06184235 13.7027875,2.10725494 C13.274137,2.2063873 12.8416097,1.96437142 12.6726971,1.55787336 L12.6123315,1.41498985 C12.4173897,0.94314196 11.8790844,0.718294259 11.4072365,0.914897545 C10.9353886,1.10983939 10.7105409,1.64869854 10.907698,2.11999262 L10.9680635,2.26952188 C11.1391914,2.67380469 11.0029537,3.156175 10.6285767,3.38766845 C10.4469263,3.5000923 10.2691527,3.6191619 10.0985785,3.74266199 C9.73915451,3.99796936 9.24404652,3.93926528 8.93225032,3.62802289 L8.82204172,3.51559904 C8.46095625,3.156175 7.87668451,3.156175 7.51559904,3.51559904 C7.156175,3.87668451 7.156175,4.46095625 7.51559904,4.82204172 L7.62802289,4.93225032 C7.93926528,5.24404652 7.99796936,5.73915451 7.74266199,6.09857855 C7.6191619,6.26915267 7.5000923,6.44692634 7.38766845,6.6285767 C7.156175,7.00295366 6.67380469,7.13919143 6.26730663,6.97027875 L6.11999262,6.90991324 C5.65035998,6.71497139 5.10762415,6.93760384 4.9126823,7.40945173 C4.71829426,7.87908436 4.94092671,8.41960495 5.4127746,8.6145468 L5.55787336,8.67269706 C5.96215618,8.84160975 6.2063873,9.27413698 6.10725494,9.70278752 C6.06184235,9.91046705 6.02030644,10.119808 5.98597009,10.3297028 C5.91674359,10.7649991 5.5229832,11.0762415 5.08159498,11.0762415 L4.92375854,11.0762415 C4.41314381,11.0762415 4,11.4893853 4,12 C4,12.5106147 4.41314381,12.9237585 4.92375854,12.9237585 L5.08159498,12.9237585 C5.5229832,12.9237585 5.91674359,13.2333395 5.98818534,13.6702972 C6.02030644,13.880192 6.06184235,14.089533 6.10725494,14.2972125 C6.2063873,14.725863 5.96437142,15.1583903 5.55787336,15.3273029 L5.41498985,15.3876685 C4.94314196,15.5826103 4.71829426,16.1209156 4.91489754,16.5927635 C5.10983939,17.0646114 5.64869854,17.2894591 6.11999262,17.092302 L6.26952188,17.0319365 C6.67601994,16.8630238 7.156175,16.9992616 7.3898837,17.3714233 C7.50230755,17.5530737 7.6191619,17.7308473 7.74266199,17.9036367 C8.0001846,18.2630607 7.94148052,18.7581687 7.63023814,19.0677497 L7.51559904,19.1801735 C7.156175,19.541259 7.156175,20.1255307 7.51559904,20.484401 C7.87668451,20.8460402 8.46095625,20.8460402 8.82204172,20.484401 L8.93446557,20.3741924 C9.24626177,20.06295 9.73915451,20.0020306 10.0985785,20.2595533 C10.2713679,20.3830534 10.4491416,20.5021229 10.6285767,20.6145468 C11.0029537,20.8460402 11.1414067,21.3284106 10.972494,21.7349086 L10.9099132,21.8800074 C10.7149714,22.3513015 10.9398191,22.8923759 11.4094517,23.0889791 C11.8807458,23.283921 12.4196049,23.0612885 12.616762,22.5894406 L12.6749123,22.4443419 C12.843825,22.0400591 13.2763522,21.7958279 13.704449,21.8927451 C13.9121285,21.9403729 14.119808,21.981355 14.331918,22.0162452 C14.7649991,22.0832564 15.0762415,22.4770168 15.0762415,22.918405 L15.0762415,23.0762415 C15.0762415,23.5868562 15.4893853,24 16,24 C16.5106147,24 16.9237585,23.5868562 16.9237585,23.0762415 L16.9237585,22.918405 C16.9237585,22.4770168 17.2333395,22.0832564 17.6702972,22.0118147 C17.880192,21.9796936 18.089533,21.9381577 18.2972125,21.8927451 C18.725863,21.7936127 19.1583903,22.0356286 19.3273029,22.4421266 L19.3876685,22.5850102 C19.5826103,23.056858 20.1209156,23.2817057 20.5927635,23.0851025 C21.0646114,22.8901606 21.2894591,22.3513015 21.092302,21.8800074 L21.0319365,21.7304781 C20.8630238,21.3239801 20.9992616,20.843825 21.3714233,20.6101163 C21.5530737,20.4976924 21.7308473,20.3808381 21.9036367,20.257338 C22.2630607,19.9998154 22.7581687,20.0585195 23.0677497,20.3697619 L23.1801735,20.484401 C23.541259,20.843825 24.1255307,20.843825 24.484401,20.484401 C24.8460402,20.1233155 24.8460402,19.5390438 24.484401,19.1779583 L24.3741924,19.0655344 C24.06295,18.7537382 24.0020306,18.2608455 24.2595533,17.9014215 C24.3830534,17.7286321 24.5021229,17.5508584 24.6145468,17.369208 C24.8460402,16.9970463 25.3284106,16.8585933 25.7349086,17.027506 L25.8800074,17.0900868 C26.3513015,17.2850286 26.8923759,17.0601809 27.0889791,16.5905483 C27.283921,16.1192542 27.0612885,15.5803951 26.5894406,15.383238 L26.4443419,15.3250877 C26.0400591,15.156175 25.7958279,14.7236478 25.8927451,14.295551 C25.9403729,14.0878715 25.981355,13.880192 26.0162452,13.668082 C26.0832564,13.2350009 26.4770168,12.9237585 26.918405,12.9237585 L27.0762415,12.9237585 C27.5868562,12.9237585 28,12.5106147 28,12 C28,11.4893853 27.5868562,11.0762415 27.0762415,11.0762415 L26.918405,11.0762415 C26.4770168,11.0762415 26.0832564,10.7666605 26.0118147,10.3297028 C25.9796936,10.119808 25.9381577,9.91046705 25.8927451,9.70278752 C25.7936127,9.27413698 26.0356286,8.84160975 26.4421266,8.67269706 L26.5850102,8.61233155 C27.056858,8.4173897 27.2817057,7.87908436 27.0851025,7.40723648 C26.8901606,6.93538859 26.3513015,6.71054089 25.8800074,6.90769799 L25.7304781,6.9680635 C25.3239801,7.13697619 24.843825,7.00073842 24.6101163,6.6285767 C24.4976924,6.44692634 24.3808381,6.26915267 24.257338,6.0963633 C23.9998154,5.73693927 24.0585195,5.24183127 24.3697619,4.93225032 L24.484401,4.81982647 C24.843825,4.458741 24.843825,3.87446926 24.484401,3.51338379 C24.1233155,3.15395976 23.5390438,3.15395976 23.1779583,3.51338379 L23.0677497,3.62802289 C22.7559535,3.93926528 22.2608455,4.0001846 21.9014215,3.74266199 C21.7286321,3.6191619 21.5508584,3.5000923 21.369208,3.38766845 C20.9970463,3.156175 20.8608086,2.67380469 21.0297212,2.26730663 L21.0900868,2.11999262 C21.2850286,1.65035998 21.0623962,1.10762415 20.5905483,0.912682296 C20.1209156,0.718294259 19.5803951,0.940926712 19.3854532,1.4127746 L19.3250877,1.55787336 C19.156175,1.96215618 18.7236478,2.2063873 18.295551,2.10725494 C18.0878715,2.06184235 17.880192,2.02030644 17.668082,1.98597009 C17.2333395,1.91674359 16.9237585,1.5229832 16.9237585,1.08159498 L16.9237585,0.923758538 C16.9237585,0.413143807 16.5106147,5.32907052e-15 16,5.32907052e-15 Z M16,4.61657744 C19.7642607,4.61657744 22.8661621,7.43548089 23.3208418,11.0762415 L17.5966402,11.0762415 C17.2676758,10.5052612 16.6579287,10.1546982 16,10.1546982 L15.9977848,10.1546982 L13.135684,5.19198819 C14.0162452,4.82204172 14.983201,4.61657744 16,4.61657744 Z M11.541259,6.12239247 L14.4033598,11.0762415 C14.2410929,11.357578 14.1546982,11.6754661 14.1546982,12 C14.1546982,12.3223186 14.2410929,12.6402068 14.4033598,12.919328 L11.5390438,17.8753923 C9.76518368,16.5257523 8.61657744,14.3991139 8.61657744,12 C8.61657744,9.59867085 9.76739893,7.47203249 11.541259,6.12239247 Z M17.5966402,12.9237585 L23.3208418,12.9237585 C22.8661621,16.5645191 19.7642607,19.3834226 16,19.3834226 C14.983201,19.3834226 14.0162452,19.1779583 13.135684,18.8080118 L15.9977848,13.8453018 L16,13.8453018 C16.6595902,13.8453018 17.2676758,13.4925235 17.5966402,12.9237585 L17.5966402,12.9237585 Z" id="path-1"></path>
    </defs>
    <g id="icon10" stroke="none" stroke-width="1" fill="none" fill-rule="evenodd">
        <mask id="mask-2" fill="white">
            <use xlink:href="#path-1"></use>
        </mask>
        <use id="Icon" fill="currentColor" xlink:href="#path-1"></use>
    </g>
</svg>