<svg xmlns="http://www.w3.org/2000/svg" viewBox="0 0 32 24"><defs/><path fill="currentColor" fill-rule="nonzero" d="M23.14 10.78a2 2 0 01-1.23-2.96c.32-.54.22-1-.1-1.32l-.3-.31c-.33-.32-.79-.42-1.33-.1a2 2 0 01-2.96-1.22c-.15-.61-.55-.87-1-.87h-.44c-.45 0-.84.26-1 .87a2 2 0 01-2.96 1.22c-.54-.32-1-.22-1.32.1l-.31.3c-.32.33-.42.79-.1 1.33a2 2 0 01-1.22 2.96c-.61.16-.87.55-.87 1v.44c0 .45.26.84.87 1a2 2 0 011.23 2.96c-.33.54-.23 1 .09 1.32l.3.31c.33.32.8.42 1.32.1a2 2 0 012.97 1.23c.16.6.55.86 1 .86h.44c.45 0 .84-.26 1-.86a2 2 0 012.96-1.23c.54.32 1 .22 1.32-.1l.31-.3c.32-.33.42-.79.1-1.33a2 2 0 011.23-2.96c.6-.16.86-.55.86-1v-.44c0-.45-.26-.84-.86-1zM16 15a3 3 0 110-6 3 3 0 010 6z"/></svg>