<svg xmlns="http://www.w3.org/2000/svg" width="32" height="24" viewBox="0 0 32 24">
  <path fill="currentColor" fill-rule="evenodd" d="M9,11 C9.55228475,11 10,11.4477153 10,12 L10,19 C10,19.5522847 9.55228475,20 9,20 L7,20 C6.44771525,20 6,19.5522847 6,19 L6,12 C6,11.4477153 6.44771525,11 7,11 L9,11 Z M17,4 C17.5522847,4 18,4.44771525 18,5 L18,19 C18,19.5522847 17.5522847,20 17,20 L15,20 C14.4477153,20 14,19.5522847 14,19 L14,5 C14,4.44771525 14.4477153,4 15,4 L17,4 Z M25,9 C25.5522847,9 26,9.44771525 26,10 L26,19 C26,19.5522847 25.5522847,20 25,20 L23,20 C22.4477153,20 22,19.5522847 22,19 L22,10 C22,9.44771525 22.4477153,9 23,9 L25,9 Z"/>
</svg>
