<svg viewBox="0 0 56 56" xmlns="http://www.w3.org/2000/svg"><g fill="none" fill-rule="evenodd"><circle fill="#50C523" opacity=".12" cx="28" cy="28" r="28"/><circle fill="#50C523" cx="28" cy="28" r="21"/><path d="M31.688 30.588l-1.793 2.238a18.922 18.922 0 01-6.724-6.72l2.242-1.793c.54-.432.72-1.175.44-1.807l-2.043-4.6a1.524 1.524 0 00-1.776-.857l-3.89 1.009a1.532 1.532 0 00-1.13 1.692A22.597 22.597 0 0036.25 38.986a1.531 1.531 0 001.692-1.13l1.01-3.89a1.526 1.526 0 00-.857-1.776l-4.6-2.043a1.523 1.523 0 00-1.807.44z" fill="#FFF" fill-rule="nonzero"/></g></svg>