<svg xmlns="http://www.w3.org/2000/svg" width="57" height="56"><g fill="none" fill-rule="evenodd" transform="translate(.5)"><circle cx="28" cy="28" r="28" fill="#FED7E2"/><path fill="#C91E78" d="M27.118 26.049a2.25 2.25 0 10-2.25-3.899 2.25 2.25 0 002.25 3.899m8.054 1.562a1.384 1.384 0 10-1.383-2.398 1.384 1.384 0 001.383 2.398M25.13 31.986a1.5 1.5 0 101.502 2.598 1.5 1.5 0 00-1.502-2.598m-2.38-13.08c5.015-2.897 11.45-1.172 14.346 3.843 2.896 5.015 1.17 11.45-3.844 14.346-5.015 2.896-11.45 1.17-14.346-3.844-2.896-5.015-1.171-11.45 3.844-14.346M10.001 32.336l.001.02v.032l.002.018a.45.45 0 00.003.04l.01.084a2.932 2.932 0 00.028.154 2.207 2.207 0 00.09.315c.009.024.018.05.028.073l.014.032c.003.01.007.017.011.026l.006.013.028.059.038.071a1.328 1.328 0 00.13.18l.006.006a.392.392 0 00.084.067c.02.012.04.021.06.026a.173.173 0 00.1.002l.004-.002.027-.006a.71.71 0 00.115-.049.587.587 0 00.14-.1.314.314 0 00.07-.1l.003-.01a.342.342 0 01.072-.098l.016-.016a1.554 1.554 0 01.129-.103l.027-.02.054-.037.062-.037.03-.018.033-.019a.828.828 0 01.097-.052l.006-.003c.05-.026.1-.05.148-.072.041-.02.08-.036.117-.052.014-.005.029-.01.043-.017l.009-.002a.043.043 0 01.01-.005l.006-.002a.028.028 0 01.006-.003l.053-.02.01-.005.037-.013.016-.006a.057.057 0 00.01-.004l.048-.018a.13.13 0 01.018-.006l.042-.015a.907.907 0 00.028-.01l.047-.016.02-.007.015-.005.026-.01.118-.037.03-.01.01-.003a.375.375 0 00.023-.008l.045-.014.031-.01a.862.862 0 01.05-.016l.027-.007.053-.017.015-.005.014-.004c.015-.003.032-.009.049-.014h.004c.005-.003.011-.005.016-.006l.01-.002c.016-.006.032-.01.048-.014l.033-.01.055-.018.035-.008.051-.015.024-.007.058-.016.026-.007.027-.007.032-.01a.54.54 0 00.026-.006l.288-.075a.214.214 0 01.032-.008l.106-.028.065-.015h.004c.005-.003.01-.003.016-.005l.063-.016c.008 0 .015-.003.02-.004l.03-.007a.6.6 0 00.039-.009l.016-.005.068-.015.033-.007.05-.012.016-.003.065-.014.015-.004.062-.014.018-.002.025-.006.03-.007.058-.01.258-.051.023-.005c.013 0 .026-.004.037-.005.006-.001.011-.003.017-.003l.01-.002.061-.01.036-.006.033-.006.042-.006.037-.005.043-.005.021-.003.04-.005.018.005.014-.008.058-.006a.19.19 0 01.026-.002l.02-.001.007-.001h.005l.015.028.054-.032h.006l.025.003c.012.025.035.075.07.168l.004.01c.086.278.215.625.373 1 .1.243.208.486.323.722a7.855 7.855 0 00.227.46c.033.067.055.12.068.154-.007.005-1.257.569-1.417.634-.427-.507-.942-.711-1.294-.509-.44.255-.447 1.044-.013 1.794.433.751 1.119 1.14 1.559.886.332-.192.423-.71.234-1.298.048-.04 1.244-.946 1.258-.953l.025.033c.127.214.333.515.579.846.311.427.638.833.896 1.112l.002.003.014.015c.06.076.089.118.103.14l-.026.04a2.3 2.3 0 01-.087.13c-.038.052-.083.11-.132.173l-.058.071-.087.103h.002l-.126.148-.031.035-.002.003a.157.157 0 00-.018.02l-.031.035-.017.018-.019.023-.016.016c0 .002-.003.003-.004.005l-.03.032-.028.032a.178.178 0 00-.014.016c-.01.009-.018.019-.027.03l-.048.05a.109.109 0 01-.014.015l-.081.088c-.01.008-.017.018-.028.029l-.021.021-.027.03-.027.027a.738.738 0 00-.02.021l-.032.033-.028.03-.079.08-.011.011-.072.073c0 .001 0 .002-.003.003l-.078.08-.04.038-.047.047-.031.03-.008.008-.034.033-.006.006-.026.026-.006.004c0 .002-.003.004-.005.006l-.041.04a.092.092 0 00-.014.013l-.155.147-.02.017a1.226 1.226 0 01-.054.05l-.012.012-.011.01a.193.193 0 01-.017.015l-.012.012-.028.025-.02.02-.012.009-.02.019-.023.02-.032.03-.016.013-.03.027-.012.01-.058.05c-.005.005-.01.01-.015.013l-.009.007a.268.268 0 00-.018.017l-.03.024-.012.011a.078.078 0 01-.007.006l-.087.072-.021.017-.01.009c-.004.001-.005.004-.01.006l-.023.02a.331.331 0 00-.024.018l-.039.03-.051.039-.005.004-.07.05c-.045.031-.09.063-.135.091l-.065.042a1.789 1.789 0 01-.064.036c-.17.098-.315.155-.412.164a.123.123 0 01-.05-.003.17.17 0 00-.073-.005l-.018.002a.573.573 0 00-.06.016l-.007.002-.026.011a.564.564 0 00-.123.07l-.025.017-.007.007-.034.028c-.003.001-.005.004-.008.008l-.01.008s-.003.002-.003.004l-.026.016-.004.017a.208.208 0 00-.035.12.28.28 0 00.005.061l.001.011.004.014.003.014.005.02a.44.44 0 00.018.053l.022.055.027.054.016.028.033.055.017.027.002.002.02.03c.013.02.026.04.042.06a2.433 2.433 0 00.268.295c.043.04.082.075.121.106.02.017.04.032.06.047a1.43 1.43 0 00.231.143l.01.006.038.016.004.002.009.003.044.017.03.01.027.005a.322.322 0 00.136.005l.013-.003a.204.204 0 00.041-.017.153.153 0 00.033-.023l.022-.01.003-.014c.01-.01.02-.02.028-.031l.007-.01.004-.004a.171.171 0 00.013-.018.602.602 0 00.101-.2.326.326 0 00.013-.095l-.001-.012a.12.12 0 00-.003-.022v-.003c0-.004-.002-.01-.002-.022v-.013l.002-.024.003-.019.005-.023.005-.019.009-.033.001-.005c.003-.005.004-.012.007-.02.004-.012.01-.023.013-.037l.004-.006a.955.955 0 01.015-.04l.007-.016.01-.02.027-.06.028-.054c.004-.005.007-.011.01-.02l.004-.006.006-.011c.01-.015.018-.03.026-.047l.023-.037a3.421 3.421 0 01.22-.32l.033-.043a.027.027 0 01.006-.007l.045-.057a.083.083 0 01.007-.01l.01-.012.015-.017.004-.005.014-.017.025-.03a.03.03 0 00.005-.006l.015-.018c.01-.01.019-.021.026-.03l.007-.008.015-.017.033-.038c.003-.006.01-.011.014-.017l.02-.023.005-.004.008-.01a1.315 1.315 0 01.046-.053l.022-.024.023-.025.062-.068.012-.013.043-.046.024-.026a1.745 1.745 0 01.058-.06c.006-.009.013-.016.02-.024l.035-.036c.012-.014.025-.026.04-.041a.334.334 0 01.02-.02l.1-.105c.005-.006.011-.013.02-.02l.122-.125c.008-.006.016-.015.024-.024l.028-.028.01-.01.045-.044.065-.064.015-.015.125-.12c.01-.01.019-.02.028-.027l.037-.036.046-.045.017-.015.05-.047.06-.056.01-.01.12-.11.008-.007.018-.017c.01-.009.02-.017.03-.028a.08.08 0 00.012-.01l.055-.048h.001l.032-.028c.07-.063.133-.118.191-.168l.055-.046a.171.171 0 00.018-.015l.048-.039.027-.023c.005-.003.01-.008.016-.01l.018-.016a.896.896 0 01.027-.022l.08-.062.043-.03.005-.005.007-.005.003-.003.022-.016.014-.009.006-.005h.001l.005-.004.04-.028.01-.007.038-.023.02-.012.004-.003a.265.265 0 01.022-.01c.033.022.085.06.146.108l.007.009c.212.196.496.431.824.68.208.16.425.317.64.464a7.8 7.8 0 00.408.272l.01.005.01.007c.062.043.108.076.135.1l-.016.03-.105.178v.001a1.303 1.303 0 01-.023.037l-.274.346c-.145.182-.294.368-.403.51-.615-.222-1.174-.14-1.373.207-.127.217-.098.502.08.802.167.286.453.554.804.757.35.202.727.315 1.058.319.348.003.609-.115.735-.332.19-.332.012-.826-.446-1.241l.07-.194c.106-.297.252-.703.392-1.004l.021-.037.004-.006a.766.766 0 01.037-.057l.037.016c.22.123.552.282.938.448.485.216.955.397 1.319.51l.021.007c.09.036.137.059.16.07l-.002.048a2.367 2.367 0 01-.014.182l-.023.19-.016.09-.012.072-.018.112a.75.75 0 00-.01.047l-.008.046-.003.015-.006.033-.005.022-.005.025-.02.098-.01.046-.001.005-.001.007-.042.186-.005.023-.007.033-.007.028-.002.013-.007.028v.003a.271.271 0 00-.008.034l-.027.109-.009.034a.135.135 0 01-.007.028l-.053.21a1.11 1.11 0 01-.012.048l-.042.16-.007.023-.063.228-.012.044-.006.018-.004.012-.006.022-.005.02-.014.048a.117.117 0 00-.006.02l-.004.013-.01.03c0 .003 0 .005-.003.01l-.016.055-.05.158a.048.048 0 01-.002.011l-.002.004c0 .005-.002.01-.003.013l-.054.16-.005.021-.011.032-.02.06a.13.13 0 00-.008.023l-.005.01-.003.011-.091.248c0 .002-.003.005-.003.008l-.005.013-.021.052-.002.004-.005.012c0 .005-.003.009-.005.014l-.03.071c-.035.08-.072.156-.108.227a2.047 2.047 0 01-.247.384c-.084.098-.132.116-.144.118a.156.156 0 00-.05.02l-.003.003a.207.207 0 00-.04.03.514.514 0 00-.076.094c-.008.01-.015.024-.023.038a.753.753 0 00-.06.136c-.005.01-.008.022-.01.03l-.002.01v.005a.206.206 0 00.02.132l.006.01a.625.625 0 00.221.204c.012.01.026.017.043.026a1.877 1.877 0 00.463.184l.122.029.073.013a2.51 2.51 0 00.184.024h.007l.013.001c.003 0 .005 0 .007.002h.015l.056.002h.023l.024.001a1.04 1.04 0 00.176-.017l.023-.007.014-.003.015-.004a.077.077 0 00.019-.007.26.26 0 00.142-.103.185.185 0 00.021-.05.92.92 0 00.017-.089l.004-.025v-.017c.002-.013.002-.027.003-.04l-.001-.041a.488.488 0 00-.035-.165.23.23 0 00-.035-.059l-.008-.01-.008-.011a.418.418 0 01-.05-.142 1.878 1.878 0 01-.03-.385l.002-.076c.003-.078.01-.16.019-.248.002-.027.005-.055.01-.083v-.01c.003-.02.005-.038.009-.056l.002-.016.002-.014.001-.007.01-.062.007-.04.01-.063.002-.005c0-.002 0-.005.002-.008v-.007l.014-.07a.18.18 0 01.005-.025v-.007l.017-.082.005-.023.015-.075.002-.008a.199.199 0 00.005-.025l.016-.072v-.004c.003-.008.005-.015.005-.02l.001-.003c0-.005.001-.01.003-.014l.028-.122.01-.042.042-.177.007-.024.001-.006.012-.048v-.003l.014-.052.048-.186v-.005c.001-.002.003-.005.003-.01l.006-.018.01-.039.005-.02.019-.067.003-.015.02-.072.004-.012.005-.016.015-.053.007-.028.01-.032a.32.32 0 01.008-.03l.007-.022.012-.043.007-.023c0-.004.002-.008.004-.013l.025-.087.013-.043.008-.025a.05.05 0 01.004-.013l.051-.166.02-.062.024-.077c.003-.006.004-.012.005-.016l.013-.04h.002l.023-.069c.022-.069.047-.142.075-.22l.045-.027-.023-.037.008-.02.017-.047a.531.531 0 01.01-.027l.005-.012c0-.001 0-.003.002-.005l.072-.183.01-.022.013-.029c.005-.014.01-.026.018-.041l.01-.024.02-.04.001-.004a.082.082 0 00.005-.01l.006-.012c.008-.015.014-.03.022-.043l.013-.024a.308.308 0 00.014-.02c.036.002.096.009.18.022l.012.003c.282.064.646.125 1.053.176a14.051 14.051 0 001.277.113c.004.002.008.002.013.002h.01c.074.005.13.012.166.018v.134l-.003.103.003-.002v.051l-.07.463c-.033.22-.068.446-.091.615-.652.117-1.086.461-1.086.867 0 .252.167.485.47.656.289.162.671.252 1.076.252s.787-.09 1.076-.252c.302-.171.47-.404.47-.656 0-.383-.401-.72-1.006-.85l-.037-.206a12.763 12.763 0 01-.163-1.062l.002-.051c0-.03 0-.051.002-.068l.041-.005c.252-.003.62-.031 1.035-.08a12.533 12.533 0 001.398-.218l.023-.004c.075-.012.137-.019.173-.02l.022.043c.02.038.044.084.069.14.025.057.054.125.083.2l.008.018.025.068.014.04h.002l.001.004.002.004.016.043.009.024.008.022c.004.013.01.024.013.036l.047.136.01.026.006.019.015.045.016.05.013.04.005.015.013.042.014.043c.003.006.004.013.006.02l.002.004.01.033a.486.486 0 01.012.039l.002.003.005.019.002.003a.448.448 0 00.01.036l.021.07.008.026.002.007.01.034.052.176.011.04.005.02.027.094a.028.028 0 01.002.007l.003.011.012.042c.005.017.01.034.013.05l.002.004a.766.766 0 00.014.054l.014.052.068.26c0 .003 0 .006.002.009l.04.165a.089.089 0 00.004.015l.008.032.005.024.01.046.008.032.03.133a.02.02 0 01.001.006l.01.043.004.021.017.077.004.02v.003l.004.017c.002.005.003.01.003.017l.009.041.003.017.003.016a.128.128 0 01.004.023l.018.094.006.028.002.01.002.012v.003l.006.032.005.032.006.033c0 .007.002.016.004.021l.006.043.002.01.006.045.005.032.003.024.001.01.007.06v.006a2.852 2.852 0 01.011.633l-.001.016-.001.004a.981.981 0 01-.028.133l-.006.016a.21.21 0 01-.014.034.16.16 0 01-.027.045.18.18 0 00-.046.069l-.008.022a.616.616 0 00-.015.242l.003.024a.614.614 0 00.015.077l.004.016.003.005c.01.028.029.052.052.074l.012.01a.303.303 0 00.07.04l.007.003.034.011.007.003.048.012.03.005.057.007.06.004h.032c.037.001.08 0 .126-.004h.007c.006 0 .012 0 .014-.002a1.906 1.906 0 00.371-.067 2.6 2.6 0 00.197-.06l.04-.016c.022-.01.045-.017.066-.027.032-.014.066-.029.098-.046l.032-.016.037-.021c.046-.026.086-.053.124-.082l.01-.009.014-.01.042-.038c.01-.012.022-.023.033-.037a.311.311 0 00.045-.07l.004-.004.008-.032a.171.171 0 00.004-.089v-.013l-.005-.007a.538.538 0 00-.028-.079l-.014-.03a.674.674 0 00-.058-.1l-.002-.004a.394.394 0 00-.146-.129L33.287 45c-.007-.001-.015-.005-.028-.012a.651.651 0 01-.045-.035l-.025-.024-.019-.02a.754.754 0 01-.062-.073l-.004-.006-.033-.044-.021-.03c-.013-.016-.024-.034-.036-.053l-.037-.06-.038-.066-.036-.065a3.187 3.187 0 01-.143-.304l-.02-.05-.004-.01-.003-.007-.003-.005-.023-.062a.119.119 0 00-.008-.021l-.01-.024-.007-.02-.01-.029-.004-.01-.024-.068a.907.907 0 00-.01-.028l-.013-.038-.002-.008-.009-.023-.012-.04-.003-.005-.009-.028-.014-.044c-.004-.01-.006-.02-.01-.027l-.002-.009-.01-.033-.002-.003v-.004l-.01-.026-.072-.237-.009-.026-.006-.02-.008-.03-.025-.084a1.672 1.672 0 01-.016-.055l-.008-.026-.015-.055a.229.229 0 00-.009-.03l-.022-.083-.016-.058v-.004l-.007-.022-.046-.17-.016-.065-.006-.022-.016-.063-.027-.112a.815.815 0 01-.015-.06l-.001-.003a.158.158 0 01-.004-.015l-.015-.064-.005-.021-.016-.064c0-.006-.003-.013-.004-.02l-.005-.023-.01-.044-.019-.083-.001-.004a.02.02 0 01-.002-.008l-.036-.165-.011-.055-.012-.059-.05-.257-.003-.014a.675.675 0 00-.004-.028l-.018-.109-.006-.031-.005-.037-.007-.04-.005-.036-.005-.042v-.005a.062.062 0 01-.002-.014v-.005a.5.5 0 01-.006-.038l.005-.019-.009-.014-.003-.037-.001-.008V40.99c-.001-.009-.001-.018-.003-.026l-.002-.02v-.007l-.081.005.081-.011-.002-.045V40.856l.001-.025c.026-.013.075-.035.167-.07l.01-.004a11.63 11.63 0 001.002-.373c.242-.1.485-.208.721-.323.176-.08.328-.156.44-.217l.021-.01c.067-.033.119-.055.153-.069l.017.027.081.142.002-.002c.013.028.027.054.042.083.05.126.834 1.53.894 1.683.082.209.166.424.232.584-.507.426-.711.942-.507 1.293.254.441 1.041.447 1.792.014.75-.434 1.14-1.119.885-1.56-.191-.331-.708-.424-1.297-.233l-.135-.161c-.203-.238-1.205-1.82-1.395-2.091l-.026-.046-.03-.058c.008-.008.019-.016.032-.026.214-.127.515-.333.847-.58.435-.316.83-.634 1.11-.895l.02-.016a1.88 1.88 0 01.14-.102l.04.026c.04.024.084.054.129.087.05.036.11.081.173.131l.072.058.098.083v-.002l.009.007.035.03.027.024.022.017.022.021.038.033.037.032.021.018.017.014a.185.185 0 00.02.018l.052.048.003.003.004.002.033.031.032.029.008.008.087.08.027.025.028.026.023.022.042.038a.109.109 0 00.011.012l.055.051.026.026.083.08.01.01.004.003.029.028.037.036a.076.076 0 01.01.01l.073.072.002.002.041.042.021.02.142.145c.01.01.02.022.034.033l.03.033.004.003a.07.07 0 00.007.007c.007.007.012.014.02.02l.052.054.013.015.028.03.032.033.017.019.003.002a.228.228 0 01.025.028l.08.084c.006.007.012.015.019.02l.016.019a.038.038 0 00.01.01l.034.038a.214.214 0 00.025.026l.012.015.023.026.034.038.01.01.022.027.002.003c.005.004.009.007.014.014l.002.003a.023.023 0 01.005.006l.052.06.008.01.042.047.01.013.007.009.072.086a.33.33 0 00.018.022l.022.028.011.014.018.024.031.039.04.051.002.004c.085.116.16.228.22.336a1.72 1.72 0 01.09.174c.025.054.044.104.056.147l.01.04.006.034.003.03c0 .019-.002.03-.003.036a.214.214 0 00-.002.106l.007.025c.01.031.024.065.043.1l.015.027c.03.05.066.098.104.136l.005.01.01.006.013.012.005.002c.02.015.044.024.07.03l.02.002a.142.142 0 00.03.003h.022c.01 0 .02-.003.032-.004.014-.001.028-.004.043-.007a.822.822 0 00.073-.023l.022-.01.008-.002c.052-.021.107-.051.165-.087l.007-.005a.637.637 0 00.05-.034l.006-.003a2.283 2.283 0 00.264-.218l.03-.03c.037-.037.075-.077.112-.12l.052-.06c.015-.022.03-.041.046-.061l.006-.008a.344.344 0 01.015-.022l.021-.029.04-.06.005-.01a.144.144 0 00.01-.018c.005-.006.008-.012.012-.02l.016-.027.014-.025.01-.025.008-.015c.003-.007.006-.016.01-.022v-.002l.004-.008.016-.042.01-.032.005-.025a.325.325 0 00.01-.103v-.004l-.002-.013-.001-.01c-.002-.01-.003-.018-.007-.028a.18.18 0 00-.037-.068l-.013-.022-.012-.004-.031-.027-.01-.007-.005-.004a.498.498 0 00-.322-.127l-.025.004h-.003c-.005.002-.014.002-.017.003h-.02a.539.539 0 01-.152-.037l-.025-.01a.585.585 0 00-.038-.015l-.003-.002A.604.604 0 0140.78 40l-.057-.027-.092-.047-.021-.013-.022-.012-.014-.008-.027-.017c-.01-.006-.02-.01-.03-.017a3.862 3.862 0 01-.29-.201l-.074-.058c-.006-.004-.01-.009-.016-.012-.003-.004-.006-.007-.01-.009a.404.404 0 00-.045-.037l-.01-.009c-.004-.002-.006-.005-.01-.009l-.031-.025-.005-.004-.005-.004c-.004-.003-.007-.007-.01-.008l-.02-.017-.017-.014-.064-.057-.014-.011a.52.52 0 00-.027-.024l-.029-.026-.022-.019-.018-.017-.018-.015-.038-.035-.022-.02-.039-.035a.569.569 0 00-.02-.02l-.181-.168-.042-.041-.019-.017-.062-.062c-.015-.012-.029-.026-.043-.04l-.019-.019-.108-.107-.016-.016a.518.518 0 01-.026-.025l-.081-.083c-.004-.003-.008-.005-.01-.01l-.008-.007-.046-.047-.016-.016c-.015-.016-.03-.03-.047-.05a.048.048 0 01-.013-.013l-.108-.11-.013-.014-.027-.03-.034-.035c-.013-.014-.026-.026-.037-.04l-.03-.031a.938.938 0 01-.04-.042l-.01-.012a4.466 4.466 0 01-.047-.051l-.01-.01-.1-.11a.05.05 0 00-.013-.014l-.04-.045-.006-.007.001-.002-.03-.032-.167-.192-.014-.017a.533.533 0 01-.031-.036l-.016-.02a1.117 1.117 0 01-.041-.05l-.055-.068-.014-.017-.068-.088-.026-.035-.004-.006-.005-.007-.003-.004-.016-.022-.01-.012c0-.003-.002-.005-.005-.008l-.003-.005-.028-.04-.002-.005-.003-.006c-.01-.011-.016-.023-.026-.037l-.011-.02-.003-.003a.425.425 0 01-.01-.023c.021-.033.06-.085.108-.145l.01-.008c.195-.212.43-.497.679-.824.16-.207.316-.423.464-.641.112-.158.206-.299.274-.41l.01-.017c.042-.062.076-.107.1-.136l.03.017.18.105a.985.985 0 01.037.023l.346.275c.182.144.368.294.508.402-.222.615-.139 1.175.207 1.374.218.125.503.097.803-.08.285-.169.554-.454.756-.805.203-.351.317-.727.32-1.058.004-.348-.115-.61-.332-.735-.333-.192-.825-.012-1.241.446l-.194-.07a12.767 12.767 0 01-1.005-.392l-.034-.021-.007-.003a2.25 2.25 0 01-.057-.038.294.294 0 01.015-.037 11.3 11.3 0 00.449-.937c.215-.486.396-.955.51-1.323l.007-.019c.036-.089.057-.135.07-.16l.048.002c.052.003.114.007.181.014l.189.025.03.004.062.011.072.013.002-.002.02.004.043.007.023.005.024.005c.008 0 .015.002.023.003l.022.004.047.01a.58.58 0 01.048.009l.047.009.049.01.098.02.008.002.02.005.022.004.044.01.018.004a.899.899 0 00.078.017l.002.002c.01 0 .018.003.026.005l.107.024.036.01.032.007a.212.212 0 00.019.004l.052.013.037.01.028.005.043.01.026.008.018.004.017.005.045.012.043.01c.008.002.014.003.017.005l.047.012.05.012c.006.002.01.004.017.005l.133.036a.041.041 0 00.013.004l.056.014.03.01.08.022.035.01.04.011.031.009.028.008.073.022.015.003.009.003.017.006.012.003.008.003.09.028.03.008.072.023.025.007.026.01c.018.003.035.01.053.016l.015.005.01.003.03.01c.018.004.035.01.052.017l.02.007.034.01a.92.92 0 01.057.02h.002c.01.005.022.01.036.013l.004.001.026-.076-.023.077.062.023.018.006.004.002.007.002.1.037.046.018.01.003.016.006.01.005.056.022.006.002.01.004.006.003c.026.011.05.022.073.03l.13.06c.347.167.528.318.58.403a.03.03 0 00.006.007l.008.016c.001.006.004.01.004.014a.204.204 0 00.02.05l.004.005.012.016.007.009a.36.36 0 00.029.03.479.479 0 00.052.042l.002.003.008.005.014.008.025.017a.886.886 0 00.18.076l.008.002h.004a.211.211 0 00.143-.027l.005-.003a.334.334 0 00.072-.053l.037-.04a.743.743 0 00.07-.09l.033-.054.033-.058a2.093 2.093 0 00.14-.348l.024-.08.019-.08c.007-.028.012-.055.017-.08a1.99 1.99 0 00.036-.297c0-.046 0-.09-.003-.13l-.005-.06a.68.68 0 00-.01-.054.426.426 0 00-.054-.142c-.002-.005-.005-.008-.01-.012a.2.2 0 00-.06-.057c-.004-.004-.01-.007-.016-.01l-.002-.005-.034-.008a.719.719 0 00-.097-.018c-.14-.016-.265.01-.336.067h-.002a.016.016 0 01-.006.005l-.002.002a.276.276 0 01-.107.046 1.409 1.409 0 01-.217.035l-.067.004a2.769 2.769 0 01-.223.001 4.608 4.608 0 01-.331-.028 1.45 1.45 0 01-.077-.011l-.022-.004c-.021-.002-.043-.007-.067-.01l-.016-.002-.03-.006-.052-.009a.836.836 0 00-.016-.003l-.01-.001-.07-.014a3.357 3.357 0 01-.111-.022l-.024-.004a4.114 4.114 0 01-.08-.017l-.007-.002-.022-.005a5.825 5.825 0 01-.076-.015l-.019-.005-.008-.002-.025-.005-.063-.016-.014-.001-.026-.007-.064-.016-.016-.003c-.01-.002-.02-.004-.027-.007l-.089-.021c-.007-.002-.014-.003-.024-.007-.009 0-.016-.003-.027-.005l-.006-.002a.87.87 0 01-.05-.012l-.018-.005a.423.423 0 01-.034-.01l-.019-.003-.033-.009-.038-.01-.027-.007-.032-.007-.013-.004-.022-.007h-.005l-.012-.004-.018-.004-.038-.01-.021-.006-.068-.02c-.009-.001-.018-.004-.024-.006l-.17-.046a.74.74 0 00-.063-.018l-.042-.013-.045-.014a.432.432 0 00-.018-.005l-.083-.025-.058-.016-.025-.009-.064-.019-.015-.004-.046-.015-.036-.01-.033-.011-.029-.01a.348.348 0 01-.019-.006l-.078-.025-.038-.012-.07-.025a19.833 19.833 0 01-.249-.084l-.056-.021-.022-.008-.021-.007-.006-.003c-.01-.004-.021-.009-.032-.012l-.01-.005a1.362 1.362 0 01-.035-.013l-.036-.013-.014-.006a.553.553 0 01-.043-.017l-.014-.007-.02-.007-.009-.003-.024-.011-.038-.016-.04-.018a.179.179 0 00-.023-.01l-.004-.002-.01-.005-.032-.016-.01-.004-.014-.007a.963.963 0 01-.042-.021l-.023-.014a.258.258 0 01-.02-.014c.002-.039.01-.103.021-.18l.003-.01c.064-.282.126-.647.178-1.054.034-.255.062-.52.081-.787.018-.197.029-.362.031-.489l.002-.014v-.01c.005-.074.012-.13.018-.165l.035-.002h.098l.103.003v-.003l.05.003.447.065a36 36 0 00.632.094c.117.652.46 1.086.867 1.086.251 0 .483-.167.655-.47.162-.289.252-.671.252-1.077 0-.405-.09-.786-.252-1.075-.172-.303-.404-.47-.655-.47-.384 0-.721.401-.851 1.006-.062.01-.13.024-.205.036-.31.057-.732.135-1.063.163h-.05a.833.833 0 01-.068-.003l-.006-.04c-.003-.253-.031-.62-.08-1.037a12.99 12.99 0 00-.218-1.397l-.002-.003c0-.004 0-.008-.002-.012v-.007a1.627 1.627 0 01-.02-.174l.043-.022c.038-.021.084-.044.14-.069l.199-.084.017-.006.07-.027.041-.014v-.002l.004-.002.008-.002.038-.014a2.826 2.826 0 00.063-.023l.108-.038.03-.01.017-.006a.22.22 0 00.025-.01l.02-.006a.758.758 0 00.048-.016.937.937 0 00.048-.015l.02-.006a.248.248 0 01.024-.009l.01-.003.042-.014.14-.043.027-.009.277-.083a.38.38 0 00.026-.008l.052-.014c.01-.003.02-.005.032-.01l.065-.018.025-.007.017-.005.012-.003.056-.016c.016-.003.031-.008.049-.013l.162-.043.046-.012.118-.03a.503.503 0 01.045-.01l.117-.03.016-.004.02-.006a.113.113 0 00.02-.005l.017-.003a.137.137 0 01.02-.005l.012-.003.022-.006.152-.034.025-.006.013-.003.014-.002.074-.017.012-.003.088-.018.018-.004.01-.002.011-.002.039-.008a.107.107 0 00.013-.003l.04-.008c.013-.001.026-.004.037-.007l.018-.003.013-.003.027-.005.036-.006a.15.15 0 01.015-.002l.004-.002.032-.005.04-.007c.004 0 .01 0 .013-.002l.044-.008.023-.002.017.003.016-.01c.004 0 .01 0 .014-.002h.003c.01 0 .021-.002.033-.004l.029-.004.01-.001.003-.001.069-.009.13-.012c.057-.005.111-.007.161-.01h.069c.156-.002.29.01.386.033h.006a.423.423 0 01.076.026l.006.003a.229.229 0 01.036.018l.011.01c.01.01.02.02.035.029.011.007.023.012.036.017l.01.005.002.002.035.008c.02.004.04.008.061.01l.01.001h.013l.016.002H45.664l.01-.001a.76.76 0 00.128-.02h.012l.012-.008a.178.178 0 00.073-.049l.06-.034-.017-.028c.003-.003.004-.007.007-.013a.257.257 0 00.01-.028l.003-.006c.004-.007.006-.015.009-.023a.76.76 0 00.028-.197L46 23.72v-.006c0-.042 0-.088-.006-.134a2.589 2.589 0 00-.067-.384 2.764 2.764 0 00-.062-.196c-.008-.024-.018-.048-.028-.072l-.014-.034-.029-.065-.014-.028-.04-.075a1.301 1.301 0 00-.081-.123l-.017-.022-.033-.035a.376.376 0 00-.115-.086l-.004-.005-.032-.009a.183.183 0 00-.1 0h-.002a.768.768 0 00-.085.028l-.003.003-.03.013-.025.013a.579.579 0 00-.14.1l-.003.003-.014.016a.271.271 0 00-.055.091.3.3 0 01-.038.06l-.007.009a1.821 1.821 0 01-.012.013l-.013.014-.002.002c-.01.011-.022.02-.034.032-.006.006-.013.01-.018.017l-.022.017a.67.67 0 01-.044.033l-.005.005a2.506 2.506 0 01-.13.088l-.004.003-.094.055a3.087 3.087 0 01-.416.198l-.004.002-.01.003-.007.003-.003.001-.066.026-.029.01-.005.002-.01.004-.002.001-.012.005-.052.019-.017.006-.007.001a.485.485 0 01-.036.014l-.028.01-.038.012-.01.004a.733.733 0 01-.04.013l-.008-.002-.022.013-.022.007-.037.013-.035.01a.629.629 0 01-.044.015l-.018.006c-.005.001-.01.004-.014.004l-.077.025-.05.015a1.187 1.187 0 01-.026.008l-.054.017-.016.004-.012.004-.05.015h-.004a.076.076 0 01-.016.005l-.01.004-.045.013-.036.01c-.017.006-.036.01-.055.016l-.04.012-.046.013-.025.006a.721.721 0 01-.058.016l-.025.008c-.02.005-.04.01-.061.017h-.005a.1.1 0 01-.019.006l-.284.075-.035.008-.022.006-.064.016-.021.005-.062.015-.087.021-.016.004-.032.008a.617.617 0 00-.038.009l-.018.003a2.24 2.24 0 01-.066.017l-.017.003-.068.016-.016.003-.065.015-.014.003c-.023.004-.044.009-.063.014-.007 0-.013.002-.018.003l-.025.005a.538.538 0 00-.03.007l-.058.01-.258.051-.023.003c-.013.003-.026.006-.037.007l-.017.004-.009.001-.062.01-.035.006-.036.005-.04.006a.52.52 0 01-.037.006l-.043.005-.014.002h-.008c-.013.003-.025.004-.037.005l-.02.003-.012.001-.06.006-.047.004h-.012l-.04.003h-.034l-.025-.002a2.779 2.779 0 01-.071-.168l-.003-.01a11.617 11.617 0 00-.372-1c-.1-.243-.208-.486-.324-.722a7.514 7.514 0 00-.227-.46 2.05 2.05 0 01-.068-.154l.025-.016s.313-.128.466-.188l.583-.231c.428.506.943.71 1.294.506.442-.254.447-1.042.014-1.792-.434-.75-1.118-1.14-1.56-.885-.331.19-.423.708-.233 1.297l-.161.135c-.239.203-.74.613-.755.62l-.024-.033a10.547 10.547 0 00-.581-.846 12.75 12.75 0 00-.895-1.112l-.014-.018a2.084 2.084 0 01-.105-.14l.026-.04a5.109 5.109 0 01.277-.374l.08-.096h-.001l.052-.062c.006-.007.012-.013.018-.022l.062-.071.033-.037.032-.037a.68.68 0 00.034-.038l.033-.037.006-.006.04-.044c.007-.007.014-.014.018-.02a.171.171 0 00.014-.016c.01-.01.02-.019.027-.03l.029-.03.054-.058.015-.017.051-.054c.007-.006.013-.015.022-.022l.022-.024.027-.028.012-.012.015-.017.02-.021.03-.03.16-.165.03-.03.005-.005.032-.031.046-.047.038-.037.04-.041.04-.038a1.38 1.38 0 01.041-.04l.031-.03.007-.007.005-.004.039-.037.016-.018.004-.003a.281.281 0 01.013-.011l.004-.004a.08.08 0 01.012-.012l.011-.011a.7.7 0 00.02-.02l.01-.008.023-.022a.237.237 0 01.02-.017l.057-.055.022-.021.073-.067.01-.01.03-.027.01-.008.1-.09a.142.142 0 01.013-.012l.03-.026.012-.011.1-.086a.212.212 0 01.017-.015l.012-.01.012-.01a.073.073 0 00.008-.007l.12-.098.004-.004.004-.003.022-.017.064-.05.051-.039.005-.003c.115-.086.228-.16.334-.22.171-.098.324-.158.416-.164.027-.002.04 0 .048.003.02.005.041.008.068.005l.02-.002a.398.398 0 00.12-.042l.007-.002a.424.424 0 00.041-.023c.017-.011.034-.02.05-.032a.464.464 0 00.024-.018c.018-.013.033-.027.043-.035l.008-.007.008-.008.004-.004.022-.012.004-.016a.187.187 0 00.033-.077.276.276 0 00.005-.047v-.023l-.004-.037-.002-.014-.003-.014-.003-.012-.006-.023-.006-.02a.19.19 0 00-.012-.03.546.546 0 00-.05-.11l-.015-.028-.033-.055c-.005-.01-.012-.018-.019-.03l-.02-.029c-.013-.02-.026-.04-.042-.06l-.07-.089a2.417 2.417 0 00-.259-.261c-.02-.017-.039-.035-.06-.051l-.06-.047a2.697 2.697 0 00-.119-.082l-.01-.005-.018-.012c-.009-.004-.017-.01-.029-.015a.197.197 0 00-.026-.014l-.02-.011a.035.035 0 01-.009-.005l-.028-.013a.216.216 0 00-.022-.009l-.002-.002-.009-.003-.04-.015-.033-.01-.027-.007-.017-.003-.005-.001a.29.29 0 00-.062-.005.277.277 0 00-.053.005l-.013.003a.255.255 0 00-.041.017.165.165 0 00-.034.023l-.02.011-.003.013c-.011.01-.02.022-.029.031-.006.01-.013.017-.019.025a.605.605 0 00-.116.26.33.33 0 00-.003.05l.002.01.002.02.003.022c0 .006 0 .012-.002.019v.013a.507.507 0 01-.02.088l-.014.044a.57.57 0 01-.014.034.321.321 0 01-.021.054c-.015.035-.032.07-.053.111l-.017.031c-.027.052-.06.107-.093.162-.05.078-.104.158-.164.237l-.026.036-.034.042-.001.002-.008.01-.01.012-.016.02-.015.02-.01.01-.01.012a.286.286 0 01-.014.018l-.037.045a.052.052 0 01-.006.007l-.007.009-.013.016a.403.403 0 00-.026.03l-.007.008-.014.016-.011.014a.247.247 0 00-.015.016l-.004.005-.018.02c-.01.01-.018.02-.027.032l-.023.024a.537.537 0 01-.03.034l-.025.027a.93.93 0 01-.024.028l-.041.045a.23.23 0 01-.016.017c-.005.004-.008.009-.012.014l-.043.045a3.484 3.484 0 01-.058.063l-.023.024-.02.022-.036.038a2.49 2.49 0 00-.038.04l-.006.005a.1.1 0 01-.015.016l-.16.164-.013.014-.122.123a.061.061 0 01-.01.009l-.112.11-.014.016-.124.119-.027.027-.038.035-.045.044-.018.016a.977.977 0 01-.05.047l-.005.005-.008.007-.047.044-.01.01-.12.11a.026.026 0 00-.007.007l-.02.017a.608.608 0 00-.04.035l-.054.05H37.9l-.033.029-.192.168-.055.046c-.007.005-.014.01-.018.015l-.049.039-.025.021c-.006.005-.01.01-.016.013l-.017.014-.03.023-.08.062-.04.03-.006.004-.007.006-.003.003-.024.016-.012.01-.007.004h-.001l-.004.003c-.014.01-.027.02-.042.029l-.01.006-.034.023-.023.013-.003.003-.023.01a2.663 2.663 0 01-.145-.109l-.008-.008c-.212-.196-.496-.431-.824-.68-.207-.16-.423-.317-.64-.464a7.812 7.812 0 00-.409-.272l-.019-.012a1.722 1.722 0 01-.134-.1.218.218 0 01.015-.03l.048-.082.057-.096v-.001c.007-.012.014-.025.023-.037l.275-.347c.144-.181.293-.368.402-.508.615.221 1.174.138 1.374-.208.126-.217.097-.502-.08-.802-.168-.286-.455-.554-.805-.757-.35-.202-.726-.315-1.058-.319-.348-.004-.609.115-.735.332-.19.332-.012.825.447 1.24-.022.058-.046.124-.07.195-.107.297-.252.703-.393 1.004a6.054 6.054 0 01-.021.036l-.004.007a1.834 1.834 0 01-.036.057.312.312 0 01-.037-.016c-.219-.122-.56-.286-.939-.448a12.614 12.614 0 00-1.318-.51l-.023-.008a2.138 2.138 0 01-.16-.07l.003-.048c.001-.05.006-.112.014-.183a7.24 7.24 0 01.024-.187l.014-.092.014-.074v-.002l.018-.107.007-.04.013-.068.007-.033.005-.022c0-.008.003-.016.004-.024l.02-.098.01-.047.001-.004.001-.008.042-.186.005-.023.008-.033.006-.03.003-.01.007-.032.008-.034.027-.113c.003-.01.005-.023.008-.03l.007-.028.052-.21.013-.048.012-.048.005-.018.007-.027.004-.014.01-.036.005-.017.011-.043.058-.207.013-.045a.864.864 0 01.007-.027l.001-.004a.627.627 0 01.007-.024c.002-.005.005-.012.005-.016l.014-.046.01-.035.01-.03.02-.07.01-.032.027-.088.002-.005.01-.03c0-.003 0-.006.002-.009l.006-.018.015-.05a.218.218 0 00.006-.016l.006-.02.024-.074a.147.147 0 00.007-.021l.012-.033.016-.048.004-.011.006-.017.006-.017.02-.06.012-.029.034-.096.004-.008.006-.017.014-.035.007-.018-.076-.028.077.024.025-.064.003-.006.002-.006.005-.012.011-.026.022-.052a3.307 3.307 0 01.27-.5l.03-.044a.73.73 0 01.054-.065c.01-.014.02-.024.031-.036.064-.066.102-.08.113-.083a.154.154 0 00.05-.02l.003-.002a.28.28 0 00.04-.03.574.574 0 00.077-.095l.023-.038a.881.881 0 00.069-.167l.003-.015a.15.15 0 00.003-.048.233.233 0 00-.01-.047.254.254 0 00-.02-.046l-.002-.004a.467.467 0 00-.065-.082.696.696 0 00-.155-.119l-.004-.003a.105.105 0 01-.015-.01l-.02-.01-.015-.008a1.625 1.625 0 00-.221-.102 2.269 2.269 0 00-.351-.104l-.075-.015a2.135 2.135 0 00-.275-.028h-.013L32.303 10h-.024a1.28 1.28 0 00-.064.003h-.011c-.005.002-.009.002-.014.002a.698.698 0 00-.105.017l-.011.003a.257.257 0 00-.023.006l-.018.007c-.074.026-.125.066-.152.121a.537.537 0 00-.03.122l-.003.032-.003.05.001.04a.524.524 0 00.03.156l.005.009c.01.021.021.042.036.059l.007.01.009.011a.467.467 0 01.049.141l.018.11a2.39 2.39 0 01.008.403l-.007.11a3.798 3.798 0 01-.02.17c-.002.024-.005.048-.01.073l-.002.011-.001.014-.004.024-.007.043-.006.036-.011.067-.002.005v.008c-.002.003-.002.005-.002.008l-.014.072c0 .007-.002.014-.004.023l-.018.088-.004.022-.015.07-.001.004a.04.04 0 01-.002.009l-.028.13-.002.009-.016.071-.01.049a1.761 1.761 0 00-.017.065l-.01.04-.02.09-.007.024-.007.027-.016.072-.01.038a.59.59 0 00-.009.034l-.005.017-.009.033v.003l-.007.026-.018.07-.004.011-.016.06a1.522 1.522 0 00-.008.034l-.016.055c0 .005-.002.01-.003.014l-.005.017-.016.059-.005.017-.002.005-.015.058-.008.026-.018.062-.007.022a1.303 1.303 0 01-.023.08l-.025.086a1.201 1.201 0 01-.013.043l-.008.025-.003.014-.052.168c-.007.019-.012.038-.02.058l-.024.078a.082.082 0 01-.006.016l-.012.038h-.001l-.024.071c-.022.069-.047.14-.074.22l-.004.003-.009.031-.016.045v.005l-.019.046c-.005.013-.01.026-.013.038l-.004.01-.056.14-.008.019-.007.017-.011.028-.004.008-.009.02-.017.04-.012.024-.019.04-.001.004-.004.01-.007.012-.02.042-.015.025-.014.02a3.653 3.653 0 01-.18-.021l-.012-.004a11.514 11.514 0 00-1.052-.177c-.255-.035-.52-.061-.787-.082a7.498 7.498 0 00-.49-.03c-.005-.002-.01-.002-.014-.002h-.009a1.683 1.683 0 01-.166-.019.51.51 0 01-.001-.034v-.102l-.002-.062c.002-.028.002-.057.003-.087l.067-.447c.034-.226.07-.458.092-.632.653-.116 1.087-.46 1.087-.867 0-.25-.167-.484-.47-.655-.289-.163-.671-.252-1.076-.252-.404 0-.787.09-1.075.252-.305.171-.47.404-.47.655 0 .384.4.722 1.005.852l.037.204c.056.31.134.733.163 1.063v.05c-.002.031-.002.052-.004.069l-.04.005c-.253.002-.621.031-1.036.08-.52.055-1.029.134-1.396.218l-.025.004a1.87 1.87 0 01-.173.02l-.022-.043a2.653 2.653 0 01-.152-.34l-.01-.025-.023-.06-.015-.042h-.002l-.002-.006-.016-.044-.009-.025-.008-.022-.014-.036-.062-.18c-.004-.016-.01-.032-.015-.047a.774.774 0 00-.016-.048l-.017-.055-.014-.042-.02-.063-.007-.021-.026-.08c-.002-.013-.006-.025-.01-.037l-.02-.067a.549.549 0 00-.011-.036l-.107-.374c-.006-.016-.01-.032-.014-.048l-.001-.004-.013-.048c0-.002 0-.004-.002-.006l-.034-.128-.008-.028-.014-.056-.038-.152a.031.031 0 01-.003-.008l-.002-.006c-.004-.017-.009-.033-.012-.053l-.007-.026-.036-.15-.011-.047-.005-.02-.014-.061-.006-.024-.028-.129-.005-.02-.011-.054-.003-.015-.018-.089-.003-.017-.025-.129-.007-.04-.002-.012-.001-.003-.006-.033a6.01 6.01 0 00-.007-.041V11.77l-.005-.02-.002-.015-.003-.015c-.002-.01-.002-.02-.005-.03l-.006-.05c-.002-.011-.003-.024-.006-.035l-.005-.044a1.742 1.742 0 01-.007-.055l-.002-.017a3.071 3.071 0 01-.012-.126 2.261 2.261 0 01.025-.61.868.868 0 01.013-.044c.004-.014.01-.027.016-.04a.177.177 0 01.027-.045.184.184 0 00.054-.092.382.382 0 00.02-.105v-.03c0-.026 0-.052-.002-.078a.76.76 0 00-.019-.124v-.01l-.01-.016c0-.005-.003-.01-.006-.016a.185.185 0 00-.055-.065l-.016-.013-.007-.012-.024-.006a.236.236 0 00-.041-.018l-.007-.003a.74.74 0 00-.113-.027l-.033-.004-.044-.004-.06-.002H23.661l-.026.001a.823.823 0 01-.039.002l-.006.002c-.01 0-.021 0-.03.002a1.777 1.777 0 00-.166.022l-.053.01a1.793 1.793 0 00-.31.085l-.061.022-.01.004a1.68 1.68 0 00-.062.025l-.01.004-.054.024-.01.005-.057.028-.062.036a.576.576 0 00-.052.033l-.025.018c-.015.01-.03.02-.043.033a.45.45 0 00-.13.16l-.005.013-.01.015.002.014a.187.187 0 00-.003.044c0 .009.001.023.006.04v.004a.696.696 0 00.085.19l.017.025c.029.04.062.074.096.102l.029.019.031.014.012.004c.004.002.014.006.025.013a.256.256 0 01.038.028l.021.018.026.028.015.015a.21.21 0 01.014.018l.023.025.017.023a1.289 1.289 0 01.07.098l.004.005.017.026.038.061.018.031.038.067.036.07.002.002.017.033.036.074c.024.053.048.105.068.156l.018.041.006.015c0 .002 0 .005.002.007l.028.072.014.037.007.018.004.01.01.029.004.01.003.009.003.009.008.023.01.026.002.005c.001.007.004.013.006.02l.001.003.01.027.004.013.003.006.008.025c.004.012.009.025.012.038l.004.008.008.026.006.018a.513.513 0 01.007.022l.01.031.049.152.015.05.024.076c0 .005.003.011.005.017l.004.016a.69.69 0 01.009.027l.006.021.01.03.023.083.016.055.008.026.015.057.009.028.04.146.005.02.017.064.004.016.002.007.017.063.022.086.004.018v.004c.007.02.013.041.018.063l.043.171c0 .007.003.012.003.018l.001.003.015.064a.07.07 0 01.003.013l.042.174.007.035.01.036.001.012.006.027.009.04.003.014.007.036.006.024c0 .004.001.009.003.012l.001.009a.79.79 0 01.011.053l.012.059c.017.082.035.172.05.257l.015.086.01.057.006.039.003.026.002.01.007.04c0 .013.003.025.005.036.001.015.003.03.006.044l.001.012v.01l.006.039.004.03c0 .017.003.032.004.05v.01c.003.017.004.033.005.052v.008l.003.047v.027a.18.18 0 01-.002.025 2.33 2.33 0 01-.167.07l-.011.004c-.279.086-.625.215-1 .373-.243.1-.486.208-.722.322a7.432 7.432 0 00-.44.218l-.022.011a2.066 2.066 0 01-.153.068l-.016-.027-.093-.162a1.02 1.02 0 00-.033-.06c-.05-.127-.52-.988-.58-1.14-.081-.21-.165-.425-.23-.585.506-.427.71-.941.506-1.294-.254-.44-1.041-.446-1.792-.012-.751.433-1.14 1.118-.886 1.558.192.332.709.423 1.298.234l.134.16c.204.24.892 1.278 1.082 1.55l.026.044a.889.889 0 01.03.06.479.479 0 01-.033.025 10.97 10.97 0 00-.845.58c-.427.31-.833.637-1.112.895l-.018.015c-.076.06-.117.089-.14.103l-.04-.025a3.637 3.637 0 01-.303-.22c-.023-.017-.046-.037-.07-.057l-.1-.083v.002l-.009-.008-.045-.037a.241.241 0 00-.026-.024l-.011-.01c-.009-.006-.018-.013-.025-.02l-.005-.006-.031-.026a.94.94 0 01-.037-.033l-.021-.018-.016-.014-.037-.033-.04-.035-.004-.005-.044-.039-.021-.02-.004-.003a.184.184 0 00-.01-.01l-.062-.056a.315.315 0 00-.018-.017l-.106-.1c-.01-.008-.017-.015-.026-.025-.008-.007-.016-.012-.024-.022l-.014-.013-.015-.014-.002-.003-.026-.024-.018-.017-.113-.11c-.01-.01-.02-.02-.033-.03l-.242-.243a2.583 2.583 0 00-.039-.04l-.003-.003a.74.74 0 01-.036-.038l-.033-.034c-.002 0-.003-.002-.004-.003a.028.028 0 00-.006-.006l-.062-.065a.043.043 0 00-.008-.007l-.015-.017a.829.829 0 01-.03-.032l-.028-.03a.55.55 0 01-.02-.02l-.034-.036-.02-.022-.054-.058a.28.28 0 00-.017-.018l-.017-.019a.05.05 0 00-.01-.01l-.024-.028-.018-.02-.015-.016-.013-.014-.051-.057a.169.169 0 00-.01-.01l-.057-.066-.01-.013-.002-.002a.6.6 0 01-.019-.021l-.004-.005-.008-.01-.057-.065-.005-.008-.063-.075a.28.28 0 01-.017-.021l-.027-.033s-.002-.001-.002-.003l-.008-.012-.005-.003-.043-.056a.022.022 0 01-.007-.008l-.009-.012-.038-.051-.004-.005a3.867 3.867 0 01-.098-.139l-.044-.067a1.918 1.918 0 01-.079-.13 1.467 1.467 0 01-.145-.322l-.002-.009c-.023-.082-.017-.118-.013-.13a.18.18 0 00.006-.069l-.004-.02a.273.273 0 00-.015-.061.694.694 0 00-.051-.107l-.035-.055-.03-.04-.007-.007h-.001v-.001l-.028-.03-.002-.003-.006-.006-.011-.012-.005-.003a.199.199 0 00-.082-.04h-.009a.272.272 0 00-.021-.003h-.024a.326.326 0 00-.056.004h-.01l-.008.003-.012.002-.017.005-.036.01-.004.001-.053.02-.026.012a.597.597 0 00-.047.023l-.036.02-.01.005a1.921 1.921 0 00-.43.343l-.002.004a2.208 2.208 0 00-.134.15l-.024.03-.034.047-.024.032a.914.914 0 00-.026.04l-.01.016a1.122 1.122 0 00-.096.18l-.01.026c-.004.008-.006.015-.008.022l-.003.008a.25.25 0 00-.01.038.336.336 0 00-.012.134.212.212 0 00.045.104l.013.02.01.004c.115.107.261.174.37.165.008 0 .017 0 .024-.002h.005l.018-.003h.02l.023.004c.011 0 .022.003.038.007.006 0 .012.003.021.005a.142.142 0 01.02.006l.048.015.026.01.036.015.005.002.04.017c.03.014.063.03.101.05l.03.015.066.038.037.021a1.595 1.595 0 01.098.062l.022.014.03.02.068.047.068.05.035.026.042.033.02.015.027.023.027.021.029.024.021.018c.01.007.018.015.027.023l.04.034.02.016.024.022.017.014.002.004.026.02c.002.003.006.005.009.007l.024.022.033.029.033.03.016.014.007.007.1.09.02.018.017.016.021.02.142.133a1.287 1.287 0 01.06.059l.063.06.043.04c.003.005.007.008.01.011l.117.116.014.013.002.002.026.026.082.083c.003.002.007.005.009.01l.009.007.045.047.016.016.048.049c.004.004.008.007.013.014l.107.11c.004.004.008.01.014.014l.06.065c.017.016.032.033.047.05l.02.02.039.043.011.012a1.515 1.515 0 01.057.06l.056.063.026.028.018.02.013.014.04.046.008.008.027.031c.063.072.118.134.168.193l.003.006.007.006.035.041.016.02.041.05.02.025.013.016.021.027.014.017.068.087a.905.905 0 00.026.035l.004.006.005.007.003.005a.284.284 0 01.017.022l.008.012a.048.048 0 00.005.007v.001l.003.005a.5.5 0 01.031.045l.004.006.023.035.014.021.002.005.01.022a2.71 2.71 0 01-.108.145l-.01.009c-.194.21-.43.495-.679.823a13.55 13.55 0 00-.464.64 8.191 8.191 0 00-.272.409c-.005.006-.007.012-.012.02a2.031 2.031 0 01-.1.134l-.03-.016-.082-.048-.095-.056v.001l-.04-.025a308.092 308.092 0 01-.854-.677c.22-.615.139-1.175-.208-1.374-.217-.126-.503-.097-.802.08-.285.168-.554.454-.756.805-.202.35-.316.727-.32 1.058-.002.348.115.609.333.734.332.193.824.012 1.24-.445l.194.07c.297.106.703.251 1.004.392l.038.022.006.002.056.038-.016.037c-.123.219-.282.552-.448.937a12.71 12.71 0 00-.51 1.323l-.002.005-.006.014a2.036 2.036 0 01-.07.16l-.048-.003a4.379 4.379 0 01-.37-.038l-.03-.004-.061-.011-.073-.013-.002.002-.019-.004-.044-.007-.022-.004a1.195 1.195 0 01-.07-.013l-.047-.01a6.251 6.251 0 01-.047-.009l-.047-.01c-.017-.003-.033-.005-.05-.01l-.098-.02-.008-.001-.02-.005-.021-.005-.038-.007-.025-.006-.034-.008h-.004l-.037-.009h-.005l-.026-.007-.105-.024-.038-.01-.031-.007a.271.271 0 00-.019-.004l-.053-.013a.354.354 0 00-.036-.008l-.029-.008-.043-.01-.027-.007-.015-.004-.019-.004-.045-.013a.528.528 0 01-.043-.01l-.064-.017a.853.853 0 00-.068-.017l-.093-.025-.035-.01-.073-.02-.032-.01-.036-.009c-.013-.004-.026-.008-.04-.01l-.003-.002-.031-.009-.045-.013-.03-.008-.027-.008-.073-.022a.077.077 0 01-.011-.003c-.004 0-.008-.003-.01-.003l-.028-.008-.076-.023-.029-.01-.087-.026-.006-.002-.007-.002-.025-.008-.025-.007-.052-.017-.015-.005-.01-.003-.03-.01-.053-.018-.02-.007-.034-.011-.057-.02-.035-.011-.005-.002-.006-.003c-.012-.003-.024-.008-.035-.012l-.018-.006a.45.45 0 00-.025-.009L12 23.316l-.024-.008-.005-.002-.016-.007-.04-.015-.006-.002-.01-.004-.016-.006-.011-.004-.056-.023-.005-.001-.01-.005-.007-.003-.072-.03c-.049-.021-.096-.043-.13-.06l-.024-.011c-.331-.16-.505-.31-.556-.391l-.005-.007a.17.17 0 01-.013-.03.168.168 0 00-.022-.052.265.265 0 00-.03-.038l-.012-.014a.268.268 0 01-.026-.024l-.033-.024c-.008-.007-.017-.012-.024-.016-.01-.007-.017-.012-.027-.017a.72.72 0 00-.175-.076l-.043-.01-.007.004h-.015c-.008 0-.014.002-.019.003a.235.235 0 00-.075.027l-.005.003a.455.455 0 00-.145.137.59.59 0 00-.033.048c-.009.012-.016.024-.022.034a1.77 1.77 0 00-.185.426l-.023.078-.02.081a1.588 1.588 0 00-.045.566l.01.056c.012.056.03.103.055.142a.244.244 0 00.068.069c.015.009.03.016.048.02l.001.001.032.007c.02.005.04.008.06.011.12.015.23 0 .307-.04a.198.198 0 00.046-.031l.003-.003c.04-.033.165-.074.39-.084l.071-.003a3.184 3.184 0 01.398.02h.004l.08.01.012.001.056.008.01.002.021.004.165.026.018.004.008.001c.023.005.046.01.067.013l.016.003.012.002.089.018.022.004.07.015h.003a.016.016 0 00.008.002l.028.005.07.017.013.002.008.002.012.003.008.002c.027.005.053.012.081.019l.062.013.044.01.04.01.089.022c.007 0 .014.003.022.005l.137.035.05.012.04.01.027.008.029.007.006.002a.304.304 0 01.034.01l.014.002a.59.59 0 00.055.015l.034.01.057.015.018.005.149.04.018.007.008.002.06.017.025.007.068.02.016.004a1.139 1.139 0 00.083.024l.082.026.066.02.024.007.057.018h.003l.012.005.01.003.056.017.02.006a.646.646 0 00.056.018.403.403 0 00.057.019l-.001.002.07.022.249.085.023.01.031.01.041.016.044.016.008.003.012.005.032.012.016.006.024.01h.003l.04.017.015.006.019.008c.003 0 .006.003.01.004l.027.011.1.045.012.005.009.005c.006.002.012.004.016.007l.012.006.01.005.004.002.046.023.023.014.02.014c-.002.04-.01.104-.021.18l-.003.01c-.064.282-.126.646-.178 1.054-.034.255-.061.52-.081.786a7.498 7.498 0 00-.031.49l-.001.015v.008c-.006.074-.013.13-.02.166l-.034.002H14.388L14.3 27.7l-.447-.066a47.86 47.86 0 00-.632-.093c-.117-.652-.46-1.086-.867-1.086-.25 0-.483.167-.654.47-.163.289-.253.67-.253 1.075 0 .406.09.788.252 1.077.171.303.405.47.655.47.384 0 .721-.401.851-1.006l.205-.037c.31-.057.733-.134 1.063-.163l.05.001c.031 0 .054.002.069.003l.005.04c.003.252.03.62.08 1.037.056.527.134 1.025.22 1.397v.003l.002.012v.007c.015.096.02.147.021.174l-.043.022c-.04.021-.085.044-.14.069l-.2.084-.019.006c-.022.01-.045.018-.067.026l-.04.014-.001.003h-.002l-.004.002a1.77 1.77 0 01-.045.016l-.039.014-.024.009-.109.038a.425.425 0 01-.028.01l-.017.006-.027.01-.019.005-.045.016h-.003l-.048.016-.055.018a.391.391 0 01-.041.014l-.164.051-.04.012-.032.01-.17.05a.22.22 0 01-.021.007l-.017.005-.026.007-.042.013-.061.017-.044.013a1.728 1.728 0 00-.05.013l-.352.095a.263.263 0 00-.029.007l-.056.014c-.014.005-.029.008-.043.011l-.12.03-.012.002-.06.015-.027.007-.027.006-.006.001a.723.723 0 01-.041.01l-.005.001-.026.006-.071.016-.018.005-.023.005-.016.002-.01.004-.03.006-.01.002a.11.11 0 01-.017.004h-.005a.193.193 0 00-.013.004l-.013.002-.015.004-.059.012-.02.004-.061.012-.01.003-.04.007a1.471 1.471 0 01-.043.008l-.01.003-.015.003-.07.012c-.003 0-.006 0-.009.002h-.003l-.032.006a.99.99 0 01-.04.007l-.012.002-.033.005-.035.005-.017-.004-.015.01c-.006 0-.01.001-.015.003h-.003a.567.567 0 00-.033.004l-.056.008-.054.006-.018.001a9.237 9.237 0 01-.126.014l-.107.005a1.562 1.562 0 01-.109.003 1.866 1.866 0 01-.394-.034.538.538 0 01-.045-.013.217.217 0 01-.085-.044.21.21 0 00-.102-.057l-.024-.005a.535.535 0 00-.112-.011h-.031l-.03.001a1.113 1.113 0 00-.128.02l-.011.001-.012.006a.216.216 0 00-.086.064c-.01.014-.018.025-.023.035-.004.008-.01.015-.014.025l-.01.024a.645.645 0 00-.024.086l-.005.028c-.002.017-.006.037-.007.057l-.002.028-.001.01-.001.022-.001.026v.007a.99.99 0 000 .05"/></g></svg>