<svg xmlns="http://www.w3.org/2000/svg" width="56" height="56"><g fill="none" fill-rule="evenodd"><circle cx="28" cy="28" r="28" fill="#F9ECCE"/><path fill="#D4A02A" fill-rule="nonzero" d="M35.2 25.8c0-3.684-1.968-6.768-5.4-7.584V17.4c0-.996-.804-1.8-1.8-1.8s-1.8.804-1.8 1.8v.816c-3.444.816-5.4 3.888-5.4 7.584v6l-2.4 2.4v1.2h19.2v-1.2l-2.4-2.4v-6zM28 39c.168 0 .324-.012.48-.048a2.435 2.435 0 001.728-1.416c.12-.288.18-.6.18-.936h-4.8A2.417 2.417 0 0028 39z"/><path fill="#88620A" d="M22.696 17.496L20.98 15.78c-2.88 2.196-4.776 5.58-4.944 9.42h2.4a10.135 10.135 0 014.26-7.704zM37.564 25.2h2.4c-.18-3.84-2.076-7.224-4.944-9.42l-1.704 1.716a10.194 10.194 0 014.248 7.704z"/></g></svg>