<svg xmlns="http://www.w3.org/2000/svg" width="56" height="56" viewBox="0 0 56 56">
  <g fill="none" fill-rule="evenodd">
    <circle cx="28" cy="28" r="28" fill="#F9ECCE"/>
    <path fill="#D4A02A" fill-rule="nonzero" d="M35.2,25.8 C35.2,22.116 33.232,19.032 29.8,18.216 L29.8,17.4 C29.8,16.404 28.996,15.6 28,15.6 C27.004,15.6 26.2,16.404 26.2,17.4 L26.2,18.216 C22.756,19.032 20.8,22.104 20.8,25.8 L20.8,31.8 L18.4,34.2 L18.4,35.4 L37.6,35.4 L37.6,34.2 L35.2,31.8 L35.2,25.8 Z M28,39 C28.168,39 28.324,38.988 28.48,38.952 C29.26,38.784 29.896,38.256 30.208,37.536 C30.328,37.248 30.388,36.936 30.388,36.6 L25.588,36.6 C25.6,37.92 26.668,39 28,39 Z"/>
    <path fill="#88620A" d="M22.696 17.496L20.98 15.78C18.1 17.976 16.204 21.36 16.036 25.2L18.436 25.2C18.616 22.02 20.248 19.236 22.696 17.496L22.696 17.496zM37.564 25.2L39.964 25.2C39.784 21.36 37.888 17.976 35.02 15.78L33.316 17.496C35.74 19.236 37.384 22.02 37.564 25.2z"/>
  </g>
</svg>
