<svg xmlns="http://www.w3.org/2000/svg" width="56" height="56"><g fill="none" fill-rule="evenodd"><circle cx="28" cy="28" r="28" fill="#EBF8FF"/><g fill="#00B7FF" fill-rule="nonzero"><path d="M38.8 28.237H19v-8.313a.912.912 0 00-.9-.924c-.497 0-.9.414-.9.924v15.702c0 .51.403.924.9.924s.9-.414.9-.924V33.78h18v1.847c0 .51.403.924.9.924s.9-.414.9-.924v-7.39z"/><path d="M23.95 25.75a2.7 2.7 0 110-5.4 2.7 2.7 0 010 5.4zm14.85 0h-9.9c-.497 0-.9-.363-.9-.81v-2.43c0-.447.403-.81.9-.81h7.2c1.491 0 2.7 1.088 2.7 2.43v1.62z"/></g></g></svg>