<svg xmlns="http://www.w3.org/2000/svg" viewBox="0 0 56 57"><g fill="#523178" fill-rule="evenodd"><circle cx="28" cy="28" r="28" opacity=".12" transform="translate(0 .67)"/><path fill-rule="nonzero" d="M28 12.5c-8.82 0-16 7.18-16 16s7.18 16 16 16 16-7.18 16-16-7.18-16-16-16zm2 7a2 2 0 110 4 2 2 0 010-4zm1.76 17.05c-1.82.71-2.35.95-3.52.95-.95 0-1.7-.23-2.22-.7-1.05-.92-.87-2.25-.54-3.6l.98-3.49c.2-.72.58-2.18.04-2.7-.54-.5-1.8-.18-2.53.09l.27-1.08c1.05-.42 2.38-.95 3.52-.95 1.71 0 2.96.86 2.96 2.47l-.05.8c-.07.7-.09.65-1.18 4.52a8.78 8.78 0 00-.31 1.76c0 1.69 1.96 1.27 2.85.85l-.27 1.08z"/></g></svg>