<svg xmlns="http://www.w3.org/2000/svg" width="56" height="57"><g fill="#1E407B" fill-rule="evenodd"><circle cx="28" cy="28" r="28" opacity=".12" transform="translate(0 .667)"/><path fill-rule="nonzero" d="M28 12.5c-8.822 0-16 7.178-16 16s7.178 16 16 16 16-7.178 16-16-7.178-16-16-16zm2 7a2 2 0 11.001 3.999A2 2 0 0130 19.5zm1.763 17.046c-1.819.716-2.35.954-3.518.954-.954 0-1.696-.233-2.225-.698-1.045-.92-.869-2.248-.542-3.608l.984-3.483c.19-.717.575-2.182.036-2.696-.539-.514-1.794-.189-2.524.083l.263-1.073c1.054-.429 2.386-.954 3.523-.954 1.71 0 2.961.855 2.961 2.469 0 .151-.018.417-.053.799-.066.701-.086.655-1.178 4.521-.122.425-.311 1.328-.311 1.765 0 1.683 1.957 1.267 2.847.847l-.263 1.074z"/></g></svg>