<svg width="56" height="56" xmlns="http://www.w3.org/2000/svg"><g fill="none" fill-rule="evenodd"><circle fill="#523178" opacity=".12" cx="28" cy="28" r="28"/><path d="M37.106 33.381l-3.222-3.242a1.25 1.25 0 00-1.77-.003L29.25 33 23 26.75l2.867-2.867a1.25 1.25 0 00.002-1.768l-3.225-3.23a1.25 1.25 0 00-1.769 0l-2.87 2.869L18 21.75C18 30.725 25.275 38 34.25 38l2.854-2.854a1.249 1.249 0 00.002-1.765zM38 28h-2.5c0-4.136-3.364-7.5-7.5-7.5V18c5.514 0 10 4.486 10 10z" fill="#523178" fill-rule="nonzero"/><path d="M33 28h-2.5c0-1.379-1.121-2.5-2.5-2.5V23c2.758 0 5 2.242 5 5z" fill="#43285D" fill-rule="nonzero"/></g></svg>