<svg xmlns="http://www.w3.org/2000/svg" width="56" height="56" viewBox="0 0 56 56">
  <g fill="none" fill-rule="evenodd">
    <circle cx="28" cy="28" r="28" fill="#1E407B" opacity=".12"/>
    <g fill-rule="nonzero" transform="translate(18 18)">
      <path fill="#2E2E2E" d="M19.10625,15.38125 L15.88375,12.13875 C15.39625,11.6475 14.6025,11.6475 14.11375,12.13625 L11.25,15 L5,8.75 L7.8675,5.8825 C8.355,5.395 8.35625,4.60375 7.86875,4.115 L4.64375,0.885 C4.155,0.39625 3.36375,0.39625 2.875,0.885 L0.005,3.75375 L0,3.75 C0,12.725 7.275,20 16.25,20 L19.10375,17.14625 C19.59125,16.65875 19.5925,15.87 19.10625,15.38125 Z"/>
      <path fill="#2C76C7" d="M20,10 L17.5,10 C17.5,5.86375 14.13625,2.5 10,2.5 L10,0 C15.51375,0 20,4.48625 20,10 Z"/>
      <path fill="#2C76C7" d="M15,10 L12.5,10 C12.5,8.62125 11.37875,7.5 10,7.5 L10,5 C12.7575,5 15,7.2425 15,10 Z"/>
    </g>
  </g>
</svg>
