<svg xmlns="http://www.w3.org/2000/svg" width="56" height="56" viewBox="0 0 56 56">
  <g fill="none" fill-rule="evenodd">
    <rect width="56" height="56" fill="#EFE7F7" rx="28"/>
    <g fill-rule="nonzero" transform="translate(16 12)">
      <path fill="#8E00D6" d="M16.9922412,11.0289808 C16.3242193,10.3560323 15.4128939,9.98981699 14.4708852,10.0157763 C13.5288765,10.0417355 12.638576,10.4575988 12.0076987,11.1663415 C11.172977,10.2173975 9.89397173,9.80416825 8.67063994,10.0881832 C7.44730814,10.3721982 6.47392145,11.3083544 6.13097214,12.5307126 C5.78802283,13.7530708 6.12997308,15.0675141 7.02315613,15.9602329 L12.0076987,21 L16.9922412,15.9519912 C17.6374635,15.2993867 18,14.4138716 18,13.490486 C18,12.5671003 17.6374635,11.6815853 16.9922412,11.0289808 Z"/>
      <path fill="#43285D" d="M20,0 L4,0 C1.790861,0 0,1.790861 0,4 L0,28 C0,30.209139 1.790861,32 4,32 L20,32 C22.209139,32 24,30.209139 24,28 L24,4 C24,1.790861 22.209139,0 20,0 Z M21.3333333,26.6666667 C21.3333333,27.4030463 20.7363797,28 20,28 L4,28 C3.26362033,28 2.66666667,27.4030463 2.66666667,26.6666667 L2.66666667,5.33333333 C2.66666667,4.59695367 3.26362033,4 4,4 L20,4 C20.7363797,4 21.3333333,4.59695367 21.3333333,5.33333333 L21.3333333,26.6666667 Z"/>
    </g>
  </g>
</svg>
