<svg xmlns="http://www.w3.org/2000/svg" width="56" height="56"><g fill="none" fill-rule="evenodd"><rect width="56" height="56" fill="#EFE7F7" rx="28"/><g fill-rule="nonzero"><path fill="#8E00D6" d="M32.992 23.029a3.42 3.42 0 00-2.521-1.013 3.424 3.424 0 00-2.463 1.15 3.414 3.414 0 00-3.337-1.078 3.458 3.458 0 00-2.54 2.443 3.512 3.512 0 00.892 3.43L28.008 33l4.984-5.048A3.501 3.501 0 0034 25.49c0-.923-.363-1.808-1.008-2.461z"/><path fill="#43285D" d="M36 12H20a4 4 0 00-4 4v24a4 4 0 004 4h16a4 4 0 004-4V16a4 4 0 00-4-4zm1.333 26.667c0 .736-.597 1.333-1.333 1.333H20a1.333 1.333 0 01-1.333-1.333V17.333c0-.736.597-1.333 1.333-1.333h16c.736 0 1.333.597 1.333 1.333v21.334z"/></g></g></svg>