<svg width="56" height="56" xmlns="http://www.w3.org/2000/svg"><g fill="#523178" fill-rule="evenodd"><circle opacity=".12" cx="28" cy="28" r="28"/><path d="M33.09 13c1.206 0 2.183.96 2.183 2.143 0 1.112-.863 2.026-1.967 2.132l-.401 1.245c2.928 1.584 4.977 4.542 5.247 7.99l1.861.286a2.19 2.19 0 011.805-.939c1.205 0 2.182.96 2.182 2.143 0 1.183-.977 2.143-2.182 2.143-.991 0-1.829-.65-2.094-1.54l-1.6-.246a9.912 9.912 0 01-3.18 6.242l.66 1.293c.129-.023.26-.035.396-.035 1.205 0 2.182.96 2.182 2.143 0 1.183-.977 2.143-2.182 2.143s-2.182-.96-2.182-2.143a2.1 2.1 0 01.26-1.015l-.634-1.247a10.228 10.228 0 01-3.552 1.375l.55 1.616c1.082.127 1.922 1.031 1.922 2.128 0 1.184-.977 2.143-2.182 2.143S28 42.04 28 40.857c0-.61.26-1.16.675-1.55l-.686-2.021-.27-.004a10.23 10.23 0 01-7.456-3.495l-3.904 1.501c-.076 1.116-1.022 1.998-2.177 1.998-1.205 0-2.182-.96-2.182-2.143 0-1.184.977-2.143 2.182-2.143.58 0 1.108.223 1.498.586l3.478-1.338a9.817 9.817 0 01-1.34-4.962 9.82 9.82 0 011.589-5.366l-2.75-2.025a2.204 2.204 0 01-1.02.248c-1.206 0-2.182-.96-2.182-2.143 0-1.183.976-2.143 2.181-2.143s2.182.96 2.182 2.143c0 .147-.015.291-.044.43l2.772 2.043A10.24 10.24 0 0128 17.286c1.114 0 2.185.175 3.188.5l.362-1.126a2.117 2.117 0 01-.64-1.517c0-1.184.976-2.143 2.18-2.143zM28 20.029a7.43 7.43 0 00-5.497 2.407l-.788 1.032a7.128 7.128 0 00-1.104 3.818c0 4.008 3.308 7.257 7.389 7.257 4.08 0 7.39-3.25 7.39-7.257 0-4.008-3.31-7.257-7.39-7.257zm-2.182 4.4c1.205 0 2.182.959 2.182 2.142 0 1.184-.977 2.143-2.182 2.143s-2.182-.96-2.182-2.143c0-1.183.977-2.142 2.182-2.142zm5.091 0c.803 0 1.455.64 1.455 1.428 0 .79-.652 1.429-1.455 1.429s-1.454-.64-1.454-1.429.65-1.428 1.454-1.428z" fill-rule="nonzero"/></g></svg>