<svg xmlns="http://www.w3.org/2000/svg" width="56" height="56" viewBox="0 0 56 56">
  <g fill="none" fill-rule="evenodd">
    <circle cx="28" cy="28" r="28" fill="#EBF8FF"/>
    <g fill="#00B7FF" fill-rule="nonzero" transform="translate(17.2 19)">
      <path d="M21.6,9.23684211 L1.8,9.23684211 L1.8,0.923684211 C1.8,0.413547507 1.39705627,0 0.9,0 C0.402943725,0 0,0.413547507 0,0.923684211 L0,16.6263158 C0,17.1364525 0.402943725,17.55 0.9,17.55 C1.39705627,17.55 1.8,17.1364525 1.8,16.6263158 L1.8,14.7789474 L19.8,14.7789474 L19.8,16.6263158 C19.8,17.1364525 20.2029437,17.55 20.7,17.55 C21.1970563,17.55 21.6,17.1364525 21.6,16.6263158 L21.6,9.23684211 Z"/>
      <path d="M6.75 6.75C5.25883118 6.75 4.05 5.54116882 4.05 4.05 4.05 2.55883118 5.25883118 1.35 6.75 1.35 8.24116882 1.35 9.45 2.55883118 9.45 4.05 9.45 5.54116882 8.24116882 6.75 6.75 6.75L6.75 6.75zM21.6 6.75L11.7 6.75C11.2029437 6.75 10.8 6.38735065 10.8 5.94L10.8 3.51C10.8 3.06264935 11.2029437 2.7 11.7 2.7L18.9 2.7C20.3911688 2.7 21.6 3.78794806 21.6 5.13L21.6 6.75z"/>
    </g>
  </g>
</svg>
