<svg xmlns="http://www.w3.org/2000/svg" width="56" height="56" viewBox="0 0 56 56">
  <g fill="none" fill-rule="evenodd">
    <circle cx="28" cy="28" r="28" fill="#579FD2"/>
    <path fill="#FFF" fill-rule="nonzero" d="M20.875,18.885 C21.36375,18.39625 22.155,18.39625 22.64375,18.885 L22.64375,18.885 L25.86875,22.115 C26.35625,22.60375 26.355,23.395 25.8675,23.8825 L25.8675,23.8825 L23,26.75 L29.25,33 L32.11375,30.13625 C32.6025,29.6475 33.39625,29.6475 33.88375,30.13875 L33.88375,30.13875 L37.10625,33.38125 C37.5925,33.87 37.59125,34.65875 37.10375,35.14625 L37.10375,35.14625 L34.25,38 C25.275,38 18,30.725 18,21.75 L18,21.75 L18.005,21.75375 Z M28,18 C33.51375,18 38,22.48625 38,28 L35.5,28 C35.5,23.86375 32.13625,20.5 28,20.5 L28,18 Z M28,23 C30.7575,23 33,25.2425 33,28 L30.5,28 C30.5,26.62125 29.37875,25.5 28,25.5 L28,23 Z"/>
  </g>
</svg>
