<svg viewBox="0 0 242 64" xmlns="http://www.w3.org/2000/svg"><path d="M215.6 28.68a2.8 2.8 0 011.68.52c.426.33.768.754 1 1.24l4.96 10.2 1.08 2.24c.343.657.638 1.34.88 2.04.24-.68.56-1.36.88-2.08l1.08-2.2 4.84-10.2.4-.6a2.68 2.68 0 01.6-.56 2.16 2.16 0 01.72-.44 3.4 3.4 0 01.92 0h7.2l-12.6 21.52v13.32h-8V50.36l-12.8-21.68h7.16zm-35.6 0l.68.08a1.68 1.68 0 01.64 0c.205.106.393.24.56.4l.6.64 16.6 21V28.68h7.16v35h-4.44a4.52 4.52 0 01-1.56-.28 3.4 3.4 0 01-1.24-1.08l-16.52-20.84c.04.6.04 1.2 0 1.8v20.4h-6.96v-35H180zM12 28a14.56 14.56 0 015.24.92 11.56 11.56 0 014 2.64l-.84 2.32a2.28 2.28 0 01-.4.56 1.08 1.08 0 01-.64 0 1.6 1.6 0 01-.96-.4l-1.36-.92a12 12 0 00-2-.88 8.28 8.28 0 00-2.8-.4 8.36 8.36 0 00-2.76.4 5.72 5.72 0 00-2 1.16 4.6 4.6 0 00-1.24 1.68 6 6 0 00-.4 2.08 4 4 0 00.72 2.4 6.32 6.32 0 001.88 1.64c.836.48 1.72.87 2.64 1.16l3 1c1.04.36 2.04.76 3.04 1.2a9.92 9.92 0 012.64 1.68 7.64 7.64 0 011.88 2.44 8.28 8.28 0 01.68 3.6 11.4 11.4 0 01-.76 4.24 9.48 9.48 0 01-2.24 3.44 10.16 10.16 0 01-3.6 2.32 13.48 13.48 0 01-4.92.84 15.12 15.12 0 01-6.08-1.2A14.08 14.08 0 010 58.8l1.36-2.2a1.52 1.52 0 01.44-.6 1.2 1.2 0 01.64 0c.427.05.824.248 1.12.56.44.36 1 .72 1.64 1.16a12 12 0 002.36 1.2 9.28 9.28 0 003.36.52 8.52 8.52 0 002.96-.44A6.64 6.64 0 0016 57.68a5.4 5.4 0 001.36-2 6.48 6.48 0 00.48-2.56 4.6 4.6 0 00-.68-2.56 6.24 6.24 0 00-1.88-1.64 11.44 11.44 0 00-2.64-1.16l-3-.96c-1.04-.32-2.04-.72-3.04-1.12A11.36 11.36 0 014 44a8.24 8.24 0 01-1.84-2.6c-.96-2.36-.96-5 0-7.36a9.52 9.52 0 012.04-3 10.08 10.08 0 013.32-2.12A12.36 12.36 0 0112 28zm119.2.4l26.92.12v4H147V63h-4.64V32.4H131.2v-4zm-98.84.12c.291.132.53.357.68.64l12 21.2c.265.419.493.86.68 1.32.2.44.36.84.52 1.28l.48-1.28.6-1.24 11.64-21.16a1.4 1.4 0 01.64-.64c.318-.05.642-.05.96 0H64V63h-4V37.64a9.76 9.76 0 010-1.08v-1.2L48.2 56.88a1.84 1.84 0 01-1.68 1.08h-.68a1.84 1.84 0 01-1.68-1.08L32 35.28v27.6h-4V28.52h3.44a2.68 2.68 0 01.92 0zm88.52.64a10.88 10.88 0 014 1.92 7.52 7.52 0 012.28 3c.513 1.27.772 2.63.76 4a9.48 9.48 0 01-.6 3.4 8.8 8.8 0 01-1.64 2.84 10.96 10.96 0 01-2.68 2.16 12 12 0 01-3.56 1.32c.6.386 1.118.89 1.52 1.48L131 62.92h-4a2.08 2.08 0 01-1.88-.96L116 49.64a2.48 2.48 0 00-.88-.84 3.36 3.36 0 00-1.44-.24h-3.52v14.32h-4.64V28.52h9.72a21.48 21.48 0 015.64.64zm-33.96-.64l13.76 34.36h-3.6a1.56 1.56 0 01-1-.28 2.24 2.24 0 01-.56-.8l-3.24-8.32H76.84l-3.2 8.32a2.12 2.12 0 01-.6.76 1.36 1.36 0 01-1 .32h-3.6L82.2 28.52h4.72zm-2.36 4.24L84 34.72a15.12 15.12 0 01-.48 1.44l-5.36 13.96H91L85.6 36a20.72 20.72 0 01-1.04-3.24zm30.68-.76h-5.08v13.16H115a12.24 12.24 0 003.6-.48 7.36 7.36 0 002.6-1.4 6 6 0 001.56-2.16 6.92 6.92 0 00.52-2.76 5.56 5.56 0 00-2-4.64 9.88 9.88 0 00-6.04-1.72zM93.76 0a9.72 9.72 0 011.72.48 7.4 7.4 0 011.48.76c.482.308.936.656 1.36 1.04l-.44.64a.4.4 0 01-.36 0 .48.48 0 01-.32 0l-.52-.2-.68-.48-1.08-.48a6.12 6.12 0 00-1.36-.36 8 8 0 00-1.76 0 8.24 8.24 0 00-3.36.64 6.76 6.76 0 00-2.64 1.8 8.24 8.24 0 00-1.72 2.8 11.08 11.08 0 00-.6 3.76A10.92 10.92 0 0084 14a8 8 0 001.68 2.84 7.36 7.36 0 002.52 1.76 8.44 8.44 0 003.2.6c.64.045 1.28.045 1.92 0a5.64 5.64 0 001.52-.44 5.16 5.16 0 001.32-.68 12.6 12.6 0 00.911-.706l.289-.254.36-.24a.32.32 0 01.24 0l.6.6a9.44 9.44 0 01-1.36 1.2 9.2 9.2 0 01-1.6.92 9.72 9.72 0 01-1.92.56 10.48 10.48 0 01-2.28.24 9.28 9.28 0 01-4-.76 8.92 8.92 0 01-2.96-2.04 9.68 9.68 0 01-1.92-3.24 12 12 0 01-.68-4 12.44 12.44 0 01.68-4 8.96 8.96 0 012.04-3.24A8.24 8.24 0 0188 .76 11.28 11.28 0 0193.76 0zm21.76.72a8.92 8.92 0 014.96 5.32 11.56 11.56 0 01.48 4.2 12 12 0 01-.72 4 8.96 8.96 0 01-1.96 3.2 8.28 8.28 0 01-3 2.08 10 10 0 01-4 .72 10.32 10.32 0 01-4-.72 8.28 8.28 0 01-3-2.08 9.56 9.56 0 01-1.96-3.2 12 12 0 01-.68-4 11.56 11.56 0 01.68-4 9.36 9.36 0 012.2-3.44 9.36 9.36 0 013-2.08 10.32 10.32 0 014-.72 10 10 0 014 .72zm8.2-.48a.72.72 0 01.28.36l6.76 16.6c.17.459.317.926.44 1.4a7.16 7.16 0 01.4-1.4L138.4.6V.32h1.6l-8 19.92h-1.28l-8.48-20h1.48zm21.52 0v20h-1.48v-20h1.48zM163 .76a8.76 8.76 0 013.04 2 8.72 8.72 0 011.92 3.16 11.36 11.36 0 01.6 4.32c0 1.366-.244 2.72-.72 4a8.72 8.72 0 01-1.92 3.16 9.36 9.36 0 01-3.04 2 10.8 10.8 0 01-3.591.68h-7.569v-20H159a10 10 0 014 .68zm-55 1.08a8 8 0 00-2.52 1.8 8 8 0 00-1.68 2.84 12 12 0 00-.56 3.76A12 12 0 00104 14a8 8 0 001.68 2.8 7.48 7.48 0 002.52 1.8 8.72 8.72 0 003.28.6 8.56 8.56 0 003.28-.6 7.24 7.24 0 002.56-1.8 8.36 8.36 0 001.64-2.8 12 12 0 00.48-3.76 12 12 0 00-.56-3.76 8.56 8.56 0 00-1.64-2.84 8 8 0 00-2.56-1.8 8.56 8.56 0 00-3.28-.6 8.72 8.72 0 00-3.4.6zm51-.44h-5.84v17.68H159a8.56 8.56 0 003.28-.6 7.6 7.6 0 002.56-1.72 8.36 8.36 0 001.64-2.8 11.72 11.72 0 00.56-3.72 12 12 0 00-.56-3.76 8.56 8.56 0 00-1.64-2.76A7.04 7.04 0 00162.28 2a8.56 8.56 0 00-3.28-.6z" fill="#FFF" fill-rule="nonzero"/></svg>