<svg width="335" height="120" xmlns="http://www.w3.org/2000/svg" xmlns:xlink="http://www.w3.org/1999/xlink"><defs><filter x="-27.5%" y="-21.9%" width="155%" height="168.8%" filterUnits="objectBoundingBox" id="c"><feOffset dy="3" in="SourceAlpha" result="shadowOffsetOuter1"/><feGaussianBlur stdDeviation="1" in="shadowOffsetOuter1" result="shadowBlurOuter1"/><feColorMatrix values="0 0 0 0 0.117647059 0 0 0 0 0.250980392 0 0 0 0 0.482352941 0 0 0 1 0" in="shadowBlurOuter1" result="shadowMatrixOuter1"/><feOffset dy="2" in="SourceAlpha" result="shadowOffsetOuter2"/><feGaussianBlur stdDeviation="1.5" in="shadowOffsetOuter2" result="shadowBlurOuter2"/><feColorMatrix values="0 0 0 0 0.117647059 0 0 0 0 0.250980392 0 0 0 0 0.482352941 0 0 0 1 0" in="shadowBlurOuter2" result="shadowMatrixOuter2"/><feMerge><feMergeNode in="shadowMatrixOuter1"/><feMergeNode in="shadowMatrixOuter2"/></feMerge></filter><filter x="-20%" y="-12.5%" width="140%" height="150%" filterUnits="objectBoundingBox" id="e"><feGaussianBlur stdDeviation=".5" in="SourceAlpha" result="shadowBlurInner1"/><feOffset dx="1" dy="1" in="shadowBlurInner1" result="shadowOffsetInner1"/><feComposite in="shadowOffsetInner1" in2="SourceAlpha" operator="arithmetic" k2="-1" k3="1" result="shadowInnerInner1"/><feColorMatrix values="0 0 0 0 1 0 0 0 0 1 0 0 0 0 1 0 0 0 0.5 0" in="shadowInnerInner1"/></filter><path id="a" d="M0 0h335v126H0z"/><path d="M28.708 36a2.294 2.294 0 01-1.535-.574l-6.51-5.877c-.565-.492-.79-1.22-.592-1.905.198-.685.791-1.22 1.55-1.4.759-.179 1.565.026 2.11.535l4.64 4.188 7.653-10.095c.665-.9 2.012-1.143 3.01-.542.997.6 1.266 1.817.6 2.717l-9.12 12.081c-.358.491-.942.811-1.59.872h-.216z" id="d"/></defs><g fill="none" fill-rule="evenodd"><mask id="b" fill="#fff"><use xlink:href="#a"/></mask><g mask="url(#b)" fill="#43285D"><g transform="translate(-8 6)"><path d="M50.597 13.315l-1.872-3.802a1.039 1.039 0 00-1.792 0l-1.878 3.8-4.2.611a1 1 0 00-.554 1.705l3.038 2.962-.717 4.18a1 1 0 001.45 1.054l3.753-1.97 3.755 1.973a1 1 0 001.45-1.054l-.717-4.18 3.038-2.962a1 1 0 00-.554-1.7l-4.2-.617zm196 0l-1.872-3.802a1.039 1.039 0 00-1.792 0l-1.878 3.8-4.2.611a1 1 0 00-.554 1.705l3.038 2.962-.717 4.18a1 1 0 001.45 1.054l3.753-1.97 3.755 1.973a1 1 0 001.45-1.054l-.717-4.18 3.038-2.962a1 1 0 00-.554-1.7l-4.2-.617zm-137 0l-1.872-3.802a1.039 1.039 0 00-1.792 0l-1.878 3.8-4.2.611a1 1 0 00-.554 1.705l3.038 2.962-.717 4.18a1 1 0 001.45 1.054l3.753-1.97 3.755 1.973a1 1 0 001.45-1.054l-.717-4.18 3.038-2.962a1 1 0 00-.554-1.7l-4.2-.617zm196 0l-1.872-3.802a1.039 1.039 0 00-1.792 0l-1.878 3.8-4.2.611a1 1 0 00-.554 1.705l3.038 2.962-.717 4.18a1 1 0 001.45 1.054l3.753-1.97 3.755 1.973a1 1 0 001.45-1.054l-.717-4.18 3.038-2.962a1 1 0 00-.554-1.7l-4.2-.617zm-255 82l-1.872-3.802a1.039 1.039 0 00-1.792 0l-1.878 3.8-4.2.611a1 1 0 00-.554 1.705l3.038 2.962-.717 4.18a1 1 0 001.45 1.054l3.753-1.97 3.755 1.973a1 1 0 001.45-1.054l-.717-4.18 3.038-2.962a1 1 0 00-.554-1.7l-4.2-.617zm196 0l-1.872-3.802a1.039 1.039 0 00-1.792 0l-1.878 3.8-4.2.611a1 1 0 00-.554 1.705l3.038 2.962-.717 4.18a1 1 0 001.45 1.054l3.753-1.97 3.755 1.973a1 1 0 001.45-1.054l-.717-4.18 3.038-2.962a1 1 0 00-.554-1.7l-4.2-.617zm-137 0l-1.872-3.802a1.039 1.039 0 00-1.792 0l-1.878 3.8-4.2.611a1 1 0 00-.554 1.705l3.038 2.962-.717 4.18a1 1 0 001.45 1.054l3.753-1.97 3.755 1.973a1 1 0 001.45-1.054l-.717-4.18 3.038-2.962a1 1 0 00-.554-1.7l-4.2-.617zm196 0l-1.872-3.802a1.039 1.039 0 00-1.792 0l-1.878 3.8-4.2.611a1 1 0 00-.554 1.705l3.038 2.962-.717 4.18a1 1 0 001.45 1.054l3.753-1.97 3.755 1.973a1 1 0 001.45-1.054l-.717-4.18 3.038-2.962a1 1 0 00-.554-1.7l-4.2-.617z" fill-rule="nonzero" opacity=".2"/><path d="M10.597 53.315l-1.872-3.802a1.039 1.039 0 00-1.792 0l-1.878 3.8-4.2.611a1 1 0 00-.554 1.705l3.038 2.962-.717 4.18a1 1 0 001.45 1.054l3.753-1.97 3.755 1.973a1 1 0 001.45-1.054l-.717-4.18 3.038-2.962a1 1 0 00-.554-1.7l-4.2-.617zm335 0l-1.872-3.802a1.039 1.039 0 00-1.792 0l-1.878 3.8-4.2.611a1 1 0 00-.554 1.705l3.038 2.962-.717 4.18a1 1 0 001.45 1.054l3.753-1.97 3.755 1.973a1 1 0 001.45-1.054l-.717-4.18 3.038-2.962a1 1 0 00-.554-1.7l-4.2-.617zm-267 0l-1.872-3.802a1.039 1.039 0 00-1.792 0l-1.878 3.8-4.2.611a1 1 0 00-.554 1.705l3.038 2.962-.717 4.18a1 1 0 001.45 1.054l3.753-1.97 3.755 1.973a1 1 0 001.45-1.054l-.717-4.18 3.038-2.962a1 1 0 00-.554-1.7l-4.2-.617zm196 0l-1.872-3.802a1.039 1.039 0 00-1.792 0l-1.878 3.8-4.2.611a1 1 0 00-.554 1.705l3.038 2.962-.717 4.18a1 1 0 001.45 1.054l3.753-1.97 3.755 1.973a1 1 0 001.45-1.054l-.717-4.18 3.038-2.962a1 1 0 00-.554-1.7l-4.2-.617z" fill-opacity=".6" fill-rule="nonzero"/><circle opacity=".2" cx="176" cy="53" r="53"/></g></g><g mask="url(#b)"><g transform="translate(140 30)"><rect fill="#A9B" opacity=".5" y="11" width="18" height="36" rx="2"/><rect stroke="#DBE7E7" fill="#AA8EC5" x="3.5" y="6.5" width="23" height="45" rx="3"/><rect stroke="#DBE7E7" fill="#76509A" x="7.5" y="3.5" width="23" height="52" rx="3"/><rect fill="#A9B" opacity=".5" transform="matrix(-1 0 0 1 98 0)" x="40" y="11" width="18" height="36" rx="2"/><rect stroke="#DBE7E7" fill="#AA8EC5" transform="matrix(-1 0 0 1 86 0)" x="31.5" y="6.5" width="23" height="45" rx="3"/><rect stroke="#DBE7E7" fill="#76509A" transform="matrix(-1 0 0 1 78 0)" x="27.5" y="3.5" width="23" height="52" rx="3"/><g transform="translate(13)"><rect stroke="#D2D9E5" fill="#43285D" x="-.5" y="-.5" width="33" height="59" rx="5"/><rect x="1" y="1" width="30" height="56" rx="4"/></g><g fill-rule="nonzero"><use fill="#000" filter="url(#c)" xlink:href="#d"/><use fill="#FFF" xlink:href="#d"/><use fill="#000" filter="url(#e)" xlink:href="#d"/></g><circle fill="#D2D9E5" cx="29" cy="53" r="2"/></g></g></g></svg>