<svg xmlns="http://www.w3.org/2000/svg" xmlns:xlink="http://www.w3.org/1999/xlink" viewBox="0 0 375 156"><defs/><defs><rect id="c" width="312" height="156" x="0" y=".5" rx="4.44"/><path id="a" d="M0 0h375v164H0z"/></defs><g fill="none" fill-rule="evenodd"><mask id="b" fill="#fff"><use xlink:href="#a"/></mask><path fill="#523178" d="M0-126h375V55.7L0 94z" mask="url(#b)"/><g mask="url(#b)"><g transform="translate(83 -1)"><mask id="d" fill="#fff"><use xlink:href="#c"/></mask><g mask="url(#d)"><path fill="#66ABFF" fill-rule="nonzero" d="M190.08 78.59c-14.65-8.47-38.33-8.47-52.9 0s-14.48 22.2.18 30.65c14.65 8.46 38.33 8.47 52.89 0 14.56-8.47 14.49-22.18-.17-30.65" opacity=".4"/><path fill="#DAA2FF" fill-rule="nonzero" d="M221.04 95.49c-14.65-8.47-38.34-8.47-52.9 0-14.57 8.47-14.48 22.18.18 30.65 14.65 8.47 38.33 8.47 52.89 0 14.56-8.47 14.49-22.18-.17-30.65" opacity=".5" style="mix-blend-mode:multiply"/><path fill="#DCD5D8" fill-rule="nonzero" d="M142 117.25c-14.65-8.47-38.33-8.47-52.9 0-14.56 8.47-14.47 22.18.18 30.65 14.66 8.47 38.33 8.47 52.9 0 14.55-8.47 14.48-22.18-.17-30.65M256.87 62.67c-14.66-8.47-38.34-8.47-52.9 0-14.57 8.47-14.48 22.2.17 30.65 14.66 8.46 38.33 8.47 52.9 0 14.55-8.47 14.48-22.18-.17-30.65" opacity=".4" style="mix-blend-mode:multiply"/><g fill-rule="nonzero"><g fill="#999298"><path d="M127.14 118.78v-2.51l.03.35.01.48v2.5l-.01-.48-.03-.35M101.1 132.86v-2.5c0-.27.06-.53.18-.77.65-1.23 1.3-2.47 1.95-3.67 1.16-2.19 2.37-4.46 3.48-6.68a72.39 72.39 0 001.4-2.95l.09-.23v2.5l-.1.23-.17.4c-.33.75-.7 1.53-1.22 2.55-1.1 2.22-2.32 4.5-3.48 6.69l-1.95 3.67c-.12.23-.19.5-.19.76M127.04 118.26v-2.5c.05.16.08.33.1.5v2.52a2.7 2.7 0 00-.1-.5M126.97 118.06v-2.5l.07.2v2.5a2.96 2.96 0 00-.07-.2M108.28 118.38v-2.5l.19-.45v2.5l-.2.45M126.9 117.89v-2.5l.06.17v2.5zM126.8 117.7v-2.5l.1.2v2.5l-.1-.2M126.52 117.26v-2.5l.27.43v2.5z"/><path d="M108.46 117.93v-2.5l.53-1.34v2.5zM125.67 116.12v-2.5l.85 1.14v2.5zM109 116.59v-2.5a100.69 100.69 0 003.41-10.5v2.51a106.17 106.17 0 01-3.42 10.49M132.76 105.26v-2.5c.3.23.49.6.49.99v2.5c0-.39-.18-.76-.49-1M119.17 104.74v-2.5a58.97 58.97 0 002.56 5.3 46.44 46.44 0 003.94 6.08v2.5l-.87-1.2a46.24 46.24 0 01-3.07-4.88 59.81 59.81 0 01-2.56-5.3"/><path d="M122.72 97.4v-2.5l10.04 7.86v2.5zM121.26 88.46v-2.5l1.46 8.94v2.5zM119.33 86.08v-2.5c.2.08.38.18.56.3v2.5a3.43 3.43 0 00-.56-.3"/><path d="M119.9 86.38v-2.5a3.13 3.13 0 011.37 2.08v2.5a3.12 3.12 0 00-1.37-2.08M105.63 109.08v-2.5-.08A118.75 118.75 0 01108 90.43c.4-1.9.86-3.74 1.26-5.3.17-.66.58-1.23 1.14-1.61v2.5c-.57.38-.97.95-1.14 1.62a123.06 123.06 0 00-2.3 10.62c-.3 1.7-.56 3.45-.8 5.35a87.87 87.87 0 00-.54 5.47M110.41 86.03v-2.5a3 3 0 01.6-.31v2.5c-.2.08-.4.18-.6.3M111.01 85.72v-2.5c.77-.26 1.9-.37 3.13-.37 1.93 0 4.1.26 5.19.73v2.5c-1.1-.47-3.26-.73-5.19-.73-1.23 0-2.36.1-3.13.37"/><g><path d="M110.99 79.66v-2.5a4.88 4.88 0 012.21-4.07v2.5a4.89 4.89 0 00-2.21 4.06M113.2 75.59v-2.5a5.29 5.29 0 015.85 0v2.5a5.3 5.3 0 00-5.85 0M119.05 75.59v-2.5c1.37.9 2.2 2.42 2.21 4.06v2.51a4.9 4.9 0 00-2.21-4.07"/></g></g><g fill="#999298" stroke="#999298" stroke-width=".5"><path d="M132.76 105.26a1.25 1.25 0 01.2 1.8c-.43.48-1.12.6-1.69.3l-11.26-6.03a76.88 76.88 0 01-.84 3.41 58.7 58.7 0 002.56 5.3 46.24 46.24 0 003.94 6.08l.85 1.14.28.43.1.2.07.18.07.2a7.09 7.09 0 01.13.85l.01.49v.82a168.4 168.4 0 01-.5 7.69c-.16 2.02-.36 4.05-.6 6.08-.04.4-.26.77-.58 1.02a1.6 1.6 0 01-1.16.32 1.54 1.54 0 01-1.41-1.4c-.14-1.98-.26-4.02-.37-6.08l-.18-3.02-.18-3-.11-1.47a28.9 28.9 0 00-.05-.54l-.57-.59c-.4-.42-.77-.8-1.1-1.17a47.9 47.9 0 01-4.02-5.02 94.33 94.33 0 01-2.26 5.34l-.64 1.37-.26.52-.09.18-.12.25-.24.46-.2.36-.55 1-.38.66-.28.45-.12.2c-.51.84-1.04 1.68-1.61 2.56-.54.8-1.11 1.66-1.7 2.5a91.53 91.53 0 01-3.6 4.81c-.63.75-1.73.89-2.5.3a1.67 1.67 0 01-.52-2.12c.65-1.23 1.3-2.47 1.95-3.67 1.16-2.2 2.37-4.46 3.48-6.68a70.6 70.6 0 001.4-2.96l.09-.22.08-.19.19-.45.53-1.34a100.61 100.61 0 003.41-10.49 43.87 43.87 0 01-1.92-5.47 129.63 129.63 0 00-1.86 6.13c-.26 1-.47 1.8-.64 2.54-.06.31-.26.58-.53.75a1.2 1.2 0 01-1.5-.18 1.2 1.2 0 01-.33-.86A118.42 118.42 0 01108 92.93c.4-1.9.86-3.75 1.26-5.3.23-.89.89-1.6 1.75-1.92.77-.26 1.9-.37 3.12-.37 1.93 0 4.1.27 5.2.73a3.19 3.19 0 011.93 2.38l1.45 8.96 10.04 7.85zm.04 1.68a1.06 1.06 0 00-.17-1.53l-10.1-7.9-1.47-9.02a2.97 2.97 0 00-1.8-2.23c-1.15-.47-3.25-.72-5.1-.72-1.18 0-2.26.1-2.94.31-.86.27-1.52.96-1.75 1.83a120.58 120.58 0 00-2.3 10.61c-.29 1.7-.55 3.45-.8 5.34-.27 2.1-.43 3.76-.54 5.39-.02.47.3.9.78.99a1 1 0 00.75-.13.95.95 0 00.43-.6 72.75 72.75 0 011.37-5.11c.4-1.35.82-2.67 1.24-3.92l.1-.32.1.32a43.39 43.39 0 002.02 5.8 75.4 75.4 0 01-1.52 5.2c-.6 1.85-1.24 3.66-1.92 5.4l-.53 1.34-.18.46-.08.18-.1.23c-.05.13-.1.27-.17.4-.34.74-.72 1.53-1.23 2.56-1.1 2.21-2.32 4.49-3.48 6.68l-1.94 3.66c-.35.65-.16 1.46.44 1.9.27.2.61.32.96.31.49 0 .95-.2 1.25-.58a92.35 92.35 0 006.91-9.85l.13-.2.26-.45.39-.67c.18-.32.37-.65.54-.98l.2-.37c.09-.15.16-.3.24-.46l.13-.24.08-.17c.1-.18.19-.36.26-.53l.64-1.37a96.8 96.8 0 002.33-5.5l.07-.18.15.22a47.86 47.86 0 005.17 6.26l.6.64.06.6a239.25 239.25 0 01.3 4.48l.18 3.02c.1 2.06.23 4.1.36 6.07a1.35 1.35 0 001.38 1.23c.31 0 .61-.1.86-.3.28-.2.47-.53.51-.88a214.39 214.39 0 001.1-13.75v-.82l-.01-.46-.02-.29a2.84 2.84 0 00-.17-.73l-.07-.16-.1-.18-.14-.25-.2-.29-.77-1-.88-1.2a46.66 46.66 0 01-3.07-4.91 59.95 59.95 0 01-2.5-5.16c.24-1.44.5-2.54.75-3.61l.07-.32 11.5 6.16c.47.26 1.06.15 1.42-.26M116.12 84.6a5.05 5.05 0 01-5.13-4.95c0-2.72 2.3-4.94 5.13-4.94a5.05 5.05 0 015.14 4.94c0 2.73-2.3 4.95-5.14 4.95zm0-9.7a4.85 4.85 0 00-4.93 4.75 4.85 4.85 0 004.93 4.75 4.84 4.84 0 004.94-4.74 4.85 4.85 0 00-4.94-4.75"/></g><g fill="#DCD5D8" transform="translate(101.16 74.82)"><path d="M31.48 30.59a1.06 1.06 0 01.16 1.53c-.36.4-.95.51-1.43.26l-11.5-6.16-.06.32a72.87 72.87 0 01-.84 3.37 55 55 0 002.59 5.4 46.66 46.66 0 003.95 6.1l.76 1.01.2.28.16.26.1.18.06.16a3.02 3.02 0 01.16.67l.03.35.01.46v.82l-.06 1.56c-.1 1.84-.23 3.79-.44 6.11-.16 2-.36 4.05-.6 6.08a1.3 1.3 0 01-.5.89c-.26.19-.56.29-.87.29h-.15a1.35 1.35 0 01-1.24-1.24c-.13-1.97-.26-4.01-.37-6.07l-.18-3.02c-.04-.88-.1-1.83-.18-3l-.1-1.48-.07-.57-.61-.67c-.4-.43-.77-.8-1.1-1.17a47.68 47.68 0 01-4.07-5.1l-.14-.21-.07.18a96.8 96.8 0 01-2.34 5.5l-.64 1.37-.25.53-.1.17-.12.25-.23.45-.2.37c-.18.33-.36.67-.55.98l-.38.67-.27.45-.13.2a110.76 110.76 0 01-3.3 5.04 92.35 92.35 0 01-3.6 4.8c-.31.38-.77.6-1.26.6-.34 0-.68-.11-.96-.32a1.49 1.49 0 01-.44-1.9l1.94-3.65c1.18-2.2 2.39-4.46 3.49-6.68.5-1.03.89-1.82 1.22-2.56l.17-.4.1-.23.08-.18.19-.46.53-1.34a101.62 101.62 0 003.43-10.54 47.9 47.9 0 01-2.02-5.86l-.1-.32-.1.32a122.7 122.7 0 00-1.96 6.46c-.27.99-.47 1.81-.64 2.54a.97.97 0 01-.44.62 1 1 0 01-.75.13.97.97 0 01-.78-1c.11-1.61.28-3.27.54-5.38a120.11 120.11 0 011.84-10.65c.4-1.9.86-3.74 1.26-5.3a2.6 2.6 0 011.7-1.81 10.6 10.6 0 012.99-.33c1.86 0 3.96.25 5.04.69a3 3 0 011.87 2.26l1.47 9 10.1 7.92zm-10.65 14c-.05.04-.04.1 0 .28l.2-.05-.01-.11-.02-.08v-.04l-.11-.05-.05.04"/><ellipse cx="14.97" cy="4.83" rx="4.94" ry="4.75"/></g></g><g fill-rule="nonzero"><g fill="#724292"><path d="M201.78 110.78l-2.3-1.25a1.37 1.37 0 01-.66-1.29l2.3 1.25c-.05.52.21 1.03.66 1.3"/><path d="M201.12 109.5l-2.3-1.26.07-.74 2.29 1.25zM188.15 112.82l-2.3-1.25c-.6-.31-.84-1.07-.6-1.82l2.3 1.25c-.25.74 0 1.5.6 1.82"/><path d="M187.55 111.01l-2.3-1.25.55-1.65 2.3 1.25z"/><path d="M188.1 109.36l-2.3-1.25.5-1.6 2.3 1.24zM201.18 108.75l-2.3-1.25c.55-6.15 1.47-16.4-1.92-26.64l2.3 1.25c3.38 10.24 2.47 20.5 1.92 26.64M206.95 79.6l-2.3-1.26a1 1 0 01-.46-1.06c.24-1.69.34-3.4.31-5.1-.02-1.62-.22-3.22-.6-4.78-.22-.88-.52-1.74-.89-2.57l2.3 1.25c.37.83.67 1.7.88 2.57.38 1.56.59 3.16.6 4.77.04 1.71-.07 3.42-.31 5.11a1 1 0 00.47 1.06M204.8 56.85l-2.3-1.25.12.07 2.3 1.25-.12-.07M188.6 107.75l-2.3-1.25a157.09 157.09 0 002.73-9.72c.15-.56.28-1.12.4-1.62l.38-1.63c.29-1.27.5-2.3.7-3.26a109.48 109.48 0 001.47-9.76 93.08 93.08 0 00.4-6.46 73.37 73.37 0 00-.56-10.58l2.3 1.25a65.17 65.17 0 01.55 10.58 74.11 74.11 0 01-.4 6.46 104.72 104.72 0 01-2.54 14.65l-.4 1.63c-.26 1.06-.55 2.15-.85 3.24a123.68 123.68 0 01-1.88 6.47M195.68 55.82l-2.3-1.25a17.1 17.1 0 016.8.2l2.3 1.25c-1.65-.43-3.79-.63-6.8-.2M202.49 56.02l-2.3-1.25c.76.2 1.5.47 2.22.8l2.3 1.24a14.1 14.1 0 00-2.22-.79M188 70.1l-2.29-1.25c-.1-.05-.18-.11-.26-.18l2.3 1.25c.08.07.16.13.26.18M193.79 57.15l-2.3-1.25.08-.11 2.3 1.25-.08.11"/><path d="M193.87 57.04l-2.3-1.25c.07-.1.14-.2.23-.29l2.3 1.25-.23.29"/><path d="M194.1 56.75l-2.3-1.25c.07-.09.16-.17.25-.25l2.3 1.25c-.1.08-.18.16-.26.25"/><path d="M194.34 56.5l-2.3-1.25.3-.24 2.3 1.25-.3.24"/><path d="M194.64 56.27l-2.3-1.25c.13-.1.27-.17.4-.24l2.3 1.25c-.14.07-.27.15-.4.24"/><path d="M195.04 56.03l-2.3-1.25c.21-.1.43-.16.65-.2l2.3 1.25c-.23.04-.44.1-.65.2M188.5 65.38l-2.3-1.25 5.3-8.23 2.29 1.25zM187.75 69.92l-2.3-1.25-5.55-4.88 2.3 1.25z"/><g><path d="M182.2 65.04l-2.3-1.25a1.21 1.21 0 01-.4-.89c0-.2.03-.39.1-.57l2.3 1.25c-.07.18-.1.38-.1.57 0 .34.14.66.4.89M181.9 63.58l-2.3-1.25.1-.2 2.3 1.25c-.04.07-.08.13-.1.2"/><path d="M182 63.38l-2.3-1.25c.02-.06.06-.11.1-.17l2.3 1.25c-.04.05-.08.1-.1.17"/><path d="M182.1 63.21l-2.3-1.25.05-.07.06-.07 2.3 1.25-.07.07-.05.07"/><path d="M182.2 63.07l-2.29-1.25c.04-.05.08-.1.13-.13l2.3 1.25c-.05.04-.1.08-.13.13"/><path d="M182.33 62.94l-2.3-1.25.16-.12 2.3 1.25c-.06.03-.1.07-.16.12"/><path d="M182.48 62.82l-2.3-1.25.2-.12 2.3 1.25a1.2 1.2 0 00-.2.12M182.69 62.7l-2.3-1.25c.11-.05.24-.09.36-.1.15-.03.3-.02.43.02l2.3 1.25a1.11 1.11 0 00-.43-.03c-.13.02-.25.06-.36.11"/><path d="M183.48 62.62l-2.3-1.25c.07.01.14.04.2.07l2.3 1.25a.88.88 0 00-.2-.07M183.68 62.69l-2.3-1.25.04.02 2.3 1.25-.04-.02"/></g><g><path d="M198.44 54.13l-2.3-1.25a4.29 4.29 0 01-2.12-3.88c0-.66.13-1.32.36-1.94l2.3 1.25a5.68 5.68 0 00-.36 1.94 4.3 4.3 0 002.12 3.88"/><path d="M196.67 48.3l-2.3-1.24c.1-.27.22-.52.35-.77l2.3 1.25c-.14.25-.25.5-.35.77M197.02 47.54l-2.3-1.25c.11-.21.24-.41.37-.6l2.3 1.24c-.13.2-.26.4-.37.6M197.4 46.93l-2.3-1.25c.12-.18.25-.36.4-.52l2.3 1.25c-.15.16-.28.34-.4.52M197.8 46.4l-2.3-1.24c.15-.17.31-.33.48-.48l2.3 1.26c-.17.14-.33.3-.47.47"/><path d="M198.27 45.94l-2.3-1.26c.18-.15.37-.3.56-.43l2.3 1.25c-.2.13-.38.28-.56.44"/><path d="M198.83 45.5l-2.3-1.25c.24-.17.48-.31.74-.43l2.3 1.25c-.26.12-.5.26-.74.43"/><path d="M199.57 45.07l-2.3-1.25c.43-.2.87-.34 1.34-.4a4.05 4.05 0 011.57.07l2.3 1.26a4.05 4.05 0 00-1.58-.09c-.46.07-.9.2-1.33.4"/><path d="M202.48 44.75l-2.3-1.25c.25.06.5.15.73.26l2.3 1.25c-.24-.11-.48-.2-.73-.26"/><path d="M203.2 45.01l-2.3-1.25.15.07 2.29 1.25-.13-.07"/></g></g><g fill="#724292" stroke="#724292" stroke-width=".5"><path d="M209.8 67.48c.16 1.9.12 3.82-.13 5.72a37.55 37.55 0 01-1.14 5.55c-.08.3-.27.57-.52.74-.15.1-.31.18-.49.2a.94.94 0 01-.31 0c-.5-.1-.81-.59-.73-1.15.24-1.7.35-3.4.32-5.12-.02-1.6-.22-3.2-.6-4.76-.22-.89-.52-1.75-.89-2.58-.18 2-.27 3.87-.28 5.7a66.7 66.7 0 00.21 5.94c.13 1.87.33 3.72.54 5.67l.04.38c.25 2.42.4 4.42.5 6.32a55.86 55.86 0 01-2.41 19.58c-.18.64-.7 1.12-1.36 1.25-.15.02-.31.01-.47-.02-.6-.14-1-.72-.97-1.41l.07-.74c.55-6.16 1.46-16.4-1.93-26.64a103.02 103.02 0 01-4.84 20.1c-.22.6-.4 1.13-.62 1.67a70.19 70.19 0 01-2.81 6.52l-.4.8-.44.81c-.24.5-.7.83-1.24.93-.26.04-.53 0-.76-.13-.6-.3-.84-1.07-.6-1.81l.54-1.65.51-1.62a170.76 170.76 0 002.73-9.71l.4-1.63.38-1.63.7-3.25a111.08 111.08 0 001.46-9.77 92.76 92.76 0 00.4-6.46 73.28 73.28 0 00-.56-10.59l-3.7 4.57-.24.32c-.3.37-.74.62-1.21.7-.43.06-.88-.06-1.21-.35l-5.55-4.88a1.21 1.21 0 01-.4-.89c0-.36.12-.72.35-1 .22-.3.54-.5.9-.56.24-.03.48.01.68.13l4.77 2.66 5.3-8.22a2.92 2.92 0 011.9-1.34c4.54-.64 7.1.14 9.01 1 .13.05.26.12.38.2l.11.08.12.1.16.14a5 5 0 01.24.22 11.72 11.72 0 011.44 1.79c.52.8.97 1.66 1.33 2.55a19.15 19.15 0 011.32 5.57zm-.3 5.73c.24-1.88.29-3.79.12-5.68-.15-1.9-.59-3.76-1.3-5.52a14.37 14.37 0 00-2.18-3.68c-.15-.18-.32-.36-.5-.55-.13-.12-.2-.2-.29-.27l-.16-.14-.11-.1-.1-.07a2.06 2.06 0 00-.36-.19c-1.9-.85-4.4-1.61-8.71-1.02-.82.1-1.54.57-1.98 1.27l-5.4 8.38-4.9-2.74a.9.9 0 00-.58-.1c-.31.05-.59.22-.78.47-.2.24-.3.55-.3.86 0 .29.13.56.34.76l5.55 4.88c.3.26.7.37 1.08.3.43-.06.81-.28 1.09-.61l.24-.29 3.96-4.88.03.19a65.55 65.55 0 01.59 10.8 96.65 96.65 0 01-1.87 16.26l-.7 3.27a68.8 68.8 0 01-.78 3.26c-.26 1.06-.55 2.16-.85 3.25a147.25 147.25 0 01-1.88 6.48l-.77 2.42-.29.85c-.21.65 0 1.32.53 1.59.2.1.44.14.67.1.47-.07.87-.37 1.09-.8l.43-.8.4-.81.76-1.61a73.7 73.7 0 002.04-4.9l.61-1.66a102.92 102.92 0 004.89-20.47l.05-.4.12.36c3.55 10.4 2.61 20.84 2.06 27.09l-.07.72c-.05.57.3 1.08.85 1.23.14.03.28.04.42.02.2-.03.38-.1.55-.22.3-.2.53-.52.64-.87a56.5 56.5 0 002.41-19.51c-.1-1.9-.26-3.9-.5-6.31l-.05-.38c-.2-1.96-.4-3.81-.53-5.68a66.92 66.92 0 01.1-11.98l.03-.39.14.29c.44.93.79 1.9 1.04 2.9.38 1.58.58 3.19.6 4.81.03 1.72-.08 3.44-.32 5.14a.8.8 0 00.6.96c.1.02.18.02.27 0a.9.9 0 00.4-.16c.21-.15.37-.36.44-.6.5-1.82.88-3.66 1.11-5.52M200.89 54.55c-2.53.35-4.58-1.58-4.57-4.3 0-2.73 2.06-5.23 4.58-5.59 2.52-.35 4.57 1.58 4.57 4.3 0 2.73-2.06 5.23-4.58 5.59zm.01-9.68c-2.42.34-4.4 2.74-4.4 5.36s1.96 4.47 4.39 4.13c2.42-.34 4.4-2.75 4.4-5.37 0-2.61-1.96-4.46-4.39-4.12"/></g><g fill="#D18AFF"><path d="M209.62 67.52c.17 1.9.12 3.8-.13 5.68a37.14 37.14 0 01-1.13 5.52c-.07.25-.23.46-.43.6a.9.9 0 01-.67.17.8.8 0 01-.6-.96c.23-1.7.34-3.42.31-5.14a21.75 21.75 0 00-.6-4.81c-.25-1-.6-1.98-1.04-2.9l-.14-.29-.03.39a68.54 68.54 0 00-.1 11.98c.13 1.87.33 3.72.53 5.68l.04.37c.25 2.41.42 4.42.51 6.31a56.5 56.5 0 01-2.4 19.5c-.1.37-.33.68-.64.88-.16.12-.35.2-.55.22-.14.02-.28.02-.42-.01-.54-.15-.9-.67-.85-1.23l.07-.73c.56-6.24 1.49-16.69-2.05-27.09l-.13-.35-.05.4a102.92 102.92 0 01-4.89 20.47c-.2.58-.4 1.12-.61 1.65-.19.5-.4 1.08-.64 1.64a73.7 73.7 0 01-2.56 5.68l-.43.8c-.22.43-.62.73-1.1.81-.22.03-.45 0-.66-.11-.52-.27-.74-.94-.53-1.59l.29-.85.77-2.42a147.25 147.25 0 001.88-6.48c.3-1.09.59-2.19.85-3.25l.4-1.63.38-1.63c.29-1.27.5-2.3.7-3.26a111.5 111.5 0 001.47-9.8 97.97 97.97 0 00.4-6.46 73.74 73.74 0 00-.57-10.81l-.03-.19-3.96 4.88-.24.29c-.28.33-.66.55-1.09.62-.39.06-.78-.05-1.08-.31l-5.55-4.88a1.03 1.03 0 01-.34-.75c-.01-.31.1-.62.29-.86.19-.25.46-.42.77-.47.2-.03.4 0 .58.1l4.91 2.74 5.4-8.38a2.7 2.7 0 011.86-1.25c4.42-.6 6.92.15 8.79.98.13.05.26.12.39.2l.1.07.12.1.16.14.23.22a9.66 9.66 0 011.41 1.76c.53.8.97 1.64 1.32 2.52a18.85 18.85 0 011.31 5.52zM200.89 54.35c-2.42.34-4.4-1.51-4.39-4.13 0-2.62 1.98-5.02 4.4-5.36 2.43-.34 4.4 1.51 4.39 4.13 0 2.61-1.98 5.02-4.4 5.36z"/></g></g><g fill-rule="nonzero"><g fill="#0051BA"><path d="M158.03 94.33l-2.3-1.25a1.3 1.3 0 01-.64-.92l-.15-.8 2.3 1.26.15.8c.06.39.3.72.64.91"/><path d="M157.24 92.63l-2.3-1.25-.13-.78 2.3 1.25zM171.64 92.36l-2.3-1.25a1.23 1.23 0 01-.52-.56 85 85 0 01-4.4-11.7 103.2 103.2 0 01-1.61-6.17l2.3 1.25c.45 2.04 1 4.12 1.6 6.17a85 85 0 004.4 11.7c.1.24.3.45.53.57"/><path d="M165.1 73.93l-2.29-1.25-.68-3.1 1.42-3.77.87 5.02zM171.9 63.02l-2.3-1.25c-.31-.17-.51-.5-.52-.86a45.88 45.88 0 00-.82-6.32l-.1-.48 2.3 1.25.1.48.16.85c.33 1.8.55 3.63.65 5.47.01.36.21.69.53.86"/><path d="M170.46 55.37l-2.3-1.25-.1-.47-.2-.83 2.3 1.25.2.83.1.47"/><path d="M170.16 54.07l-2.3-1.25a37.25 37.25 0 00-1.62-4.93l2.3 1.25a35.77 35.77 0 011.62 4.93M157.11 91.84l-2.3-1.25a55.6 55.6 0 01-.52-4.73 70 70 0 01.24-12.99 56.18 56.18 0 012.07-9.99l2.3 1.25a56.18 56.18 0 00-2.07 9.99 69.3 69.3 0 00.29 17.72"/><path d="M158.9 64.15l-2.3-1.25.51-1.58 2.3 1.25z"/><path d="M159.4 62.57l-2.3-1.25c.12-.4.22-.78.28-1.18.12-.78.15-1.57.09-2.36-.07-.9-.2-1.78-.37-2.66-.25-1.38-.57-2.76-.9-4.22l-.34-1.54-.22-1 2.3 1.26a173.83 173.83 0 00.56 2.53c.33 1.46.64 2.84.9 4.22.17.88.3 1.77.37 2.66a10.09 10.09 0 01-.37 3.54M166.94 37.99l-2.3-1.25a2.65 2.65 0 01.89.06l2.3 1.25a2.27 2.27 0 00-.9-.06M167.83 38.04l-2.3-1.25c.14.03.28.08.4.15l2.3 1.25a2.04 2.04 0 00-.4-.15"/><path d="M168.23 38.19l-2.3-1.25.08.04 2.3 1.25-.08-.04M157.33 61.08l-2.3-1.25-6.5-5.54 2.28 1.25zM158.35 41.16l-2.3-1.25c.82-.54 1.68-1.02 2.56-1.44l2.3 1.25c-.89.42-1.74.9-2.56 1.44"/><path d="M160.9 39.73l-2.3-1.25c1.92-.89 3.96-1.47 6.06-1.73l2.3 1.25c-2.1.26-4.14.84-6.06 1.73M157.45 42.1l-2.3-1.25.1-.14 2.3 1.25-.1.14M157.54 41.95l-2.3-1.25c.07-.1.15-.2.23-.28l2.3 1.25-.23.28"/><path d="M157.76 41.67l-2.3-1.25.26-.26 2.3 1.25-.26.26M158.02 41.41l-2.3-1.25.3-.24 2.3 1.25-.3.24M158.33 41.17l-2.3-1.25.02-.02 2.3 1.25-.02.02M150.74 52.79l-2.3-1.25 6.71-10.7 2.3 1.26zM150.57 53.07l-2.3-1.25.17-.28 2.3 1.25z"/><g><path d="M150.82 55.54l-2.3-1.25c-.55-.47-.71-1.31-.43-2.08l2.3 1.25c-.29.77-.13 1.6.43 2.08"/><path d="M150.39 53.46l-2.3-1.25.13-.3 2.3 1.26c-.05.1-.1.2-.13.3"/><path d="M150.52 53.17l-2.3-1.25.06-.1 2.3 1.25-.06.1"/></g><g><path d="M159.34 37.67l-2.3-1.25a4.28 4.28 0 01-2.13-3.88c0-.66.13-1.32.36-1.94l2.3 1.25a5.68 5.68 0 00-.36 1.94c0 1.76.85 3.18 2.13 3.88"/><path d="M157.56 31.85l-2.3-1.25c.1-.26.22-.52.35-.77l2.3 1.25c-.13.25-.25.5-.35.77"/><path d="M157.9 31.08l-2.29-1.25c.11-.21.24-.41.38-.6l2.3 1.24c-.14.2-.27.4-.38.6"/><path d="M158.28 30.47l-2.3-1.25c.13-.18.27-.35.42-.52l2.3 1.25c-.15.17-.28.34-.4.52"/><path d="M158.7 29.95l-2.3-1.25c.15-.17.3-.33.47-.47l2.3 1.25c-.17.15-.33.3-.47.47"/><path d="M159.17 29.48l-2.3-1.25c.17-.16.36-.3.55-.44l2.3 1.25c-.2.14-.38.28-.55.44"/><path d="M159.72 29.04l-2.3-1.25c.24-.16.48-.3.74-.43l2.3 1.25c-.26.13-.5.27-.74.43"/><path d="M160.46 28.6l-2.3-1.24c.43-.2.88-.34 1.34-.4a4.1 4.1 0 011.57.08l2.3 1.25a4.1 4.1 0 00-1.58-.08c-.46.06-.9.2-1.33.4M163.37 28.29l-2.3-1.25c.25.06.5.15.73.27l2.3 1.25c-.24-.12-.48-.2-.73-.27"/><path d="M164.1 28.56l-2.3-1.25.14.07 2.3 1.25-.14-.07"/></g></g><g fill="#0051BA" stroke="#0051BA" stroke-width=".5"><path d="M173.82 90.4c.16.85-.3 1.7-1.1 2.02-.1.04-.2.07-.31.08a1.2 1.2 0 01-1.3-.7 85 85 0 01-4.4-11.7 101.7 101.7 0 01-1.6-6.17l-.68-3.1a117.5 117.5 0 01-.94-4.78c-.23.72-.46 1.47-.66 2.22a72.54 72.54 0 00-2.08 12.07 105.4 105.4 0 00-.4 6.15c-.04.89-.06 1.78-.07 2.65V92.67c.01.42-.14.84-.4 1.17-.26.33-.62.56-1.03.63a1.26 1.26 0 01-1.45-1.05l-.15-.8-.13-.79a63.76 63.76 0 01-.52-4.72 69.3 69.3 0 01.24-13 56.18 56.18 0 012.07-9.98l.51-1.58a9.73 9.73 0 00.36-3.53c-.07-.9-.2-1.78-.38-2.65-.25-1.38-.56-2.76-.89-4.22a172.11 172.11 0 01-.57-2.53l-3.15 4.05 4.35 5.34c.21.27.3.6.26.95-.04.36-.2.7-.46.95-.2.21-.48.35-.77.4-.3.05-.6-.04-.83-.24l-6.52-5.54c-.66-.55-.76-1.6-.24-2.47l.17-.28 6.7-10.69c.23-.37.54-.7.9-.94a19.9 19.9 0 018.6-3.17c.18-.02.38-.02.57 0 .6.07 1.15.38 1.5.87l.25.39.15.25a23.21 23.21 0 011.05 2.08c.4.88.76 1.8 1.08 2.74a39.53 39.53 0 011.9 8.6c.05.33.08.66.11.97l.05.51.03.51a51.3 51.3 0 010 6.94c-.03.65-.5 1.18-1.13 1.3a1 1 0 01-1.14-.98 45.83 45.83 0 00-.82-6.32l-.1-.47-.1-.47-.2-.83a36.91 36.91 0 00-1.63-4.93 78.1 78.1 0 00-.16 10.7c.12 2.25.4 4.42.64 6.08.13.9.28 1.86.49 3.07l.54 3.1a268.63 268.63 0 002.45 12.2 954.38 954.38 0 001.34 6.11zm-1.14 1.84a1.6 1.6 0 00.97-1.76 288.47 288.47 0 00-1.34-6.13 268.96 268.96 0 01-2.45-12.2l-.54-3.1-.5-3.07a68.52 68.52 0 01-.73-12.3c.05-1.55.14-3.16.3-4.9l.03-.39.14.33a35.22 35.22 0 011.97 6.12l.1.46c.05.16.07.32.1.48l.17.85c.33 1.82.55 3.65.66 5.49a.85.85 0 00.89.84c.27-.03.51-.15.7-.35.19-.2.3-.47.32-.75.14-1.98.16-3.96.06-5.94-.01-.33-.04-.66-.06-.97a31.92 31.92 0 01-.08-1.02l-.1-.96a41.24 41.24 0 00-1.9-8.57 31.94 31.94 0 00-2.07-4.7l-.2-.33-.2-.3a2.03 2.03 0 00-1.98-.88c-2.38.34-5.16.96-8.39 3.05-.39.24-.72.57-.96.96l-6.7 10.68-.17.28c-.47.77-.37 1.73.21 2.22l6.52 5.54c.2.17.46.24.71.2.25-.04.49-.16.66-.34.23-.22.37-.5.4-.82.04-.29-.04-.58-.22-.8l-4.45-5.47 3.5-4.48.03.17a146.14 146.14 0 00.6 2.7c.32 1.4.65 2.84.9 4.23.18.9.3 1.79.37 2.7a10.16 10.16 0 01-.37 3.6l-.1.35-.42 1.24a56.6 56.6 0 00-2.06 9.94 66.82 66.82 0 00-.24 12.95 68.48 68.48 0 00.53 4.7l.13.79.14.8c.1.59.65 1 1.25.91.37-.06.7-.26.92-.55.24-.3.37-.66.37-1.03l-.02-1.96V89.17c.02-.87.03-1.76.07-2.65.08-2.13.22-4.2.4-6.16a72.67 72.67 0 012.1-12.1c.23-.89.51-1.77.78-2.6l.11-.36.06.36a122.41 122.41 0 00.99 5.13l.68 3.09a91.3 91.3 0 006 17.83c.19.44.65.7 1.13.62.1-.01.18-.03.27-.07M161.78 38.09c-2.53.35-4.57-1.57-4.57-4.3 0-2.72 2.06-5.23 4.58-5.58 2.52-.36 4.57 1.57 4.57 4.3 0 2.72-2.06 5.22-4.58 5.58zm.01-9.68c-2.42.33-4.4 2.74-4.4 5.36 0 2.61 1.96 4.47 4.38 4.12 2.43-.34 4.4-2.74 4.4-5.36.01-2.62-1.96-4.47-4.38-4.13"/></g><g fill="#66ABFF"><path d="M173.65 90.47a1.6 1.6 0 01-.97 1.77c-.09.03-.18.06-.27.07-.48.07-.94-.18-1.14-.62A84.75 84.75 0 01166.9 80c-.6-2.05-1.15-4.12-1.61-6.16l-.69-3.1a122.41 122.41 0 01-.98-5.12l-.06-.36-.11.37c-.27.82-.55 1.7-.78 2.6a73.05 73.05 0 00-2.1 12.1c-.18 1.95-.32 4.03-.4 6.16-.04.88-.05 1.78-.07 2.65V90.73l.02 1.95c0 .38-.13.74-.37 1.04-.22.28-.54.48-.9.54a1.1 1.1 0 01-1.27-.91l-.14-.8-.13-.78a64.47 64.47 0 01-.71-11.12c.03-2.18.17-4.38.42-6.54a56.6 56.6 0 012.06-9.94l.41-1.24.1-.34a9.35 9.35 0 00.38-3.61c-.07-.9-.2-1.8-.37-2.7-.25-1.37-.58-2.82-.9-4.23l-.34-1.54-.26-1.15-.04-.17-3.5 4.5 4.45 5.46c.18.23.26.52.22.8-.03.32-.18.6-.4.82-.18.19-.4.3-.66.35a.9.9 0 01-.71-.2l-6.51-5.54c-.59-.5-.68-1.46-.22-2.22l.17-.28 6.7-10.69c.23-.37.54-.68.9-.92a19.69 19.69 0 018.37-3.07 1.98 1.98 0 012 .79l.25.37.15.25c.17.31.3.53.4.74a31.94 31.94 0 011.71 4.04 39.5 39.5 0 011.9 8.57c.05.32.07.65.1.96l.05.5.04.52.06.97c.1 1.98.07 3.96-.06 5.94-.02.28-.14.55-.33.76-.16.18-.39.3-.63.34a.86.86 0 01-.95-.84 46.68 46.68 0 00-.83-6.34l-.1-.48-.1-.46a36.22 36.22 0 00-1.97-6.12l-.14-.33-.04.38a81.34 81.34 0 00-.28 4.91 68.52 68.52 0 00.73 12.3c.13.9.28 1.87.49 3.07l.54 3.1a268.96 268.96 0 002.45 12.2 868.64 868.64 0 001.35 6.13zM161.78 37.9c-2.42.34-4.4-1.52-4.39-4.13 0-2.62 1.98-5.03 4.4-5.37 2.43-.34 4.4 1.51 4.39 4.13 0 2.62-1.98 5.02-4.4 5.36z"/></g></g><g fill-rule="nonzero"><g fill="#999298"><path d="M252.1 73.73v-2.5l.13.1v2.5a1.61 1.61 0 00-.13-.1M252.23 73.84v-2.5c.37.31.58.76.58 1.24v2.5c0-.48-.21-.93-.58-1.24M249.4 71.7v-2.5l2.69 2.03v2.5zM246.76 69.65v-2.5c.93.74 1.8 1.4 2.64 2.05v2.5c-.85-.64-1.7-1.31-2.64-2.04M216.12 67.81v-2.5a65.3 65.3 0 00.37 5.59 127.6 127.6 0 00.97 6.65v2.51a90.85 90.85 0 01-.97-6.65 68.54 68.54 0 01-.29-3.3c-.05-.85-.08-1.6-.08-2.29"/><path d="M241.63 65.46v-2.5c1.5 1.28 3.18 2.66 5.14 4.2v2.5c-1.96-1.54-3.63-2.92-5.14-4.2M239.19 63.29v-2.5l.35.32v2.5l-.35-.32M239.54 63.61v-2.5l.53.47.32.29v2.5l-.32-.29-.53-.47M240.39 64.37v-2.5l.05.05v2.5a.55.55 0 01-.05-.05"/><path d="M240.44 64.42v-2.5l.83.72.36.3v2.51l-.36-.3-.83-.74M238.96 63.06v-2.5l.23.22v2.5zM211.44 65.78v-2.5c0-.27 0-.53.02-.78.02-.36.06-.72.12-1.08.06-.42.17-.84.31-1.24v2.5a7.08 7.08 0 00-.43 2.32l-.02.78"/><path d="M211.89 62.68v-2.5l.12-.3v2.5zM238.03 62.18v-2.5l.93.89v2.5c-.31-.3-.64-.59-.93-.9M212.01 62.37v-2.5l.11-.26v2.5zM237.46 61.61v-2.5l.57.56v2.5z"/><path d="M230.87 51.87v-2.5a41.73 41.73 0 002.33 4.25 33.05 33.05 0 003.73 4.93l.2.2.34.36v2.5l-.33-.35-.2-.2a33.05 33.05 0 01-3.74-4.94 45.66 45.66 0 01-2.33-4.25M212.12 62.12v-2.5a15.6 15.6 0 01.78-1.46c.36-.58.77-1.14 1.2-1.67a29.74 29.74 0 013.11-3.19v2.5l-.44.4c-.95.88-1.84 1.8-2.66 2.8a15.65 15.65 0 00-1.75 2.61l-.24.5M217.22 55.79v-2.5c.66-.6 1.39-1.24 2.28-2l1.05-.88 1.58-1.32v2.5l-1.58 1.32-1.05.89c-.9.75-1.61 1.39-2.28 1.99"/><path d="M222.13 51.59v-2.5c.4-.36.76-.66 1.08-.96v2.5c-.32.3-.67.61-1.08.96M223.21 50.64v-2.51l.11-.1.2 2.32-.3.29M231.43 38.9v-2.5c.32 2.01.64 4.08.7 6.35v2.51c-.06-2.28-.38-4.35-.7-6.36M231.29 37.97v-2.5l.14.92v2.5zM208.03 37.61v-2.5l7.39 2.38V40zM206.1 38.95v-2.5a1.36 1.36 0 01.45-1.02v2.5a1.41 1.41 0 00-.46 1.03M206.55 37.94v-2.5a1.51 1.51 0 011.48-.32v2.5a1.51 1.51 0 00-1.47.32M234.77 46.87v-2.5l.36-9.57v2.5zM230.97 35.7v-2.5c.07.73.2 1.48.32 2.27v2.5c-.13-.79-.25-1.54-.32-2.27"/><g><path d="M238.26 34.62v-2.5c.09.06.18.12.26.2v2.5a1.82 1.82 0 00-.26-.2M238.52 34.81v-2.5c.36.32.57.77.58 1.25v2.5c0-.48-.22-.93-.58-1.25"/></g><path d="M238.1 34.53v-2.5l.16.1v2.5zM215.42 40v-2.5l5.24-9.28v2.5z"/><g><path d="M220.66 30.72v-2.5c.16-.28.36-.53.6-.74v2.5c-.24.22-.44.47-.6.74"/><path d="M221.25 29.98v-2.5c.28-.25.6-.45.93-.59v2.5c-.34.14-.65.34-.93.6"/></g><path d="M227.83 28.87v-2.5c.24.04.47.1.69.2a62.1 62.1 0 018.44 4.7c.38.24.72.47 1.14.76v2.5a62.07 62.07 0 00-2.28-1.49 64.9 64.9 0 00-4.75-2.74c-.8-.4-1.66-.82-2.55-1.23a3.1 3.1 0 00-.69-.2"/><path d="M222.18 29.4v-2.5c1.8-.67 3.75-.85 5.65-.53v2.5c-1.9-.32-3.84-.14-5.65.53"/><g><path d="M218.81 23.13v-2.5c0-1.37.6-2.67 1.62-3.58v2.5a4.84 4.84 0 00-1.62 3.58"/><path d="M220.42 19.55v-2.5c2-1.81 5.06-1.81 7.06 0v2.5c-2-1.8-5.05-1.8-7.06 0M227.48 19.55v-2.5a4.84 4.84 0 011.62 3.58v2.5c-.01-1.37-.6-2.67-1.62-3.58"/></g></g><g fill="#999298" stroke="#999298" stroke-width=".5"><path d="M252.1 73.73c.67.5.87 1.44.45 2.17-.32.56-.92.9-1.56.9-.3 0-.59-.08-.85-.21a75.16 75.16 0 01-4.53-2.57l-1.47-.91a90.44 90.44 0 01-5.73-3.91c-1-.73-1.9-1.44-2.76-2.16l-.25-.2c-.37-.3-.74-.61-1.1-.95l-.67-.6-.44-.4-.22-.23a38.75 38.75 0 01-6.51-8.37l-.2.14c-.9.66-1.8 1.27-2.66 1.86l-.38.26c-.93.63-1.81 1.22-2.65 1.85-.84.6-1.65 1.27-2.4 1.99a11.27 11.27 0 00-1.46 1.75l-.16.27a5.7 5.7 0 00-.28 1c-.07.5-.12.99-.13 1.48-.04 1.06-.02 2.13.06 3.2.07 1.06.16 2.18.3 3.3a125.22 125.22 0 00.96 6.66c.14.78-.34 1.53-1.1 1.73a1.6 1.6 0 01-1.96-1.02A97.22 97.22 0 01212.6 74a44.36 44.36 0 01-1.12-7.06 16.77 16.77 0 01.1-3.03c.06-.42.17-.83.31-1.24l.12-.3.11-.27a15.42 15.42 0 01.78-1.45c.36-.58.77-1.14 1.2-1.67.83-.98 1.72-1.92 2.67-2.79a73.1 73.1 0 012.73-2.4l1.05-.88 1.58-1.33 1.2-1.06.18-.18a45.59 45.59 0 01-2.9-10.26l-3.05 3.24c-.33.35-.78.54-1.26.54-.23 0-.45-.05-.66-.13L207 40.27a1.41 1.41 0 01-.83-1.75 1.48 1.48 0 011.87-.9l7.4 2.37 5.24-9.27a3.1 3.1 0 011.53-1.33c1.8-.67 3.75-.85 5.64-.53.24.04.47.1.69.2.9.4 1.75.8 2.55 1.23a64.9 64.9 0 015.89 3.47l1.15.76.15.1c.57.35.88 1 .78 1.68l-1.66 10.8a1.31 1.31 0 01-2.6-.24l.35-9.56-.16-.07-1.2-.5c-.79-.3-1.6-.61-2.41-.9l-.4-.14c.06.73.2 1.48.32 2.27l.14.93c.31 2.01.64 4.08.7 6.36.05 1.38-.06 2.76-.33 4.12l-.04.16-.1.4-.17.61a7.2 7.2 0 01-.62 1.34 41.87 41.87 0 002.32 4.25 33.05 33.05 0 003.74 4.93l.2.2.34.36.56.56.93.89.23.22.88.8.33.29.87.77.36.31c1.5 1.28 3.18 2.66 5.13 4.2l2.65 2.04 2.68 2.03zm.28 2.07c.37-.64.2-1.47-.4-1.91l-2.7-2.04a145.56 145.56 0 01-7.78-6.25l-.35-.3-.88-.78-.33-.3c-.3-.25-.6-.52-.88-.8l-.25-.21-.93-.9-.56-.56-.35-.36a33.31 33.31 0 01-3.96-5.16 42.05 42.05 0 01-2.35-4.32c.24-.46.45-.94.63-1.43l.09-.3.08-.29.1-.38.03-.17c.28-1.34.39-2.71.33-4.08-.06-2.26-.38-4.33-.7-6.33l-.14-.93-.39-2.44-.02-.16.35.12.4.14 2.42.91 1.21.5.3.12-.37 9.7a1.09 1.09 0 001.07 1.1 1.1 1.1 0 001.13-.91l1.67-10.8a1.5 1.5 0 00-.7-1.5l-.15-.09a55.31 55.31 0 00-2.29-1.49c-.76-.47-1.54-.94-2.33-1.4a55.71 55.71 0 00-4.95-2.56c-.2-.09-.42-.16-.64-.2a10.71 10.71 0 00-5.3.44c-.7.23-1.29.7-1.66 1.34l-5.31 9.4-7.55-2.41a1.29 1.29 0 00-1.62.77c-.2.61.11 1.28.72 1.52l8.65 3.46c.59.24 1.26.1 1.7-.36l3.33-3.54.03.2c.35 2.2.85 4.39 1.52 6.52.41 1.33 1.43 3.96 1.43 3.96l.02.06-.29.27c-.36.34-.74.67-1.14 1.02l-1.63 1.37-1.05.88c-1.1.93-1.94 1.67-2.73 2.4-.94.87-1.82 1.8-2.64 2.77a15.77 15.77 0 00-1.73 2.58l-.23.5-.23.56c-.14.4-.24.8-.3 1.2a16.42 16.42 0 00-.1 2.99c.17 2.54.64 4.89 1.11 7.04a88.75 88.75 0 001.8 6.73c.19.58.72.96 1.32.95.14 0 .27-.01.4-.05.65-.17 1.07-.82.96-1.5a96.06 96.06 0 01-1.27-10c-.08-1.07-.1-2.15-.07-3.22a12.91 12.91 0 01.27-2.12c.04-.16.1-.3.17-.45l.16-.27.14-.2a11.57 11.57 0 011.36-1.58c.76-.73 1.57-1.4 2.42-2.02.84-.63 1.72-1.23 2.65-1.86l.38-.25c.86-.6 1.76-1.21 2.66-1.86l.29-.2c.74 1.03 1.37 2.01 2.03 2.96a38.74 38.74 0 004.65 5.49l.22.21.44.4.66.6c.36.32.73.64 1.1.94l.25.2a88.86 88.86 0 008.47 6.06l1.46.9a136.66 136.66 0 004.51 2.57c.23.12.5.18.76.19.57 0 1.1-.3 1.38-.8M223.95 28.08a5.05 5.05 0 01-5.14-4.95c0-2.72 2.3-4.94 5.14-4.94a5.05 5.05 0 015.14 4.94c0 2.73-2.3 4.95-5.14 4.95zm0-9.7a4.85 4.85 0 00-4.94 4.75 4.86 4.86 0 004.94 4.75 4.85 4.85 0 004.94-4.75 4.85 4.85 0 00-4.94-4.74"/></g><g fill="#D8D1D4"><path d="M251.94 73.87c.62.43.81 1.27.44 1.93a1.63 1.63 0 01-2.14.6c-1.01-.52-2-1.07-3.03-1.67l-1.48-.88-1.48-.9a89.43 89.43 0 01-8.47-6.07l-.24-.2c-.37-.3-.74-.61-1.1-.94l-.67-.6-.43-.4-.23-.22a38.74 38.74 0 01-6.53-8.42.85.85 0 00-.43.18c-.9.66-1.8 1.27-2.67 1.86l-.37.25c-.93.63-1.82 1.23-2.66 1.86-.85.61-1.66 1.29-2.42 2.01a11.57 11.57 0 00-1.36 1.59l-.13.2-.16.27c-.07.14-.13.3-.17.45a12.91 12.91 0 00-.27 2.12c-.03 1.07-.01 2.15.07 3.22a67.96 67.96 0 00.73 6.66c.16 1.18.35 2.3.53 3.33.12.68-.3 1.33-.96 1.51-.13.04-.26.05-.39.05-.6.01-1.13-.37-1.32-.95-.73-2.4-1.32-4.6-1.8-6.73-.48-2.13-.95-4.5-1.11-7.03a16.42 16.42 0 01.1-3c.05-.4.16-.8.3-1.2l.22-.56a11.85 11.85 0 011.96-3.08c.82-.98 1.7-1.9 2.65-2.77.78-.73 1.62-1.47 2.72-2.4l1.05-.88 1.58-1.33c.46-.4.84-.72 1.2-1.06l.24-.22c-.5-1.4-1-2.74-1.41-4.07a45.9 45.9 0 01-1.51-6.52l-.03-.2-3.34 3.54c-.44.46-1.11.6-1.7.36l-8.64-3.47c-.6-.23-.92-.9-.71-1.51.24-.65.95-1 1.61-.77l7.55 2.42 5.3-9.41c.35-.6.9-1.06 1.56-1.3 1.7-.59 3.5-.75 5.28-.48a3 3 0 01.76.2A67.2 67.2 0 01238 34.7l.15.1c.51.32.78.9.7 1.5l-1.66 10.79a1.11 1.11 0 01-2.21-.2l.37-9.7-.3-.12a113.67 113.67 0 00-3.62-1.4l-.4-.14-.36-.13.02.16c.12.81.25 1.6.4 2.45l.14.93c.3 2 .63 4.06.7 6.33.05 1.36-.06 2.73-.33 4.08l-.04.16-.1.39-.08.28-.1.3c-.15.47-.36.92-.62 1.35.24.58.5 1.14.8 1.7.46.88.99 1.8 1.56 2.7a33.31 33.31 0 003.96 5.17l.34.35.56.57.93.9.24.21c.28.27.59.54.88.8l.33.3.87.77.36.31a156.56 156.56 0 007.79 6.25l2.66 2.02zM223.95 27.88a4.85 4.85 0 01-4.94-4.75 4.85 4.85 0 014.94-4.74 4.85 4.85 0 014.94 4.74 4.85 4.85 0 01-4.94 4.75z"/></g></g><path d="M67.3 11.5h213.15v145.8H67.3z"/></g></g></g></g></svg>