<svg viewBox="0 0 375 156" xmlns="http://www.w3.org/2000/svg" xmlns:xlink="http://www.w3.org/1999/xlink"><defs><rect id="c" x="0" y="0" width="312" height="156" rx="4.436"/><path id="a" d="M0 0h375v164H0z"/></defs><g fill="none" fill-rule="evenodd"><mask id="b" fill="#fff"><use xlink:href="#a"/></mask><path fill="#523178" mask="url(#b)" d="M0-126h375V55.698L0 94z"/><g mask="url(#b)"><g transform="translate(83 -1)"><mask id="d" fill="#fff"><use xlink:href="#c"/></mask><g mask="url(#d)"><path d="M190.082 78.59c-14.654-8.47-38.336-8.47-52.904 0-14.567 8.469-14.475 22.192.18 30.651 14.654 8.46 38.332 8.47 52.89 0 14.557-8.47 14.489-22.182-.166-30.652" fill="#66ABFF" fill-rule="nonzero" opacity=".4"/><path d="M221.042 95.486c-14.654-8.47-38.338-8.47-52.904 0-14.566 8.47-14.475 22.183.18 30.652 14.654 8.47 38.33 8.47 52.89 0 14.56-8.47 14.489-22.182-.166-30.652" fill="#DAA2FF" fill-rule="nonzero" opacity=".5" style="mix-blend-mode:multiply"/><path d="M142.005 117.251c-14.654-8.47-38.338-8.47-52.904 0-14.565 8.47-14.475 22.183.18 30.652 14.654 8.47 38.33 8.47 52.89 0 14.56-8.47 14.489-22.182-.166-30.652M256.87 62.669c-14.655-8.47-38.34-8.47-52.905 0-14.566 8.47-14.475 22.192.18 30.651 14.654 8.46 38.33 8.47 52.89 0 14.56-8.47 14.489-22.182-.166-30.651" fill="#DCD5D8" fill-rule="nonzero" opacity=".4" style="mix-blend-mode:multiply"/><g fill-rule="nonzero"><g fill="#999298"><path d="M127.137 118.782v-2.513c.02.178.027.262.033.347 0 .185.012.34.012.484v2.5c0-.143 0-.298-.012-.483 0-.085-.013-.168-.033-.345M101.091 132.861v-2.502c.001-.267.066-.53.19-.766a492.701 492.701 0 011.945-3.669c1.167-2.194 2.376-4.462 3.487-6.682.51-1.023.886-1.815 1.219-2.551.064-.138.119-.269.173-.404.03-.076.063-.153.095-.23v2.503l-.095.228a9.35 9.35 0 01-.173.403c-.333.744-.71 1.53-1.22 2.553-1.11 2.218-2.32 4.487-3.486 6.681-.64 1.198-1.3 2.436-1.945 3.67-.124.237-.19.5-.19.766M127.037 118.264v-2.507c.049.166.083.336.1.508v2.517a2.706 2.706 0 00-.1-.508M126.968 118.06v-2.505c.024.069.048.137.069.202v2.502a2.957 2.957 0 00-.069-.201M108.279 118.378v-2.5c.062-.145.123-.293.187-.452v2.5c-.064.16-.125.307-.187.454M126.895 117.888v-2.502l.073.171v2.503zM126.797 117.695v-2.503c.034.065.068.13.098.202v2.502c-.03-.064-.064-.129-.098-.201M126.523 117.257v-2.502l.274.437v2.503zM108.466 117.927v-2.5l.53-1.338v2.5z"/><path d="M125.674 116.116v-2.5l.849 1.139v2.502zM108.996 116.59v-2.5a100.687 100.687 0 001.915-5.401 87.757 87.757 0 001.501-5.09v2.5a87.816 87.816 0 01-1.501 5.092 106.175 106.175 0 01-1.915 5.399M132.76 105.257v-2.501c.309.238.49.605.49.994v2.5c0-.389-.181-.756-.49-.993"/><path d="M119.172 104.74v-2.494a58.97 58.97 0 002.56 5.293 46.444 46.444 0 003.063 4.889c.26.365.549.754.88 1.191v2.503c-.331-.438-.62-.829-.88-1.194a46.236 46.236 0 01-3.063-4.888 59.81 59.81 0 01-2.56-5.294M122.72 97.396v-2.5l10.04 7.86v2.5zM121.264 88.463v-2.501l1.455 8.933v2.501zM119.327 86.077v-2.5c.196.083.385.184.563.302v2.502a3.426 3.426 0 00-.563-.304"/><path d="M119.9 86.381V83.88a3.128 3.128 0 011.374 2.083v2.5a3.12 3.12 0 00-1.374-2.08M105.626 109.078v-2.5-.077c.107-1.626.274-3.29.54-5.395a128.864 128.864 0 011.842-10.674c.404-1.899.863-3.744 1.26-5.299a2.74 2.74 0 011.147-1.613v2.503c-.57.375-.98.95-1.147 1.613a123.06 123.06 0 00-1.26 5.3 128.042 128.042 0 00-1.842 10.673c-.266 2.103-.433 3.767-.54 5.394v.075"/><path d="M110.413 86.029v-2.503c.19-.125.392-.227.605-.307v2.501c-.213.08-.416.183-.605.309"/><path d="M111.014 85.72v-2.5c.77-.265 1.898-.372 3.126-.372 1.926 0 4.099.265 5.187.728v2.501c-1.088-.464-3.26-.726-5.187-.726-1.228 0-2.357.107-3.126.369"/><g><path d="M110.985 79.66v-2.508a4.885 4.885 0 012.217-4.064v2.5a4.889 4.889 0 00-2.217 4.066M113.204 75.589v-2.5a5.29 5.29 0 015.845 0v2.5a5.3 5.3 0 00-5.845 0"/><path d="M119.045 75.589v-2.5a4.889 4.889 0 012.217 4.063v2.508a4.893 4.893 0 00-2.217-4.065"/></g></g><g fill="#999298" stroke="#999298" stroke-width=".5"><path d="M132.76 105.257a1.248 1.248 0 01.192 1.8 1.364 1.364 0 01-1.679.309l-11.258-6.036a76.877 76.877 0 01-.843 3.41 58.707 58.707 0 002.56 5.294 46.236 46.236 0 003.063 4.888c.26.365.549.756.88 1.194l.848 1.141.274.438c.034.064.068.129.098.201l.073.172a2.706 2.706 0 01.17.71c.02.177.026.26.032.345 0 .185.012.34.012.484v.826a78.607 78.607 0 01-.06 1.567c-.096 1.845-.233 3.79-.436 6.119a180.481 180.481 0 01-.605 6.081 1.478 1.478 0 01-.582 1.019 1.598 1.598 0 01-1.161.325 1.542 1.542 0 01-1.411-1.412 456.227 456.227 0 01-.367-6.068l-.177-3.025c-.049-.879-.107-1.833-.184-3-.028-.404-.064-.942-.11-1.469a28.908 28.908 0 00-.053-.538l-.568-.59c-.403-.426-.77-.807-1.1-1.172a47.897 47.897 0 01-4.013-5.016 94.332 94.332 0 01-2.268 5.34l-.637 1.361c-.078.17-.169.35-.26.529l-.088.177-.125.246c-.077.156-.156.31-.238.46l-.202.367c-.177.329-.363.67-.55.99l-.38.666c-.09.15-.18.3-.273.45l-.123.201c-.514.84-1.044 1.678-1.612 2.559-.534.807-1.109 1.658-1.695 2.493a91.527 91.527 0 01-3.612 4.82 1.83 1.83 0 01-2.5.306 1.674 1.674 0 01-.511-2.128c.645-1.234 1.306-2.472 1.945-3.67 1.167-2.194 2.376-4.463 3.487-6.68.51-1.023.886-1.816 1.219-2.554a6.39 6.39 0 00.173-.403l.095-.228.079-.184c.062-.147.123-.294.187-.453l.53-1.337c.673-1.735 1.316-3.55 1.915-5.399a87.816 87.816 0 001.501-5.092 43.872 43.872 0 01-1.707-4.692 28.563 28.563 0 01-.22-.779 129.63 129.63 0 00-1.132 3.598 98.69 98.69 0 00-.72 2.537 67.699 67.699 0 00-.64 2.535c-.067.31-.26.58-.53.746a1.209 1.209 0 01-1.494-.179 1.194 1.194 0 01-.34-.862c.106-1.627.273-3.29.54-5.394a128.042 128.042 0 011.842-10.674c.403-1.9.862-3.747 1.26-5.3a2.786 2.786 0 011.747-1.915c.77-.262 1.898-.37 3.126-.37 1.926 0 4.099.263 5.187.727a3.186 3.186 0 011.937 2.386l1.453 8.951 10.04 7.85zm.037 1.68a1.061 1.061 0 00-.164-1.53l-10.101-7.906-1.467-9.006a2.966 2.966 0 00-1.814-2.239c-1.139-.465-3.237-.715-5.097-.715-1.175 0-2.256.098-2.93.312a2.62 2.62 0 00-1.758 1.827 120.582 120.582 0 00-1.258 5.294c-.34 1.546-.659 3.186-1.034 5.317a131.065 131.065 0 00-.806 5.34 87.617 87.617 0 00-.538 5.384.968.968 0 00.776.993 1.007 1.007 0 00.75-.127.952.952 0 00.435-.605c.173-.76.379-1.57.645-2.567.266-.999.5-1.797.725-2.543.403-1.345.817-2.664 1.236-3.92l.107-.317.088.322c.111.418.202.767.309 1.095.48 1.6 1.05 3.171 1.71 4.705a75.403 75.403 0 01-1.509 5.193 107.273 107.273 0 01-1.918 5.408l-.53 1.337c-.065.164-.128.31-.188.458l-.079.184-.096.225a6.39 6.39 0 01-.174.404 71.466 71.466 0 01-1.223 2.557c-1.113 2.218-2.322 4.49-3.489 6.687a468.566 468.566 0 00-1.935 3.654 1.489 1.489 0 00.436 1.9c.279.206.618.317.965.316.485.004.945-.213 1.252-.589a92.348 92.348 0 003.605-4.811c.583-.831 1.16-1.686 1.691-2.485a88.716 88.716 0 001.613-2.553l.125-.202c.09-.147.181-.296.268-.445l.38-.666c.188-.318.373-.657.549-.986l.201-.367c.083-.147.16-.3.236-.456.043-.082.085-.163.125-.246l.089-.173c.09-.18.181-.359.258-.524l.639-1.37a96.806 96.806 0 002.332-5.505l.07-.18.147.22a47.861 47.861 0 004.068 5.094c.33.361.689.743 1.098 1.166l.605.64c.026.215.044.403.062.604.046.529.083 1.065.11 1.472.077 1.172.136 2.126.182 3.005l.18 3.025c.11 2.057.233 4.096.364 6.064a1.35 1.35 0 001.228 1.234c.05.003.1.003.151 0 .312 0 .615-.102.863-.293.282-.214.466-.534.508-.887.231-2.026.433-4.071.604-6.076.202-2.327.343-4.27.436-6.112.022-.456.044-.998.06-1.563 0-.266.01-.534 0-.82 0-.142 0-.295-.012-.458 0-.1-.01-.18-.022-.287a2.843 2.843 0 00-.168-.732l-.066-.159c-.028-.06-.06-.121-.093-.182l-.153-.256-.201-.284-.76-1.008c-.333-.44-.621-.831-.881-1.196a46.657 46.657 0 01-3.078-4.91 59.947 59.947 0 01-2.505-5.159c.246-1.436.518-2.537.756-3.61l.068-.322 11.499 6.164a1.16 1.16 0 001.427-.26M116.125 84.597c-2.834 0-5.14-2.218-5.14-4.943 0-2.724 2.306-4.942 5.14-4.942 2.834 0 5.137 2.218 5.137 4.942 0 2.725-2.305 4.943-5.137 4.943zm0-9.692c-2.723 0-4.938 2.13-4.938 4.75 0 2.619 2.217 4.746 4.938 4.746 2.72 0 4.936-2.12 4.936-4.74 0-2.622-2.217-4.75-4.936-4.75"/></g><g transform="translate(101.156 74.82)" fill="#DCD5D8"><path d="M31.478 30.587a1.06 1.06 0 01.163 1.529 1.16 1.16 0 01-1.427.26l-11.498-6.16-.069.322a72.87 72.87 0 01-.834 3.368 55.01 55.01 0 002.584 5.4 46.657 46.657 0 003.077 4.91c.26.366.548.757.88 1.196l.76 1.009.202.284.153.256c.033.06.065.121.093.182l.067.159a2.516 2.516 0 01.16.665c.02.174.023.254.03.353 0 .164.011.317.011.458v.82a79.323 79.323 0 01-.06 1.564 164.01 164.01 0 01-.436 6.112c-.165 2.004-.366 4.05-.604 6.076a1.307 1.307 0 01-.508.887 1.41 1.41 0 01-.863.293c-.05.003-.1.003-.15 0a1.35 1.35 0 01-1.24-1.243 483.355 483.355 0 01-.365-6.064l-.18-3.024c-.046-.88-.104-1.833-.181-3.005-.028-.403-.064-.944-.11-1.472-.019-.202-.037-.39-.06-.573l-.614-.671c-.403-.424-.768-.807-1.098-1.166a47.682 47.682 0 01-4.068-5.096l-.147-.218-.07.18a96.806 96.806 0 01-2.332 5.505l-.64 1.37c-.076.165-.166.344-.257.524l-.089.173c-.04.083-.082.163-.125.246a9.67 9.67 0 01-.236.456l-.201.367c-.175.329-.36.667-.548.986l-.381.665c-.087.15-.178.299-.268.446l-.125.202A110.76 110.76 0 018.26 51.67c-.532.806-1.108 1.653-1.69 2.484a92.349 92.349 0 01-3.606 4.812 1.598 1.598 0 01-1.252.588 1.612 1.612 0 01-.965-.316 1.489 1.489 0 01-.436-1.9 765.6 765.6 0 011.935-3.654c1.18-2.188 2.389-4.456 3.491-6.679.51-1.024.889-1.815 1.223-2.557.065-.137.12-.272.174-.403l.097-.226.078-.183c.06-.148.123-.295.188-.458l.53-1.337c.673-1.738 1.32-3.557 1.918-5.409a86.992 86.992 0 001.516-5.134 47.895 47.895 0 01-1.717-4.763 26.393 26.393 0 01-.309-1.095l-.088-.323-.107.317a122.693 122.693 0 00-1.961 6.463c-.27.988-.472 1.815-.639 2.541a.968.968 0 01-.441.625 1.007 1.007 0 01-.75.127.968.968 0 01-.776-.992c.107-1.623.272-3.283.538-5.384.244-1.892.508-3.63.806-5.34.375-2.132.694-3.771 1.034-5.318.403-1.897.86-3.74 1.258-5.293a2.59 2.59 0 011.707-1.815c.725-.234 1.814-.333 2.98-.333 1.861 0 3.96.25 5.04.692a2.998 2.998 0 011.872 2.262l1.467 9.006 10.102 7.911zM20.834 44.584c-.057.045-.042.101 0 .287l.201-.053-.018-.11a.454.454 0 00-.016-.073v-.049l-.115-.048-.048.04"/><ellipse cx="14.969" cy="4.834" rx="4.938" ry="4.749"/></g></g><g fill-rule="nonzero"><g fill="#724292"><path d="M201.784 110.782l-2.295-1.25a1.371 1.371 0 01-.672-1.29l2.296 1.25a1.371 1.371 0 00.671 1.29M201.113 109.491l-2.296-1.25.065-.738 2.296 1.25zM188.148 112.819l-2.296-1.25c-.605-.311-.847-1.07-.605-1.815l2.296 1.25c-.244.738 0 1.498.605 1.815"/><path d="M187.547 111.01l-2.296-1.25.545-1.652 2.297 1.25z"/><path d="M188.093 109.358l-2.297-1.25.51-1.61 2.297 1.251zM201.178 108.753l-2.298-1.25c.552-6.153 1.467-16.403-1.923-26.64l2.296 1.25c3.392 10.238 2.475 20.488 1.925 26.64M206.954 79.592l-2.296-1.25a1.008 1.008 0 01-.471-1.06c.24-1.692.345-3.402.316-5.111a21.49 21.49 0 00-.605-4.768 14.94 14.94 0 00-.886-2.573l2.297 1.25c.374.83.67 1.69.885 2.574.38 1.561.583 3.16.605 4.767.03 1.71-.077 3.42-.319 5.112-.081.417.107.84.472 1.059M204.797 56.857l-2.295-1.25.117.06 2.297 1.25-.119-.06"/><path d="M188.603 107.75l-2.298-1.251c.337-1.087.666-2.15.974-3.227.38-1.302.661-2.303.909-3.242.3-1.09.584-2.182.842-3.25.145-.56.28-1.124.403-1.624.138-.559.264-1.112.377-1.626.287-1.266.508-2.3.7-3.257.403-2.042.766-4.174 1.084-6.517.145-1.077.274-2.172.383-3.249a93.08 93.08 0 00.401-6.455c.026-1.03.02-2.11 0-3.194a65.195 65.195 0 00-.56-7.393l2.297 1.25a65.17 65.17 0 01.559 7.39c.018 1.084.018 2.159 0 3.191a74.11 74.11 0 01-.141 3.227c-.079 1.2-.162 2.26-.26 3.238a93.777 93.777 0 01-.381 3.25 104.72 104.72 0 01-1.087 6.517c-.19.956-.403 1.99-.697 3.257-.115.514-.24 1.066-.379 1.625a63.19 63.19 0 01-.403 1.625c-.258 1.067-.544 2.16-.844 3.249-.246.94-.529 1.94-.907 3.243-.31 1.08-.637 2.143-.974 3.226M195.681 55.82l-2.297-1.25c3.01-.425 5.15-.226 6.804.202l2.298 1.25c-1.657-.43-3.793-.63-6.805-.202M202.49 56.024l-2.298-1.25c.76.2 1.501.464 2.217.788l2.298 1.25a14.103 14.103 0 00-2.217-.788M188.009 70.104l-2.296-1.25a1.562 1.562 0 01-.264-.186l2.295 1.25c.082.07.17.133.265.186M193.789 57.153l-2.296-1.25c.024-.038.049-.077.075-.113l2.297 1.25a2.217 2.217 0 00-.076.113M193.867 57.04l-2.297-1.25c.07-.1.145-.195.226-.286l2.297 1.25a2.88 2.88 0 00-.226.286"/><path d="M194.091 56.754l-2.297-1.25c.08-.091.165-.176.252-.256l2.297 1.25c-.089.08-.173.166-.252.256"/><path d="M194.343 56.498l-2.297-1.25c.094-.086.194-.165.3-.236l2.297 1.25c-.105.071-.206.15-.3.236"/><path d="M194.643 56.268l-2.297-1.25c.127-.09.262-.168.403-.234l2.296 1.25c-.141.066-.276.144-.404.234M195.045 56.028l-2.296-1.25c.204-.094.418-.162.639-.202l2.297 1.25c-.22.04-.436.108-.64.202M188.498 65.379l-2.297-1.25 5.292-8.226 2.296 1.25zM187.744 69.918l-2.295-1.25-5.555-4.88 2.298 1.25z"/><g><path d="M182.192 65.038l-2.298-1.25a1.21 1.21 0 01-.387-.886 1.497 1.497 0 01.095-.57l2.296 1.25a1.58 1.58 0 00-.095.57c0 .337.142.658.389.886"/><path d="M181.898 63.582l-2.296-1.25c.026-.07.057-.137.093-.202l2.297 1.25a1.58 1.58 0 00-.094.202M181.992 63.376l-2.297-1.25c.03-.056.064-.11.1-.165l2.298 1.25c-.037.053-.07.108-.1.165"/><path d="M182.093 63.211l-2.298-1.25.053-.069c.02-.026.04-.052.062-.076l2.298 1.25c-.022.024-.042.05-.064.076-.023.027-.035.047-.05.069"/><path d="M182.208 63.066l-2.298-1.25c.04-.046.082-.088.127-.127l2.298 1.25c-.045.04-.088.082-.127.127"/><path d="M182.335 62.939l-2.298-1.25c.047-.044.097-.083.15-.12l2.297 1.25a1.044 1.044 0 00-.149.12"/><path d="M182.484 62.82l-2.298-1.25c.064-.046.131-.085.202-.117l2.298 1.25c-.071.032-.139.071-.202.117"/><path d="M182.686 62.703l-2.298-1.25c.115-.055.238-.093.365-.111.144-.02.29-.012.431.024l2.298 1.25a1.11 1.11 0 00-.432-.024 1.27 1.27 0 00-.364.11"/><path d="M183.482 62.616l-2.298-1.25c.07.016.138.04.202.072l2.295 1.25a.88.88 0 00-.201-.072"/><path d="M183.677 62.689l-2.295-1.25.036.02 2.298 1.25-.039-.02"/></g><g><path d="M198.445 54.126l-2.296-1.25c-1.28-.698-2.128-2.121-2.126-3.878a5.682 5.682 0 01.352-1.94l2.296 1.25a5.68 5.68 0 00-.35 1.94c0 1.757.846 3.18 2.124 3.878"/><path d="M196.671 48.309l-2.296-1.25c.097-.266.213-.523.347-.771l2.298 1.25a5.769 5.769 0 00-.349.77"/><path d="M197.02 47.538l-2.298-1.25c.113-.209.237-.41.373-.605l2.298 1.25a5.828 5.828 0 00-.373.605M197.393 46.931l-2.298-1.25c.125-.182.26-.357.403-.524l2.298 1.25a5.759 5.759 0 00-.403.524M197.806 46.407l-2.298-1.25a5.74 5.74 0 01.468-.472l2.297 1.25a5.443 5.443 0 00-.467.472"/><path d="M198.273 45.935l-2.297-1.25c.175-.159.36-.305.554-.44l2.298 1.25a5.24 5.24 0 00-.555.44"/><path d="M198.828 45.495l-2.298-1.25c.236-.163.484-.307.744-.43l2.295 1.25a5.24 5.24 0 00-.741.43"/><path d="M199.57 45.066l-2.296-1.25c.421-.2.87-.336 1.332-.404a4.053 4.053 0 011.576.083l2.298 1.25a4.053 4.053 0 00-1.577-.082 4.745 4.745 0 00-1.334.403"/><path d="M202.48 44.747l-2.298-1.25c.25.064.492.153.724.266l2.297 1.25a3.743 3.743 0 00-.723-.266M203.203 45.013l-2.297-1.25.139.073 2.297 1.25-.139-.073"/></g></g><g fill="#724292" stroke="#724292" stroke-width=".5"><path d="M209.802 67.478a26.486 26.486 0 01-.131 5.72 37.548 37.548 0 01-1.141 5.557c-.084.299-.269.56-.522.74a1.126 1.126 0 01-.484.202.939.939 0 01-.318-.01c-.498-.1-.806-.583-.724-1.15.242-1.693.348-3.402.319-5.112a21.365 21.365 0 00-.605-4.767 14.767 14.767 0 00-.885-2.573 68.448 68.448 0 00-.282 5.694c0 .878 0 1.916.038 2.97.03.892.085 1.838.174 2.973.13 1.868.326 3.715.536 5.673l.04.377c.25 2.42.403 4.422.51 6.322a55.862 55.862 0 01-2.418 19.58 1.756 1.756 0 01-1.355 1.243 1.271 1.271 0 01-.47-.02c-.604-.137-1.007-.714-.97-1.412l.064-.738c.55-6.152 1.467-16.403-1.925-26.64a103.064 103.064 0 01-.45 3.067 103.018 103.018 0 01-3.267 13.692 125.282 125.282 0 01-1.126 3.35c-.216.592-.403 1.123-.62 1.661a49.425 49.425 0 01-.64 1.65c-.367.9-.859 2.083-1.41 3.26a54.98 54.98 0 01-.763 1.614c-.145.296-.278.558-.403.807l-.43.806c-.245.488-.707.83-1.245.924a1.26 1.26 0 01-.76-.125c-.592-.31-.844-1.071-.604-1.815l.546-1.652.51-1.613a170.76 170.76 0 001.88-6.47c.3-1.088.587-2.181.845-3.248.145-.56.28-1.125.403-1.625.14-.559.264-1.111.379-1.626.286-1.266.508-2.3.697-3.256.403-2.043.766-4.175 1.087-6.518.145-1.077.274-2.172.38-3.249a87.888 87.888 0 00.401-6.465c.027-1.04.02-2.107 0-3.192a65.17 65.17 0 00-.56-7.393l-3.71 4.57-.234.316c-.305.372-.735.62-1.21.698a1.485 1.485 0 01-1.209-.347l-5.552-4.88a1.211 1.211 0 01-.39-.885 1.587 1.587 0 01.341-1.008c.22-.294.546-.491.907-.551.233-.035.47.009.676.123l4.772 2.664 5.29-8.226a2.924 2.924 0 011.897-1.333c4.553-.645 7.107.142 9.022.993.132.055.258.123.379.201l.11.08.12.1c.06.048.112.096.163.145.084.074.159.147.233.222.244.248.403.431.565.615.315.372.608.763.874 1.171.527.804.975 1.657 1.337 2.547a19.15 19.15 0 011.318 5.572zm-.309 5.73c.249-1.882.292-3.785.13-5.675a18.843 18.843 0 00-1.303-5.524 14.373 14.373 0 00-1.32-2.517 11.23 11.23 0 00-1.362-1.71c-.13-.125-.202-.201-.284-.272l-.16-.141-.114-.095-.105-.076a2.061 2.061 0 00-.353-.188c-1.91-.85-4.41-1.613-8.717-1.022a2.763 2.763 0 00-1.973 1.272l-5.393 8.381-4.912-2.74a.909.909 0 00-.577-.103c-.31.05-.588.219-.778.47a1.36 1.36 0 00-.296.865c0 .287.121.561.333.756l5.552 4.88c.296.257.691.371 1.079.31.426-.067.814-.289 1.088-.623l.244-.284 3.96-4.88.026.187c.345 2.522.542 5.06.591 7.605.016 1.089.016 2.166 0 3.202a70.432 70.432 0 01-.141 3.227 96.652 96.652 0 01-.26 3.244 99.61 99.61 0 01-.383 3.26 105.11 105.11 0 01-1.088 6.529c-.202.958-.414 1.996-.7 3.26a104.824 104.824 0 01-.78 3.259c-.26 1.067-.546 2.164-.846 3.253-.246.94-.528 1.942-.91 3.245-.308 1.083-.636 2.15-.973 3.237l-.772 2.42-.284.852c-.215.648 0 1.315.526 1.585.205.107.439.146.667.111.471-.08.876-.38 1.093-.806l.427-.807c.125-.24.256-.5.403-.807.286-.578.536-1.103.76-1.613a73.7 73.7 0 001.399-3.253c.234-.568.453-1.147.64-1.643.202-.534.404-1.067.615-1.656a124.75 124.75 0 001.125-3.341 102.92 102.92 0 003.259-13.66c.185-1.148.355-2.313.502-3.465l.052-.403.123.359c3.545 10.395 2.61 20.841 2.054 27.082l-.065.728c-.052.563.307 1.081.851 1.23.136.031.276.036.413.017.199-.03.388-.105.554-.218.308-.209.535-.517.641-.873a56.492 56.492 0 002.38-12.981 57.11 57.11 0 00.03-6.532c-.096-1.895-.26-3.902-.51-6.31l-.04-.377c-.2-1.96-.402-3.811-.535-5.68a66.918 66.918 0 01-.174-2.979 78.085 78.085 0 01-.04-2.982c.014-1.92.115-3.888.312-6.016l.037-.387.137.282c.445.93.792 1.903 1.038 2.904a21.75 21.75 0 01.604 4.81 32.39 32.39 0 01-.32 5.142.807.807 0 00.604.958.737.737 0 00.266 0 .907.907 0 00.404-.164c.209-.146.362-.36.433-.604a37.145 37.145 0 001.116-5.516M200.885 54.546c-2.523.355-4.57-1.573-4.565-4.298.006-2.724 2.062-5.228 4.583-5.583 2.522-.355 4.57 1.573 4.566 4.297-.004 2.724-2.062 5.229-4.584 5.584zm.018-9.68c-2.418.341-4.4 2.749-4.403 5.364-.004 2.616 1.96 4.471 4.385 4.13 2.425-.34 4.398-2.748 4.404-5.366.006-2.617-1.963-4.469-4.386-4.128"/></g><g fill="#D18AFF"><path d="M209.622 67.52c.163 1.892.12 3.795-.129 5.677a37.145 37.145 0 01-1.134 5.523c-.071.246-.224.46-.434.605a.907.907 0 01-.403.164.737.737 0 01-.266 0 .807.807 0 01-.604-.958 32.39 32.39 0 00.32-5.142 21.75 21.75 0 00-.605-4.81 14.964 14.964 0 00-1.038-2.904l-.139-.282-.034.387a68.54 68.54 0 00-.312 6.016c0 .88 0 1.923.04 2.982.03.893.085 1.841.173 2.979.131 1.869.329 3.72.536 5.68l.04.377c.25 2.408.414 4.415.51 6.31a57.11 57.11 0 01-.021 6.524 56.492 56.492 0 01-2.379 12.983 1.613 1.613 0 01-.64.873 1.336 1.336 0 01-.555.218c-.137.02-.277.014-.413-.017a1.164 1.164 0 01-.85-1.23l.064-.728c.556-6.241 1.491-16.687-2.054-27.082l-.123-.36-.052.404a106.171 106.171 0 01-.502 3.465 102.92 102.92 0 01-3.26 13.66 117.9 117.9 0 01-1.124 3.341c-.213.59-.403 1.121-.614 1.656-.188.496-.404 1.075-.641 1.643a73.7 73.7 0 01-1.4 3.253 51.776 51.776 0 01-.759 1.613c-.143.297-.274.557-.403.807l-.427.807a1.514 1.514 0 01-1.093.806 1.096 1.096 0 01-.667-.11c-.522-.27-.741-.938-.526-1.586l.284-.853.772-2.42c.337-1.086.665-2.153.974-3.236.38-1.303.663-2.305.909-3.245.3-1.089.586-2.186.846-3.253.143-.56.28-1.127.403-1.627.137-.56.264-1.115.377-1.631.286-1.265.508-2.303.7-3.261a111.49 111.49 0 001.088-6.53 99.61 99.61 0 00.383-3.259 88.673 88.673 0 00.401-6.471c.026-1.034.02-2.113 0-3.202a65.546 65.546 0 00-.57-7.607l-.027-.187-3.96 4.88-.246.284a1.765 1.765 0 01-1.088.623 1.33 1.33 0 01-1.079-.31l-5.552-4.88a1.032 1.032 0 01-.343-.746 1.361 1.361 0 01.29-.866c.19-.25.468-.419.778-.47.199-.03.401.007.577.103l4.912 2.741 5.393-8.38a2.697 2.697 0 011.86-1.253c4.42-.605 6.92.151 8.792.98.136.055.267.123.39.202l.106.074.114.095.16.141c.082.075.155.147.23.22a11.23 11.23 0 011.417 1.765c.521.793.964 1.636 1.32 2.516a18.845 18.845 0 011.307 5.52zM200.885 54.352c-2.418.341-4.391-1.512-4.385-4.13.006-2.617 1.979-5.023 4.403-5.364 2.425-.34 4.39 1.513 4.386 4.128-.004 2.616-1.981 5.025-4.404 5.366z"/></g></g><g fill-rule="nonzero"><g fill="#0051BA"><path d="M158.03 94.329l-2.297-1.248a1.305 1.305 0 01-.643-.918 24.4 24.4 0 01-.147-.797l2.297 1.25c.045.267.091.515.147.807.067.385.303.719.643.91"/><path d="M157.24 92.623l-2.297-1.25-.13-.78 2.298 1.25zM171.64 92.365l-2.297-1.25a1.226 1.226 0 01-.528-.565 85.002 85.002 0 01-4.396-11.696 103.2 103.2 0 01-1.612-6.173l2.296 1.25a98.806 98.806 0 001.612 6.173A85.002 85.002 0 00171.11 91.8c.11.244.296.445.53.575M165.109 73.921l-2.296-1.248-.681-3.098 1.423-3.769.875 5.02zM171.899 63.023l-2.298-1.25a1.03 1.03 0 01-.524-.867 45.88 45.88 0 00-.653-5.467 20.314 20.314 0 00-.167-.847c-.032-.16-.067-.318-.097-.478l2.296 1.25c.032.16.066.32.099.478.058.275.116.561.165.847a45.83 45.83 0 01.655 5.467c.01.362.209.69.524.867M170.462 55.367l-2.296-1.25c-.036-.154-.07-.31-.109-.467-.062-.274-.125-.558-.201-.834l2.297 1.25c.073.276.138.56.202.835.036.157.073.312.107.466M170.155 54.066l-2.297-1.25a37.248 37.248 0 00-.738-2.537 34.296 34.296 0 00-.885-2.386l2.298 1.25a35.768 35.768 0 011.622 4.923M157.111 91.842l-2.297-1.25a63.48 63.48 0 01-.526-4.729c-.16-2.135-.224-4.3-.186-6.435.033-2.182.176-4.388.424-6.558a56.18 56.18 0 011.158-6.654 48.6 48.6 0 01.911-3.332l2.298 1.25a49.322 49.322 0 00-.913 3.332 56.176 56.176 0 00-1.157 6.655 66.688 66.688 0 00-.423 6.558c-.038 2.135.024 4.299.185 6.434.081 1.009.172 2.096.31 3.162.071.561.142 1.075.216 1.567"/><path d="M158.893 64.143l-2.298-1.25.516-1.578 2.298 1.25z"/><path d="M159.403 62.566l-2.298-1.25c.117-.387.21-.78.278-1.178.12-.779.15-1.568.087-2.354a22.49 22.49 0 00-.373-2.668c-.248-1.375-.562-2.756-.893-4.22-.116-.51-.231-1.025-.344-1.539-.075-.329-.147-.66-.222-.988l2.298 1.25c.072.329.147.66.221.988.113.515.228 1.029.345 1.54.33 1.463.643 2.844.893 4.22.176.881.3 1.772.37 2.668.064.785.035 1.575-.086 2.353a9.73 9.73 0 01-.276 1.178M166.943 37.99l-2.3-1.249c.19-.02.382-.02.573 0 .105.012.21.03.312.057l2.296 1.25a2.274 2.274 0 00-.31-.056 2.784 2.784 0 00-.575 0M167.828 38.038l-2.296-1.25c.14.036.275.086.403.151l2.298 1.25a2.037 2.037 0 00-.403-.15"/><path d="M168.233 38.19l-2.298-1.25.077.037 2.297 1.25-.076-.038M157.335 61.077l-2.298-1.25-6.516-5.54 2.298 1.251zM158.349 41.156l-2.296-1.25a21.713 21.713 0 012.556-1.432l2.295 1.25c-.882.42-1.736.898-2.555 1.432"/><path d="M160.904 39.732l-2.295-1.25a20.132 20.132 0 016.046-1.732l2.296 1.248a20.177 20.177 0 00-6.047 1.734M157.448 42.1l-2.298-1.25c.03-.05.063-.098.095-.144l2.296 1.25c-.033.047-.063.095-.093.144M157.54 41.95l-2.295-1.25a2.75 2.75 0 01.224-.282l2.295 1.248c-.078.09-.152.185-.223.284"/><path d="M157.764 41.672l-2.295-1.248c.08-.092.165-.18.256-.26l2.295 1.25c-.09.081-.175.167-.256.258"/><path d="M158.02 41.414l-2.295-1.25c.095-.087.196-.167.302-.24l2.298 1.25a3.118 3.118 0 00-.305.24"/><path d="M158.325 41.174l-2.298-1.25.026-.019 2.296 1.25-.024.019M150.747 52.783l-2.298-1.25 6.701-10.684 2.298 1.25z"/><path d="M150.577 53.066l-2.297-1.25.169-.283 2.298 1.25z"/><g><path d="M150.82 55.538l-2.299-1.25c-.554-.472-.713-1.311-.433-2.075l2.298 1.25c-.282.764-.123 1.603.433 2.075"/><path d="M150.386 53.463l-2.298-1.25c.037-.102.082-.2.133-.295l2.296 1.25c-.05.096-.094.194-.131.295"/><path d="M150.517 53.168l-2.296-1.25c.018-.034.038-.068.059-.103l2.297 1.25c-.022.035-.04.07-.06.103"/></g><g><path d="M159.336 37.667l-2.297-1.25c-1.28-.696-2.129-2.12-2.125-3.876.002-.662.121-1.319.351-1.94l2.298 1.25a5.681 5.681 0 00-.353 1.94c0 1.757.847 3.18 2.126 3.876"/><path d="M157.563 31.851l-2.298-1.25c.098-.265.214-.524.349-.772l2.295 1.25c-.133.249-.25.507-.346.772M157.91 31.079l-2.296-1.25c.11-.21.235-.412.373-.605l2.297 1.25a5.816 5.816 0 00-.375.605"/><path d="M158.284 30.474l-2.297-1.25c.127-.183.265-.358.413-.525l2.296 1.25a5.813 5.813 0 00-.404.525"/><path d="M158.696 29.95L156.4 28.7c.147-.167.303-.326.468-.475l2.297 1.25c-.165.15-.322.308-.47.475"/><path d="M159.165 29.476l-2.297-1.25c.175-.158.36-.304.554-.438l2.295 1.256c-.193.135-.377.28-.552.438"/><path d="M159.717 29.044l-2.295-1.25c.235-.164.483-.307.741-.43l2.298 1.25c-.26.123-.508.267-.744.43M160.461 28.609l-2.298-1.25c.423-.2.873-.336 1.335-.404a4.095 4.095 0 011.576.08l2.297 1.251a4.103 4.103 0 00-1.578-.08c-.461.067-.91.203-1.332.403"/><path d="M163.371 28.288l-2.297-1.25c.25.065.492.155.723.268l2.298 1.25a3.886 3.886 0 00-.724-.268"/><path d="M164.095 28.556l-2.298-1.25.14.073 2.297 1.25-.139-.073"/></g></g><g fill="#0051BA" stroke="#0051BA" stroke-width=".5"><path d="M173.822 90.405a1.825 1.825 0 01-1.103 2.016c-.1.038-.205.065-.312.08a1.21 1.21 0 01-1.296-.707 85.002 85.002 0 01-4.394-11.696 101.693 101.693 0 01-1.612-6.173l-.68-3.095a117.499 117.499 0 01-.646-3.164 37.31 37.31 0 01-.287-1.614c-.227.716-.46 1.47-.659 2.219-.967 3.573-1.648 7.52-2.086 12.07a105.4 105.4 0 00-.403 6.153c-.038.882-.052 1.777-.068 2.642v2.737l.012.792c.002.43-.144.846-.413 1.18-.253.328-.619.55-1.026.623a1.26 1.26 0 01-1.45-1.047 20.73 20.73 0 01-.147-.806l-.129-.78a63.43 63.43 0 01-.526-4.729 69.299 69.299 0 01-.185-6.435c.032-2.182.175-4.389.423-6.558.252-2.24.638-4.462 1.157-6.655.242-1.037.54-2.126.913-3.331l.516-1.577a9.73 9.73 0 00.276-1.178c.12-.778.15-1.568.087-2.353a22.864 22.864 0 00-.381-2.652c-.25-1.376-.562-2.757-.893-4.22-.117-.511-.232-1.025-.345-1.54-.074-.328-.149-.659-.221-.988l-3.158 4.052 4.359 5.335c.209.27.302.612.258.95-.044.36-.207.695-.464.95a1.38 1.38 0 01-.77.403 1.04 1.04 0 01-.834-.236l-6.516-5.54c-.655-.556-.76-1.612-.242-2.471l.17-.283 6.701-10.688c.232-.373.539-.695.9-.943a19.896 19.896 0 018.595-3.166c.19-.02.383-.02.574 0 .603.064 1.15.381 1.504.873l.25.385c.054.087.102.171.153.254.177.317.296.532.403.748.214.404.425.845.645 1.333a32.32 32.32 0 011.078 2.73 39.526 39.526 0 011.476 5.685c.201 1.164.342 2.067.433 2.926.042.321.072.652.1.968.017.17.03.34.049.507.018.167.022.344.036.514.022.318.047.645.059.974.097 1.988.078 3.98-.057 5.965a1.411 1.411 0 01-1.14 1.302 1.007 1.007 0 01-1.131-.988 45.83 45.83 0 00-.655-5.467 20.333 20.333 0 00-.165-.847l-.1-.477c-.031-.16-.07-.309-.106-.466-.063-.275-.127-.559-.202-.835a36.911 36.911 0 00-.737-2.537 35.357 35.357 0 00-.885-2.386 78.108 78.108 0 00-.256 4.516 68.103 68.103 0 00.087 6.174c.125 2.259.403 4.427.645 6.088.127.89.282 1.864.49 3.065l.538 3.106c.393 2.198.771 4.194 1.158 6.104.404 1.964.823 3.955 1.292 6.086.154.698.307 1.395.462 2.091.298 1.317.6 2.678.88 4.032zm-1.141 1.833a1.6 1.6 0 00.967-1.759c-.282-1.359-.582-2.72-.874-4.033-.155-.698-.308-1.395-.46-2.091-.47-2.134-.893-4.124-1.294-6.088-.387-1.912-.768-3.91-1.16-6.11l-.539-3.106c-.201-1.21-.363-2.18-.492-3.07-.233-1.669-.518-3.869-.645-6.105a68.517 68.517 0 01-.086-6.193c.042-1.553.135-3.16.288-4.91l.032-.382.141.327c.375.881.722 1.8 1.028 2.728.224.688.506 1.595.74 2.55.076.278.14.562.201.84.037.155.07.31.11.466.037.155.062.32.096.48.058.276.119.565.167.853.328 1.812.548 3.643.66 5.481a.845.845 0 00.888.845 1.09 1.09 0 00.695-.349c.193-.206.31-.472.329-.754.134-1.978.153-3.963.056-5.943-.012-.325-.036-.651-.058-.966-.013-.17-.026-.342-.036-.514a33.652 33.652 0 01-.047-.506c-.03-.315-.058-.644-.1-.962a41.238 41.238 0 00-.432-2.912c-.35-1.92-.84-3.811-1.47-5.659a31.94 31.94 0 00-1.071-2.714 22.896 22.896 0 00-1-1.984c-.095-.164-.143-.248-.202-.333l-.185-.288a2.033 2.033 0 00-1.457-.898 2.07 2.07 0 00-.534.01c-2.378.337-5.156.964-8.385 3.047-.39.243-.721.571-.967.96l-6.7 10.688-.167.28c-.465.769-.37 1.723.216 2.219l6.516 5.54c.197.166.458.24.713.2.252-.039.483-.159.66-.342.224-.218.367-.507.403-.819a1.09 1.09 0 00-.222-.806l-4.458-5.463 3.495-4.483.038.17c.084.387.17.772.258 1.157.113.516.23 1.028.346 1.54.317 1.4.643 2.848.893 4.235.18.89.305 1.788.373 2.692.066.802.036 1.608-.089 2.402-.067.41-.16.814-.282 1.21l-.104.34-.414 1.243a50.173 50.173 0 00-.907 3.313 56.597 56.597 0 00-1.152 6.623 66.822 66.822 0 00-.424 6.538 70.24 70.24 0 00.186 6.412 59.347 59.347 0 00.526 4.713l.127.778c.046.265.092.51.147.795.092.599.65 1.01 1.25.92.365-.06.694-.257.92-.551a1.64 1.64 0 00.363-1.035l-.014-1.952V89.17c.016-.867.03-1.762.069-2.647.082-2.134.221-4.209.403-6.163.44-4.564 1.124-8.524 2.094-12.1.234-.889.512-1.772.778-2.599l.117-.363.056.357c.109.704.22 1.345.343 1.966.173.926.379 1.93.643 3.16l.681 3.098a91.307 91.307 0 001.612 6.158 84.75 84.75 0 004.386 11.676c.194.44.66.694 1.135.62a1.23 1.23 0 00.272-.071M161.775 38.089c-2.521.354-4.569-1.573-4.565-4.298.004-2.724 2.062-5.229 4.583-5.584 2.522-.355 4.571 1.573 4.567 4.298-.004 2.724-2.063 5.229-4.585 5.584zm.018-9.68c-2.422.333-4.406 2.74-4.406 5.358 0 2.618 1.964 4.469 4.386 4.128 2.423-.34 4.4-2.747 4.404-5.364.004-2.618-1.963-4.47-4.386-4.13"/></g><g fill="#66ABFF"><path d="M173.646 90.471a1.6 1.6 0 01-.965 1.767 1.23 1.23 0 01-.272.07 1.06 1.06 0 01-1.135-.619 84.75 84.75 0 01-4.386-11.676 103.583 103.583 0 01-1.612-6.158l-.681-3.098c-.264-1.23-.47-2.234-.643-3.16a47.226 47.226 0 01-.343-1.966l-.056-.357-.117.363c-.266.827-.544 1.71-.778 2.6-.97 3.585-1.655 7.545-2.094 12.099a107.68 107.68 0 00-.403 6.162c-.039.886-.053 1.781-.069 2.648v1.583l.014 1.952a1.64 1.64 0 01-.362 1.035 1.447 1.447 0 01-.901.546 1.102 1.102 0 01-1.27-.915c-.055-.285-.1-.53-.147-.795l-.127-.778a64.47 64.47 0 01-.216-1.561 67.936 67.936 0 01-.31-3.152 70.24 70.24 0 01-.186-6.413c.035-2.178.176-4.376.424-6.537.252-2.229.637-4.44 1.152-6.623.242-1.03.539-2.115.907-3.313l.414-1.242.104-.341c.121-.397.215-.8.283-1.21.124-.794.154-1.6.088-2.402a21.946 21.946 0 00-.373-2.692c-.25-1.38-.576-2.823-.892-4.235-.117-.512-.234-1.024-.347-1.54l-.258-1.158-.038-.17-3.505 4.508L159 59.148c.178.228.258.519.222.806-.036.312-.179.6-.404.819a1.167 1.167 0 01-.659.343.895.895 0 01-.713-.202l-6.508-5.535c-.587-.5-.681-1.454-.216-2.219l.168-.28 6.699-10.688c.23-.368.537-.682.901-.917a19.686 19.686 0 018.37-3.08c.2-.031.403-.037.605-.018.56.059 1.068.352 1.399.807l.243.375c.053.085.101.17.15.252.177.31.294.526.403.74.213.403.423.839.64 1.325a31.94 31.94 0 011.073 2.714 39.496 39.496 0 011.47 5.659c.2 1.157.34 2.055.43 2.912.043.318.071.647.101.962.014.171.03.34.047.506.016.165.022.343.036.514.022.315.046.641.058.966.097 1.98.078 3.965-.056 5.943-.02.282-.136.548-.329.754a1.06 1.06 0 01-.629.343.856.856 0 01-.955-.839c-.11-1.84-.33-3.67-.657-5.483a20.617 20.617 0 00-.167-.853c-.034-.16-.065-.319-.097-.48-.032-.161-.072-.31-.109-.466a36.219 36.219 0 00-.941-3.39 35.224 35.224 0 00-1.028-2.728l-.14-.327-.033.381a81.337 81.337 0 00-.288 4.91 68.517 68.517 0 00.086 6.194c.127 2.236.403 4.436.645 6.106.13.889.284 1.865.492 3.069l.538 3.105c.393 2.2.774 4.199 1.161 6.11.403 1.965.824 3.955 1.294 6.089.152.695.305 1.392.46 2.09.304 1.322.604 2.683.884 4.034zM161.775 37.895c-2.418.34-4.39-1.51-4.385-4.128.004-2.617 1.98-5.025 4.403-5.366 2.423-.34 4.39 1.512 4.386 4.13-.004 2.617-1.98 5.023-4.404 5.364z"/></g></g><g fill-rule="nonzero"><g fill="#999298"><path d="M252.1 73.734v-2.501c.045.032.089.066.13.103v2.502a1.614 1.614 0 00-.13-.104M252.23 73.838v-2.502c.366.317.576.767.578 1.24v2.5a1.645 1.645 0 00-.578-1.238M249.404 71.697v-2.5l2.688 2.036v2.5zM246.76 69.652v-2.495c.935.728 1.793 1.396 2.644 2.045v2.5c-.85-.647-1.71-1.316-2.645-2.044M216.118 67.813v-2.5c0 .685.028 1.44.083 2.282.066 1.063.163 2.174.292 3.305.13 1.132.284 2.263.435 3.336a91.56 91.56 0 00.537 3.317v2.51a90.846 90.846 0 01-.537-3.317c-.15-1.07-.31-2.218-.435-3.333a68.54 68.54 0 01-.292-3.307 35.53 35.53 0 01-.083-2.283"/><path d="M241.634 65.46v-2.503c1.502 1.287 3.18 2.66 5.134 4.194v2.501a163.36 163.36 0 01-5.134-4.192M239.19 63.288v-2.503c.114.109.23.218.348.327v2.5a17.918 17.918 0 01-.349-.324M239.538 63.612v-2.504c.175.159.353.316.528.472l.323.288v2.5l-.323-.288a55.587 55.587 0 01-.528-.472M240.389 64.373v-2.501l.05.046v2.501a.55.55 0 01-.05-.046M240.445 64.423v-2.509c.27.246.552.49.824.726l.357.309v2.502l-.357-.308c-.272-.238-.554-.482-.824-.728M238.956 63.068v-2.5l.233.217v2.503zM211.444 65.778v-2.5c0-.267 0-.525.02-.779.018-.361.055-.721.111-1.079.068-.421.173-.835.315-1.238v2.5a7.075 7.075 0 00-.315 1.239c-.056.357-.093.717-.11 1.079-.015.254-.02.512-.02.778M211.89 62.683v-2.5l.12-.311v2.5zM238.028 62.177v-2.501c.297.304.617.605.928.891v2.5c-.31-.288-.631-.586-.928-.89M212.01 62.372v-2.5l.112-.26v2.5zM237.464 61.616v-2.503l.564.563v2.5z"/><path d="M230.872 51.872v-2.5c.262.556.513 1.066.77 1.556.467.883.991 1.79 1.555 2.696a33.048 33.048 0 003.737 4.93l.202.202c.108.117.22.234.336.351v2.503a17.845 17.845 0 01-.336-.353l-.202-.202a33.048 33.048 0 01-3.737-4.93 45.659 45.659 0 01-1.556-2.694 49.182 49.182 0 01-.77-1.56M212.12 62.116v-2.5a11.55 11.55 0 01.778-1.452c.366-.583.77-1.141 1.209-1.672a29.735 29.735 0 012.662-2.787c.147-.137.295-.274.446-.403v2.5l-.446.403a29.538 29.538 0 00-2.662 2.79c-.44.53-.844 1.088-1.21 1.671a9.353 9.353 0 00-.536.944c-.08.16-.157.323-.241.506M217.217 55.79v-2.5a82.282 82.282 0 012.285-1.995l1.052-.881c.54-.45 1.07-.891 1.578-1.327v2.503c-.507.433-1.038.875-1.578 1.324l-1.052.882a96.01 96.01 0 00-2.285 1.994M222.132 51.59v-2.503c.404-.353.754-.655 1.08-.954v2.503c-.326.296-.674.605-1.08.954M223.213 50.636v-2.503l.113-.103.189 2.321-.302.285M231.434 38.897v-2.5c.312 2.016.637 4.081.7 6.356v2.502c-.063-2.276-.388-4.35-.7-6.358M231.29 37.972V35.47l.144.926v2.5zM208.034 37.617v-2.5l7.391 2.375v2.5zM206.097 38.954v-2.5c0-.152.024-.302.073-.445.079-.22.21-.418.383-.576v2.502c-.178.16-.313.362-.391.587a1.344 1.344 0 00-.073.442"/><path d="M206.553 37.935v-2.502a1.513 1.513 0 011.473-.317v2.5a1.513 1.513 0 00-1.473.319M234.77 46.873V44.37l.362-9.562v2.5zM230.966 35.699v-2.5c.073.733.202 1.482.325 2.27v2.5c-.13-.788-.252-1.536-.325-2.27"/><g><path d="M238.258 34.624v-2.5c.092.055.178.118.259.187v2.503a1.822 1.822 0 00-.259-.19M238.517 34.814V32.31c.366.32.576.771.58 1.246v2.503a1.663 1.663 0 00-.58-1.246"/></g><path d="M238.103 34.53v-2.501l.153.095v2.5zM215.425 39.992v-2.5l5.234-9.27v2.502z"/><g><path d="M220.66 30.724v-2.503a3.01 3.01 0 01.604-.74v2.5c-.24.215-.444.465-.605.743"/><path d="M221.254 29.982v-2.5c.274-.25.589-.449.93-.59v2.503c-.342.14-.657.338-.93.587"/></g><path d="M227.83 28.869v-2.5c.236.04.467.107.687.2.897.404 1.754.807 2.546 1.229.907.476 1.699.91 2.419 1.329.786.456 1.57.928 2.333 1.411.383.242.764.484 1.143.73.38.247.722.472 1.145.76v2.503a62.069 62.069 0 00-2.288-1.49 91.842 91.842 0 00-2.333-1.412 64.903 64.903 0 00-2.419-1.328 58.44 58.44 0 00-2.546-1.229 3.109 3.109 0 00-.687-.201M222.185 29.395v-2.502a11.055 11.055 0 015.643-.525v2.5a11.035 11.035 0 00-5.643.527"/><g><path d="M218.813 23.134v-2.5a4.84 4.84 0 011.612-3.586v2.5a4.84 4.84 0 00-1.612 3.586"/><path d="M220.417 19.548v-2.5a5.278 5.278 0 017.067 0v2.5a5.282 5.282 0 00-7.067 0M227.484 19.548v-2.5a4.84 4.84 0 011.612 3.585v2.5a4.84 4.84 0 00-1.612-3.585"/></g></g><g fill="#999298" stroke="#999298" stroke-width=".5"><path d="M252.092 73.734c.68.5.878 1.431.46 2.165-.324.557-.92.897-1.564.892a1.813 1.813 0 01-.849-.202 75.161 75.161 0 01-3.043-1.688c-.498-.288-.992-.585-1.487-.883l-1.472-.908a90.445 90.445 0 01-5.732-3.914 57.063 57.063 0 01-2.759-2.16l-.25-.201c-.363-.303-.737-.605-1.098-.946l-.665-.59c-.147-.132-.293-.271-.44-.404l-.225-.236a38.751 38.751 0 01-4.674-5.511 43.99 43.99 0 01-1.836-2.858l-.19.141c-.905.662-1.814 1.273-2.672 1.864l-.375.256c-.93.629-1.814 1.224-2.649 1.847a22.99 22.99 0 00-2.402 1.992c-.339.325-.657.67-.953 1.035a7.275 7.275 0 00-.51.72l-.16.27a1.953 1.953 0 00-.149.403c-.054.2-.097.401-.129.605-.072.485-.116.973-.133 1.462a30.87 30.87 0 00.065 3.207c.066 1.062.163 2.173.292 3.307.13 1.133.284 2.262.435 3.333.17 1.174.35 2.291.537 3.317a1.516 1.516 0 01-1.107 1.735 1.608 1.608 0 01-.443.062 1.572 1.572 0 01-1.514-1.087 97.219 97.219 0 01-1.814-6.75c-.49-2.135-.95-4.516-1.114-7.057-.044-.65-.05-1.3-.019-1.95.018-.362.055-.722.111-1.08.068-.42.173-.835.315-1.237l.12-.31.11-.261a11.223 11.223 0 01.778-1.45c.365-.583.77-1.142 1.209-1.672a29.538 29.538 0 012.662-2.789 73.096 73.096 0 012.731-2.405l1.052-.882c.54-.45 1.07-.89 1.578-1.324.454-.404.835-.726 1.194-1.057.062-.063.126-.121.189-.182a45.589 45.589 0 01-1.41-3.916 46.604 46.604 0 01-1.488-6.348l-3.052 3.24c-.329.346-.786.54-1.263.537-.226 0-.45-.042-.66-.125l-8.64-3.473a1.412 1.412 0 01-.828-1.746 1.475 1.475 0 011.399-.968c.158 0 .315.025.465.073l7.407 2.365 5.24-9.276a3.102 3.102 0 011.526-1.329 11.035 11.035 0 015.643-.526c.236.04.467.108.688.201.896.404 1.753.807 2.545 1.228a64.903 64.903 0 014.753 2.741c.382.24.763.483 1.142.728.357.232.722.474 1.145.762l.153.093c.573.354.881 1.015.784 1.682l-1.662 10.797a1.314 1.314 0 01-2.608-.23l.362-9.565-.165-.07c-.403-.166-.796-.327-1.195-.489a80.627 80.627 0 00-2.419-.911l-.403-.137c.073.734.202 1.482.325 2.27l.143.926c.312 2.017.637 4.082.7 6.358a17.352 17.352 0 01-.333 4.126l-.037.164c-.032.133-.06.264-.098.403l-.176.605c-.16.465-.367.912-.619 1.335.262.558.514 1.067.77 1.559.468.88.992 1.788 1.556 2.694a33.048 33.048 0 003.737 4.93l.202.202c.108.117.22.234.336.353l.564.56c.297.305.617.605.928.892l.233.22c.285.272.585.538.877.796l.329.293c.284.262.584.522.874.774l.357.309a158.822 158.822 0 005.133 4.192c.936.728 1.794 1.397 2.645 2.045l2.684 2.037zm.285 2.07a1.473 1.473 0 00-.404-1.917l-2.688-2.037a331.703 331.703 0 01-2.542-1.966 145.56 145.56 0 01-5.24-4.281l-.357-.31c-.29-.25-.59-.511-.878-.775l-.329-.29c-.29-.26-.594-.529-.879-.807l-.248-.214c-.31-.29-.632-.59-.93-.895l-.565-.563c-.119-.117-.23-.238-.343-.357a2.717 2.717 0 00-.201-.202 33.314 33.314 0 01-3.759-4.96 42.052 42.052 0 01-1.562-2.709 44.949 44.949 0 01-.796-1.613c.246-.46.457-.936.63-1.428l.093-.302.083-.284a7.17 7.17 0 00.093-.388l.038-.165c.272-1.342.383-2.713.329-4.082-.063-2.26-.385-4.33-.696-6.33l-.145-.925c-.139-.845-.27-1.644-.39-2.446l-.025-.16.357.123.403.138c.806.292 1.612.605 2.418.915.403.16.807.323 1.21.488l.29.123-.367 9.696a1.085 1.085 0 001.068 1.105 1.107 1.107 0 001.139-.91l1.663-10.796a1.5 1.5 0 00-.696-1.49l-.155-.097a55.311 55.311 0 00-1.145-.76 98.264 98.264 0 00-1.14-.729 107.95 107.95 0 00-2.328-1.411 55.711 55.711 0 00-2.419-1.325 55.635 55.635 0 00-2.533-1.224 2.782 2.782 0 00-.64-.202 10.715 10.715 0 00-5.305.444 3.024 3.024 0 00-1.656 1.33l-5.312 9.412-7.552-2.42c-.657-.22-1.37.121-1.613.77a1.21 1.21 0 00.714 1.517l8.652 3.469a1.551 1.551 0 001.697-.361l3.338-3.546.03.202c.344 2.209.85 4.389 1.512 6.524.417 1.33 1.433 3.958 1.433 3.958l.026.06-.29.273c-.361.333-.744.665-1.15 1.018-.557.478-1.088.92-1.628 1.372l-1.052.88a69.432 69.432 0 00-2.723 2.399c-.94.865-1.824 1.79-2.646 2.768a15.773 15.773 0 00-1.197 1.652c-.188.302-.367.615-.526.93-.08.157-.153.316-.236.498l-.226.558a6.57 6.57 0 00-.306 1.21c-.054.35-.09.703-.109 1.057-.032.643-.026 1.287.018 1.93.163 2.535.631 4.88 1.11 7.036a88.751 88.751 0 001.8 6.733c.186.571.72.956 1.32.95.132 0 .262-.017.388-.053.66-.174 1.08-.822.967-1.496a96.06 96.06 0 01-.54-3.346c-.151-1.072-.31-2.218-.437-3.339a66.66 66.66 0 01-.293-3.317 31.175 31.175 0 01-.064-3.227c.016-.497.061-.994.135-1.486.038-.232.083-.444.133-.633.04-.154.097-.304.17-.446l.16-.274c.045-.07.085-.137.135-.202.12-.18.252-.359.392-.53.3-.37.623-.722.967-1.053a23.773 23.773 0 012.418-2.016c.845-.625 1.726-1.222 2.657-1.854l.375-.254c.866-.59 1.765-1.21 2.666-1.861.095-.069.188-.14.282-.202.742 1.037 1.375 2.017 2.034 2.969a38.737 38.737 0 004.648 5.483l.227.216c.144.139.289.276.434.403l.665.59c.359.327.731.64 1.094.943l.248.201a55.841 55.841 0 002.753 2.154 88.861 88.861 0 005.718 3.904l1.467.91c.494.294.988.588 1.486.877a73.65 73.65 0 003.023 1.684c.233.121.491.185.754.185a1.588 1.588 0 001.388-.792M223.95 28.078c-2.833 0-5.137-2.218-5.137-4.944 0-2.727 2.304-4.941 5.137-4.941 2.834 0 5.14 2.218 5.14 4.94 0 2.723-2.306 4.945-5.14 4.945zm0-9.691c-2.723 0-4.938 2.13-4.938 4.747s2.218 4.75 4.938 4.75c2.721 0 4.938-2.13 4.938-4.75s-2.217-4.747-4.938-4.747"/></g><g fill="#D8D1D4"><path d="M251.94 73.867a1.48 1.48 0 01.437 1.938 1.588 1.588 0 01-1.39.792c-.262 0-.52-.064-.753-.185-1.008-.529-2-1.081-3.023-1.684-.498-.289-.992-.583-1.485-.878l-1.472-.909a89.427 89.427 0 01-5.718-3.904 55.841 55.841 0 01-2.753-2.154l-.248-.201a33.136 33.136 0 01-1.094-.942l-.667-.6c-.145-.13-.29-.267-.434-.402-.076-.071-.153-.142-.227-.214a38.737 38.737 0 01-4.648-5.483 43.778 43.778 0 01-1.884-2.942.854.854 0 00-.432.179c-.9.661-1.8 1.27-2.666 1.861l-.375.254c-.931.632-1.814 1.229-2.656 1.854a23.773 23.773 0 00-2.419 2.016c-.344.33-.667.682-.967 1.053-.14.171-.273.35-.391.53-.05.07-.091.137-.135.202l-.162.274c-.072.142-.129.292-.169.446-.05.19-.095.403-.133.633-.074.492-.119.989-.135 1.486a31.175 31.175 0 00.064 3.227c.067 1.067.166 2.184.293 3.317.127 1.133.286 2.267.437 3.34.17 1.175.35 2.294.536 3.325a1.327 1.327 0 01-.963 1.516 1.432 1.432 0 01-.387.053 1.373 1.373 0 01-1.32-.95 91.144 91.144 0 01-1.8-6.733c-.478-2.13-.947-4.501-1.11-7.036a16.424 16.424 0 01-.019-1.93c.018-.354.055-.707.109-1.057a6.57 6.57 0 01.306-1.21l.226-.558c.083-.182.155-.341.236-.498.16-.315.338-.63.526-.93.363-.576.763-1.128 1.197-1.652a29.838 29.838 0 012.646-2.768 69.432 69.432 0 012.723-2.398l1.052-.881c.54-.452 1.07-.894 1.58-1.33.454-.403.837-.727 1.198-1.06l.24-.228c-.51-1.4-.992-2.732-1.411-4.063a45.898 45.898 0 01-1.512-6.524l-.03-.202-3.338 3.546c-.44.455-1.11.597-1.697.36l-8.642-3.47a1.21 1.21 0 01-.714-1.516c.243-.65.956-.99 1.613-.77l7.552 2.42 5.302-9.41a2.933 2.933 0 011.552-1.293 10.942 10.942 0 015.287-.48c.261.034.516.102.76.202.893.403 1.745.806 2.533 1.224a61.572 61.572 0 014.746 2.736c.384.24.763.482 1.141.728.38.246.722.472 1.145.76l.155.097c.508.315.781.9.696 1.49l-1.663 10.797a1.113 1.113 0 01-2.207-.201l.367-9.696-.29-.123c-.403-.165-.807-.328-1.21-.488a82.836 82.836 0 00-2.418-.915l-.403-.138-.357-.123.024.16c.121.806.252 1.6.391 2.446l.145.925c.31 2 .633 4.07.696 6.33a17.136 17.136 0 01-.329 4.082l-.038.165a7.17 7.17 0 01-.093.388l-.083.284-.092.302a6.777 6.777 0 01-.625 1.34c.234.58.498 1.147.79 1.7.47.887.994 1.798 1.562 2.708a33.314 33.314 0 003.759 4.96c.064.069.13.137.201.202.113.119.224.24.343.357l.564.563c.299.304.621.605.931.895l.234.22c.284.272.589.54.879.806l.329.29c.288.265.588.525.878.775l.357.31a156.561 156.561 0 005.141 4.201c.936.728 1.794 1.396 2.647 2.047l2.66 2.017zM223.95 27.885c-2.723 0-4.938-2.132-4.938-4.751 0-2.62 2.218-4.747 4.938-4.747 2.721 0 4.938 2.13 4.938 4.747s-2.215 4.75-4.938 4.75z"/></g></g><path d="M67.296 11.5h213.148v145.804H67.296z"/></g></g></g></g></svg>