<?xml version="1.0" encoding="UTF-8"?>
<svg width="242px" height="242px" viewBox="0 0 242 242" version="1.1" xmlns="http://www.w3.org/2000/svg" xmlns:xlink="http://www.w3.org/1999/xlink">
    <title>Android/app-logo</title>
    <g id="Android/app-logo" stroke="none" stroke-width="1" fill="none" fill-rule="evenodd">
        <g id="Group" transform="translate(6.000000, 158.000000)" fill="#FFFFFF" fill-rule="nonzero">
            <g id="Group">
                <path d="M79.6406047,20.5814978 C80.4732269,20.5814978 81.2372524,20.5127506 81.9326811,20.3752561 C82.6281099,20.2377617 83.2667689,20.0433729 83.8486583,19.79209 C84.4305477,19.540807 84.9674943,19.237371 85.4594983,18.8817818 C85.9515024,18.5261927 86.4056599,18.1255623 86.821971,17.6798906 L86.821971,17.6798906 L86.2542741,17.0682774 C86.1880428,17.0019007 86.107619,16.9687124 86.0130029,16.9687124 C85.9562332,16.9687124 85.9065597,16.9805654 85.8639824,17.0042713 C85.8214051,17.0279773 85.7764625,17.058795 85.7291544,17.0967245 C85.3317665,17.4665372 84.9296479,17.788938 84.5227984,18.0639269 C84.1159489,18.3389158 83.6759838,18.571234 83.202903,18.7608815 C82.7298222,18.9505291 82.2117988,19.0927647 81.6488327,19.1875885 C81.0858665,19.2824122 80.4448421,19.3298241 79.7257593,19.3298241 C78.5809038,19.3298241 77.5188374,19.1235824 76.5395602,18.7110991 C75.560283,18.2986157 74.711103,17.7059672 73.9920202,16.9331535 C73.2729374,16.1603398 72.7099713,15.2144728 72.3031218,14.0955524 C71.8962724,12.976632 71.6928476,11.7059936 71.6928476,10.2836371 C71.6928476,8.89921017 71.8986378,7.64990709 72.310218,6.53572788 C72.7217983,5.42154866 73.2965915,4.47331103 74.0345975,3.69101498 C74.7726035,2.90871894 75.6525338,2.30658804 76.6743883,1.88462229 C77.6962427,1.46265655 78.8174442,1.25167367 80.0379926,1.25167367 C80.7003057,1.25167367 81.2916567,1.30145615 81.8120455,1.4010211 C82.3324344,1.50058605 82.7913227,1.62385694 83.1887106,1.77083378 C83.5860985,1.91781061 83.929082,2.07901101 84.2176613,2.25443497 C84.5062406,2.42985893 84.7522426,2.59105933 84.9556673,2.73803616 C85.1590921,2.88501299 85.3270357,3.00828389 85.4594983,3.10784884 C85.591961,3.20741379 85.7007695,3.25719627 85.7859241,3.25719627 C85.9467716,3.25719627 86.0650417,3.20030201 86.1407347,3.08651349 L86.1407347,3.08651349 L86.5806998,2.44645309 C86.1360039,2.04819328 85.6818463,1.69734536 85.2182272,1.39390932 C84.754608,1.09047328 84.2602386,0.83681971 83.7351189,0.632948619 C83.2099992,0.429077528 82.6446677,0.272618319 82.0391243,0.163570991 C81.4335809,0.0545236638 80.766537,0 80.0379926,0 C78.5809038,0 77.2491814,0.248912378 76.0428254,0.746737135 C74.8364694,1.24456189 73.8004225,1.94625774 72.9346847,2.85182468 C72.0689469,3.75739162 71.3971721,4.84075311 70.9193606,6.10190916 C70.441549,7.36306521 70.2026432,8.75697453 70.2026432,10.2836371 C70.2026432,11.8387468 70.4344528,13.2516209 70.8980719,14.5222593 C71.3616911,15.7928978 72.0074464,16.8762593 72.8353377,17.7723438 C73.6632291,18.6684284 74.6566987,19.3606418 75.8157466,19.8489842 C76.9747945,20.3373266 78.2497473,20.5814978 79.6406047,20.5814978 Z M99.9256328,20.5672742 C101.354337,20.5672742 102.655309,20.323103 103.828549,19.8347607 C105.00179,19.3464183 106.009452,18.6542048 106.851535,17.7581202 C107.693619,16.8620357 108.346471,15.7810448 108.81009,14.5151475 C109.273709,13.2492503 109.505519,11.8387468 109.505519,10.2836371 C109.505519,8.73800978 109.273709,7.33224749 108.81009,6.06635025 C108.346471,4.80045301 107.693619,3.71709152 106.851535,2.81626577 C106.009452,1.91544002 105.00179,1.22085595 103.828549,0.732513571 C102.655309,0.24417119 101.354337,0 99.9256328,0 C98.5158521,0 97.2243415,0.246541784 96.0511012,0.739625353 C94.8778609,1.23270892 93.8701988,1.92729299 93.028115,2.82337755 C92.1860312,3.71946211 91.5308143,4.80045301 91.0624644,6.06635025 C90.5941144,7.33224749 90.3599394,8.73800978 90.3599394,10.2836371 C90.3599394,11.8387468 90.5941144,13.2492503 91.0624644,14.5151475 C91.5308143,15.7810448 92.1860312,16.8620357 93.028115,17.7581202 C93.8701988,18.6542048 94.8778609,19.3464183 96.0511012,19.8347607 C97.2243415,20.323103 98.5158521,20.5672742 99.9256328,20.5672742 Z M99.9256328,19.301377 C98.7334692,19.301377 97.643018,19.0975059 96.6542792,18.6897637 C95.6655404,18.2820215 94.813995,17.689373 94.099643,16.9118182 C93.385291,16.1342633 92.8317865,15.1883963 92.4391294,14.074217 C92.0464724,12.9600378 91.8501439,11.6965112 91.8501439,10.2836371 C91.8501439,8.88024542 92.0464724,7.61908937 92.4391294,6.50016897 C92.8317865,5.38124856 93.385291,4.43301093 94.099643,3.65545607 C94.813995,2.87790121 95.6655404,2.2828821 96.6542792,1.87039873 C97.643018,1.45791536 98.7334692,1.25167367 99.9256328,1.25167367 C101.13672,1.25167367 102.238998,1.45791536 103.232467,1.87039873 C104.225937,2.2828821 105.075117,2.87790121 105.780007,3.65545607 C106.484898,4.43301093 107.031306,5.38124856 107.419232,6.50016897 C107.807159,7.61908937 108.001122,8.88024542 108.001122,10.2836371 C108.001122,11.6965112 107.807159,12.9600378 107.419232,14.074217 C107.031306,15.1883963 106.484898,16.1342633 105.780007,16.9118182 C105.075117,17.689373 104.225937,18.2820215 103.232467,18.6897637 C102.238998,19.0975059 101.13672,19.301377 99.9256328,19.301377 Z M120.608049,20.3539208 L128.896424,0.227577032 L127.76103,0.227577032 C127.628567,0.227577032 127.517393,0.265506537 127.427508,0.341365547 C127.337623,0.417224558 127.269026,0.507307133 127.221718,0.611613272 L127.221718,0.611613272 L120.395162,17.310078 C120.224853,17.7273025 120.08766,18.191939 119.983582,18.7039873 C119.870043,18.2109037 119.723388,17.7462673 119.543617,17.310078 L119.543617,17.310078 L112.702869,0.611613272 C112.655561,0.497824757 112.589329,0.405371588 112.504175,0.334253765 C112.41902,0.263135943 112.310212,0.227577032 112.177749,0.227577032 L112.177749,0.227577032 L111.028163,0.227577032 L119.316538,20.3539208 L120.608049,20.3539208 Z M134.279407,20.3539208 L134.279407,0.227577032 L132.817588,0.227577032 L132.817588,20.3539208 L134.279407,20.3539208 Z M148.305577,20.3539208 C149.734281,20.3539208 151.035253,20.1216025 152.208493,19.6569661 C153.381734,19.1923297 154.389396,18.5238221 155.231479,17.6514435 C156.073563,16.7790649 156.726415,15.7217799 157.190034,14.4795886 C157.653653,13.2373973 157.885463,11.8387468 157.885463,10.2836371 C157.885463,8.73800978 157.653653,7.34410046 157.190034,6.10190916 C156.726415,4.85971786 156.073563,3.8024329 155.231479,2.93005428 C154.389396,2.05767566 153.381734,1.38916813 152.208493,0.924531691 C151.035253,0.459895251 149.734281,0.227577032 148.305577,0.227577032 L148.305577,0.227577032 L140.982286,0.227577032 L140.982286,20.3539208 L148.305577,20.3539208 Z M148.305577,19.1733649 L142.444106,19.1733649 L142.444106,1.40813288 L148.305577,1.40813288 C149.516664,1.40813288 150.618942,1.60726279 151.612411,2.00552259 C152.605881,2.4037824 153.455061,2.98220735 154.159951,3.74079746 C154.864842,4.49938756 155.41125,5.42866044 155.799176,6.52861609 C156.187103,7.62857175 156.381066,8.88024542 156.381066,10.2836371 C156.381066,11.6965112 156.187103,12.952926 155.799176,14.0528817 C155.41125,15.1528374 154.864842,16.0821102 154.159951,16.8407003 C153.455061,17.5992904 152.605881,18.1777154 151.612411,18.5759752 C150.618942,18.974235 149.516664,19.1733649 148.305577,19.1733649 L148.305577,19.1733649 Z" id="COVID"></path>
                <path d="M3.64583671,63.7180617 C4.05092968,63.7180617 4.39120777,63.6051289 4.66667099,63.3792635 C4.9421342,63.153398 5.13657883,62.8952661 5.25000486,62.6048676 L5.25000486,62.6048676 L8.50695232,54.2317125 L24.135439,54.2317125 L27.3923865,62.6048676 C27.5220162,62.9275326 27.7164608,63.1937312 27.9757203,63.4034634 C28.2349798,63.6131956 28.5752579,63.7180617 28.9965546,63.7180617 L28.9965546,63.7180617 L32.6423913,63.7180617 L18.7152951,29.0396476 L13.9270962,29.0396476 L0,63.7180617 L3.64583671,63.7180617 Z M22.8229378,50.8437307 L9.81945353,50.8437307 L15.2882086,36.7594062 C15.4502458,36.3399418 15.6163339,35.8519111 15.7864729,35.295314 C15.956612,34.738717 16.130802,34.129687 16.3090429,33.4682238 C16.649321,34.7750168 16.9977009,35.864011 17.3541827,36.7352063 L17.3541827,36.7352063 L22.8229378,50.8437307 Z M56.623895,63.7180617 L56.623895,59.7734828 L41.5544366,59.7734828 L41.5544366,29.0396476 L36.8391545,29.0396476 L36.8391545,63.7180617 L56.623895,63.7180617 Z M83.0845676,63.7180617 L83.0845676,59.8944822 L66.3623299,59.8944822 L66.3623299,48.0607456 L79.9005369,48.0607456 L79.9005369,44.3823653 L66.3623299,44.3823653 L66.3623299,32.8632271 L83.0845676,32.8632271 L83.0845676,29.0396476 L61.6227422,29.0396476 L61.6227422,63.7180617 L83.0845676,63.7180617 Z M94.8403656,63.7180617 L94.8403656,49.2465393 L98.4132855,49.2465393 C99.0614343,49.2465393 99.5475458,49.3312388 99.8716202,49.5006379 C100.195695,49.670037 100.495463,49.9483355 100.770927,50.3355334 L100.770927,50.3355334 L109.812602,62.725867 C110.217695,63.3873301 110.84964,63.7180617 111.708437,63.7180617 L111.708437,63.7180617 L115.888996,63.7180617 L105.729265,49.9483355 C105.27556,49.3030056 104.757041,48.8109416 104.173708,48.4721434 C105.518616,48.1656117 106.721742,47.7138808 107.783086,47.1169507 C108.844429,46.5200205 109.743736,45.7980577 110.481005,44.9510623 C111.218274,44.1040668 111.781353,43.1481719 112.170243,42.0833777 C112.559132,41.0185834 112.753577,39.8731228 112.753577,38.6469961 C112.753577,37.1788706 112.502419,35.8519111 112.000104,34.6661174 C111.497788,33.4803238 110.724061,32.4679625 109.678921,31.6290337 C108.633781,30.7901049 107.309127,30.1488083 105.704959,29.705144 C104.100791,29.2614797 102.196854,29.0396476 99.9931481,29.0396476 L99.9931481,29.0396476 L90.149389,29.0396476 L90.149389,63.7180617 L94.8403656,63.7180617 Z M99.7743979,45.8343575 L94.8403656,45.8343575 L94.8403656,32.7422277 L99.9931481,32.7422277 C102.699169,32.7422277 104.736787,33.2665583 106.106001,34.3152193 C107.475215,35.3638803 108.159822,36.9207387 108.159822,38.9857943 C108.159822,40.0021888 107.981581,40.9298505 107.6251,41.7687793 C107.268618,42.6077082 106.737946,43.329671 106.033084,43.9346677 C105.328222,44.5396645 104.453222,45.0075286 103.408082,45.3382602 C102.362942,45.6689918 101.151714,45.8343575 99.7743979,45.8343575 L99.7743979,45.8343575 Z M131.971187,63.7180617 L131.971187,32.9842264 L143.22467,32.9842264 L143.22467,29.0396476 L115.953811,29.0396476 L115.953811,32.9842264 L127.255905,32.9842264 L127.255905,63.7180617 L131.971187,63.7180617 Z" id="ALERT"></path>
                <path d="M169.938071,64 L169.938071,44.9578429 C169.938071,44.4376986 169.92183,43.8809817 169.889349,43.2876921 C169.856867,42.6944025 169.816265,42.0889221 169.767542,41.4712507 L169.767542,41.4712507 L186.503732,62.6346213 C186.909753,63.1547655 187.332015,63.5123647 187.770517,63.7074188 C188.20902,63.9024729 188.744968,64 189.378361,64 L189.378361,64 L193.665944,64 L193.665944,28.4757709 L186.406287,28.4757709 L186.406287,47.2741104 C186.406287,47.8430182 186.422527,48.4484987 186.455009,49.0905518 C186.487491,49.7326049 186.536213,50.3949761 186.601177,51.0776655 L186.601177,51.0776655 L169.743181,29.7436226 C169.515809,29.467296 169.312799,29.2478601 169.134149,29.085315 C168.9555,28.9227699 168.76873,28.7967975 168.57384,28.7073977 C168.37895,28.6179979 168.159699,28.5570435 167.916086,28.5245345 C167.672473,28.4920254 167.372018,28.4757709 167.014719,28.4757709 L167.014719,28.4757709 L162.678414,28.4757709 L162.678414,64 L169.938071,64 Z M217.198926,64 L217.198926,50.4925032 L230.061674,28.4757709 L222.753294,28.4757709 C222.412237,28.4757709 222.0996,28.5285981 221.815386,28.6342524 C221.531171,28.7399067 221.279438,28.87807 221.060186,29.0487424 C220.840935,29.2194147 220.646045,29.4104052 220.475516,29.6217138 C220.304987,29.8330224 220.171,30.044331 220.073555,30.2556396 L220.073555,30.2556396 L215.103857,40.5935073 C214.714077,41.4062327 214.348658,42.1620674 214.0076,42.8610113 C213.666542,43.5599551 213.374207,44.258899 213.130595,44.9578429 C212.870741,44.2751535 212.570285,43.5843369 212.229228,42.885393 C211.88817,42.1864491 211.514631,41.4224872 211.10861,40.5935073 L211.10861,40.5935073 L206.090189,30.2556396 C205.830335,29.7354954 205.489278,29.3088145 205.067016,28.9755971 C204.644754,28.6423796 204.076324,28.4757709 203.361727,28.4757709 L203.361727,28.4757709 L196.10207,28.4757709 L208.964818,50.4925032 L208.964818,64 L217.198926,64 Z" id="NY"></path>
            </g>
        </g>
        <g id="Group-2" transform="translate(79.000000, 20.000000)" fill="#FFFFFF">
            <polygon id="Fill-21-Copy-3" points="96 89.1645067 74.5552654 103.044797 62.0894691 33 42.96745 40.4126901 36.8738033 54.6231927 35.6261097 69.0215746 10.4327241 76.0585063 12.0981723 87.9005918 0 95.5580942 4.70670148 99.5263316 54.8818103 93.6622219 52.664926 102.116788 78.1925152 109 96 93.6622219"></polygon>
            <path d="M97.7050754,3.38895395 C93.3118426,-1.12965132 86.1883143,-1.12965132 81.7950815,3.38895395 C81.4906,3.69868317 81.2597294,4.05315106 80.9987453,4.39041178 C80.7411071,4.05315106 80.5068906,3.69868317 80.205755,3.38895395 C75.8125222,-1.12965132 68.685648,-1.12965132 64.2924151,3.38895395 C59.9025283,7.90411777 59.9025283,15.2343761 64.2924151,19.7529814 L80.9987453,36 L97.7050754,19.7529814 C102.098308,15.2343761 102.098308,7.90411777 97.7050754,3.38895395" id="Fill-53-Copy-2"></path>
        </g>
    </g>
</svg>