<svg viewBox="0 0 242 242" xmlns="http://www.w3.org/2000/svg"><g fill="#FFF" fill-rule="evenodd"><path d="M85.64 178.581c.833 0 1.597-.068 2.293-.206a9.44 9.44 0 001.916-.583 8.475 8.475 0 001.61-.91 9.376 9.376 0 001.363-1.202l-.568-.612a.328.328 0 00-.241-.1.301.301 0 00-.149.036.983.983 0 00-.135.093c-.397.37-.8.692-1.206.967a7 7 0 01-1.32.697c-.473.19-.991.332-1.554.427-.563.094-1.204.142-1.923.142-1.145 0-2.207-.206-3.186-.619a7.322 7.322 0 01-2.548-1.778c-.72-.773-1.282-1.719-1.689-2.837-.407-1.12-.61-2.39-.61-3.812 0-1.385.206-2.634.617-3.748.412-1.114.987-2.063 1.725-2.845a7.537 7.537 0 012.64-1.806c1.021-.422 2.142-.633 3.363-.633a9.5 9.5 0 011.774.149c.52.1.98.223 1.377.37s.74.308 1.029.483c.288.176.534.337.738.484.203.147.371.27.503.37.133.1.242.15.327.15.16 0 .279-.058.355-.171l.44-.64a11.42 11.42 0 00-1.363-1.053 7.961 7.961 0 00-1.483-.761 9.164 9.164 0 00-1.696-.47 11.322 11.322 0 00-2.001-.163c-1.457 0-2.789.249-3.995.747a8.984 8.984 0 00-3.108 2.105c-.866.905-1.538 1.989-2.016 3.25-.477 1.261-.716 2.655-.716 4.182 0 1.555.231 2.968.695 4.238.464 1.27 1.11 2.354 1.937 3.25a8.494 8.494 0 002.98 2.077c1.16.488 2.435.732 3.826.732zm20.286-.014c1.428 0 2.73-.244 3.903-.732a8.66 8.66 0 003.023-2.077c.842-.896 1.494-1.977 1.958-3.243.464-1.266.696-2.676.696-4.231 0-1.546-.232-2.952-.696-4.218-.464-1.266-1.116-2.349-1.958-3.25a8.616 8.616 0 00-3.023-2.083c-1.174-.489-2.475-.733-3.903-.733-1.41 0-2.702.247-3.875.74a8.742 8.742 0 00-3.023 2.083c-.842.896-1.497 1.977-1.966 3.243-.468 1.266-.702 2.672-.702 4.218 0 1.555.234 2.965.702 4.231.469 1.266 1.124 2.347 1.966 3.243a8.66 8.66 0 003.023 2.077c1.173.488 2.465.732 3.875.732zm0-1.266c-1.193 0-2.283-.203-3.272-.611a7.1 7.1 0 01-2.554-1.778c-.715-.778-1.268-1.724-1.66-2.838-.394-1.114-.59-2.377-.59-3.79 0-1.404.196-2.665.59-3.784.392-1.119.945-2.067 1.66-2.845a7.179 7.179 0 012.554-1.785c.989-.412 2.08-.618 3.272-.618 1.21 0 2.313.206 3.306.618a7.03 7.03 0 012.548 1.785c.705.778 1.251 1.726 1.64 2.845.387 1.12.581 2.38.581 3.784 0 1.413-.194 2.676-.582 3.79-.388 1.114-.934 2.06-1.639 2.838a6.955 6.955 0 01-2.548 1.778c-.993.408-2.095.611-3.306.611zm20.682 1.053l8.288-20.126h-1.135a.5.5 0 00-.333.113.762.762 0 00-.206.27l-6.827 16.7c-.17.416-.307.88-.411 1.393a8.883 8.883 0 00-.44-1.394l-6.841-16.698a.708.708 0 00-.199-.278.492.492 0 00-.326-.106h-1.15l8.289 20.126h1.291zm13.671 0v-20.126h-1.461v20.126h1.461zm14.027 0c1.428 0 2.73-.232 3.902-.697a8.488 8.488 0 003.023-2.006c.843-.872 1.495-1.93 1.959-3.171.464-1.243.695-2.641.695-4.196 0-1.546-.231-2.94-.695-4.182-.464-1.242-1.116-2.3-1.959-3.172a8.488 8.488 0 00-3.023-2.005c-1.173-.465-2.474-.697-3.902-.697h-7.324v20.126h7.324zm0-1.18h-5.862v-17.766h5.862c1.21 0 2.313.2 3.306.598a6.967 6.967 0 012.548 1.735c.705.758 1.251 1.688 1.64 2.788.387 1.1.581 2.351.581 3.755 0 1.413-.194 2.669-.582 3.769-.388 1.1-.934 2.03-1.639 2.788a6.967 6.967 0 01-2.548 1.735c-.993.398-2.095.597-3.306.597zM9.646 221.718c.405 0 .745-.113 1.02-.339.276-.226.47-.484.584-.774l3.257-8.373h15.628l3.257 8.373c.13.323.324.589.584.798.259.21.6.315 1.02.315h3.646L24.715 187.04h-4.788L6 221.718h3.646zm19.177-12.874H15.819l5.47-14.085c.161-.42.327-.907.497-1.464.17-.556.345-1.165.523-1.827.34 1.307.689 2.396 1.045 3.267l5.469 14.109zm33.8 12.874v-3.945H47.555V187.04H42.84v34.678h19.785zm26.462 0v-3.824H72.362v-11.833h13.539v-3.679H72.362v-11.519h16.723v-3.823H67.623v34.678h21.462zm11.755 0v-14.471h3.573c.648 0 1.135.084 1.459.254.324.169.623.447.899.835l9.042 12.39c.405.661 1.037.992 1.895.992h4.181l-10.16-13.77c-.453-.645-.972-1.137-1.555-1.476 1.345-.306 2.548-.758 3.61-1.355 1.06-.597 1.96-1.319 2.697-2.166a9.067 9.067 0 001.69-2.868 9.956 9.956 0 00.583-3.436c0-1.468-.252-2.795-.754-3.98-.502-1.187-1.276-2.199-2.321-3.038-1.045-.839-2.37-1.48-3.974-1.924-1.604-.444-3.508-.665-5.712-.665H96.15v34.678h4.691zm4.934-17.884h-4.934v-13.092h5.153c2.706 0 4.744.525 6.113 1.573 1.37 1.049 2.054 2.606 2.054 4.67 0 1.017-.178 1.945-.535 2.784a5.823 5.823 0 01-1.592 2.166c-.705.605-1.58 1.073-2.625 1.403-1.045.331-2.256.496-3.634.496zm32.197 17.884v-30.734h11.254v-3.944h-27.271v3.944h11.302v30.734h4.715zm37.967.282v-19.042c0-.52-.016-1.077-.049-1.67a75.802 75.802 0 00-.121-1.817l16.736 21.164c.406.52.828.877 1.267 1.072.438.195.974.293 1.607.293h4.288v-35.524h-7.26v18.798c0 .569.017 1.174.049 1.817.032.642.081 1.304.146 1.987l-16.858-21.334a6.406 6.406 0 00-.609-.659 2.195 2.195 0 00-.56-.378 2.3 2.3 0 00-.658-.182 6.983 6.983 0 00-.901-.05h-4.337V222h7.26zm47.26 0v-13.507l12.864-22.017h-7.309c-.34 0-.653.053-.938.158a2.818 2.818 0 00-.755.415 3.55 3.55 0 00-.584.573 3.05 3.05 0 00-.402.634l-4.97 10.338c-.39.812-.755 1.568-1.096 2.267a19.168 19.168 0 00-.877 2.097 25.05 25.05 0 00-.902-2.073c-.34-.699-.714-1.463-1.12-2.291l-5.019-10.338a3.72 3.72 0 00-1.023-1.28c-.422-.334-.99-.5-1.705-.5h-7.26l12.863 22.017V222h8.234z" fill-rule="nonzero"/><path d="M175 109.165l-21.445 13.88L141.09 53l-19.122 7.413-6.093 14.21-1.248 14.399-25.193 7.037 1.665 11.842L79 115.558l4.707 3.968 50.175-5.864-2.217 8.455L157.193 129 175 113.662zm1.705-85.776a11.031 11.031 0 00-15.91 0c-.304.31-.535.664-.796 1.001-.258-.337-.492-.691-.793-1.001a11.035 11.035 0 00-15.914 0c-4.39 4.515-4.39 11.845 0 16.364L160 56l16.706-16.247c4.393-4.519 4.393-11.849 0-16.364"/></g></svg>