<svg viewBox="0 0 173 198" xmlns="http://www.w3.org/2000/svg"><g fill="#FFF" fill-rule="evenodd"><path d="M157.36 85.604l-32.337 21.074L106.225.332 77.391 11.586l-9.188 21.575-1.882 21.86-37.989 10.685 2.511 17.979L12.6 95.31l7.098 6.025 75.659-8.904-3.343 12.837 38.493 10.45 26.852-23.287z"/><g fill-rule="nonzero"><path d="M59.888 165.336c.626 0 1.2-.051 1.723-.154a7.147 7.147 0 001.44-.434 6.39 6.39 0 001.212-.678 7.03 7.03 0 001.025-.896l-.427-.456a.248.248 0 00-.182-.074.228.228 0 00-.112.027.74.74 0 00-.101.068 7.495 7.495 0 01-.907.721 5.28 5.28 0 01-.993.52 5.702 5.702 0 01-1.168.317 8.85 8.85 0 01-1.446.106c-.861 0-1.66-.153-2.396-.46a5.507 5.507 0 01-1.916-1.325c-.54-.576-.964-1.281-1.27-2.115-.306-.834-.459-1.78-.459-2.84 0-1.032.155-1.963.464-2.793.31-.83.742-1.537 1.297-2.12a5.67 5.67 0 011.985-1.346c.768-.314 1.612-.471 2.53-.471.497 0 .942.037 1.333.111.392.074.737.166 1.036.276.298.109.556.23.773.36.217.13.402.25.555.36.153.11.28.202.38.276.099.074.18.111.245.111.12 0 .21-.042.266-.127l.331-.477a8.579 8.579 0 00-1.024-.784 6.007 6.007 0 00-1.116-.567 6.94 6.94 0 00-1.275-.35 8.59 8.59 0 00-1.505-.122c-1.095 0-2.097.185-3.004.556a6.76 6.76 0 00-2.337 1.569 7.085 7.085 0 00-1.516 2.422c-.359.94-.539 1.978-.539 3.116 0 1.159.175 2.211.523 3.158.349.947.835 1.754 1.457 2.422a6.388 6.388 0 002.241 1.547c.872.364 1.83.546 2.877.546zm15.253-.01c1.075 0 2.053-.182 2.935-.546a6.515 6.515 0 002.273-1.548c.634-.667 1.125-1.473 1.473-2.416.349-.943.523-1.994.523-3.153 0-1.152-.174-2.2-.523-3.143-.348-.943-.84-1.75-1.473-2.421a6.48 6.48 0 00-2.273-1.553c-.882-.364-1.86-.546-2.935-.546-1.06 0-2.031.184-2.913.551a6.576 6.576 0 00-2.273 1.553c-.634.668-1.126 1.473-1.479 2.416-.352.944-.528 1.991-.528 3.143 0 1.159.176 2.21.528 3.153.353.943.845 1.749 1.479 2.416a6.515 6.515 0 002.273 1.548c.882.364 1.853.546 2.913.546zm0-.944c-.896 0-1.716-.152-2.46-.455a5.341 5.341 0 01-1.92-1.325c-.538-.58-.954-1.284-1.25-2.115-.295-.83-.442-1.771-.442-2.824 0-1.046.147-1.986.443-2.82.295-.833.711-1.54 1.248-2.12a5.399 5.399 0 011.921-1.33c.744-.307 1.564-.46 2.46-.46.911 0 1.74.153 2.487.46.747.308 1.386.751 1.916 1.33.53.58.94 1.287 1.232 2.12.292.834.438 1.774.438 2.82 0 1.053-.146 1.994-.438 2.824-.291.83-.702 1.535-1.232 2.115a5.23 5.23 0 01-1.916 1.325c-.747.303-1.576.455-2.487.455zm15.553.785l6.233-14.997h-.854c-.1 0-.183.028-.251.084a.568.568 0 00-.155.202l-5.133 12.442a5.77 5.77 0 00-.31 1.04 6.576 6.576 0 00-.33-1.04l-5.145-12.442a.527.527 0 00-.149-.207.372.372 0 00-.245-.08h-.865l6.233 14.998h.97zm10.28 0V150.17h-1.099v14.997h1.1zm10.548 0c1.074 0 2.052-.174 2.935-.52a6.387 6.387 0 002.273-1.494c.633-.65 1.124-1.438 1.473-2.364.348-.925.522-1.967.522-3.126 0-1.152-.174-2.19-.522-3.116-.35-.926-.84-1.714-1.473-2.364a6.387 6.387 0 00-2.273-1.494c-.883-.346-1.861-.52-2.935-.52h-5.507v14.998h5.507zm0-.88h-4.408v-13.238h4.408c.91 0 1.74.149 2.486.445a5.24 5.24 0 011.916 1.293c.53.566.941 1.258 1.233 2.078.291.82.437 1.752.437 2.798 0 1.053-.146 1.989-.437 2.808-.292.82-.703 1.512-1.233 2.078a5.24 5.24 0 01-1.916 1.293c-.747.296-1.576.445-2.486.445zM2.742 197.479c.304 0 .56-.084.767-.252a1.41 1.41 0 00.439-.577l2.449-6.24h11.752l2.45 6.24c.097.24.243.438.438.595.195.156.45.234.768.234h2.741l-10.473-25.84h-3.6L0 197.479h2.742zm14.42-9.593H7.384l4.112-10.495c.122-.313.247-.676.375-1.091.128-.415.259-.869.393-1.361.256.973.518 1.785.786 2.434l4.112 10.513zm25.418 9.593v-2.94H31.248v-22.9h-3.546v25.84H42.58zm19.897 0v-2.85H49.903v-8.817h10.18v-2.74h-10.18v-8.584h12.574v-2.85H46.34v25.841h16.138zm8.84 0v-10.783h2.687c.487 0 .853.063 1.097.189.243.126.469.334.676.622l6.799 9.233c.305.493.78.739 1.426.739h3.143l-7.64-10.26c-.34-.481-.73-.848-1.17-1.1 1.012-.229 1.917-.565 2.715-1.01a7.581 7.581 0 002.029-1.614 6.743 6.743 0 001.27-2.137 7.347 7.347 0 00.439-2.56c0-1.094-.19-2.083-.567-2.967a5.75 5.75 0 00-1.745-2.263c-.786-.625-1.783-1.103-2.989-1.433-1.206-.331-2.638-.496-4.295-.496H67.79v25.84h3.527zm3.71-13.326h-3.71v-9.755h3.875c2.035 0 3.567.39 4.597 1.172 1.03.781 1.544 1.941 1.544 3.48 0 .757-.134 1.449-.402 2.074a4.342 4.342 0 01-1.197 1.614c-.53.45-1.188.799-1.974 1.045-.786.247-1.697.37-2.732.37zM99.24 197.48v-22.901h8.462v-2.94H87.194v2.94h8.499v22.901h3.546zM127.789 197.69V183.5c0-.388-.012-.802-.037-1.245a55.981 55.981 0 00-.092-1.353l12.586 15.77c.305.387.622.654.952.8.33.144.733.217 1.21.217h3.223v-26.47h-5.459v14.007c0 .424.013.875.037 1.353.024.479.061.972.11 1.481l-12.677-15.897a4.79 4.79 0 00-.458-.49 1.651 1.651 0 00-.421-.282 1.741 1.741 0 00-.495-.136 5.298 5.298 0 00-.678-.037h-3.26v26.471h5.459zm35.539 0v-10.066L173 171.218h-5.496c-.256 0-.491.04-.705.119a2.125 2.125 0 00-.568.308c-.165.128-.311.27-.44.427a2.27 2.27 0 00-.302.473l-3.737 7.703a276.91 276.91 0 01-.824 1.69c-.257.52-.477 1.041-.66 1.562a18.577 18.577 0 00-.678-1.544l-.842-1.708-3.774-7.703a2.776 2.776 0 00-.77-.954c-.317-.248-.744-.373-1.282-.373h-5.459l9.673 16.406v10.065h6.192z"/></g></g></svg>