<svg xmlns="http://www.w3.org/2000/svg" viewBox="0 0 335 80"><g fill="none" fill-rule="evenodd"><path stroke="#FFF" stroke-linecap="round" stroke-width="1.75" d="M173.48 8.44v62.24"/><g fill="#FFF" fill-rule="nonzero"><path d="M87.65 19.34l3.73 5.94v-5.93c.44-.23.94-.33 1.43-.3.5-.03 1 .07 1.45.3v10.29s-.4.29-1.43.29c-.48.04-.97-.06-1.4-.26l-3.74-5.95v5.92a2.7 2.7 0 01-1.45.29c-.49.03-.97-.07-1.4-.3V19.36s.39-.3 1.43-.3c.48-.03.97.07 1.4.29m14.21 5.85h-2.73v2.63h3.94c.21.3.32.68.3 1.05.02.37-.09.74-.3 1.05h-6.81V19.06h6.5c.22.3.33.67.3 1.04.03.38-.08.75-.3 1.05h-3.63v1.93h2.73c.2.3.31.68.29 1.05.03.37-.08.75-.3 1.05m5.03 4.46l-2.95-10.3c.45-.22.95-.32 1.45-.28 1.03 0 1.43.29 1.43.29l1.46 5.22.2.85c.04-.28.1-.56.17-.83l1.3-5.25c.36-.2.77-.3 1.19-.3.4 0 .79.1 1.13.3l1.23 5.22.2.85c.04-.28.1-.56.19-.84l1.52-5.24c.43-.22.92-.33 1.4-.3.5-.03 1 .07 1.45.3l-2.98 10.3c-.43.22-.9.32-1.37.3-1.1 0-1.5-.3-1.5-.3l-1.16-4.76c-.1-.35-.15-.75-.17-.83l-.18.83-1.17 4.77s-.4.29-1.43.29c-.5.04-1-.07-1.44-.3m16.6-10.29l1.26 2.23c.3.55.53 1.13.7 1.72.16-.6.4-1.18.7-1.72l1.3-2.23c.41-.22.88-.32 1.34-.28 1.07 0 1.52.35 1.52.35l-3.43 5.94v4.29s-.4.29-1.43.29c-1.03 0-1.4-.3-1.4-.3V25.3l-3.44-5.89c.47-.27 1-.39 1.54-.35.46-.03.93.07 1.34.28m12.03 10.69c-3.66 0-5.26-2.14-5.26-5.53 0-3.38 1.6-5.56 5.27-5.56 3.67 0 5.27 2.18 5.27 5.56 0 3.4-1.62 5.53-5.27 5.53m0-2.1c1.55 0 2.39-1.4 2.39-3.43 0-2.03-.84-3.45-2.4-3.45-1.54 0-2.38 1.4-2.38 3.45 0 2.05.84 3.44 2.39 3.44m9.68 1.7c-.45.23-.95.33-1.45.29-1.01 0-1.42-.3-1.42-.3V19.5s1.17-.54 3.31-.54c3.25 0 4.76 1.24 4.76 3.42 0 2.17-1.65 3.01-1.85 3.03l2.52 4.2a4.2 4.2 0 01-3.09.08l-1.9-3.31a.58.58 0 00-.52-.4h-.37v3.67zm.8-8.58c-.27 0-.54.03-.8.1v2.7h.77c1.14 0 1.57-.8 1.57-1.4 0-.8-.54-1.4-1.54-1.4m16.06 8.5c-.6.26-1.25.39-1.9.37-.5.03-.99-.06-1.43-.26l-3.69-5v4.97s-.38.29-1.4.29c-.5.04-1-.06-1.44-.3V19.36a2.7 2.7 0 011.45-.3c1 0 1.4.3 1.4.3v4.83l3.55-4.84c.44-.22.94-.32 1.43-.28 1.17 0 1.63.38 1.63.38l-3.48 4.74 3.88 5.38zm-72.25 5.1c.11.38-.06.79-.42.97a3.19 3.19 0 00-1.61-.44c-.78 0-1.29.35-1.29.89 0 .45.38.62 1.26.93l1 .35c1.09.39 1.64.88 1.64 1.87 0 1.27-.9 2.18-2.8 2.18a4 4 0 01-2.53-.74.97.97 0 01.4-.96c.66.43 1.43.67 2.23.7.79 0 1.3-.36 1.3-.94 0-.4-.27-.63-.78-.8l-1.64-.54c-.84-.27-1.47-.87-1.47-1.82 0-1.3.91-2.12 2.67-2.12.72-.04 1.43.13 2.05.5m1.17.59a.83.83 0 01-.15-.53.79.79 0 01.15-.52h5.3c.11.15.16.33.15.5a.83.83 0 01-.15.54h-1.95v5.92a1.2 1.2 0 01-.7.15c-.24.02-.49-.03-.7-.15v-5.9h-1.95zm9.08-.91l2.84 6.8c-.22.13-.47.19-.72.17a1.2 1.2 0 01-.68-.15l-.65-1.52H97.9l-.64 1.52c-.2.12-.43.17-.66.15-.26.02-.51-.04-.74-.17l2.84-6.8c.2-.1.45-.16.68-.14.24-.02.49.03.7.14m-1.75 4.28h2.13l-.8-1.94a8.8 8.8 0 01-.26-.72c-.02.05-.15.49-.25.72l-.82 1.94zm4.14-3.37a.85.85 0 01-.14-.53.8.8 0 01.14-.5h5.3c.11.14.16.32.15.5a.85.85 0 01-.14.53h-1.97v5.91c-.2.12-.45.17-.7.15-.24.02-.48-.03-.7-.15v-5.9h-1.94zm9.99 2.8h-2.15v2.24h2.93c.1.15.15.33.14.5a.83.83 0 01-.14.53h-4.33v-7.12h4.12c.1.15.15.33.14.5a.86.86 0 01-.14.53h-2.72v1.78h2.15c.1.15.16.32.15.5a.83.83 0 01-.15.53m7.24 3.33c-2.38 0-3.32-1.41-3.32-3.6 0-2.2.94-3.64 3.32-3.64 2.37 0 3.3 1.45 3.3 3.64 0 2.18-.95 3.6-3.3 3.6m0-1.02c1.27 0 1.9-1.05 1.9-2.58 0-1.54-.63-2.61-1.9-2.61s-1.92 1.05-1.92 2.6c0 1.56.64 2.6 1.92 2.6m8.09-2.31h-2.15v3.12c-.22.12-.46.17-.7.15a1.3 1.3 0 01-.7-.15v-6.97h4.11c.1.15.16.33.14.5a.83.83 0 01-.14.53h-2.71v1.78h2.15c.1.15.16.32.14.5a.83.83 0 01-.14.53M88.38 51.02c-2.38 0-3.32-1.42-3.32-3.61 0-2.2.94-3.63 3.32-3.63 2.37 0 3.3 1.44 3.3 3.63s-.95 3.61-3.3 3.61m0-1.03c1.27 0 1.9-1.04 1.9-2.58s-.63-2.6-1.9-2.6-1.92 1.04-1.92 2.6c0 1.55.64 2.58 1.92 2.58m6.81-1.74h-.89v2.56c-.22.11-.46.16-.7.14-.24.02-.48-.03-.7-.14v-6.7c.68-.25 1.4-.37 2.13-.34 1.89 0 2.82.84 2.82 2.17 0 1.4-1 2.3-2.65 2.3m0-3.45c-.3-.02-.6.02-.88.1v2.32h.77c.97 0 1.38-.56 1.38-1.21 0-.65-.4-1.21-1.27-1.21m6.04 3.46h-.89v2.56a1.3 1.3 0 01-.7.14c-.24.02-.48-.03-.7-.14v-6.7c.69-.25 1.4-.37 2.14-.34 1.88 0 2.82.84 2.82 2.17 0 1.4-1 2.3-2.66 2.3m0-3.45c-.3-.02-.6.02-.88.1v2.32h.77c.97 0 1.37-.56 1.37-1.21 0-.65-.38-1.21-1.26-1.21m6.77 6.23c-2.38 0-3.32-1.42-3.32-3.61 0-2.2.94-3.63 3.32-3.63 2.37 0 3.3 1.44 3.3 3.63s-.93 3.61-3.3 3.61m0-1.03c1.26 0 1.9-1.04 1.9-2.58s-.64-2.6-1.9-2.6c-1.27 0-1.92 1.04-1.92 2.6 0 1.55.64 2.58 1.92 2.58m5.93.82c-.22.11-.46.16-.7.14-.25.02-.49-.03-.7-.14v-6.7a5.82 5.82 0 012.05-.33c2.02 0 2.92.84 2.92 2.2.06.93-.55 1.77-1.45 2.01l1.83 2.8a2.1 2.1 0 01-1.53.05l-1.47-2.31a.45.45 0 00-.41-.28h-.53l-.01 2.56zm.77-6c-.26 0-.52.03-.77.1v2.3h1.02c.8 0 1.13-.57 1.13-1.2 0-.65-.42-1.2-1.38-1.2m3.52.07a.84.84 0 01-.16-.5.81.81 0 01.14-.51h5.31c.1.14.16.32.15.5a.84.84 0 01-.14.53h-1.96v5.91a1.2 1.2 0 01-.7.14 1.3 1.3 0 01-.7-.14v-5.93h-1.94zM128.76 48v-4c.22-.12.46-.17.7-.15.24-.02.49.03.7.14v3.75c0 2-.54 3.28-2.8 3.28s-2.8-1.27-2.8-3.28v-3.75c.22-.11.46-.16.7-.14.25-.02.49.03.7.14v4c0 1.28.35 2 1.38 2 1.04 0 1.38-.72 1.38-2m4.29-4.01l3.08 4.74V44c.21-.11.46-.16.7-.14.24-.02.48.03.7.14v6.82c-.22.11-.46.16-.7.14-.24.02-.47-.02-.68-.13l-3.09-4.7v4.7c-.21.11-.45.16-.7.14a1.3 1.3 0 01-.7-.14V44c.22-.11.46-.16.7-.14.25-.02.49.03.7.13m7.4.01v6.81c-.22.11-.46.16-.7.14-.25.02-.49-.03-.7-.14v-6.82a1.8 1.8 0 011.4 0m1.1.89a.82.82 0 01-.15-.52.8.8 0 01.15-.51h5.3c.11.15.16.33.15.5a.84.84 0 01-.14.53h-1.97v5.93c-.2.12-.45.17-.7.14-.24.02-.48-.03-.7-.14v-5.93h-1.94zm7.16-.9l1.08 1.92c.19.35.35.71.49 1.09.12-.38.29-.75.49-1.1l1.1-1.9c.2-.11.43-.16.66-.14.26-.02.52.04.74.17l-2.28 3.96v2.83c-.21.11-.46.16-.7.14a1.3 1.3 0 01-.7-.14v-2.85l-2.3-3.94c.23-.13.5-.19.76-.17.22-.01.45.03.66.14m4.07 5.63a.12.12 0 01-.02-.08c0-.03 0-.06.02-.08h1.08c.02.02.02.05.02.08s0 .06-.02.08h-.42v1.3a.2.2 0 01-.11.02c-.04 0-.09 0-.12-.03v-1.29h-.43zm2.11 1.25a.17.17 0 01-.1.02c-.03 0-.06 0-.09-.02l-.33-.83a2.04 2.04 0 01-.05-.15v.16l-.07.88a.18.18 0 01-.1.02c-.05 0-.09 0-.12-.02l.1-1.44a.33.33 0 01.24 0l.38.97.05.16.05-.16.39-.97a.25.25 0 01.12-.02c.04 0 .07 0 .1.02l.12 1.44a.21.21 0 01-.11.02.2.2 0 01-.12-.02l-.06-.89v-.15l-.05.14-.35.84z"/><path d="M86.47 67.9a12.24 12.24 0 013.34-1.44c1.67-.45 3.4-.66 5.13-.61a9.52 9.52 0 003.3-.74 11.02 11.02 0 012.16-.58l.1.07a2.76 2.76 0 001.37.58l-.57.18c-.63.2-1.25.4-1.88.57l-.82.23c-.49.14-.96.35-1.4.62a5.32 5.32 0 01-3 .79c-.5.03-.98.17-1.42.4l-.42.17c-.62-.2-1.47.06-2.7.48l-.8.25c-.84.2-1.72.35-2.56.5l-.6.11-.54.1c.06-.23.06-.49 0-.73a1.28 1.28 0 01.06-.68 4.64 4.64 0 00.14-.53c.14.25.41.4.7.39.15 0 .3-.04.43-.12m.42-59.75c-.37.05-.74.09-1.12.1-1 0-2.02.04-3.04.07-2.01.04-4.1.1-6.1 0h-.2c-1.07-.07-1.62-.1-2.76.35a14.25 14.25 0 00-4.78 3.17l-.45.4c-.24.23-.53.46-.84.7-.94.75-2 1.6-2.44 2.69-.09.24-.14.49-.17.74-.01.15-.04.3-.07.44-.4.3-.79.62-1.15.97l-.48.44a8.4 8.4 0 01-1.45.91c-.4.2-.8.43-1.17.67l-.16.1c-.45.29-1.07.68-1.26 1.28-.24.73.18 2 .97 2.36.38.16.82.14 1.18-.07a.7.7 0 01.03.18c0 .24-.17.5-.48.88-.38.5-.87 1.11-.8 1.98.03.36.1.71.22 1.05.16.56.42 1.5.12 1.62-.16.03-.32.03-.47 0a2 2 0 00-1.65.47c-.32.3-.67.57-1.05.78l-.16.1c-.46.24-.86.57-1.2.97l-.19.32a.45.45 0 01-.04.07l-.53.09c-.38.05-.76.12-1.13.23l-.55.2c-.38.17-.8.27-1.21.3-.31 0-.62-.04-.93-.07-.7-.1-1.42-.1-2.13-.03-.4.06-.8.16-1.18.3-.67.24-.82.28-1.2-.07-.6-.61-1.4-1-2.25-1.1l-2.45-.47a2.93 2.93 0 00-1.17.06c-.18.04-.36.06-.54.06-2.3-.35-4.82.08-7.94 1.32-1.04.41-1.34.83-1.24 1.72.04.28.04.56 0 .83-.1.41-.01.85.24 1.2.25.25.6.38.96.34.09 0 .17.01.25.04.01.18 0 .36-.04.53l-.04.27c-.12.62-.02 1.25.29 1.8l.16.35c.12.3.14.35-.64.78-.38.19-.73.43-1.03.72-.26.28-.47.59-.63.92-.11.24-.26.46-.44.65-.3.22-.62.41-.95.57-.44.22-.86.48-1.25.77-.27.22-.53.47-.77.72-.3.32-.62.6-.96.86-.2.12-.4.22-.61.3-.63.28-1.34.6-1.71 1.18a.8.8 0 00-.13.42v2.78c0 .52.06 1.1.49 1.49.43.38.99.33 1.47.27.23-.03.46-.05.7-.05l39.8.03c1.2 0 2.36.03 3.32.35.18.1.33.25.45.4.1.12.2.23.32.34.27.22.58.4.91.52.2.06.4.16.56.3.26.25.26.65.26 1.28v.6c.08 1.52.67 2.14 1.37 2.84l.3.3c.4.4.95.62 1.52.61.09 0 .2 0 .28.03.08.14.15.3.2.45.13.7.96 1.16 2.22 1.81l.44.23 3.82 2.34.55.3c.37.16.7.4.99.68.07.09.07.1.04.5-.05.49-.13.96-.24 1.43 0 .06-.04.12-.05.18a3.02 3.02 0 00-.13 1.4c-.1.07-.2.15-.28.24l-.23.3-.07.1c-.2.29-.3.64-.23.98.07.27.24.5.48.63a1 1 0 00.48.12c.23-.01.45-.06.66-.13.52-.12 1.04-.22 1.57-.31l.59-.11a50.7 50.7 0 002.63-.52c.24-.06.58-.17.96-.3.47-.16 1.45-.5 1.7-.47a2.1 2.1 0 001.55-.23c.27-.14.56-.23.85-.27.85-.02 1.7-.16 2.5-.42.42-.14.82-.33 1.2-.56.32-.2.67-.36 1.04-.47l.87-.23 1.92-.59.84-.27c.88-.27 2.72-.84 2.73-2.2a.78.78 0 00-.6-.78 4.51 4.51 0 00-1.66-.03c-.44.08-.89.07-1.32-.05a1.22 1.22 0 01-.31-.2c-.4-.32-.9-.45-1.4-.35-.8.15-1.58.37-2.34.66a8.2 8.2 0 01-2.77.64 19.64 19.64 0 00-6.8 1.07l.04-.2a1.8 1.8 0 00-.32-1.23c1.4-.77 1.93-1.16 2.05-1.68.05-.24 0-.5-.13-.7-.6-.87-.42-2.4-.25-3.74.06-.46.11-.91.14-1.32l.05-1.05a.79.79 0 00-.75-.82.77.77 0 00-.82.76c0 .35-.03.66-.05 1-.02.34-.08.8-.13 1.22-.18 1.42-.37 3.01.22 4.3a20.76 20.76 0 01-1.7.99.78.78 0 00-.35.49c-.07.45.05.92.33 1.28.06.1.14.25.16.23 0 .1-.13.2-.32.38a3.34 3.34 0 00-.73.9c.1-.55-.04-1.12-.38-1.56a4.38 4.38 0 00-1.48-1.08l-.47-.26-3.81-2.33-.54-.29c-.5-.24-.99-.53-1.44-.86a2.7 2.7 0 00-.76-1.27c-.32-.22-.7-.33-1.1-.33-.27-.02-.44-.04-.51-.12l-.32-.32c-.62-.63-.87-.9-.92-1.82v-.5c0-.75.02-1.68-.7-2.42a3.04 3.04 0 00-1.08-.64 2.07 2.07 0 01-.5-.25 1.8 1.8 0 01-.15-.16c-.3-.38-.68-.68-1.12-.86-1.19-.41-2.55-.45-3.84-.45l-39.82-.03c-.29 0-.58.02-.87.06l-.2.02V48c.28-.18.58-.34.89-.47.29-.12.56-.26.83-.42.44-.31.84-.66 1.21-1.05.22-.21.43-.43.66-.62.31-.23.64-.43 1-.6.43-.2.84-.46 1.22-.76.34-.3.61-.68.8-1.1.1-.2.23-.4.38-.57.2-.18.44-.33.68-.45.7-.4 2-1.13 1.32-2.76l-.19-.42a1.19 1.19 0 01-.16-.9l.04-.22c.1-.54.31-1.66-.81-2.24-.17-.1-.36-.15-.55-.18.03-.32.02-.64-.02-.96a4 4 0 01.26-.1c2.85-1.14 5.11-1.53 7.13-1.24.36.04.71.01 1.05-.07.2-.04.4-.05.59-.03l2.45.47c.8.15 1 .24 1.48.7 1.09 1 2.07.65 2.8.4.27-.11.56-.2.85-.25.6-.05 1.19-.03 1.78.05.35.03.67.06 1.01.07a4.9 4.9 0 001.8-.42l.48-.17c.3-.09.6-.15.92-.18l.66-.12c.47-.09.86-.4 1.05-.82l.1-.16c.21-.23.46-.42.74-.56l.17-.1c.48-.29.93-.62 1.33-1.01.15-.02.3-.02.46 0 .4.05.8 0 1.18-.14 1.56-.7 1.05-2.51.76-3.5a4.93 4.93 0 01-.17-.7c-.01-.26.17-.51.48-.9.38-.48.84-1.08.82-1.9 0-.68-.46-1.72-1.38-1.8-.27-.01-.54.05-.78.18a2.6 2.6 0 01-.12-.28c.18-.2.4-.35.62-.48l.2-.12c.33-.22.68-.41 1.04-.6.63-.3 1.21-.67 1.75-1.11l.52-.47c.33-.32.68-.61 1.05-.87.52-.35.6-.97.67-1.48.01-.12.03-.24.06-.35.28-.7 1.18-1.42 1.96-2.04.35-.27.66-.53.93-.77l.44-.42a13.36 13.36 0 014.22-2.88c.83-.31 1.1-.3 2.12-.24h.2c2.07.12 4.2.07 6.24 0l3-.05c.44-.02.87-.06 1.3-.12.83-.1 2.37-.3 2.77.05.02 0 .06.05.07.18l-.11.21c-.2.3-.3.66-.31 1.02a1.66 1.66 0 00.42 1.06l-.15.6c-.13.4-.22.83-.25 1.26 0 .38.04.77.13 1.14a.79.79 0 001.53-.37 2.68 2.68 0 01-.08-.72c.03-.3.09-.6.18-.9.07-.25.14-.5.18-.73a1.58 1.58 0 00-.4-1.32.88.88 0 01.11-.24 1.8 1.8 0 00-.3-2.35c-.51-.45-1.25-.58-2.05-.58-.65.02-1.3.07-1.93.16"/></g><path d="M228.86 33.33c1.28-.02 1.79-.52 1.79-1.72 0-.27-.02-.53 0-.8a.43.43 0 00-.38-.5 4.47 4.47 0 00-2.43.03c-.65.21-.93.64-.9 1.32.01 1 .8 1.68 1.92 1.67zm-41.92-11.96c-.67.1-.67.12-.68.8v5.01c0 1.73.02 3.45 0 5.17-.02.51.15.75.64.75.7.02 1.4.12 2.06 0 1.85-.31 2.78-1.6 3.24-3.31a9.9 9.9 0 00.14-4.42c-.6-3.18-2.44-4.4-5.4-4zm44.01 28.79a2.3 2.3 0 00-2.76 2.6c.05.28.21.33.44.33h2.7c1.26 0 1.28.18 1.03-1.3-.13-.78-.54-1.42-1.41-1.63zm12.98 4.69c-.73-.01-1.48-.05-2.2.06-.65.1-.92.54-.95 1.19-.05 1.07.68 1.77 1.85 1.8 1.3.02 1.86-.5 1.86-1.73a5.58 5.58 0 010-.63c.06-.44-.16-.68-.56-.69zm-38.85-27.8c-.2-.66-.54-1.2-1.24-1.43-1.55-.52-3.21.93-2.89 2.55.08.17.25.29.43.32.56.04 1.12.01 1.67.01h1.19c1.07 0 1.09-.03.92-1.07a3.19 3.19 0 00-.08-.38zM187.9 50.08c-1.07 0-1.9.58-2.25 1.68a7.17 7.17 0 00.03 4.53c.29.97 1.2 1.63 2.22 1.6a2.2 2.2 0 002.2-1.6c.23-.73.31-1.5.46-2.26-.14-.77-.2-1.54-.43-2.27a2.22 2.22 0 00-2.23-1.68zm95.51-23.47a1.85 1.85 0 00-2.09-1.08c-1.18.26-2 1.35-1.9 2.55.03.31.2.41.48.41h2.54c1.43 0 1.54-.13 1.11-1.53a2.8 2.8 0 00-.14-.35zm-69.29 6.15c1.44 1.25 3.94.44 4.38-1.42.14-.61.17-1.25.25-1.86-.07-.61-.1-1.2-.22-1.76-.4-2.06-2.56-2.9-4.28-1.7a.8.8 0 00-.4.72c0 1.8 0 3.6.02 5.4 0 .24.09.46.25.62z"/><path fill="#FFF" fill-rule="nonzero" d="M266.44 34.55v-7.18c-.02-.26.02-.52.11-.77.38-.73 1.71-1.25 2.58-1.03.87.2 1.3.82 1.34 1.9v.57c0 2.07.03 4.14-.01 6.21-.02.72.3 1.11.88 1.34a3.5 3.5 0 003-.1c.21-.11.4-.26.56-.45.33-.38.22-1.07-.23-1.19-.62-.16-.68-.57-.68-1.08v-3.19c-.01-1.09.01-2.18-.06-3.26a3.32 3.32 0 00-2.88-3.23 5.06 5.06 0 00-4.6 1.16l-.54.46c-1.91-2.26-4.84-2.33-7.1-.14a2.53 2.53 0 01-.04-.5c.08-.54-.2-.81-.7-.83-.71-.02-1.42 0-2.13.03-.45.02-.6.3-.6.75.03 1.39.01 2.77.01 4.15v6.53c0 .72.02.78.72.89.6.09 1.21.1 1.82.06.88-.08.95-.2.95-1.1l.01-7.18c0-.28.02-.64.18-.82a2.59 2.59 0 012.3-1.02c.91.07 1.37.53 1.53 1.45.06.39.09.79.08 1.18v6.54c0 .72.02.8.72.9a8 8 0 001.82.05c.9-.09.96-.21.96-1.1zm-70.59-10.61a6.1 6.1 0 00-4.97-4.99c-1.08-.24-2.2-.3-3.3-.43-1.4.17-2.76.32-4.12.52-.85.14-.84.19-.85 1.03V34.5c0 .41-.03.77.55.88 2.3.44 4.62.7 6.96.3 2.85-.48 4.79-2.05 5.58-4.88.62-2.23.67-4.59.15-6.85zm-3.66 5.85c-.45 1.7-1.38 3-3.23 3.32-.67.11-1.37.01-2.06 0-.48-.01-.66-.25-.65-.75.03-1.73.01-3.45.01-5.18v-5c0-.7 0-.72.68-.8 2.96-.42 4.8.81 5.4 4a9.9 9.9 0 01-.15 4.4zm29.95 13.66c-.77-.07-1.54-.06-2.3.04-.63.07-.66.17-.66.85v5.02c0 .65-.01.66-.67.66h-3.9c-.78 0-.78 0-.78-.81 0-1.65-.02-3.3 0-4.95 0-.45-.16-.74-.6-.76-.78-.08-1.57-.1-2.36-.05-.7.06-.77.21-.77.93v14.9c0 .66.03.77.67.84.76.1 1.53.1 2.3.03.7-.07.75-.2.75-.95v-5.66c0-.84 0-.84.8-.85h3.83c.73 0 .73.01.73.76v5.82c0 .67.02.77.67.85.76.1 1.53.1 2.29.03.72-.07.77-.2.77-.94V44.38c-.01-.7-.08-.86-.77-.93zm-11.27-1.84c.74.04 1.48.11 2.21.05s.78-.16.78-.9v-4.87c0-.22.03-.45.05-.8a6 6 0 003.53.75c2.18-.11 3.74-1.25 4.35-3.35.6-2 .58-4.13-.05-6.12a4.47 4.47 0 00-3.72-3.28c-1.7-.3-3.34-.19-4.71 1.11l-.28-.41c-.44-.64-1.06-.82-1.9-.56-.73.24-.78.32-.78 1.32v16.42c-.03.38.13.62.52.64zm3.38-15.59c1.72-1.2 3.88-.36 4.28 1.7.11.57.15 1.15.22 1.76-.08.6-.1 1.25-.25 1.86-.44 1.86-2.94 2.67-4.38 1.42a.91.91 0 01-.25-.61c-.02-1.8 0-3.6-.02-5.41a.8.8 0 01.4-.72zm63.19 32.36c-.45-.14-.57-.43-.58-.83v-1.67c-.01-1.65.02-3.3-.06-4.95-.08-1.8-1.13-2.93-2.9-3.28a4.96 4.96 0 00-4.23.87c-.15.1-.3.18-.46.26v-1.11c0-1.54-.01-3.09.01-4.63 0-.47-.14-.77-.65-.8-.65-.02-1.32-.1-1.97-.02-.83.1-.85.19-.85 1.02v16.02c0 .67.07.81.73.89a9.8 9.8 0 002.07.03c.7-.07.76-.2.76-.93 0-2.42.03-4.84-.02-7.25-.01-.72.27-1.18.84-1.48.37-.2.77-.34 1.2-.41 1.02-.16 1.75.36 1.97 1.38.06.32.08.64.07.96 0 2.15.02 4.3-.01 6.46 0 .6.23.95.73 1.19 1.02.5 2.22.46 3.21-.1.18-.11.35-.25.48-.42a.74.74 0 00-.34-1.2zm23.37-24.52c-.73-.14-.74-.63-.74-1.19v-5.81c0-1.81-.84-3.12-2.31-3.64a5.58 5.58 0 00-2.83-.15c-.92.16-1.66.64-2.42 1.3-.11-.97-.18-1.1-.99-1.18a6.83 6.83 0 00-1.74.05c-.74.11-.76.18-.76.93v6.93c0 1.22.02 2.45-.01 3.67-.01.5.16.77.64.8.68.03 1.37.1 2.05.04.78-.07.85-.21.85-1.02 0-2.42.02-4.83-.01-7.25-.01-.62.22-1.03.7-1.32.33-.2.7-.36 1.08-.45 1.16-.27 1.99.29 2.2 1.46.06.4.1.79.1 1.19 0 2.04.02 4.09-.02 6.13 0 .64.27 1 .8 1.22.99.44 2.12.4 3.07-.11.24-.13.44-.3.6-.52.25-.32.11-1-.26-1.08zm-52.03 24.57c-.88-.2-.76-.82-.77-1.42-.02-1.88.02-3.77-.05-5.65a3.56 3.56 0 00-2.74-3.49 8.93 8.93 0 00-6.86.81c-.3.16-.43.38-.38.7.03.27.1.53.18.78.33.83.81 1.01 1.6.6a5.2 5.2 0 012.83-.66c1.37.09 1.92.72 1.9 2.11 0 .75 0 .72-.75.65a10 10 0 00-4.1.23c-.93.3-1.69.81-2.08 1.72a4.05 4.05 0 00-.11 2.87c.54 1.74 2.16 2.8 4.11 2.74a6.7 6.7 0 003.5-1.23c.19.22.35.42.53.6.92.86 2.35.83 3.23-.06.36-.37.37-1.2-.04-1.3zm-4.28-2.89v.64c0 1.22-.56 1.74-1.86 1.72-1.18-.02-1.91-.73-1.86-1.8.04-.64.3-1.08.96-1.18.72-.11 1.47-.08 2.2-.06.39 0 .6.24.56.68zm-13.81-20.6c.4-.26.6-.27.94.16.82 1.02 2.42 1.02 3.33.1.42-.44.4-1.18-.1-1.34-.67-.22-.71-.7-.72-1.25v-2.86c0-.96.03-1.92 0-2.87-.05-1.69-.86-2.91-2.45-3.47a8.6 8.6 0 00-7.2.74.64.64 0 00-.32.4c-.04.67.13 1.26.66 1.72.47.4.84.02 1.23-.16a4.85 4.85 0 013.3-.49c.77.2 1.18.66 1.28 1.44.03.24.03.48.02.72-.01.59-.02.57-.64.51-1.3-.13-2.6-.2-3.87.13-1.07.27-2.02.77-2.43 1.86-1.02 2.7.64 5.33 3.42 5.56 1.25.1 2.5-.22 3.55-.9zm-2.86-4.6c.8-.27 1.62-.21 2.43-.03a.43.43 0 01.4.5c-.03.27 0 .53 0 .8 0 1.2-.53 1.7-1.8 1.72-1.11.01-1.9-.66-1.93-1.67-.02-.69.25-1.11.9-1.32zM189.94 47.8c-.9-.2-1.83-.29-2.76-.23-2.66.14-4.44 1.6-5.06 4.04a9.58 9.58 0 00-.04 4.65 5.02 5.02 0 004.37 4.06c1.18.2 2.39.16 3.55-.14a4.92 4.92 0 003.47-3.1c.4-1 .5-2.05.5-3.22-.01-.32-.02-.75-.06-1.17-.24-2.51-1.66-4.33-3.97-4.9zm.17 8.49a2.2 2.2 0 01-2.21 1.6 2.26 2.26 0 01-2.22-1.6 7.17 7.17 0 01-.03-4.53 2.24 2.24 0 012.25-1.68c1.07 0 1.9.57 2.23 1.68.22.73.28 1.5.42 2.27-.13.77-.22 1.54-.44 2.26zm93.33-33.16a9.62 9.62 0 00-2.3-.12 5.3 5.3 0 00-4.88 3.83 8.89 8.89 0 00-.02 5.18 5.04 5.04 0 003.79 3.61c1.16.32 2.37.34 3.55.09.84-.19 1.65-.53 2.47-.83.5-.19.66-.64.59-1.1a3.58 3.58 0 00-.42-1.1c-.2-.37-.48-.41-.93-.23-.85.37-1.73.65-2.64.83a2.67 2.67 0 01-3.14-2.14c-.13-.64-.1-.71.54-.72h6.7c.32 0 .56-.03.56-.46-.02-1.27-.04-2.55-.45-3.77-.56-1.68-1.67-2.77-3.42-3.07zm-1.01 5.38h-2.54c-.27 0-.44-.1-.48-.4-.1-1.22.72-2.3 1.9-2.56.87-.18 1.74.26 2.1 1.07l.14.37c.42 1.38.32 1.52-1.12 1.52zm-46.62 23.01c-.38-2.22-1.72-3.51-3.95-3.88a7.97 7.97 0 00-1.74-.08 5.42 5.42 0 00-5.23 4.33 8.7 8.7 0 00.06 4.56 4.95 4.95 0 003.62 3.68c1.96.56 4.05.38 5.9-.49.97-.45 1.19-1.28.62-2.2-.36-.6-.51-.64-1.14-.33-.94.46-1.93.78-2.98.78-1.4 0-2.47-.87-2.74-2.2-.1-.56-.04-.66.54-.67 1.09-.02 2.18 0 3.27 0h3.42c.41 0 .58-.15.55-.56-.06-.98-.03-1.98-.2-2.94zm-4.48 1.57h-2.7c-.23 0-.4-.04-.44-.33a2.3 2.3 0 012.76-2.6c.87.21 1.27.85 1.41 1.64.25 1.47.23 1.3-1.03 1.3zm-26.35-29.95a9.59 9.59 0 00-2.29-.13 5.36 5.36 0 00-5 4.08 9.04 9.04 0 000 4.72 5.07 5.07 0 003.71 3.78c1.16.33 2.37.38 3.55.15.9-.17 1.76-.54 2.62-.88a1 1 0 00.51-.64 1.8 1.8 0 00-.42-1.63c-.23-.27-.44-.31-.8-.16-.86.37-1.74.65-2.64.84a2.7 2.7 0 01-3.24-2.22c-.1-.52-.04-.61.5-.62h6.77c.3 0 .51-.04.52-.42 0-1.35.03-2.7-.46-4a4.2 4.2 0 00-3.33-2.87zm-.74 5.37h-1.2c-.55 0-1.1.03-1.66-.01a.57.57 0 01-.43-.32c-.32-1.62 1.34-3.07 2.9-2.55.7.23 1.04.77 1.23 1.43.03.13.06.26.07.39.18 1.03.15 1.06-.91 1.06zm-2.54 13.94a5.7 5.7 0 00-2.59-.3c-1.94.17-2.9 1.14-3.06 3.1-.04.55-.04 1.11-.05 1.67-.01.73-.01.72-.73.78-.17.02-.46.06-.47.14-.12.46-.19.93-.2 1.4 0 .43.46.36.74.46.65.23.66.22.67.96v8.68c0 .65.06.77.7.84.65.07 1.31.07 1.97.01.75-.07.81-.2.81-.97v-8.11c0-1.27-.14-1.07 1.12-1.1.82 0 .95-.11.98-.96.01-.29 0-.58-.06-.87-.06-.3-.24-.51-.62-.48-.34.03-.69 0-1.03 0-.27 0-.39-.1-.38-.38.01-.47-.03-.95.02-1.43.12-1.15.8-1.48 1.83-.9.14.08.39.16.48.09.56-.42.7-1.02.7-1.69 0-.58-.41-.78-.84-.94zm61.78 14.89c-.1-.04-.34.17-.5.28-.82.52-1.47.26-1.65-.67a3.84 3.84 0 01-.08-.71v-5.58c0-.62.02-.63.61-.64h1.04c.74 0 .94-.16.98-.9 0-.32-.03-.64-.1-.95a.53.53 0 00-.62-.47c-.45.02-.9-.02-1.35 0-.42.03-.58-.14-.57-.55v-2.07c0-.33-.11-.55-.46-.64-.86-.2-1.75-.2-2.6.02-.35.09-.45.3-.44.64.02.48 0 .95 0 1.43 0 1.12 0 1.12-1.11 1.18-.2 0-.46.06-.55.2a1.32 1.32 0 00.6 2.01c.17.07.35.1.53.1.42-.04.55.14.54.55-.02 1.06 0 2.12 0 3.18v.88c.05 1.09.04 2.18.16 3.25.16 1.24.84 2.12 2.1 2.4 1.05.26 2.13.23 3.15-.07 1.28-.38 1.33-1.19.86-2.32-.11-.24-.3-.43-.54-.55zm46.39-23.76a1.77 1.77 0 00-.64-.77c-.1-.07-.43.17-.64.3-.7.42-1.3.19-1.51-.61-.06-.18-.1-.36-.1-.55l-.03-6.06c0-.35.17-.46.5-.45h1.1c.82 0 1-.15 1.05-.94 0-.32-.04-.63-.11-.94a.5.5 0 00-.57-.43h-.56c-1.63-.02-1.4.22-1.41-1.46 0-.4-.03-.8 0-1.2.02-.36-.15-.59-.48-.6-.84-.03-1.69-.03-2.53 0-.32.01-.5.24-.48.6.03.5 0 1.01 0 1.52 0 1.18.1 1.15-1.1 1.14-.19 0-.46.05-.56.18a1.35 1.35 0 00.64 2.06l.39.06c.62.08.63.07.64.72v3.1h.02c0 1.04-.04 2.08.01 3.11.04.56.15 1.1.32 1.63.23.79.84 1.4 1.63 1.62a5.8 5.8 0 003.45 0c1.05-.33 1.37-1.02.97-2.03zm-63.82-8.42c.26.1.54.27.8.26.5 0 .65.2.64.66-.02 1.1 0 2.18 0 3.27h.05c0 1.17-.05 2.34.01 3.5.06 1.01.36 2 1.33 2.5a4.9 4.9 0 004.58-.02c.27-.16.45-.43.52-.73.12-.57-.07-1.1-.43-1.56-.22-.28-.41-.38-.78-.1-.93.73-1.73.37-1.77-.81-.06-2.07-.03-4.15-.04-6.22 0-.34.13-.48.48-.48.45.02.9.02 1.35 0 .2 0 .4-.08.56-.2.32-.32.32-1.54.03-1.9a.68.68 0 00-.42-.19 5.63 5.63 0 00-.71-.01c-1.48-.02-1.28.2-1.3-1.33 0-.43-.02-.85 0-1.28.02-.42-.17-.63-.52-.66-.82-.04-1.64-.04-2.45 0-.32 0-.52.23-.5.6.02.47 0 .95 0 1.43 0 1.19 0 1.19-1.16 1.24h-.08c-.32-.04-.5.11-.55.43-.04.26-.05.52-.1.78a.65.65 0 00.46.82zM255 58.41c-.74-.1-.7-.59-.7-1.11V43.12c0-.7-.03-.8-.73-.88a9.55 9.55 0 00-2.13 0c-.7.09-.7.15-.7.88V51c0 2.6.02 5.2-.02 7.8 0 .7.3 1.1.89 1.34.93.4 2 .38 2.92-.07.26-.13.5-.31.68-.53.29-.31.16-1.08-.22-1.14zm-15.24-22.86c.38-.1.54-.28.52-.67-.02-.39 0-.74 0-1.12 0-2.04-.02-4.08 0-6.13.01-1.19.73-2.05 1.84-2.1.5-.02 1.02.24 1.53.35.18.04.46.1.56.01.5-.44.6-1.03.56-1.67-.03-.56-.37-.88-.84-1.05a3.05 3.05 0 00-3.07.48c-.2.14-.36.32-.54.47l-.21.09c.26-.84-.28-.96-.76-1a7.8 7.8 0 00-1.82.01c-.78.11-.8.19-.8.99v10.74c-.02.32.14.5.44.57.85.22 1.74.23 2.6.03z"/></g></svg>