<svg xmlns="http://www.w3.org/2000/svg" width="92" height="36"><g fill="none"><path fill="#FFF" d="M11.868 2.425a8.91 8.91 0 011.75.164c.546.11 1.058.26 1.533.453.476.192.913.422 1.313.69.4.268.755.564 1.064.889l-1.29 1.732-.088.102c-.062.066-.131.128-.207.186-.113.087-.271.13-.475.13a.85.85 0 01-.385-.09 4.254 4.254 0 01-.385-.22 67.892 67.892 0 00-.447-.284 3.43 3.43 0 00-.577-.283 4.771 4.771 0 00-.781-.22 5.33 5.33 0 00-1.047-.091c-.694 0-1.328.123-1.902.368a4.17 4.17 0 00-1.477 1.053 4.882 4.882 0 00-.962 1.658c-.23.649-.345 1.377-.345 2.185 0 .845.115 1.596.345 2.252.23.657.543 1.21.94 1.658.395.45.858.79 1.386 1.025.528.234 1.094.35 1.698.35.347 0 .664-.016.95-.05a3.691 3.691 0 001.5-.498c.223-.132.448-.296.674-.493.09-.075.189-.137.294-.186a.771.771 0 01.6-.023c.09.034.178.092.26.175l1.517 1.596-.204.254a6.284 6.284 0 01-2.291 1.71c-1 .442-2.183.663-3.55.663-1.252 0-2.374-.214-3.367-.64a7.288 7.288 0 01-2.524-1.766 7.776 7.776 0 01-1.59-2.671c-.37-1.03-.555-2.149-.555-3.356 0-1.23.211-2.36.634-3.39A7.907 7.907 0 015.648 4.79a7.99 7.99 0 012.723-1.744c1.056-.415 2.222-.622 3.497-.622zm35.046.181l.161.006c.26.021.478.095.654.22.212.151.363.351.453.6l3.192 8.83.108.294c.108.302.218.622.328.962.147.453.285.928.413 1.426.106-.498.229-.973.368-1.426.14-.453.277-.872.413-1.257l3.17-8.829.054-.124a1.36 1.36 0 01.387-.447c.22-.17.487-.255.804-.255h3.101l-6.61 16.492h-3.464l-6.61-16.492h3.078zm22.22 0v16.492h-3.848V2.606h3.849zm11.931 0l.424.008c1.117.04 2.144.246 3.08.615 1.052.415 1.952.988 2.7 1.72a7.66 7.66 0 011.737 2.61c.411 1.007.617 2.103.617 3.288 0 1.192-.206 2.292-.617 3.3a7.72 7.72 0 01-1.738 2.614c-.747.736-1.647 1.31-2.7 1.72-1.052.412-2.22.617-3.503.617h-6.407V2.606h6.407zm0 2.943h-2.558v10.606h2.558c.732 0 1.385-.122 1.958-.367a3.957 3.957 0 001.455-1.053c.396-.457.7-1.013.911-1.67.212-.656.317-1.396.317-2.218 0-.815-.105-1.551-.317-2.208-.211-.656-.515-1.213-.911-1.67a3.957 3.957 0 00-1.455-1.052c-.573-.245-1.226-.368-1.958-.368zM34.5 0a1.5 1.5 0 01.147 2.993l-.274.872a7.001 7.001 0 013.606 5.592l1.28.2a1.5 1.5 0 11-.2 1.266l-1.099-.172a6.982 6.982 0 01-2.186 4.368l.454.906a1.5 1.5 0 11-1.05.765l-.435-.873a6.958 6.958 0 01-2.442.962l.378 1.132a1.5 1.5 0 11-1.215.405L30.992 17l-.233-.004a6.984 6.984 0 01-5.078-2.445l-2.684 1.052a1.5 1.5 0 11-.467-1.193l2.391-.936A6.968 6.968 0 0124 10c0-1.382.4-2.67 1.092-3.756L23.2 4.827a1.5 1.5 0 11.77-1.025l1.905 1.43A6.981 6.981 0 0131 3c.766 0 1.503.123 2.193.35l.247-.788A1.5 1.5 0 0134.5 0zM31 4.92a5.08 5.08 0 100 10.16 5.08 5.08 0 000-10.16zM29.5 8a1.5 1.5 0 110 3 1.5 1.5 0 010-3zM33 8a1 1 0 110 2 1 1 0 010-2z"/><path fill="#C5E6FF" d="M22.586 35l.8-2.656h3.728l.8 2.656h2.528L26.81 23.832h-3.008L20.122 35h2.464zm3.936-4.72h-2.56l1.232-4.24h.08l1.248 4.24zM39.782 35v-2.16h-4.256v-9.008h-2.432V35h6.688zm10.492 0v-2.16h-5.168v-2.416h4.432V28.28h-4.432v-2.288h5.168v-2.16h-7.6V35h7.6zm5.644 0v-4.096h1.744L59.614 35h2.704l-2.192-4.384c.683-.256 1.192-.667 1.528-1.232.336-.565.504-1.227.504-1.984 0-.533-.08-1.019-.24-1.456a3.29 3.29 0 00-.68-1.128 2.98 2.98 0 00-1.064-.728 3.636 3.636 0 00-1.392-.256h-5.296V35h2.432zm2.56-6.144h-2.56v-2.912h2.56c.363 0 .648.093.856.28.208.187.312.461.312.824v.704c0 .363-.104.637-.312.824-.208.187-.493.28-.856.28zM69.642 35v-9.008h3.024v-2.16h-8.48v2.16h3.024V35h2.432z"/></g></svg>