<svg viewBox="0 0 141 39" xmlns="http://www.w3.org/2000/svg"><path d="M48.531 12.542c.507 0 .973-.042 1.397-.126a5.753 5.753 0 001.167-.355c.355-.153.682-.338.982-.555.3-.217.576-.46.83-.732l-.346-.373a.2.2 0 00-.147-.06.184.184 0 00-.09.021.599.599 0 00-.083.056 6.083 6.083 0 01-.735.59 4.271 4.271 0 01-.804.424 4.587 4.587 0 01-.947.26 7.109 7.109 0 01-1.172.087 4.95 4.95 0 01-1.942-.377 4.462 4.462 0 01-1.552-1.083c-.438-.471-.781-1.048-1.03-1.73-.247-.681-.371-1.456-.371-2.322 0-.844.125-1.605.376-2.284a5.03 5.03 0 011.05-1.734c.45-.476.987-.843 1.61-1.1a5.32 5.32 0 012.05-.386c.403 0 .763.03 1.08.09.317.061.597.137.84.226.241.09.45.188.626.295.176.107.326.205.45.294.124.09.226.165.307.226.08.06.147.09.199.09.098 0 .17-.034.216-.103l.268-.39a6.96 6.96 0 00-.83-.642 4.851 4.851 0 00-.904-.463A5.585 5.585 0 0049.993.1a6.9 6.9 0 00-1.22-.1c-.888 0-1.7.152-2.434.455a5.475 5.475 0 00-1.894 1.283 5.802 5.802 0 00-1.229 1.98c-.29.769-.436 1.618-.436 2.549 0 .947.141 1.808.424 2.583a5.814 5.814 0 001.18 1.98c.505.546 1.11.968 1.816 1.265.707.298 1.483.447 2.331.447zm12.361-.009c.87 0 1.664-.149 2.379-.446a5.278 5.278 0 001.842-1.266 5.715 5.715 0 001.193-1.976c.283-.771.424-1.63.424-2.578 0-.942-.141-1.799-.424-2.57a5.762 5.762 0 00-1.193-1.98A5.25 5.25 0 0063.27.446C62.556.148 61.763 0 60.892 0c-.859 0-1.646.15-2.36.45a5.328 5.328 0 00-1.843 1.27 5.768 5.768 0 00-1.198 1.977c-.285.771-.428 1.628-.428 2.57 0 .947.143 1.807.428 2.578.286.772.685 1.43 1.198 1.976a5.278 5.278 0 001.842 1.266c.715.297 1.502.446 2.361.446zm0-.771a5.18 5.18 0 01-1.993-.373 4.328 4.328 0 01-1.557-1.083 4.952 4.952 0 01-1.012-1.73c-.24-.678-.359-1.448-.359-2.31 0-.855.12-1.623.36-2.305a4.918 4.918 0 011.011-1.733 4.375 4.375 0 011.557-1.088 5.128 5.128 0 011.993-.377c.738 0 1.41.125 2.015.377a4.284 4.284 0 011.553 1.088c.43.473.762 1.051.999 1.733.236.682.354 1.45.354 2.306 0 .86-.118 1.63-.354 2.31a4.972 4.972 0 01-1 1.729 4.23 4.23 0 01-1.552 1.083c-.605.249-1.277.373-2.015.373zm12.604.641L78.546.14h-.692a.304.304 0 00-.203.069.464.464 0 00-.125.165l-4.16 10.175a4.752 4.752 0 00-.251.85 5.59 5.59 0 00-.268-.85L68.678.373a.431.431 0 00-.12-.17.3.3 0 00-.2-.064h-.7l5.05 12.264h.788zm8.33 0V.14h-.89v12.264h.89zm8.548 0c.87 0 1.663-.141 2.378-.425a5.172 5.172 0 001.842-1.222 5.523 5.523 0 001.194-1.933c.282-.756.423-1.609.423-2.556 0-.942-.14-1.792-.423-2.549a5.523 5.523 0 00-1.194-1.932A5.172 5.172 0 0092.752.563C92.037.28 91.244.14 90.374.14H85.91v12.264h4.463zm0-.72h-3.572V.859h3.572c.738 0 1.41.121 2.015.364A4.245 4.245 0 0193.94 2.28c.43.462.763 1.028 1 1.698.236.67.354 1.433.354 2.289 0 .86-.118 1.626-.355 2.296a4.824 4.824 0 01-.999 1.7c-.43.462-.947.814-1.552 1.057a5.386 5.386 0 01-2.015.364zM2.222 38.828a.949.949 0 00.622-.206c.168-.138.286-.295.355-.472l1.985-5.103h9.524l1.984 5.103c.08.196.198.359.356.486.158.128.365.192.622.192h2.221l-8.486-21.132H8.487L0 38.828h2.222zm11.686-7.845H5.984L9.316 22.4c.099-.255.2-.553.304-.892.104-.34.21-.71.318-1.113.208.796.42 1.46.637 1.99l3.333 8.598zm20.597 7.845v-2.404h-9.183V17.696H22.45v21.132h12.056zm16.125 0v-2.33H40.44v-7.211h8.25v-2.241h-8.25v-7.02h10.19v-2.33H37.55v21.132h13.08zm7.163 0V30.01h2.178c.395 0 .69.051.888.154a1.6 1.6 0 01.548.51l5.51 7.55c.247.403.632.604 1.155.604h2.548l-6.191-8.39a3.029 3.029 0 00-.948-.9 8.16 8.16 0 002.2-.826 6.154 6.154 0 001.643-1.32 5.525 5.525 0 001.03-1.747 6.057 6.057 0 00.355-2.094c0-.895-.153-1.704-.459-2.426a4.697 4.697 0 00-1.414-1.851c-.637-.511-1.445-.902-2.422-1.172-.978-.27-2.138-.406-3.48-.406h-6v21.132h2.86zM60.8 27.93h-3.007v-7.978h3.14c1.65 0 2.891.32 3.725.959.835.639 1.252 1.588 1.252 2.846 0 .62-.109 1.185-.326 1.696-.217.511-.54.951-.97 1.32-.43.368-.963.653-1.6.855-.637.202-1.375.302-2.214.302zm19.62 10.898V20.1h6.858v-2.404H70.659V20.1h6.888v18.728h2.873zm23.136.172V27.396c0-.317-.01-.656-.03-1.018-.02-.361-.044-.73-.074-1.106l10.199 12.896c.247.317.504.535.772.654.267.119.593.178.98.178h2.612V17.352h-4.424v11.456c0 .346.01.715.03 1.107.02.39.05.794.09 1.21l-10.274-13a3.904 3.904 0 00-.37-.401 1.337 1.337 0 00-.342-.23 1.401 1.401 0 00-.401-.112 4.255 4.255 0 00-.55-.03h-2.642V39h4.424zm28.8 0v-8.231l7.838-13.417h-4.454c-.208 0-.398.033-.571.097a1.717 1.717 0 00-.46.253c-.134.104-.253.22-.357.349a1.858 1.858 0 00-.245.386l-3.028 6.3c-.238.495-.46.956-.668 1.381a11.68 11.68 0 00-.535 1.278 15.265 15.265 0 00-.549-1.263l-.683-1.396-3.058-6.3a2.266 2.266 0 00-.623-.78c-.258-.203-.604-.305-1.04-.305H119.5l7.838 13.417V39h5.018z" fill="#FFF"/></svg>