<?xml version="1.0" encoding="UTF-8"?>
<svg width="24px" height="24px" viewBox="0 0 24 24" version="1.1" xmlns="http://www.w3.org/2000/svg" xmlns:xlink="http://www.w3.org/1999/xlink">
    <title>Icon/24x24/nav share OFF</title>
    <g id="Icon/24x24/nav-share-OFF" stroke="none" stroke-width="1" fill="none" fill-rule="evenodd">
        <path d="M6.5,15 C10.0898509,15 13,17.6862915 13,21 L0,21 C0,17.7599295 2.78224628,15.1197006 6.26170805,15.0039571 L6.5,15 Z M11,12.514243 C12.670378,10.3912041 15.665368,9.49041381 18.4064387,10.2866401 C21.1475095,11.0828663 23.0050337,13.3932149 23,16 L23,16 L15.0298102,16 C14.0786026,14.515635 12.6810112,13.3067284 11,12.514243 Z M6,7 C7.65685425,7 9,8.34314575 9,10 C9,11.6568542 7.65685425,13 6,13 C4.34314575,13 3,11.6568542 3,10 C3,8.34314575 4.34314575,7 6,7 Z M16,2 C17.6568542,2 19,3.34314575 19,5 C19,6.65685425 17.6568542,8 16,8 C14.3431458,8 13,6.65685425 13,5 C13,3.34314575 14.3431458,2 16,2 Z" id="Combined-Shape" fill="currentColor"></path>
    </g>
</svg>