<svg xmlns="http://www.w3.org/2000/svg" width="32" height="24" viewBox="0 0 32 24">
  <path fill="currentColor" d="M19.8181818,1 C20.7219205,1 21.4545455,1.7355322 21.4545455,2.64285714 C21.4545455,3.49550728 20.8075552,4.1964451 19.979571,4.27782507 L19.6788212,5.23238976 C21.8749361,6.44678325 23.4118112,8.71472001 23.6137396,11.3578115 L25.0098409,11.5768685 C25.3042998,11.1424474 25.8007816,10.8571429 26.3636364,10.8571429 C27.267375,10.8571429 28,11.5926751 28,12.5 C28,13.4073249 27.267375,14.1428571 26.3636364,14.1428571 C25.6201558,14.1428571 24.9924832,13.6450568 24.7932543,12.9633325 L23.5930324,12.7739397 C23.3933047,14.6561513 22.5151336,16.3348304 21.2087732,17.5587297 L21.7037258,18.5506688 C21.7998146,18.5330262 21.8988352,18.5238095 22,18.5238095 C22.9037387,18.5238095 23.6363636,19.2593417 23.6363636,20.1666667 C23.6363636,21.0739916 22.9037387,21.8095238 22,21.8095238 C21.0962613,21.8095238 20.3636364,21.0739916 20.3636364,20.1666667 C20.3636364,19.8849184 20.4342809,19.6197355 20.5587566,19.3879981 L20.0833009,18.4321118 C19.2836896,18.9410704 18.3834183,19.304954 17.4192127,19.4868913 L17.8319235,20.7258964 C18.6434691,20.8229279 19.2727273,21.5162582 19.2727273,22.3571429 C19.2727273,23.2644678 18.5401023,24 17.6363636,24 C16.732625,24 16,23.2644678 16,22.3571429 C16,21.8902718 16.1939768,21.4688863 16.5054306,21.1697897 L15.9907699,19.6188862 L15.7528557,19.6151084 C13.5307106,19.5441741 11.5481736,18.5200919 10.1974894,16.9366633 L7.26899407,18.0880462 C7.21172328,18.9432039 6.50265738,19.6190476 5.63636364,19.6190476 C4.73262495,19.6190476 4,18.8835154 4,17.9761905 C4,17.0688655 4.73262495,16.3333333 5.63636364,16.3333333 C6.07153456,16.3333333 6.46703031,16.503877 6.76015927,16.782024 L9.36907897,15.7575176 C8.72934058,14.6362484 8.36363636,13.3371915 8.36363636,11.952381 C8.36363636,10.4387054 8.80056931,9.02748604 9.55471852,7.83891452 L7.4920809,6.28608159 C7.26383054,6.40745237 7.00354723,6.47619048 6.72727273,6.47619048 C5.82353405,6.47619048 5.09090909,5.74065828 5.09090909,4.83333333 C5.09090909,3.92600839 5.82353405,3.19047619 6.72727273,3.19047619 C7.63101141,3.19047619 8.36363636,3.92600839 8.36363636,4.83333333 C8.36363636,4.94652787 8.35223368,5.0570486 8.33051863,5.16380089 L10.4092783,6.72997479 C11.8034806,5.22624817 13.7923377,4.28571429 16,4.28571429 C16.8351454,4.28571429 17.6389784,4.42031067 18.391152,4.66907558 L18.6620932,3.80553091 C18.3653849,3.5081537 18.1818182,3.09702764 18.1818182,2.64285714 C18.1818182,1.7355322 18.9144431,1 19.8181818,1 Z M16,6.38857143 C12.9393383,6.38857143 10.4581818,8.8795738 10.4581818,11.952381 C10.4581818,15.0251881 12.9393383,17.5161905 16,17.5161905 C19.0606617,17.5161905 21.5418182,15.0251881 21.5418182,11.952381 C21.5418182,8.8795738 19.0606617,6.38857143 16,6.38857143 Z M18.1818182,13.047619 C18.7843106,13.047619 19.2727273,13.5379738 19.2727273,14.1428571 C19.2727273,14.7477404 18.7843106,15.2380952 18.1818182,15.2380952 C17.5793257,15.2380952 17.0909091,14.7477404 17.0909091,14.1428571 C17.0909091,13.5379738 17.5793257,13.047619 18.1818182,13.047619 Z M14.3636364,9.76190476 C15.267375,9.76190476 16,10.497437 16,11.4047619 C16,12.3120869 15.267375,13.047619 14.3636364,13.047619 C13.4598977,13.047619 12.7272727,12.3120869 12.7272727,11.4047619 C12.7272727,10.497437 13.4598977,9.76190476 14.3636364,9.76190476 Z M18.1818182,9.76190476 C18.7843106,9.76190476 19.2727273,10.2522596 19.2727273,10.8571429 C19.2727273,11.4620262 18.7843106,11.952381 18.1818182,11.952381 C17.5793257,11.952381 17.0909091,11.4620262 17.0909091,10.8571429 C17.0909091,10.2522596 17.5793257,9.76190476 18.1818182,9.76190476 Z"/>
</svg>
