<svg xmlns="http://www.w3.org/2000/svg" width="32" height="24" viewBox="0 0 32 24">
  <g fill="none" fill-rule="evenodd">
    <path fill="currentColor" d="M16,0 C17.182739,0 18.3255135,0.171108821 19.4049191,0.489922265 L18.2459955,2.66416811 C17.5255107,2.49146482 16.7734367,2.4 16,2.4 C10.6980664,2.4 6.4,6.6980664 6.4,12 C6.4,17.3019336 10.6980664,21.6 16,21.6 C20.254204,21.6 23.8620929,18.832796 25.1218924,15.0001622 L27.621966,14.9999282 C26.2898626,20.1756463 21.5915441,24 16,24 C9.372583,24 4,18.627417 4,12 C4,5.372583 9.372583,0 16,0 Z M16,4.8 C16.3613694,4.8 16.7165207,4.82662232 17.0635999,4.87801268 L16.0382996,6.8001381 C16.025544,6.80004608 16.0127774,6.8 16,6.8 C13.1281193,6.8 10.8,9.1281193 10.8,12 C10.8,14.8718807 13.1281193,17.2 16,17.2 C17.7544467,17.2 19.3059589,16.331134 20.2477156,15.0002229 L22.5471478,15.0000034 C21.4095384,17.4786374 18.9057921,19.2 16,19.2 C12.0235498,19.2 8.8,15.9764502 8.8,12 C8.8,8.0235498 12.0235498,4.8 16,4.8 Z M16.2105824,14.3904601 L16.1643187,14.3944631 C16.1100212,14.3981345 16.0552285,14.4 16,14.4 C14.6745166,14.4 13.6,13.3254834 13.6,12 C13.6,11.2815657 13.9156739,10.636861 14.4158837,10.1970238 C14.0843037,11.8014337 14.7723745,13.4920285 16.2105824,14.3904601 Z"/>
    <rect width="2" height="4" x="22" y="4" fill="#FFF"/>
    <rect width="2" height="2" x="22" y="9" fill="#FFF"/>
    <path fill="#B4083A" d="M21.2352941,1.30882353 L16.5686275,10.0588235 C16.04883,11.0334437 16.4175367,12.2449085 17.3921569,12.7647059 C17.6818172,12.9191914 18.0050517,13 18.3333333,13 L27.6666667,13 C28.7712362,13 29.6666667,12.1045695 29.6666667,11 C29.6666667,10.6717183 29.585858,10.3484838 29.4313725,10.0588235 L24.7647059,1.30882353 C24.2449085,0.334203383 23.0334437,-0.034503294 22.0588235,0.485294118 C21.7086956,0.672029008 21.422029,0.95869561 21.2352941,1.30882353 Z"/>
    <path fill="#FFF" d="M24,9 L24,11 L22,11 L22,9 L24,9 Z M24,4 L24,8 L22,8 L22,4 L24,4 Z"/>
  </g>
</svg>
