<svg viewBox="0 0 375 240" xmlns="http://www.w3.org/2000/svg"><g fill="none" fill-rule="evenodd"><g fill-rule="nonzero"><path d="M245.565 115.518a3.278 3.278 0 00-2.043.35l-3.273 1.78s1.488.779 1.49 1.47l.147 79.27c0 2.292 1.72 4.375 3.843 4.673l38.577 7.007s2.628-1.433 3.216-1.748c1.086-.573 1.808-1.777 1.805-3.261l-.146-79.276c0-2.293-1.72-4.379-3.84-4.674l-39.776-5.59z" fill="#000"/><path d="M282.091 122.866l-39.778-5.583c-2.118-.286-3.829 1.313-3.823 3.597l.146 79.273c0 2.292 1.72 4.376 3.84 4.67l39.778 5.592c2.115.286 3.829-1.313 3.823-3.597l-.146-79.27c0-2.292-1.72-4.376-3.84-4.674" fill="#000"/><path d="M282.091 122.866l-39.778-5.583c-2.118-.286-3.829 1.313-3.823 3.597l.146 79.273c0 .146 0 .286.023.435l47.25-73.478c-.199-2.11-1.84-3.958-3.818-4.244z" fill="#414141"/><path fill="#FFF" d="M284.278 129.649l-44.132-6.21.14 74.602 44.132 6.201-.14-74.593"/><path d="M276.486 177.746l-28.37-3.986c-1.602-.224-2.897.994-2.895 2.722v7.669c0 1.72 1.304 3.313 2.906 3.539l28.37 3.986c1.602.224 2.898-.994 2.895-2.725v-7.669c0-1.719-1.304-3.31-2.906-3.536" fill="#0073FF"/><path d="M252.778 177.027a3.367 3.367 0 00-.96 0 2.19 2.19 0 00-.86.304 1.69 1.69 0 00-.598.627c-.16.304-.239.645-.227.989 0 .206.026.41.078.61.052.211.139.412.257.593.134.207.3.391.493.545.234.189.495.341.774.453.499.216.918.392 1.258.53.341.14.64.286.897.415.16.09.298.212.407.359.138.201.206.443.192.687 0 .144-.028.286-.083.419a.777.777 0 01-.26.34 1.23 1.23 0 01-.477.201c-.233.04-.471.04-.705 0a2.957 2.957 0 01-.716-.192 1.983 1.983 0 01-.573-.378 1.625 1.625 0 01-.398-.573 2.006 2.006 0 01-.144-.782l-1.26-.178c-.002.44.084.877.254 1.284.15.36.37.685.648.957.276.269.598.485.951.639.371.16.761.27 1.161.327.35.044.703.044 1.052 0 .324-.039.637-.142.92-.304.271-.16.496-.39.65-.665.176-.334.261-.709.247-1.086a2.321 2.321 0 00-.352-1.232 2.43 2.43 0 00-1.057-.949l-.471-.206-.674-.287-.622-.266-.315-.14a1.828 1.828 0 01-.625-.442.989.989 0 01-.237-.682.817.817 0 01.123-.473.788.788 0 01.318-.266 1.2 1.2 0 01.424-.106c.152-.01.305-.005.456.014.399.045.776.208 1.083.467.306.296.48.703.478 1.13l1.261.177a2.66 2.66 0 00-.825-1.966 3.124 3.124 0 00-.88-.599 3.84 3.84 0 00-1.069-.307m4.829 5.339a1.66 1.66 0 01.115-.573 1.32 1.32 0 01.286-.436c.119-.118.264-.205.424-.255.18-.056.368-.07.553-.04.19.027.371.095.53.2.155.106.292.236.405.385.114.156.203.329.263.513.065.185.105.378.12.573l-2.69-.378m1.37-2.293a2.112 2.112 0 00-1.052.092 1.969 1.969 0 00-.791.539 2.513 2.513 0 00-.504.876c-.12.36-.18.736-.175 1.115a4.46 4.46 0 00.166 1.227c.107.362.276.703.499 1.008.218.292.492.537.805.723a2.88 2.88 0 001.092.372c.27.045.546.045.816 0 .25-.047.489-.144.7-.286.213-.138.396-.318.536-.53.154-.236.26-.5.312-.777l-1.092-.152a1.15 1.15 0 01-.458.639 1.186 1.186 0 01-.814.12 1.516 1.516 0 01-.628-.223 1.585 1.585 0 01-.435-.427 1.886 1.886 0 01-.261-.573 2.467 2.467 0 01-.086-.648l3.843.542a3.648 3.648 0 00-.55-2.356 3.012 3.012 0 00-.817-.86 2.473 2.473 0 00-1.106-.432m6.081.888a1.57 1.57 0 00-.94.135 1.653 1.653 0 00-.688.639l-.017-.026v-.828l-1.092-.152v5.64l1.146.163v-3.33a1.702 1.702 0 01.089-.573c.055-.162.141-.312.252-.441a.923.923 0 01.41-.255c.463-.143.966 0 1.284.366.185.3.276.648.263 1v3.548l1.147.163V183.1a2.006 2.006 0 00-1.854-2.178m5.419 5.728a1.393 1.393 0 01-.648-.252 1.676 1.676 0 01-.453-.488 2.293 2.293 0 01-.264-.656 3.152 3.152 0 01-.088-.725 3.439 3.439 0 01.074-.733 1.72 1.72 0 01.252-.622 1.19 1.19 0 01.456-.404 1.12 1.12 0 01.68-.086c.434.056.822.303 1.057.673.28.455.416.983.392 1.516.002.242-.026.482-.086.716-.05.214-.138.418-.258.602-.114.17-.271.305-.455.393a1.106 1.106 0 01-.662.08m2.579-6.59l-1.146-.161v2.865h-.023a1.78 1.78 0 00-.327-.444 2.293 2.293 0 00-.43-.338 2.71 2.71 0 00-.983-.347 2.095 2.095 0 00-.834.052 1.683 1.683 0 00-.728.43c-.23.245-.404.539-.507.86a3.786 3.786 0 00-.189 1.292c-.002.407.05.812.152 1.206.095.362.25.706.458 1.018.202.298.462.551.765.745.326.208.694.34 1.078.386.315.048.637.02.94-.08.297-.104.54-.323.676-.607v.762l1.095.155-.014-7.795" fill="#FFF"/><path d="M273.775 136.715l-17.22-2.418-5.854 5.505.043 26.702 23.094 3.247-.063-33.036zm-21.943 28.85l-.045-25.055 5.29.742v-5.78l15.62 2.198.058 30.831-20.923-2.937z" fill="#787878"/><path d="M260.407 149.49v-3.026c0-1.114 1.008-1.765 2.126-1.607 1.118.157 2.078 1.086 2.08 2.198v3.026l-4.21-.59m2.121-6.136c-1.871-.263-3.53.954-3.527 2.912v3.026l-1.055-.146a.971.971 0 00-1.049.988v7.569a1.39 1.39 0 001.055 1.286l9.136 1.281a.971.971 0 001.048-.988v-7.571a1.384 1.384 0 00-1.054-1.284l-1.055-.15v-3.025c0-1.958-1.616-3.634-3.484-3.898" fill="#232323"/><path d="M297.187 156.841l-4.41 2.132a20.366 20.366 0 012.35 9.357 16.58 16.58 0 01-2.433 8.883l4.428 3.376c1.974-3.215 3.112-7.164 3.106-11.546a26.757 26.757 0 00-3.04-12.205m9.256-4.456l-4.416 2.132a33.778 33.778 0 013.797 15.331c0 5.485-1.402 10.423-3.852 14.46l4.422 3.374c2.886-4.798 4.533-10.652 4.533-17.129a40.214 40.214 0 00-4.484-18.168m9.25-4.482l-4.413 2.132a47.18 47.18 0 015.238 21.304c0 7.588-1.911 14.423-5.273 20.03l4.422 3.374c3.152-5.302 5.201-11.56 5.783-18.478 0 0 .155-1.665.15-4.075-.007-2.41-.167-4.396-.167-4.396a54.161 54.161 0 00-5.731-19.89" fill="#000"/><path fill="#646464" opacity=".15" d="M284.278 129.649l-43.988 68.4 44.13 6.202-.142-74.602"/></g><g fill-rule="nonzero"><path d="M198.004 179.893h-73.21v-1.534c12.856 0 12.767-11.846 12.767-15.451V86.045a8.345 8.345 0 018.345-8.345h52.098a8.348 8.348 0 018.347 8.345v85.488a8.348 8.348 0 01-8.347 8.36z" fill="#E1E1E1"/><path d="M193.98 64.55l5.826-3.505c.527-.319 1.301-.448 2.399-.313l-5.823 3.505c-1.1-.135-1.872-.006-2.402.312z" fill="#0051BA"/><g fill="#0051BA"><path d="M250.566 81.5l5.826-3.508a38.786 38.786 0 01-1.19 3.594l-5.825 3.504a35.59 35.59 0 001.189-3.59"/><path d="M249.377 85.09l5.826-3.49a31.522 31.522 0 01-4.104 7.534l-5.823 3.49a31.623 31.623 0 004.1-7.534"/><path d="M245.276 92.624l5.823-3.504a23.132 23.132 0 01-6.571 6.046l-5.815 3.505a23.126 23.126 0 006.571-6.047"/></g><g fill="#0051BA"><path d="M252.125 71.192l5.826-3.508c.247.024.493.06.736.11l-5.826 3.504a7.33 7.33 0 00-.736-.106"/><path d="M252.861 71.298l5.826-3.505c.373.072.735.19 1.078.353l-5.823 3.504a4.688 4.688 0 00-1.08-.352"/><path d="M253.942 71.65l5.823-3.504c.214.103.416.231.601.38l-5.823 3.508a3.05 3.05 0 00-.601-.384"/><path d="M254.543 72.034l5.823-3.507c.22.18.406.394.554.636l-5.824 3.505a2.556 2.556 0 00-.553-.634"/><path d="M255.096 72.668l5.824-3.505c.156.259.27.541.335.837l-5.823 3.507a2.943 2.943 0 00-.336-.84"/><path d="M255.432 73.507L261.255 70c.122.6.14 1.218.054 1.825l-5.826 3.508a5.356 5.356 0 00-.051-1.826m.051 1.826l5.826-3.508a15.6 15.6 0 01-.407 2.006 8.024 8.024 0 01-.266.82l-5.823 3.51c.104-.269.192-.543.263-.822.181-.659.317-1.33.407-2.006M254.813 78.161l5.823-3.507a6.737 6.737 0 01-.86 1.61l-5.826 3.508a6.878 6.878 0 00.877-1.61"/><path d="M253.936 79.772l5.826-3.508c-.346.474-.78.876-1.278 1.184l-5.823 3.507c.497-.308.93-.71 1.275-1.183"/></g><g fill="#0051BA"><path d="M206.563 39.776l5.824-3.508c4.298-2.58 10.121-3.68 17.801-2.737 1.272.155 2.494.354 3.665.596l-5.823 3.505a46.328 46.328 0 00-3.665-.596c-7.683-.943-13.509.155-17.802 2.74"/><path d="M228.03 37.632l5.812-3.505a35.27 35.27 0 018.382 2.789l-5.803 3.504a35.248 35.248 0 00-8.38-2.788"/><path d="M236.42 40.42l5.827-3.504a27.416 27.416 0 015.39 3.438l-5.837 3.508a27.51 27.51 0 00-5.38-3.442"/><path d="M241.8 43.862l5.826-3.505c2.152 1.772 4 3.883 5.47 6.25l-5.826 3.508a25.479 25.479 0 00-5.47-6.253"/><path d="M247.27 50.115l5.826-3.508a30.95 30.95 0 013.794 9.411l-5.823 3.516a30.895 30.895 0 00-3.797-9.408m3.797 9.408l5.823-3.504a45.088 45.088 0 011.084 10.316c0 .447 0 .894-.023 1.341l-5.826 3.505c.014-.45.023-.894.026-1.341a45.278 45.278 0 00-1.084-10.317"/></g><path d="M227.486 101.39a27.152 27.152 0 01-3.299-.209c-6.711-.822-12.488-3.854-17.168-9.012-4.066-4.482-7.124-10.431-8.846-17.194l-.046-.17-.17-.04c-3.014-.687-4.011-4.04-4.266-5.049-.427-1.805-.722-3.602.017-4.54.37-.463.977-.69 1.863-.69.258 0 .517.017.773.049l.313.04v-1.556c.04-11.87 3.975-26.015 22.501-26.015 1.725.007 3.447.117 5.158.33 9.615 1.18 16.842 4.935 21.493 11.176 4.046 5.428 6.084 12.609 6.055 21.367 0 .444 0 .894-.026 1.332v.27l.267.025c1.312.126 2.19.528 2.676 1.224.777 1.109.473 2.851.029 4.568-.24.925-1.252 3.946-4.158 3.946h-.287l-.057.215c-1.61 5.777-4.353 10.646-7.93 14.079-4.074 3.906-9.078 5.889-14.875 5.889l-.017-.035z" fill="#66ABFF"/><path d="M219.175 36.704v.573a41.71 41.71 0 015.118.33c9.549 1.168 16.696 4.885 21.298 11.038 4.012 5.379 6.018 12.508 5.998 21.206 0 .444 0 .888-.026 1.324l-.017.538.536.052c1.223.118 2.032.479 2.467 1.103.71 1.012.413 2.68-.014 4.33-.227.874-1.178 3.726-3.88 3.726h-.51l-.12.427c-1.594 5.731-4.3 10.554-7.853 13.95-4.012 3.854-8.955 5.808-14.675 5.808a26.622 26.622 0 01-3.264-.206c-6.642-.814-12.36-3.817-16.99-8.92-4.035-4.448-7.07-10.357-8.784-17.089l-.086-.338-.34-.077c-2.926-.67-3.886-4.147-4.05-4.837-.392-1.651-.705-3.454-.04-4.299.312-.393.86-.573 1.64-.573.246 0 .493.016.739.049l.624.074.017-.627v-1.25c.038-11.75 3.924-25.728 22.215-25.728v-.573m0 0c-16.727 0-22.739 11.506-22.788 26.298v1.235a6.96 6.96 0 00-.81-.051c-3.184 0-2.806 2.865-2.159 5.582.313 1.321 1.46 4.57 4.482 5.264 3.239 12.741 11.775 24.645 26.259 26.436a27.69 27.69 0 003.332.21c12.48 0 20.02-9.188 23.08-20.178h.078c2.966 0 4.115-2.929 4.433-4.16.716-2.763 1.123-5.758-2.952-6.148.018-.45.023-.894.026-1.34.055-16.235-7.09-30.274-27.797-32.816a41.89 41.89 0 00-5.192-.332h.008z" fill="#0051BA"/><path d="M230.13 88.05a1.72 1.72 0 011.434 1.694 1.287 1.287 0 01-1.433 1.341l-11.492-1.412a1.72 1.72 0 01-1.432-1.694 1.284 1.284 0 011.432-1.341l11.492 1.413zm-21.397-23.463c1.946.237 3.516 2.094 3.51 4.146-.006 2.052-1.59 3.516-3.533 3.278-1.943-.237-3.516-2.094-3.51-4.143.005-2.05 1.587-3.522 3.533-3.281z" fill="#000"/><path d="M210.028 65.942c.486.08.842.5.843.991a.754.754 0 01-.86.789 1.003 1.003 0 01-.814-.995.75.75 0 01.831-.785z" fill="#F5F5F5"/><path d="M241.442 68.601c1.948.241 3.519 2.095 3.513 4.147-.006 2.052-1.59 3.519-3.536 3.278-1.946-.24-3.517-2.095-3.508-4.143.009-2.05 1.588-3.52 3.53-3.282z" fill="#000"/><path d="M242.86 70.005a1 1 0 01.84.992.754.754 0 01-.846.788 1.006 1.006 0 01-.842-.994.757.757 0 01.848-.786z" fill="#F5F5F5"/><path d="M121.937 149.15l6.534 3.553c-.516-.287-1.264-.37-2.318-.192l-6.534-3.553c1.057-.178 1.805-.09 2.318.192zm-49.433 21.572l-2.599-1.432c-.604-1.01-.77-2.293-.94-2.978-.685-2.745-1.066-5.731 2.883-6.281l-6.53-3.551c-3.952.556-3.568 3.536-2.886 6.282.243.977.481 3.223 2.034 4.069l1.68.914c2.006 7 6.12 13.067 12.13 16.334l6.53 3.55c-6.175-3.355-10.353-9.668-12.302-16.907z" fill="#999298"/><path d="M109.185 124.204l6.534 3.553c-4.098-2.23-9.554-3.083-16.638-2.086-20.163 2.834-27.187 16.94-27.224 33.133v1.23l-6.54-3.554v-1.23c.029-16.19 7.053-30.298 27.224-33.132 7.081-.998 12.538-.144 16.644 2.086z" fill="#999298"/><path d="M95.183 189.856a21.126 21.126 0 01-14.586-5.625c-3.654-3.373-6.373-8.095-7.86-13.655l-.058-.218h-.344c-2.266 0-2.748-2.292-3.034-3.673-.04-.192-.075-.364-.112-.508-.427-1.719-.717-3.461.057-4.608.482-.71 1.327-1.146 2.58-1.32l.24-.032v-1.473c0-8.732 2.035-15.933 6.004-21.41 4.547-6.275 11.603-10.124 20.965-11.44a39.867 39.867 0 015.522-.41c6.276 0 11.25 1.795 14.784 5.334 4.313 4.321 6.49 11.147 6.474 20.289 0 .444 0 .894-.02 1.335v.35l.343-.057a5.94 5.94 0 01.955-.09c.76 0 1.29.201 1.616.614.708.897.413 2.685-.014 4.488-.04.172-.078.378-.124.604-.286 1.476-.75 3.946-3.152 4.542l-.166.04-.043.17c-1.68 6.65-4.843 12.623-9.153 17.265-4.751 5.121-10.706 8.31-17.217 9.225-1.211.172-2.433.26-3.657.263z" fill="#D8D1D4"/><path d="M104.58 125.198v.573c6.196 0 11.102 1.766 14.578 5.25 4.258 4.264 6.407 11.025 6.39 20.086 0 .438 0 .885-.023 1.327l-.02.699.69-.118c.3-.052.603-.08.906-.083.668 0 1.124.167 1.39.505.636.802.324 2.596-.066 4.244-.043.18-.083.392-.126.619-.286 1.498-.72 3.762-2.931 4.315l-.333.084-.086.332c-1.642 6.514-4.872 12.609-9.084 17.142-4.705 5.073-10.603 8.23-17.048 9.136-1.204.172-2.418.26-3.634.26-5.559 0-10.402-1.868-14.391-5.55-3.614-3.336-6.304-8.01-7.777-13.517l-.118-.439-.456.015h-.106c-1.877 0-2.39-1.703-2.754-3.44-.04-.185-.074-.363-.114-.515-.41-1.654-.694-3.327.017-4.379.433-.639 1.215-1.031 2.393-1.198l.481-.066V158.744c0-8.669 2.006-15.816 5.95-21.24 4.501-6.21 11.49-10.03 20.773-11.326a39.701 39.701 0 015.482-.407v-.573m0 0a40 40 0 00-5.56.413c-20.165 2.834-27.19 16.942-27.224 33.133v1.23c-3.951.555-3.567 3.535-2.885 6.28.303 1.219.596 4.4 3.439 4.4h.126c2.885 10.783 10.714 19.486 22.722 19.486a26.562 26.562 0 003.725-.266c14.105-1.983 23.39-13.95 26.608-26.706 2.946-.733 3.166-4.037 3.479-5.358.627-2.665 1.011-5.445-1.883-5.445a6.35 6.35 0 00-1.003.092c.014-.45.023-.897.023-1.344.028-14.601-5.64-25.909-21.544-25.909l-.023-.006z" fill="#999298"/><path d="M125.866 157.216a4.13 4.13 0 012.029.204 4.181 4.181 0 011.622 1.097c.906.986 1.433 2.43 1.433 4.096a9.743 9.743 0 01-1.293 4.67 15.821 15.821 0 01-4.204 4.749 26.035 26.035 0 01-4.805 2.903c-3.594 1.72-8.265 3.12-14.26 3.977l-.169.023a.673.673 0 01-.762-.716.946.946 0 01.765-.934l.169-.026c6.711-.957 11.655-2.616 15.188-4.542l.479-.267c3.275-1.877 5.252-3.969 6.304-5.894a7.752 7.752 0 001.049-3.726 4.786 4.786 0 00-.616-2.464 3.634 3.634 0 00-.247-.361 2.96 2.96 0 00-1.32-.997 2.783 2.783 0 00-1.376-.14.676.676 0 01-.765-.72c0-.458.328-.851.78-.932z" fill="#000"/><path d="M106.893 175.345a2.04 2.04 0 012.27 1.433l-.17.022a.949.949 0 00-.765.935.676.676 0 00.762.719l.17-.026a2.912 2.912 0 01-2.276 2.078l-8.717 1.226c-1.324.187-2.393-.82-2.39-2.246.002-1.427 1.077-2.737 2.398-2.923l8.718-1.218zm-22.969-18.172c1.894-.266 3.439 1.175 3.422 3.222-.017 2.046-1.542 3.917-3.439 4.183-1.897.267-3.439-1.175-3.439-3.218s1.562-3.92 3.456-4.187z" fill="#000"/><path d="M85.452 158.113a.728.728 0 01.82.771c0 .49-.346.912-.826 1.006a.728.728 0 01-.82-.774c0-.488.346-.908.826-1.003z" fill="#EFEFEF"/><path d="M115.79 152.694c1.895-.266 3.425 1.175 3.422 3.221-.003 2.047-1.542 3.918-3.439 4.184-1.897.267-3.439-1.175-3.424-3.218.014-2.043 1.544-3.926 3.441-4.187z" fill="#000"/><path d="M117.461 153.623a.725.725 0 01.82.774 1.02 1.02 0 01-.823 1.003.728.728 0 01-.822-.774c0-.489.346-.909.825-1.003z" fill="#EFEFEF"/></g><g fill-rule="nonzero"><g fill="#D97507"><path d="M109.397 73.969l2.482 1.35a1.473 1.473 0 00-.923-.12c-1.198.168-2.94 1.309-4.66 3.088l-2.481-1.35c1.72-1.782 3.459-2.922 4.66-3.092.312-.057.635-.014.922.124z"/><path d="M106.296 78.287l-2.481-1.35c.226-.234.453-.458.676-.67l2.485 1.353c-.227.209-.453.432-.68.667"/><path d="M106.976 77.62l-2.485-1.353a13.323 13.323 0 012.207-1.705l2.484 1.35a13.388 13.388 0 00-2.206 1.719m2.209-1.719l-2.484-1.35a6.15 6.15 0 011.146-.553l2.481 1.35a6.434 6.434 0 00-1.146.553m1.149-.553l-2.481-1.35a3.32 3.32 0 01.636-.164h.08l2.485 1.35h-.083c-.218.031-.43.085-.637.16m.709-.168l-2.485-1.35c.287-.043.581.003.842.132l2.482 1.35a1.433 1.433 0 00-.84-.132m-8.574 12.397l-2.484-1.35a1.049 1.049 0 01-.207-.15c-.957-.902-.12-3.647 1.869-6.504l2.484 1.35c-1.991 2.865-2.825 5.602-1.871 6.505.062.059.133.11.21.149z"/><path d="M102.465 87.584l-2.484-1.35a1.049 1.049 0 01-.207-.15 1.146 1.146 0 01-.143-.168l2.482 1.35c.042.06.09.117.143.169.062.059.133.11.21.149"/><path d="M102.113 87.265l-2.482-1.35a1.2 1.2 0 01-.14-.269l2.484 1.35c.035.095.081.186.138.27"/><path d="M101.975 86.996l-2.484-1.35a1.805 1.805 0 01-.086-.346l2.481 1.35c.018.118.048.234.089.346"/><path d="M101.886 86.65l-2.481-1.35a2.685 2.685 0 01-.018-.614l2.482 1.35c-.015.205-.01.41.017.613"/><path d="M101.869 86.036l-2.482-1.35c.095-1.295.912-3.175 2.256-5.106l2.484 1.35c-1.347 1.93-2.163 3.81-2.258 5.106m11.345-15.758l-2.481-1.35c-1.024-.556-1.82-2.608-2.05-5.304l2.482 1.352c.232 2.694 1.026 4.746 2.05 5.302z"/><path d="M113.214 70.278l-2.481-1.35a2.272 2.272 0 01-.754-.734l2.482 1.35c.19.3.448.551.753.734"/><path d="M112.46 69.544l-2.481-1.35a5.54 5.54 0 01-.596-1.189l2.481 1.35c.15.419.35.818.597 1.19"/><path d="M111.864 68.355l-2.481-1.35a11.463 11.463 0 01-.573-2.31l2.481 1.353c.114.786.306 1.56.573 2.307"/><path d="M111.291 66.048l-2.481-1.355a16.925 16.925 0 01-.126-1.072l2.481 1.352c.032.37.075.728.126 1.072m.906-11.809l2.484 1.35a1.146 1.146 0 00-.719-.141l-2.484-1.355c.249-.032.502.02.719.146z"/><path d="M113.962 55.445l-2.484-1.355h.045l2.482 1.35h-.043"/><path d="M114.005 55.44l-2.482-1.35c.235-.022.47.03.674.146l2.484 1.35a1.146 1.146 0 00-.676-.147m-2.831 6.231l-2.485-1.35c.287-3.382 1.433-6.036 2.789-6.225l2.484 1.35c-1.358.192-2.484 2.843-2.788 6.224z"/><path d="M111.174 61.67l-2.485-1.35c.232-2.66.983-4.872 1.955-5.78l2.484 1.35c-.971.913-1.72 3.123-1.954 5.78"/><path d="M113.128 55.89l-2.484-1.35c.102-.1.215-.188.338-.261l2.482 1.35a1.922 1.922 0 00-.336.26m.336-.261l-2.482-1.35c.083-.05.172-.092.263-.125l2.485 1.35a1.499 1.499 0 00-.266.125m.266-.126l-2.485-1.35c.076-.027.153-.046.233-.057l2.484 1.35a1.307 1.307 0 00-.232.057m-9.603 25.428l-2.484-1.35-3.809-3.585 2.485 1.352zM94.223 87.18l2.482 1.35c-.969-.528-2.499-.797-4.298-.726l-2.485-1.35c1.803-.074 3.333.198 4.301.725z"/><path d="M92.415 87.804l-2.484-1.35c1.794-.074 3.324.198 4.298.725l2.482 1.35c-.969-.527-2.5-.796-4.299-.725M105.78 62.426l-2.484-1.35 5.393-.756 2.485 1.35zM89.352 88.234l-2.482-1.35.009-5.82 2.484 1.35zM107.81 50.67l-2.485-1.352c-.51-.284-.997-.604-1.459-.96l2.485 1.353c.462.355.95.676 1.459.96z"/><path d="M107.81 50.67l-2.485-1.352c-.51-.284-.997-.604-1.459-.96l2.485 1.353c.462.352.95.669 1.459.948M85.048 93.504l-2.482-1.35c-.702-.38-1.11-.897-1.106-1.51 0-1.467 2.315-3.015 5.407-3.76l2.485 1.35c-3.095.745-5.408 2.293-5.41 3.76 0 .613.403 1.129 1.106 1.51z"/><path d="M85.048 93.504l-2.482-1.35a2.404 2.404 0 01-.86-.713l2.485 1.35c.227.301.521.546.86.713m-.851-.714l-2.485-1.35c-.07-.1-.128-.209-.172-.323l2.484 1.35c.043.115.101.223.172.323m-.172-.323l-2.484-1.35a1.459 1.459 0 01-.069-.287l2.493 1.373c.014.092.038.183.072.27"/><path d="M83.967 92.203l-2.482-1.353a.931.931 0 010-.2v-.106l2.482 1.352V92c0 .068.005.136.014.203"/><path d="M83.944 91.89l-2.481-1.352c.037-.507.35-1.023.86-1.51l2.48 1.352c-.462.38-.768.918-.859 1.51m.883-1.51l-2.482-1.352a6.44 6.44 0 011.08-.797l2.482 1.353c-.387.226-.75.494-1.08.796"/><path d="M85.893 89.584L83.41 88.23c.638-.37 1.31-.679 2.006-.92l2.485 1.353a10.93 10.93 0 00-2.006.92"/><path d="M87.896 88.664L85.4 87.31c.461-.16.949-.303 1.456-.427l2.484 1.35c-.492.118-.978.261-1.455.43M100.365 52.341l-2.482-1.35 3.823-4.656 2.481 1.35zM82.924 80.912L80.44 79.56a12.107 12.107 0 01-1.433-.917l2.481 1.35c.457.34.936.647 1.436.92z"/><path d="M82.924 80.912L80.44 79.56a12.107 12.107 0 01-1.433-.917l2.481 1.35c.456.34.934.647 1.433.92M104.182 40.595l2.481 1.353c-1.2-.657-2.335-.955-3.192-.834a1.72 1.72 0 00-1.13.59c-.96 1.17-.134 3.683 1.846 5.98l-2.481-1.349c-1.98-2.292-2.809-4.811-1.849-5.983a1.72 1.72 0 011.147-.588c.842-.12 1.974.178 3.178.831z"/><path d="M104.187 47.685l-2.481-1.35a12.812 12.812 0 01-.86-1.109l2.485 1.353c.266.384.553.753.86 1.106m-.858-1.106l-2.484-1.353a9.32 9.32 0 01-1.055-1.974l2.482 1.35a9.42 9.42 0 001.057 1.977m-1.057-1.978l-2.482-1.35a5.356 5.356 0 01-.286-1.08l2.481 1.35a5.5 5.5 0 00.287 1.08"/><path d="M101.984 43.521l-2.482-1.35a3.439 3.439 0 01-.037-.736l2.484 1.35a3.24 3.24 0 00.035.736m-.034-.737l-2.485-1.35a1.9 1.9 0 01.392-1.082 1.71 1.71 0 01.138-.144l2.482 1.35a1.628 1.628 0 00-.135.146c-.242.31-.379.688-.393 1.08M102.477 41.558l-2.482-1.35c.08-.074.167-.14.26-.197l2.485 1.35a1.625 1.625 0 00-.263.197m.263-.198l-2.484-1.35c.1-.06.205-.108.315-.146l2.484 1.35a1.915 1.915 0 00-.315.146m.315-.146l-2.484-1.35c.135-.048.276-.083.418-.103h.095l2.481 1.35h-.094c-.142.02-.28.053-.416.1"/><path d="M103.565 41.102l-2.481-1.34c.86-.087 1.937.211 3.098.842l2.481 1.352c-1.146-.63-2.252-.931-3.098-.86M75.496 82.614l-2.481-1.35 3.822-4.653 2.485 1.35z"/><g><path d="M96.441 50.078l2.482 1.35a12.586 12.586 0 00-6.44-1.502l-2.48-1.35a12.609 12.609 0 016.438 1.502z"/><path d="M92.484 49.92l-2.482-1.35c2.243-.08 4.465.441 6.44 1.508l2.481 1.35a12.586 12.586 0 00-6.44-1.502"/></g><g><path d="M79.322 77.96l-2.485-1.35a14.532 14.532 0 01-3.252-8.052l2.482 1.35a14.506 14.506 0 003.255 8.053z"/><path d="M79.322 77.96l-2.485-1.35a12.046 12.046 0 01-.788-1.037l2.485 1.35c.245.36.508.705.788 1.038"/><path d="M78.522 76.923l-2.473-1.34a14.122 14.122 0 01-1.539-3.007l2.485 1.353a13.841 13.841 0 001.527 2.994"/><path d="M76.98 73.929l-2.47-1.353c-.373-1-.64-2.036-.8-3.092l2.485 1.35c.158 1.056.426 2.094.8 3.095"/><path d="M76.181 70.834l-2.484-1.35a16.01 16.01 0 01-.112-.926l2.482 1.35c.028.312.068.622.114.926"/></g><path d="M89.42 50.35L86.94 49l.011-5.82 2.482 1.35z"/><g><path d="M75.184 90.389l-2.485-1.338a12.678 12.678 0 01-2.579-1.903c-2.705-2.545-3.992-5.706-2.88-7.061a1.72 1.72 0 011.147-.573c.86-.12 1.988.177 3.189.83l2.482 1.35c-1.201-.653-2.333-.95-3.19-.83a1.72 1.72 0 00-1.129.573c-1.115 1.355.175 4.519 2.866 7.06a12.632 12.632 0 002.579 1.892z"/><path d="M75.184 90.389l-2.485-1.338a12.678 12.678 0 01-2.579-1.903 13.755 13.755 0 01-1.885-2.18l2.484 1.349a13.603 13.603 0 001.874 2.16 12.632 12.632 0 002.58 1.906m-4.463-4.08l-2.484-1.35a9.488 9.488 0 01-1.057-1.977l2.484 1.352a9.21 9.21 0 001.058 1.975"/><path d="M69.653 84.328l-2.484-1.352a5.304 5.304 0 01-.287-1.087l2.47 1.353c.058.371.154.735.287 1.086"/><path d="M69.352 83.242l-2.476-1.355a3.247 3.247 0 01-.037-.737l2.482 1.353a3.42 3.42 0 00.037.736"/><path d="M69.32 82.506l-2.481-1.353a1.87 1.87 0 01.393-1.08c.042-.05.087-.099.134-.144l2.485 1.35a1.267 1.267 0 00-.135.143c-.242.31-.38.69-.395 1.084"/><path d="M69.85 81.279l-2.484-1.35c.081-.074.17-.14.264-.197l2.485 1.35a1.507 1.507 0 00-.264.197m.264-.198l-2.482-1.35c.1-.06.205-.11.315-.148l2.485 1.352c-.11.037-.216.086-.316.146"/><path d="M70.43 80.935l-2.485-1.341c.136-.047.276-.08.419-.097h.091l2.482 1.35h-.092c-.141.019-.28.052-.415.1m.507-.124l-2.482-1.35c.846-.088 1.94.213 3.098.843l2.482 1.35c-1.147-.63-2.253-.931-3.098-.843"/></g><g><path d="M81.528 54.99l-2.481-1.353A16.945 16.945 0 0186.939 49l2.473 1.364a16.942 16.942 0 00-7.884 4.625z"/><path d="M81.528 54.99l-2.481-1.353a19 19 0 01.556-.542l2.484 1.35c-.189.178-.375.358-.573.544"/><path d="M82.087 54.445l-2.484-1.35a17.876 17.876 0 013.034-2.292l2.476 1.344a17.913 17.913 0 00-3.034 2.292"/><path d="M85.113 52.147l-2.484-1.35c.933-.56 1.92-1.026 2.946-1.39l2.481 1.353a16.22 16.22 0 00-2.943 1.387"/><path d="M88.065 50.76l-2.482-1.353c.445-.155.897-.287 1.356-.407l2.473 1.364c-.459.115-.908.252-1.356.41"/></g><g><path d="M76.072 66.601l-2.481-1.335a19.2 19.2 0 013.286-8.973l2.482 1.353a19.2 19.2 0 00-3.287 8.955z"/><path d="M76.072 66.601l-2.481-1.335a19.2 19.2 0 013.286-8.973l2.482 1.353a19.2 19.2 0 00-3.287 8.97"/></g><path d="M70.682 67.36l-2.485-1.35 5.394-.759 2.481 1.35z"/><g><path d="M85.142 43.805l-2.484-1.35c-.703-.381-1.11-.897-1.107-1.513 0-1.7 3.113-3.51 6.941-4.05 2.444-.34 4.585-.085 5.823.574l2.485 1.35c-1.235-.671-3.382-.929-5.823-.574-3.832.54-6.941 2.35-6.944 4.047 0 .624.407 1.135 1.11 1.516z"/><path d="M85.142 43.805l-2.484-1.35a2.43 2.43 0 01-.86-.722l2.482 1.35c.225.304.52.552.86.722m-.855-.722l-2.481-1.35a1.433 1.433 0 01-.167-.315l2.482 1.35c.043.11.099.216.166.315m-.166-.316l-2.482-1.35a1.27 1.27 0 01-.071-.286l2.481 1.35c.015.093.04.184.072.272"/><path d="M84.047 42.495l-2.481-1.35a1.195 1.195 0 01-.015-.203v-.109l2.485 1.353v.106c0 .068.005.136.014.203"/><path d="M84.039 42.186l-2.485-1.353c.092-.59.398-1.126.86-1.505l2.482 1.35c-.516.487-.829 1-.86 1.508"/><path d="M84.904 40.678l-2.481-1.35c.33-.303.692-.57 1.08-.796l2.47 1.35a6.686 6.686 0 00-1.08.796"/><path d="M85.973 39.882l-2.482-1.35a10.93 10.93 0 012.006-.92l2.482 1.35a11.42 11.42 0 00-2.006.92"/><path d="M87.98 38.962l-2.483-1.35a15.761 15.761 0 013.551-.782l2.482 1.35-.553.068c-1.02.138-2.025.377-2.998.714m3.551-.786l-2.482-1.35c2.21-.234 4.127.032 5.267.654l2.485 1.35c-1.147-.622-3.06-.889-5.27-.654"/></g><path d="M79.36 57.632l-2.485-1.353-3.809-3.58 2.485 1.35z"/><g><path d="M67.166 76.751L64.684 75.4c-1.224-.665-2.12-3.465-2.115-6.947 0-4.135 1.29-7.665 2.866-7.886.249-.033.501.016.72.14l2.484 1.35a1.163 1.163 0 00-.72-.14c-1.573.223-2.865 3.75-2.865 7.889 0 3.485.891 6.279 2.112 6.946z"/><path d="M67.166 76.751L64.684 75.4a2.272 2.272 0 01-.754-.734l2.482 1.353c.191.3.45.55.754.733m-.754-.734l-2.482-1.353a5.7 5.7 0 01-.596-1.192l2.485 1.35c.15.42.35.822.596 1.195"/><path d="M65.816 74.823l-2.482-1.35c-.268-.743-.46-1.51-.573-2.293l2.485 1.35c.112.782.304 1.55.573 2.293m-.573-2.299l-2.485-1.35a18.34 18.34 0 01-.192-2.722c0-.455.017-.902.049-1.34l2.482 1.352c-.03.435-.046.885-.046 1.34-.005.911.059 1.82.192 2.72m-.146-4.06l-2.482-1.353c.195-2.797.966-5.144 1.974-6.098l2.485 1.35c-1.009.954-1.783 3.301-1.977 6.1"/><path d="M67.077 62.363l-2.485-1.35c.104-.1.218-.188.341-.264l2.485 1.364a1.911 1.911 0 00-.341.264"/><path d="M67.418 62.113l-2.485-1.35c.084-.05.172-.092.264-.125l2.485 1.35c-.092.033-.18.075-.264.125m.264-.14l-2.485-1.35c.076-.026.153-.045.232-.057h.046l2.482 1.353h-.038a1.307 1.307 0 00-.232.057m.27-.063l-2.482-1.353c.234-.021.47.03.673.146l2.485 1.35a1.146 1.146 0 00-.676-.143"/></g><g><path d="M69.968 57.018l-2.481-1.352a.989.989 0 01-.21-.15c-1.109-1.042.192-4.584 2.906-7.874 2.055-2.5 4.327-4.155 5.795-4.365.313-.058.636-.015.922.124l2.482 1.35a1.467 1.467 0 00-.92-.121c-1.467.206-3.742 1.863-5.794 4.364-2.714 3.305-4.012 6.83-2.906 7.872.062.06.132.11.206.152z"/><path d="M69.968 57.018l-2.481-1.352a.989.989 0 01-.353-.318l2.482 1.35a1.032 1.032 0 00.352.32"/><path d="M69.616 56.697l-2.482-1.35a1.192 1.192 0 01-.137-.269l2.481 1.35c.035.095.081.185.138.27m-.138-.27l-2.481-1.35a1.585 1.585 0 01-.09-.352l2.482 1.352c.018.12.048.237.09.35"/><path d="M69.39 56.078l-2.482-1.352a2.826 2.826 0 01-.017-.61l2.484 1.35a2.846 2.846 0 000 .612m0-.613l-2.484-1.35c.117-1.599 1.338-4.092 3.292-6.473a20.581 20.581 0 011.811-1.94l2.482 1.352a20.587 20.587 0 00-1.808 1.94c-1.955 2.379-3.175 4.872-3.293 6.471"/><path d="M74.476 47.054l-2.482-1.352a13.431 13.431 0 012.21-1.72l2.484 1.353a13.182 13.182 0 00-2.212 1.72"/><path d="M76.688 45.344l-2.484-1.353a6.385 6.385 0 011.146-.55l2.482 1.35c-.4.146-.783.331-1.147.553"/><path d="M77.823 44.79l-2.482-1.35c.207-.074.42-.13.637-.163h.083l2.481 1.356h-.08a3.594 3.594 0 00-.639.16"/><path d="M78.542 44.633l-2.481-1.35c.287-.043.58.003.84.132l2.481 1.335a1.433 1.433 0 00-.84-.131"/></g></g><path d="M88.773 94.026c-1.926 0-3.5-.427-4.213-1.147a1.244 1.244 0 01-.4-.89c0-1.328 2.206-2.818 5.243-3.549l.167-.04v-6.215h-.631A12.24 12.24 0 0181.6 79.8l-.166-.123-4.058 4.975.118.14c1.937 2.247 2.71 4.646 1.842 5.7a1.493 1.493 0 01-.991.513c-.12.015-.24.023-.361.023-1.459 0-3.468-1.034-5.242-2.702-2.579-2.422-3.883-5.52-2.865-6.766.252-.292.607-.474.991-.51.12-.015.24-.023.361-.023 1.147 0 2.648.642 4.127 1.762l.169.126 4.072-4.957-.117-.138a14.277 14.277 0 01-3.204-7.932l-.023-.226-5.789.813v.172c-.286 3.322-1.384 5.855-2.602 6.018a1.178 1.178 0 01-.949-.401c-1-1.003-1.641-3.545-1.636-6.476 0-3.958 1.23-7.471 2.671-7.672a.931.931 0 01.126 0c1.13 0 2.138 2.21 2.396 5.253l.02.23 5.789-.815.017-.169a18.96 18.96 0 013.25-8.869l.103-.155-4.107-3.848-.149.155c-1.67 1.719-3.364 2.865-4.533 3.026a2.14 2.14 0 01-.264.017.963.963 0 01-.685-.232c-.9-.86.06-4.092 2.923-7.577 1.94-2.361 4.215-4.084 5.657-4.299.088-.012.177-.018.266-.02a.969.969 0 01.685.235c.837.788.02 3.462-1.9 6.222l-.106.154 4.098 3.858.15-.152a16.695 16.695 0 017.791-4.585l.163-.04v-6.219h-.785c-1.926 0-3.499-.424-4.21-1.146a1.247 1.247 0 01-.39-.848c0-1.562 3.099-3.319 6.755-3.832a14.818 14.818 0 012.072-.149c1.923 0 3.496.424 4.207 1.146.246.227.391.543.401.877 0 1.327-2.207 2.82-5.244 3.548l-.166.04v6.216h.63c2.64-.016 5.213.82 7.339 2.384l.166.123 4.072-4.957-.12-.138c-1.934-2.247-2.71-4.645-1.843-5.703a1.51 1.51 0 01.992-.51c.12-.017.24-.026.361-.025 1.459 0 3.467 1.037 5.241 2.705 2.58 2.418 3.883 5.516 2.866 6.763-.253.29-.608.474-.992.513-.12.015-.24.022-.36.023-1.147 0-2.649-.642-4.127-1.763l-.17-.126-4.091 4.95.117.14a14.283 14.283 0 013.204 7.932l.023.226 5.788-.814.015-.172c.286-3.321 1.384-5.857 2.602-6.018a1.184 1.184 0 01.949.404c1 1.003 1.644 3.545 1.639 6.477 0 3.955-1.233 7.468-2.674 7.671a.931.931 0 01-.126 0c-1.126 0-2.135-2.21-2.396-5.255l-.02-.23-5.789.814-.017.172a18.96 18.96 0 01-3.25 8.858l-.106.152 4.118 3.86.15-.155c1.67-1.72 3.364-2.866 4.533-3.026.087-.012.175-.019.264-.02.25-.014.495.07.684.235.9.86-.06 4.092-2.923 7.574-1.94 2.361-4.215 4.086-5.66 4.298a1.72 1.72 0 01-.263.02.969.969 0 01-.685-.232c-.837-.79-.02-3.464 1.9-6.224l.11-.152-4.128-3.871-.149.152a16.684 16.684 0 01-7.791 4.585l-.164.043v6.215H93c1.925 0 3.499.427 4.21 1.147.251.228.397.55.403.89 0 1.565-3.097 3.32-6.754 3.832-.692.09-1.389.13-2.086.12z" fill="#FFBE00"/><path d="M93.077 38.529c1.866 0 3.382.401 4.055 1.075.207.187.33.45.338.73 0 1.207-2.183 2.642-5.078 3.336l-.332.08v6.614h.848a12.053 12.053 0 017.21 2.341l.333.247.26-.318 3.826-4.657.232-.286-.238-.287c-1.837-2.132-2.628-4.462-1.842-5.422.22-.25.528-.404.86-.433.11-.015.22-.023.332-.023 1.384 0 3.384 1.038 5.092 2.645a11.443 11.443 0 012.765 3.823c.473 1.147.499 2.127.075 2.645a1.29 1.29 0 01-.86.433 2.43 2.43 0 01-.33.023c-1.08 0-2.578-.642-3.997-1.72l-.332-.252-.267.324-3.837 4.643-.232.286.235.287a14.073 14.073 0 013.152 7.814l.043.453.453-.063 5.393-.754.344-.048.029-.347c.237-2.731 1.206-5.66 2.415-5.829a.969.969 0 01.762.341c.95.949 1.582 3.49 1.577 6.322 0 4.187-1.318 7.29-2.488 7.45a.527.527 0 01-.094 0c-.846 0-1.897-1.773-2.178-5.054l-.04-.459-.456.063-5.39.757-.341.048-.035.344a18.716 18.716 0 01-3.212 8.766l-.21.307.287.255 3.809 3.585.312.287.281-.31c1.61-1.674 3.301-2.805 4.407-2.963.077-.011.155-.017.232-.017a.75.75 0 01.536.175c.39.366.341 1.346-.129 2.619a17.077 17.077 0 01-2.814 4.66c-1.908 2.32-4.126 4.011-5.519 4.209a1.72 1.72 0 01-.235.017.736.736 0 01-.533-.175c-.656-.616-.115-3.006 1.929-5.937l.215-.31-.287-.258-3.808-3.582-.299-.3-.286.312a16.492 16.492 0 01-7.689 4.522l-.326.08v6.617l.455-.02h.55c1.869 0 3.385.401 4.055 1.074.211.19.335.457.341.74 0 1.275-2.699 3.072-6.568 3.616a14.77 14.77 0 01-2.037.15c-1.869 0-3.385-.405-4.058-1.075a1.023 1.023 0 01-.338-.74c0-1.206 2.184-2.639 5.075-3.335l.335-.08v-6.612h-.848a12.036 12.036 0 01-7.21-2.341l-.332-.246-.264.32-3.82 4.654-.235.287.24.287c1.835 2.132 2.626 4.464 1.84 5.421a1.31 1.31 0 01-.86.436c-.11.014-.22.02-.332.02-1.384 0-3.384-1.037-5.092-2.645a11.463 11.463 0 01-2.765-3.823c-.473-1.146-.499-2.123-.075-2.642.221-.25.528-.405.86-.436.11-.014.221-.02.332-.02 1.08 0 2.58.642 3.995 1.72l.335.252.267-.324 3.823-4.662.229-.287-.232-.286a14.096 14.096 0 01-3.152-7.812l-.043-.456-.45.063-5.408.777-.344.048-.028.344c-.238 2.734-1.207 5.66-2.416 5.832h-.095a.974.974 0 01-.67-.332c-.946-.949-1.58-3.49-1.574-6.322 0-4.19 1.316-7.293 2.485-7.45h.095c.86 0 1.9 1.77 2.177 5.054l.04.459.456-.066 5.39-.757.342-.048.034-.341a18.733 18.733 0 013.21-8.767l.212-.31-.287-.254-3.808-3.582-.313-.287-.286.307c-1.614 1.67-3.302 2.805-4.405 2.96a1.745 1.745 0 01-.235.017.75.75 0 01-.536-.175c-.39-.363-.34-1.344.13-2.619A17.077 17.077 0 0173 49.286c1.909-2.32 4.127-4.011 5.52-4.209a1.72 1.72 0 01.235-.017.736.736 0 01.533.175c.656.616.114 3.006-1.926 5.94l-.215.307.286.258 3.809 3.585.31.286.286-.306a16.478 16.478 0 017.689-4.531l.33-.083v-6.614l-.457.017h-.55c-1.868 0-3.384-.401-4.055-1.075a1.023 1.023 0 01-.34-.739c0-1.272 2.699-3.072 6.567-3.616a14.801 14.801 0 012.04-.147m0-.435a15.07 15.07 0 00-2.1.152c-3.831.539-6.94 2.35-6.943 4.046 0 1.373 2.026 2.25 4.831 2.25h.573l-.011 5.834a16.942 16.942 0 00-7.892 4.64l-3.797-3.6c1.989-2.865 2.825-5.602 1.868-6.505a1.18 1.18 0 00-.834-.286 2.146 2.146 0 00-.286.023c-1.467.206-3.743 1.862-5.795 4.364-2.713 3.304-4.012 6.829-2.905 7.872.228.203.528.306.834.287.095-.002.191-.01.286-.023 1.198-.17 2.94-1.31 4.66-3.09l3.808 3.583a19.2 19.2 0 00-3.287 8.97l-5.393.759c-.27-3.173-1.324-5.445-2.61-5.445a1.401 1.401 0 00-.155 0c-1.574.223-2.866 3.751-2.866 7.889 0 3.998 1.178 7.095 2.677 7.095a.937.937 0 00.154 0c1.359-.189 2.496-2.842 2.789-6.224l5.393-.756a14.506 14.506 0 003.255 8.052l-3.82 4.648c-1.533-1.163-3.089-1.808-4.258-1.808-.131 0-.263.008-.393.026a1.72 1.72 0 00-1.129.573c-1.115 1.355.175 4.52 2.866 7.061 1.871 1.76 3.932 2.763 5.39 2.763.131 0 .263-.009.393-.026a1.72 1.72 0 001.129-.573c.963-1.172.135-3.686-1.846-5.984l3.823-4.657a12.448 12.448 0 007.468 2.43h.413v5.82c-3.095.746-5.408 2.293-5.41 3.76 0 1.373 2.025 2.25 4.83 2.25a15.134 15.134 0 002.101-.152c3.829-.539 6.938-2.35 6.941-4.046 0-1.376-2.029-2.253-4.831-2.253h-.574v-5.82a16.939 16.939 0 007.895-4.637l3.809 3.583c-1.992 2.865-2.826 5.602-1.871 6.505.23.2.529.302.833.286.096 0 .192-.007.287-.02 1.467-.206 3.74-1.865 5.794-4.364 2.717-3.304 4.012-6.832 2.906-7.875-.23-.2-.53-.303-.834-.287a2.18 2.18 0 00-.286.023c-1.198.17-2.94 1.31-4.66 3.09l-3.808-3.583a19.2 19.2 0 003.287-8.972l5.404-.75c.287 3.171 1.327 5.444 2.614 5.444.051.003.103.003.154 0 1.574-.22 2.866-3.751 2.866-7.886 0-4.012-1.18-7.099-2.68-7.099a1.404 1.404 0 00-.154 0c-1.358.192-2.496 2.843-2.788 6.225l-5.393.756a14.497 14.497 0 00-3.259-8.044l3.826-4.654c1.533 1.147 3.09 1.806 4.258 1.806.132 0 .263-.009.393-.026a1.72 1.72 0 001.129-.59c1.115-1.356-.172-4.517-2.866-7.061-1.871-1.76-3.931-2.763-5.39-2.763-.131 0-.262.008-.393.026a1.72 1.72 0 00-1.129.59c-.96 1.17-.134 3.683 1.846 5.98l-3.834 4.657a12.44 12.44 0 00-7.468-2.427h-.413v-5.82c3.095-.742 5.407-2.292 5.41-3.757 0-1.372-2.026-2.25-4.828-2.25l-.003-.005z" fill="#D97507"/><path fill="#000" d="M99.68 57.001l-.012 6.035-10.683 13.007-6.803-6.393.014-5.21 6.408 6.03z"/></g><path d="M47 24h280.836v192H47z"/><path d="M207 112v33h-.7v-6a5 5 0 00-4.783-4.995L201.3 134h-58.8a5 5 0 00-5 5v6h-.5v-33h.5a5 5 0 005 5h58.8a5 5 0 005-5h.7z" fill="#FFF"/></g></svg>