<svg xmlns="http://www.w3.org/2000/svg" viewBox="0 0 375 240"><g fill="none" fill-rule="evenodd"><g fill-rule="nonzero"><path fill="#000" d="M245.57 115.52c-.7-.1-1.42.01-2.05.35l-3.27 1.78s1.49.78 1.49 1.47l.15 79.27c0 2.29 1.72 4.37 3.84 4.67l38.58 7 3.21-1.74a3.58 3.58 0 001.8-3.26l-.14-79.28c0-2.29-1.72-4.38-3.84-4.67l-39.77-5.6z"/><path fill="#000" d="M282.1 122.87l-39.79-5.59c-2.12-.28-3.83 1.32-3.82 3.6l.15 79.27c0 2.3 1.72 4.38 3.84 4.67l39.77 5.6c2.12.28 3.83-1.32 3.83-3.6l-.15-79.27c0-2.3-1.72-4.38-3.84-4.68"/><path fill="#414141" d="M282.1 122.87l-39.79-5.59c-2.12-.28-3.83 1.32-3.82 3.6l.15 79.27c0 .15 0 .29.02.44l47.25-73.48a4.75 4.75 0 00-3.82-4.24z"/><path fill="#FFF" d="M284.28 129.64l-44.13-6.2.14 74.6 44.13 6.2-.14-74.6"/><path fill="#0073FF" d="M276.49 177.75l-28.37-3.99c-1.6-.22-2.9 1-2.9 2.72v7.67c0 1.72 1.3 3.31 2.9 3.54l28.38 3.99c1.6.22 2.9-1 2.9-2.73v-7.67c0-1.72-1.31-3.3-2.91-3.53"/><path fill="#FFF" d="M252.78 177.03a3.37 3.37 0 00-.96 0c-.3.04-.6.14-.86.3-.25.15-.46.37-.6.63-.16.3-.24.64-.23.99 0 .2.03.4.08.6.05.22.14.42.26.6.13.2.3.4.5.54a3 3 0 00.77.46l1.25.53c.34.14.64.28.9.41a1.1 1.1 0 01.6 1.05c0 .14-.03.29-.08.42a.78.78 0 01-.26.34c-.15.1-.31.17-.48.2a2.96 2.96 0 01-1.42-.2c-.21-.08-.4-.21-.58-.37-.17-.16-.3-.36-.4-.57a2 2 0 01-.14-.79l-1.26-.17c0 .44.09.87.26 1.28.15.36.37.68.65.96.27.27.6.48.95.64a4.18 4.18 0 002.21.33c.32-.05.64-.15.92-.31.27-.16.5-.4.65-.67a2.41 2.41 0 00-1.16-3.27l-.47-.2-.68-.29-.62-.26-.31-.14c-.24-.1-.45-.25-.63-.44a.99.99 0 01-.24-.69c0-.16.04-.33.13-.47.08-.11.19-.2.31-.27.14-.06.28-.1.43-.1a2.04 2.04 0 011.54.48c.3.3.48.7.48 1.13l1.26.18a2.66 2.66 0 00-.83-1.97 3.12 3.12 0 00-.88-.6c-.34-.15-.7-.25-1.07-.3m4.83 5.33c0-.2.04-.39.12-.57.06-.16.16-.31.28-.43.12-.12.27-.21.43-.26a1.28 1.28 0 011.08.16 1.72 1.72 0 01.67.9c.06.18.1.38.12.57l-2.7-.38m1.38-2.29a1.97 1.97 0 00-1.84.63c-.23.26-.4.55-.51.88-.12.36-.18.73-.18 1.11 0 .42.06.83.17 1.23.1.36.28.7.5 1a2.78 2.78 0 001.9 1.1c.27.05.54.05.81 0 .25-.04.5-.14.7-.28.22-.14.4-.32.54-.53.15-.24.26-.5.31-.78l-1.1-.15c-.06.26-.23.48-.45.64-.25.13-.54.17-.81.12a1.52 1.52 0 01-1.07-.65c-.11-.18-.2-.37-.26-.58a2.47 2.47 0 01-.08-.64l3.84.54c.09-.83-.1-1.66-.55-2.36a3.01 3.01 0 00-.82-.86c-.33-.23-.7-.38-1.1-.43m6.08.89a1.57 1.57 0 00-1.63.77l-.02-.03v-.82l-1.09-.16v5.64l1.15.17v-3.33c0-.2.02-.4.09-.58.05-.16.14-.3.25-.44.11-.12.25-.2.4-.25.47-.14.97 0 1.3.37.18.3.27.64.26 1v3.54l1.14.17v-3.88a2 2 0 00-1.85-2.18m5.42 5.73a1.4 1.4 0 01-.65-.25c-.18-.13-.34-.3-.45-.49a2.3 2.3 0 01-.27-.66 3.15 3.15 0 01-.01-1.45c.04-.23.13-.44.25-.63a1.13 1.13 0 011.13-.49c.44.06.83.3 1.06.68.28.45.42.98.4 1.51 0 .24-.03.49-.1.72a1.9 1.9 0 01-.25.6c-.11.17-.27.3-.45.4-.21.09-.44.12-.67.07m2.58-6.59l-1.14-.16v2.87h-.03c-.08-.17-.2-.32-.32-.45a2.3 2.3 0 00-.92-.56c-.16-.06-.33-.1-.5-.12a2.1 2.1 0 00-.83.05c-.28.08-.53.23-.73.43-.23.25-.4.54-.5.86a4.73 4.73 0 00-.04 2.5c.1.36.25.7.46 1.02a2.63 2.63 0 001.84 1.13c.31.05.64.02.94-.08.3-.1.54-.33.68-.6v.75l1.09.16-.01-7.8"/><path fill="#787878" d="M273.77 136.72l-17.21-2.42-5.86 5.5.04 26.7 23.1 3.25-.07-33.03zm-21.94 28.84l-.04-25.05 5.29.74v-5.78l15.62 2.2.05 30.83-20.92-2.94z"/><path fill="#232323" d="M260.4 149.5v-3.04c0-1.11 1.02-1.76 2.13-1.6 1.12.15 2.08 1.08 2.08 2.2v3.02l-4.2-.59m2.11-6.13c-1.87-.27-3.53.95-3.52 2.9v3.03l-1.06-.14a.97.97 0 00-1.05.99v7.56c.03.62.46 1.14 1.06 1.29l9.13 1.28a.97.97 0 001.05-.99v-7.57a1.38 1.38 0 00-1.05-1.28l-1.06-.15v-3.03a4.09 4.09 0 00-3.48-3.9"/><path fill="#000" d="M297.19 156.84l-4.41 2.13a20.37 20.37 0 012.35 9.36c.04 3.13-.8 6.21-2.44 8.88l4.43 3.38a21.9 21.9 0 003.1-11.55 26.76 26.76 0 00-3.03-12.2m9.25-4.46l-4.41 2.13c2.46 4.74 3.76 10 3.8 15.34 0 5.48-1.4 10.42-3.86 14.46l4.42 3.37a33.06 33.06 0 004.54-17.13 40.21 40.21 0 00-4.49-18.17m9.26-4.48l-4.42 2.13a47.18 47.18 0 015.24 21.3c0 7.6-1.91 14.43-5.27 20.04l4.42 3.37a43.07 43.07 0 005.78-18.48s.16-1.66.15-4.07c0-2.41-.17-4.4-.17-4.4a54.16 54.16 0 00-5.73-19.89"/><path fill="#646464" d="M284.28 129.64l-44 68.4 44.14 6.21-.14-74.6" opacity=".15"/></g><g fill-rule="nonzero"><path fill="#E1E1E1" d="M198 179.9h-73.2v-1.54c12.85 0 12.76-11.85 12.76-15.45V86.04c0-4.6 3.74-8.34 8.35-8.34H198c4.6 0 8.34 3.74 8.34 8.34v85.5a8.35 8.35 0 01-8.35 8.35z"/><path fill="#000" d="M152.41 92.37c-.21.24-.44.46-.7.66a4.33 4.33 0 01-1.8.84 5.2 5.2 0 01-1.14.12c-1.07 0-1.88-.26-2.41-.79-.53-.53-.8-1.36-.8-2.5 0-.2 0-.43.03-.68a7.58 7.58 0 01.68-2.5c.17-.35.37-.68.61-1a4.2 4.2 0 013.36-1.61c.39 0 .77.03 1.15.12.3.07.6.18.88.34a2.64 2.64 0 011.12 1.23l-1.54.94a2.58 2.58 0 00-.28-.5c-.1-.12-.22-.23-.36-.32a1.29 1.29 0 00-.44-.18 2.9 2.9 0 00-.58-.06 2.26 2.26 0 00-1.35.45c-.18.14-.35.31-.48.5a5.6 5.6 0 00-.8 2.07 6.18 6.18 0 00-.13 1.17c0 .28.04.56.12.83.06.2.17.38.32.54.12.13.28.23.46.28.18.06.38.1.57.1.23 0 .45-.03.67-.07a2.66 2.66 0 001.11-.54c.2-.16.38-.33.54-.52l1.2 1.08zm.79-.73a5.8 5.8 0 01.87-3.06c.19-.3.41-.57.67-.8a2.65 2.65 0 011.9-.76c.36-.01.7.05 1.03.17.28.11.53.28.73.5l.1-.48h1.58l-1.38 6.6h-1.33l.04-.81-.6.47c-.18.12-.36.22-.55.3-.16.09-.34.14-.51.18-.46.1-.94.07-1.39-.08a1.55 1.55 0 01-.63-.41 1.93 1.93 0 01-.4-.74 3.7 3.7 0 01-.13-1.08zm4.92-2.6a1.82 1.82 0 00-1.27-.6c-.2 0-.42.05-.6.14-.19.1-.36.22-.5.38s-.27.34-.37.54a3.85 3.85 0 00-.43 1.3c-.04.2-.05.4-.05.61-.03.3.04.62.2.88.15.2.39.3.63.29.17 0 .34-.03.5-.08a3.17 3.17 0 00.93-.45l.4-.29.56-2.72zm6.38 4.77l.77-3.64.1-.61c.04-.18.05-.37.05-.55a.55.55 0 00-.15-.43.6.6 0 00-.41-.13c-.18 0-.35.02-.51.08a4.26 4.26 0 00-1.03.52 8.7 8.7 0 00-.48.35l-.93 4.41h-1.58l1.39-6.6h1.59l-.19.85a5.03 5.03 0 011.1-.74c.19-.1.39-.17.6-.22a2.49 2.49 0 011.4.05c.2.07.37.2.5.34.13.15.23.32.28.5.05.2.08.4.08.6a4.34 4.34 0 01-.12 1.05l-.88 4.17h-1.59zm13.61 0h-1.46l-.57-4.21-2.35 4.21h-1.45l-.38-6.6h1.6l.1 4.25 2.35-4.25h1.21l.57 4.21 1.86-4.21h1.65zm4.5-2.88l-.04.29v.25c-.03.32.07.63.29.86.24.2.55.28.86.26.33.01.66-.04.97-.16.27-.11.51-.27.73-.47l.9 1.04c-.15.15-.32.3-.5.42a3.42 3.42 0 01-1.31.52c-.31.06-.62.08-.93.08a3.5 3.5 0 01-1.24-.2 2.04 2.04 0 01-1.3-1.34c-.1-.31-.15-.65-.14-.98 0-1.14.35-2.25 1.01-3.17a3.25 3.25 0 011.1-.94 3.37 3.37 0 011.64-.36c.39-.01.77.04 1.15.15a2 2 0 01.79.44c.2.2.36.45.46.72a3.02 3.02 0 01.12 1.34l-.06.43-.17.83h-4.33zm2.94-1.12c.03-.1.04-.2.05-.29v-.25a1 1 0 00-.23-.73 1.08 1.08 0 00-.8-.24c-.25 0-.5.05-.73.15-.2.1-.38.25-.52.43a2.58 2.58 0 00-.46.93h2.7zm-36.19 16.61l.78-3.64.11-.61c.03-.17.04-.34.05-.51a.61.61 0 00-.15-.47.64.64 0 00-.44-.13c-.17 0-.34.02-.5.08a3.34 3.34 0 00-1.01.52l-.49.35-.92 4.41h-1.59l1.99-9.38h1.58l-.77 3.63a6.18 6.18 0 011.1-.74 2.69 2.69 0 011.28-.3c.24-.01.5.03.74.12a1.28 1.28 0 01.76.86c.05.19.08.39.08.59a4.34 4.34 0 01-.13 1.04l-.87 4.17-1.6.01zm5.1-2.88l-.04.29v.25c-.03.32.07.63.29.86.24.19.55.28.86.26.33.01.66-.04.97-.16.27-.11.51-.27.73-.47l.9 1.04c-.15.15-.32.3-.5.42-.18.13-.37.24-.57.32-.24.1-.48.17-.73.2-.3.06-.62.08-.93.08-.42 0-.84-.06-1.24-.2a2.04 2.04 0 01-1.3-1.34c-.1-.31-.14-.65-.14-.98a5.44 5.44 0 011.01-3.17 3 3 0 011.86-1.2c.29-.07.58-.1.88-.1.39-.01.78.04 1.15.15a2 2 0 01.79.44c.2.2.37.45.46.72a2.94 2.94 0 01.12 1.34l-.06.42-.17.84h-4.34zm2.95-1.12a4.85 4.85 0 00.06-.54 1 1 0 00-.23-.73 1.08 1.08 0 00-.8-.24c-.26 0-.51.05-.74.15-.2.1-.38.25-.51.43a2.88 2.88 0 00-.46.93h2.68zm2.02 4l2-9.38H163l-1.98 9.38zm4.31 2.48h-1.57l1.9-9.09h1.46l-.12.65a4.7 4.7 0 011.03-.61 2.66 2.66 0 011.94-.1c.25.09.47.23.65.42.2.21.33.46.41.73.1.35.15.72.14 1.08a6.12 6.12 0 01-.77 2.91c-.18.32-.4.6-.67.86a2.9 2.9 0 01-3.05.67c-.27-.1-.52-.28-.72-.5l-.63 2.99zm.92-4.31a1.62 1.62 0 00.54.4 1.73 1.73 0 00.72.19c.21 0 .42-.05.61-.14.18-.1.35-.22.49-.37.15-.17.28-.35.38-.54a4 4 0 00.43-1.3c.03-.2.05-.41.05-.62.02-.3-.05-.62-.22-.88a.89.89 0 00-.74-.28c-.14 0-.28.01-.42.05a3.62 3.62 0 00-.86.34c-.13.07-.26.16-.38.25l-.6 2.9zm8.01 2.71a2.5 2.5 0 00.95.19 1.04 1.04 0 00.7-.27c.13-.1.25-.24.36-.38.14-.19.28-.39.4-.6l.23-.38-1.05-6.05h1.6l.64 4.26 2.44-4.26h1.7l-4.28 7.06c-.2.32-.4.63-.63.92-.18.24-.4.45-.64.64-.22.16-.47.28-.73.36a3.3 3.3 0 01-1.57.05c-.22-.04-.45-.1-.68-.17l.56-1.36zm7.47-3.28a5.52 5.52 0 01.64-2.55 3.55 3.55 0 011.68-1.58 3.93 3.93 0 012.62-.1 2.15 2.15 0 011.36 1.35c.13.38.2.79.19 1.2a5.44 5.44 0 01-.7 2.52 3.97 3.97 0 01-1.17 1.25c-.18.12-.37.22-.57.29a3.2 3.2 0 01-.66.15c-.26.04-.52.05-.78.05-.41.01-.82-.05-1.2-.18-.62-.2-1.1-.7-1.27-1.32-.1-.35-.14-.71-.14-1.08zm1.68.02c0 .17.01.33.05.5a.81.81 0 00.52.58c.17.05.35.07.52.07.25 0 .5-.05.72-.16a1.94 1.94 0 00.87-.93 4.24 4.24 0 00.46-1.72 1.5 1.5 0 00-.28-.98 1.08 1.08 0 00-.88-.34c-.25 0-.5.05-.71.17-.21.12-.4.28-.55.47-.12.15-.22.32-.3.49a4.35 4.35 0 00-.42 1.85zm8.19-4.23l-.77 3.64a9.1 9.1 0 00-.15 1.06c-.02.19.03.37.14.52.12.1.27.16.43.15.17 0 .34-.03.5-.08a4.26 4.26 0 001.02-.52c.17-.11.33-.23.48-.35l.93-4.42h1.59l-1.4 6.61h-1.59l.19-.86a5.93 5.93 0 01-1.08.73 2.38 2.38 0 01-1.98.18c-.2-.07-.37-.19-.52-.34a1.25 1.25 0 01-.28-.5c-.06-.2-.09-.4-.09-.6a5 5 0 01.12-1.05l.88-4.16H190zm5.6 3.96l.38-1.76c.53-.22.96-.42 1.32-.6.3-.14.59-.31.86-.52.2-.13.35-.31.47-.52.09-.17.14-.37.13-.57a.66.66 0 00-.23-.57c-.24-.14-.52-.2-.8-.18a1.86 1.86 0 00-1.31.53 4.1 4.1 0 00-.37.4l-1.27-.9c.19-.25.4-.49.63-.7.42-.4.94-.66 1.5-.78.31-.06.62-.1.94-.09.9 0 1.6.16 2.06.49.48.35.75.93.7 1.53 0 .35-.07.69-.22 1-.16.32-.37.61-.63.86-.3.28-.62.53-.98.73-.41.25-.84.46-1.28.66l-.22 1h-1.68zm1.56 1.4a1.77 1.77 0 01-.2.8.95.95 0 01-.4.42c-.22.08-.45.12-.68.12a1.1 1.1 0 01-.64-.15.52.52 0 01-.2-.44c0-.13.02-.25.05-.37l.12-.36c.07-.2.2-.36.38-.47.22-.1.47-.16.71-.15.23-.01.46.04.66.14.14.12.21.3.2.47zm-44.19 20.66c0 .23 0 .48-.04.75s-.06.55-.12.83a8.73 8.73 0 01-.5 1.7 5.02 5.02 0 01-.97 1.43 3.48 3.48 0 01-1.58.85c-.31.09-.64.15-.96.19-.36.04-.7.05-1.06.05h-2.6l1.84-8.71h2.47c.52 0 1.03.04 1.53.15.4.08.77.24 1.1.49.3.23.52.54.66.9.16.43.24.9.23 1.37zm-5.08 4.18c.26 0 .5 0 .72-.02a3.6 3.6 0 001.1-.27c.14-.07.28-.17.4-.29.18-.19.33-.41.44-.66a7.53 7.53 0 00.62-2.78c0-.24-.04-.48-.12-.7a.97.97 0 00-.35-.44 1.5 1.5 0 00-.57-.23 4.36 4.36 0 00-.83-.07h-.92l-1.17 5.46h.68zm5.59-.77a5.77 5.77 0 01.63-2.55 3.46 3.46 0 011.68-1.58 3.91 3.91 0 012.61-.1 2.17 2.17 0 011.36 1.35c.13.38.2.79.19 1.2a4.69 4.69 0 01-.3 1.6c-.1.32-.24.63-.4.92a3.87 3.87 0 01-1.16 1.26 3.2 3.2 0 01-1.24.44c-.26.04-.52.05-.78.05-.4.01-.81-.05-1.2-.18a2 2 0 01-.8-.52 1.98 1.98 0 01-.46-.82c-.1-.35-.14-.7-.13-1.07zm1.67.02c0 .17.02.33.06.49.03.13.1.25.18.36.1.1.21.18.34.22.17.06.34.08.52.08.25 0 .5-.05.72-.17a1.94 1.94 0 00.87-.92 4.62 4.62 0 00.4-1.18c.04-.18.06-.36.06-.54a1.5 1.5 0 00-.29-.98 1.07 1.07 0 00-.88-.35c-.24 0-.49.06-.7.18a1.88 1.88 0 00-.84.96 4.01 4.01 0 00-.38 1.24 6 6 0 00-.06.61zm7.92 3.26a2.53 2.53 0 00.95.19c.12 0 .24-.02.35-.06.12-.05.24-.12.34-.2.14-.12.26-.25.37-.4.14-.18.27-.38.4-.58l.23-.39-1.04-6.05h1.58l.65 4.26 2.44-4.26h1.7l-4.28 7.06c-.2.32-.4.63-.63.92-.18.24-.4.45-.64.63-.22.17-.47.29-.74.37a3.26 3.26 0 01-1.55.05c-.23-.05-.46-.1-.69-.17l.56-1.37zm7.47-3.28a5.77 5.77 0 01.64-2.55 3.46 3.46 0 011.67-1.58 3.91 3.91 0 012.62-.1 2.17 2.17 0 011.36 1.35c.13.38.2.79.18 1.2a4.69 4.69 0 01-.29 1.6c-.1.32-.24.63-.4.92a3.87 3.87 0 01-1.17 1.26 3.2 3.2 0 01-1.24.44 4.9 4.9 0 01-.77.05c-.41.01-.82-.05-1.2-.18a2 2 0 01-.8-.52 1.98 1.98 0 01-.46-.82c-.1-.35-.15-.7-.14-1.07zm1.68.02c0 .17.01.33.05.49.04.13.1.25.19.36.1.1.2.18.34.22.16.06.34.08.51.08.25 0 .5-.05.72-.17a1.91 1.91 0 00.87-.92 4.22 4.22 0 00.46-1.72 1.5 1.5 0 00-.28-.98 1.07 1.07 0 00-.88-.35c-.25 0-.5.06-.71.18a1.88 1.88 0 00-.84.96 4.01 4.01 0 00-.37 1.24c-.04.2-.06.4-.06.61zm8.19-4.23l-.77 3.64a9.28 9.28 0 00-.15 1.06c-.02.18.03.37.14.52.12.1.27.16.43.15.17 0 .34-.03.5-.08a3.1 3.1 0 001.02-.52c.17-.11.33-.23.48-.35l.93-4.42h1.58l-1.39 6.6h-1.58l.18-.85a6.44 6.44 0 01-1.07.73c-.19.1-.38.17-.58.23-.2.05-.4.08-.6.08-.28.01-.55-.03-.81-.13a1.28 1.28 0 01-.8-.85c-.06-.19-.09-.4-.09-.6a4.45 4.45 0 01.12-1.04l.88-4.17h1.58zm-28.36 19.22h-1.46l-.57-4.21-2.35 4.21h-1.45l-.37-6.61h1.6l.1 4.26 2.34-4.26h1.2l.58 4.22 1.85-4.22h1.65zm2.79-2.17a5.65 5.65 0 01.39-2.08c.13-.34.29-.67.48-.98.19-.3.41-.57.67-.8a2.65 2.65 0 011.9-.76c.36-.02.7.04 1.03.17.28.1.53.28.73.5l.1-.49h1.58l-1.38 6.6h-1.33l.04-.8c-.2.16-.4.32-.6.46-.18.12-.36.23-.55.31-.16.08-.33.14-.51.18-.46.09-.94.06-1.39-.08a1.54 1.54 0 01-.63-.42 1.9 1.9 0 01-.4-.73 3.7 3.7 0 01-.13-1.08zm4.93-2.6a1.78 1.78 0 00-1.27-.59c-.21-.01-.42.04-.6.13-.2.1-.36.22-.5.37-.15.17-.28.35-.38.55a4.1 4.1 0 00-.48 1.9c-.02.31.05.62.2.89.15.2.4.3.64.28.17 0 .33-.02.5-.07a3.05 3.05 0 00.93-.46l.39-.28.57-2.73zm6.37 4.77l.77-3.64.11-.62c.03-.18.05-.36.05-.54a.55.55 0 00-.15-.44.6.6 0 00-.42-.13c-.17 0-.34.03-.5.08a4.26 4.26 0 00-1.03.52 8.7 8.7 0 00-.48.36l-.93 4.4h-1.59l1.4-6.6h1.58l-.18.86a5.03 5.03 0 011.09-.74c.2-.1.4-.17.6-.22a2.5 2.5 0 011.41.04 1.28 1.28 0 01.77.85c.06.2.09.4.09.6a4.33 4.33 0 01-.12 1.04l-.88 4.17h-1.6zm6.72 0a4.87 4.87 0 01-1.34.2 2.6 2.6 0 01-.8-.12 1.22 1.22 0 01-.86-.8 1.61 1.61 0 01-.1-.65c0-.13 0-.26.02-.39l.08-.44.65-3.12h-.8l.28-1.29h.8l.4-1.84h1.6l-.4 1.84h1.51l-.28 1.3h-1.51l-.66 3.1a2.8 2.8 0 00-.06.5c-.02.15.03.31.13.44.1.08.22.13.35.12.17 0 .33-.01.5-.04.16-.02.33-.06.48-.12l.01 1.3zm7.99 0a4.27 4.27 0 01-1.34.2 2.6 2.6 0 01-.81-.12c-.2-.06-.4-.17-.55-.31-.15-.14-.25-.3-.32-.5-.06-.2-.1-.42-.1-.64l.03-.39.09-.44.65-3.12h-.81l.27-1.29h.81l.4-1.84h1.6l-.4 1.84h1.51l-.27 1.3h-1.51l-.66 3.1a2.8 2.8 0 00-.06.5c-.02.15.03.31.14.44.1.08.22.13.35.12a3.9 3.9 0 00.98-.16v1.3zm.94-2.4a5.77 5.77 0 01.64-2.56 3.46 3.46 0 011.67-1.57 3.91 3.91 0 012.62-.1 2.15 2.15 0 011.36 1.35c.13.38.2.79.18 1.19a5.44 5.44 0 01-.7 2.53 3.87 3.87 0 01-1.15 1.25 3.2 3.2 0 01-1.24.44c-.25.03-.51.05-.77.05-.4.01-.82-.05-1.2-.18-.62-.2-1.1-.7-1.27-1.32-.1-.35-.14-.72-.14-1.08zm1.68.02c0 .17.01.33.05.49.04.13.1.25.19.36.1.1.2.17.34.22.16.06.34.08.51.08.25 0 .5-.05.72-.17a1.94 1.94 0 00.88-.92 4.24 4.24 0 00.45-1.72 1.5 1.5 0 00-.28-.98 1.07 1.07 0 00-.88-.35c-.25 0-.5.06-.71.18a1.9 1.9 0 00-.84.96 4.01 4.01 0 00-.37 1.24c-.04.2-.06.4-.06.61zm-34.12 14.99l.78-3.64.11-.61c.03-.17.04-.34.05-.51a.61.61 0 00-.15-.47.64.64 0 00-.44-.14c-.17 0-.34.03-.5.08a3.34 3.34 0 00-1.01.52c-.17.12-.33.23-.49.36l-.92 4.4h-1.59l1.99-9.37h1.58l-.77 3.63a6.18 6.18 0 011.1-.75 2.69 2.69 0 011.28-.3c.24 0 .5.04.74.13a1.28 1.28 0 01.76.85c.05.2.08.4.08.6a4.34 4.34 0 01-.13 1.04l-.87 4.17h-1.6zm5.1-2.88l-.04.28v.26c-.03.31.07.63.29.86.24.19.55.28.86.26.33 0 .66-.05.97-.17.27-.1.51-.26.73-.46l.9 1.03c-.15.16-.32.3-.5.43s-.37.24-.57.32c-.24.1-.48.16-.73.2-.3.05-.62.07-.93.07-.42.01-.84-.05-1.24-.2a2.04 2.04 0 01-1.3-1.34c-.1-.3-.14-.64-.14-.98a5.44 5.44 0 011.01-3.16 3 3 0 011.86-1.21c.29-.07.58-.1.88-.1.39 0 .78.04 1.15.15a2 2 0 01.79.45c.2.2.37.44.46.72a2.94 2.94 0 01.12 1.34l-.06.42-.17.84-4.34-.01zm2.95-1.13a4.85 4.85 0 00.06-.54 1 1 0 00-.23-.72 1.08 1.08 0 00-.8-.24c-.26-.01-.51.04-.74.15-.2.1-.38.25-.51.43a2.88 2.88 0 00-.46.93h2.68zm2.02 4.01l2-9.38H163l-1.98 9.38zm4.31 2.48h-1.57l1.9-9.09h1.46l-.12.65a4.7 4.7 0 011.03-.62 2.66 2.66 0 011.94-.09c.25.09.47.23.65.42.2.2.33.46.41.73.1.35.15.71.14 1.08a6.12 6.12 0 01-.77 2.9c-.18.32-.4.61-.67.87a2.9 2.9 0 01-3.05.67c-.27-.1-.52-.28-.72-.5l-.63 2.98zm.92-4.32a1.62 1.62 0 00.54.41 1.73 1.73 0 00.72.18c.21 0 .42-.04.61-.14.18-.09.35-.22.49-.37.15-.16.28-.34.38-.54a4 4 0 00.43-1.3c.03-.2.05-.4.05-.61.02-.31-.05-.62-.22-.88a.89.89 0 00-.74-.29c-.14 0-.28.02-.42.05a3.62 3.62 0 00-.86.34l-.38.25-.6 2.9zm-19.24 12.05a6.08 6.08 0 01.27-1.66c.1-.3.22-.61.37-.9a3.46 3.46 0 011.67-1.57 3.93 3.93 0 012.62-.1 2.15 2.15 0 011.36 1.35c.13.38.2.78.19 1.19a4.69 4.69 0 01-.3 1.61c-.1.32-.24.62-.4.91a3.88 3.88 0 01-1.17 1.27 3.21 3.21 0 01-1.23.44c-.26.03-.52.05-.78.05-.41.01-.82-.05-1.2-.18a1.94 1.94 0 01-1.24-1.34c-.1-.35-.16-.7-.16-1.07zm1.68.02c0 .16.02.33.06.49.03.13.1.25.18.35.1.1.21.18.34.23.16.05.34.08.51.07.25.01.5-.05.72-.16a1.94 1.94 0 00.88-.92 3.91 3.91 0 00.46-1.72 1.5 1.5 0 00-.29-.99 1.08 1.08 0 00-.88-.34c-.25 0-.5.06-.71.18-.21.12-.4.27-.55.46a4.35 4.35 0 00-.73 2.35zm8.83 2.37a4.87 4.87 0 01-1.34.2c-.27 0-.55-.03-.8-.11a1.22 1.22 0 01-.86-.8c-.08-.22-.11-.43-.1-.65 0-.13 0-.26.02-.39.02-.14.04-.28.08-.44l.65-3.12h-.81l.29-1.3h.8l.41-1.83h1.6l-.4 1.84h1.5l-.28 1.29h-1.5l-.66 3.11a2.75 2.75 0 00-.07.5c-.02.15.03.31.14.43.1.09.22.13.35.13.16 0 .33-.02.5-.04.16-.02.32-.06.48-.12v1.3zm4.96 0l.77-3.64.12-.6c.02-.17.04-.34.04-.52a.61.61 0 00-.15-.46.64.64 0 00-.44-.14c-.17 0-.34.03-.5.08a3.34 3.34 0 00-1.01.52c-.17.12-.33.23-.48.36l-.93 4.4h-1.58l1.98-9.37h1.59l-.78 3.63a6.18 6.18 0 011.1-.75 2.69 2.69 0 011.28-.3c.25 0 .5.04.74.13.38.15.66.47.76.86.05.2.08.4.08.6a4.34 4.34 0 01-.12 1.04l-.87 4.16h-1.6zm5.08-2.87l-.04.28v.26c-.03.31.07.63.29.86.24.19.55.28.86.26.33 0 .66-.05.97-.17.27-.1.51-.27.73-.46l.9 1.03c-.15.16-.32.3-.5.43s-.37.23-.58.32c-.23.1-.47.16-.72.2-.3.05-.62.07-.93.07-.42.01-.84-.06-1.24-.2a2.04 2.04 0 01-1.3-1.34c-.1-.31-.14-.64-.14-.98a5.44 5.44 0 011.01-3.16 3 3 0 011.85-1.21c.3-.07.6-.1.89-.1.39 0 .77.04 1.15.15a2 2 0 01.77.44c.2.2.36.45.46.72a2.94 2.94 0 01.12 1.34l-.06.42-.17.84h-4.32zm2.94-1.13a4.85 4.85 0 00.07-.54 1 1 0 00-.23-.72 1.08 1.08 0 00-.8-.24c-.26-.01-.51.04-.74.15-.2.1-.38.25-.51.43a2.88 2.88 0 00-.46.93h2.67zm6.99-1a.99.99 0 00-.25-.1 1.5 1.5 0 00-.37-.04c-.31 0-.61.08-.88.22-.34.18-.66.39-.96.63l-.9 4.3h-1.59l1.4-6.6h1.6l-.2.93c.31-.3.66-.56 1.03-.77a2 2 0 011.2-.27l.23.03c.07 0 .14.03.2.05l.14.05-.65 1.57zm1.28 3.2a1.27 1.27 0 00.56.53 2.35 2.35 0 00.78.14c.34.03.68-.04 1-.2a.6.6 0 00.26-.76.47.47 0 00-.17-.2 1.48 1.48 0 00-.36-.18 6.52 6.52 0 00-.62-.2 5.08 5.08 0 01-.93-.32 2 2 0 01-.57-.41 1.28 1.28 0 01-.32-.52 2.22 2.22 0 01.1-1.5c.12-.27.3-.51.54-.7.26-.22.57-.39.9-.49.4-.13.82-.19 1.24-.18.5-.01 1.01.08 1.48.27.42.18.78.48 1.04.86l-1.36.86c-.12-.21-.3-.38-.5-.5a1.7 1.7 0 00-.82-.17c-.17 0-.33.02-.5.06-.11.04-.23.09-.33.16a.61.61 0 00-.2.2.42.42 0 00-.05.2c0 .1 0 .18.03.25.03.08.08.15.14.2.09.07.19.13.29.17.16.07.33.12.5.17.36.08.7.2 1.03.34.24.1.46.24.65.41.16.15.28.33.35.53a2 2 0 01.1.67 2.1 2.1 0 01-.77 1.64c-.28.22-.6.38-.94.48a5.58 5.58 0 01-2.27.1 3.1 3.1 0 01-.72-.21c-.2-.1-.37-.22-.53-.37a2.46 2.46 0 01-.4-.5l1.37-.83zm6.18-.84l.39-1.76c.52-.22.95-.42 1.3-.6.31-.14.6-.32.87-.52.19-.14.35-.32.47-.52.09-.18.13-.38.13-.58a.67.67 0 00-.23-.57c-.24-.14-.52-.2-.8-.18a1.84 1.84 0 00-1.32.53l-.37.41-1.25-.89c.18-.26.4-.5.63-.7a3.2 3.2 0 011.5-.78c.3-.07.62-.1.93-.1.91 0 1.6.17 2.07.5.48.35.74.93.7 1.52 0 .35-.07.7-.22 1-.16.33-.37.62-.63.86-.3.29-.63.53-.98.74-.42.24-.85.46-1.28.65l-.22 1-1.69-.01zm1.56 1.4c0 .28-.06.56-.19.8a.95.95 0 01-.42.41c-.2.09-.43.13-.66.12-.23.02-.45-.03-.65-.14a.52.52 0 01-.19-.45 2.24 2.24 0 01.16-.73.9.9 0 01.38-.47c.22-.1.47-.15.71-.14.23-.02.46.03.66.14.14.1.22.28.2.46z"/><path fill="#0051BA" d="M193.98 64.55l5.83-3.5c.52-.32 1.3-.45 2.4-.32l-5.83 3.5c-1.1-.13-1.87 0-2.4.32z"/><g fill="#0051BA"><path d="M250.57 81.5l5.82-3.5a38.79 38.79 0 01-1.19 3.59l-5.82 3.5c.45-1.17.86-2.37 1.19-3.59m-1.19 3.59l5.82-3.49a31.52 31.52 0 01-4.1 7.53l-5.82 3.5a31.62 31.62 0 004.1-7.54"/><path d="M245.28 92.62l5.82-3.5a23.264 23.264 0 01-6.57 6.05l-5.82 3.5a23.13 23.13 0 006.57-6.05"/></g><g fill="#0051BA"><path d="M252.12 71.2l5.83-3.52c.25.03.5.06.74.11l-5.83 3.5a7.33 7.33 0 00-.74-.1m.74.11l5.83-3.5c.37.07.73.18 1.07.35l-5.82 3.5c-.34-.16-.7-.28-1.08-.35m1.08.35l5.82-3.5c.22.1.42.23.6.38l-5.82 3.5a3.05 3.05 0 00-.6-.38"/><path d="M254.54 72.03l5.83-3.5c.22.18.4.4.55.63l-5.82 3.5a2.56 2.56 0 00-.56-.63m.56.64l5.82-3.5c.16.25.27.53.33.83l-5.82 3.5a3.13 3.13 0 00-.33-.83"/><path d="M255.43 73.5l5.82-3.5c.13.6.15 1.22.06 1.83l-5.83 3.5c.1-.6.07-1.22-.05-1.82"/><path d="M255.48 75.33l5.83-3.5a15.6 15.6 0 01-.67 2.82l-5.83 3.51a15.1 15.1 0 00.67-2.83m-.67 2.83l5.83-3.5c-.22.57-.5 1.1-.86 1.6l-5.83 3.51c.36-.5.66-1.04.88-1.6"/><path d="M253.94 79.77l5.82-3.5c-.34.47-.78.87-1.28 1.18l-5.82 3.5c.5-.3.93-.7 1.28-1.18"/></g><g fill="#0051BA"><path d="M206.56 39.78l5.83-3.51c4.3-2.58 10.12-3.68 17.8-2.74 1.27.16 2.5.35 3.66.6l-5.82 3.5c-1.17-.24-2.4-.44-3.66-.6-7.69-.94-13.51.16-17.8 2.75"/><path d="M228.03 37.63l5.81-3.5c2.9.57 5.72 1.5 8.38 2.79l-5.8 3.5a35.25 35.25 0 00-8.38-2.79m8.38 2.79l5.83-3.5c1.92.93 3.73 2.08 5.39 3.43l-5.84 3.51a27.51 27.51 0 00-5.38-3.44m5.38 3.44l5.83-3.5c2.15 1.77 4 3.88 5.47 6.25l-5.83 3.5a25.48 25.48 0 00-5.47-6.25m5.47 6.25l5.83-3.5a30.95 30.95 0 013.79 9.4l-5.82 3.52a30.9 30.9 0 00-3.8-9.4"/><path d="M251.07 59.53l5.82-3.5a45.09 45.09 0 011.08 10.32c0 .44 0 .89-.02 1.34l-5.83 3.5.03-1.34c.04-3.47-.33-6.93-1.08-10.32"/></g><path fill="#66ABFF" d="M227.49 101.39a27.1 27.1 0 01-20.47-9.22c-4.07-4.48-7.12-10.43-8.85-17.2l-.04-.16-.17-.04c-3.02-.7-4.01-4.05-4.27-5.05-.43-1.8-.72-3.6.02-4.54.37-.47.98-.7 1.86-.7.26 0 .52.02.77.05l.32.05v-1.56c.04-11.87 3.97-26.02 22.5-26.02 1.72.01 3.45.12 5.16.33 9.61 1.18 16.84 4.94 21.49 11.18 4.05 5.43 6.08 12.6 6.05 21.37 0 .44 0 .9-.02 1.33v.27l.26.02c1.32.13 2.2.53 2.68 1.23.78 1.1.47 2.85.03 4.57-.24.92-1.25 3.94-4.16 3.94h-.28l-.06.22c-1.61 5.77-4.36 10.64-7.93 14.08a20.8 20.8 0 01-14.88 5.88l-.01-.03z"/><path fill="#0051BA" d="M219.18 36.7v.58c1.7 0 3.42.11 5.11.33 9.55 1.17 16.7 4.88 21.3 11.03 4.01 5.38 6.02 12.51 6 21.21 0 .44 0 .89-.03 1.32l-.01.54.53.06c1.23.11 2.03.47 2.47 1.1.71 1.01.41 2.68-.02 4.33-.22.87-1.17 3.72-3.88 3.72h-.51l-.12.43c-1.59 5.73-4.3 10.55-7.85 13.95a20.5 20.5 0 01-14.67 5.8 26.82 26.82 0 01-20.25-9.13c-4.04-4.44-7.08-10.34-8.8-17.08l-.08-.33-.34-.08c-2.92-.67-3.88-4.15-4.05-4.84-.39-1.65-.7-3.45-.04-4.3.32-.39.86-.57 1.64-.57.25 0 .5.02.74.05l.63.07.01-.62v-1.25c.04-11.75 3.93-25.73 22.22-25.73v-.58m0 0c-16.73 0-22.74 11.51-22.79 26.3v1.24a6.96 6.96 0 00-.81-.05c-3.18 0-2.8 2.86-2.16 5.58.31 1.32 1.46 4.57 4.48 5.26 3.24 12.74 11.78 24.65 26.26 26.44 1.1.14 2.22.2 3.33.2 12.48 0 20.02-9.18 23.08-20.17h.08c2.97 0 4.12-2.93 4.44-4.16.71-2.76 1.12-5.76-2.96-6.15l.03-1.34c.05-16.23-7.1-30.27-27.8-32.81a41.89 41.89 0 00-5.19-.34z"/><path fill="#000" d="M230.13 88.05c.83.14 1.43.86 1.43 1.7a1.29 1.29 0 01-1.43 1.34l-11.5-1.42a1.72 1.72 0 01-1.42-1.7 1.28 1.28 0 011.43-1.33l11.5 1.41zm-21.4-23.46a4.2 4.2 0 013.51 4.14c0 2.05-1.59 3.52-3.53 3.28a4.2 4.2 0 01-3.51-4.14c0-2.05 1.59-3.52 3.53-3.28z"/><path fill="#F5F5F5" d="M210.03 65.94a1 1 0 01.84 1 .75.75 0 01-.86.78 1 1 0 01-.81-1 .75.75 0 01.83-.78z"/><path fill="#000" d="M241.44 68.6a4.2 4.2 0 013.51 4.15c0 2.05-1.59 3.52-3.53 3.28a4.2 4.2 0 01-3.5-4.15c0-2.05 1.58-3.52 3.52-3.28z"/><path fill="#F5F5F5" d="M242.86 70a1 1 0 01.84 1 .75.75 0 01-.85.79 1 1 0 01-.84-1 .76.76 0 01.85-.78z"/><path fill="#999298" d="M121.94 149.15l6.53 3.55c-.51-.28-1.26-.37-2.32-.19l-6.53-3.55c1.06-.18 1.8-.1 2.32.19zM72.5 170.72l-2.6-1.43c-.6-1-.77-2.3-.93-2.98-.69-2.74-1.07-5.73 2.88-6.28l-6.53-3.55c-3.95.56-3.57 3.54-2.89 6.28.25.98.48 3.23 2.04 4.07l1.68.91c2 7 6.12 13.07 12.13 16.34l6.53 3.55c-6.18-3.36-10.36-9.67-12.3-16.9zm36.69-46.52l6.53 3.56c-4.1-2.23-9.56-3.09-16.64-2.09-20.16 2.84-27.19 16.94-27.22 33.13v1.23l-6.54-3.55v-1.23c.03-16.19 7.05-30.3 27.22-33.13 7.08-1 12.54-.15 16.65 2.08z"/><path fill="#D8D1D4" d="M95.18 189.86a21.13 21.13 0 01-14.58-5.63c-3.66-3.37-6.38-8.1-7.86-13.65l-.06-.22h-.34c-2.27 0-2.75-2.3-3.04-3.68l-.11-.5c-.43-1.72-.72-3.46.06-4.61.48-.71 1.32-1.15 2.58-1.32l.24-.03v-1.48c0-8.73 2.03-15.93 6-21.4 4.55-6.28 11.6-10.13 20.96-11.45 1.83-.26 3.68-.4 5.53-.4 6.27 0 11.25 1.79 14.78 5.33 4.31 4.32 6.5 11.15 6.47 20.29 0 .44 0 .9-.02 1.33v.35l.35-.06c.31-.05.63-.08.95-.08.76 0 1.3.2 1.62.6.7.9.41 2.7-.02 4.5l-.12.6c-.29 1.48-.75 3.95-3.15 4.54l-.17.04-.04.17a39.58 39.58 0 01-9.15 17.27 28.86 28.86 0 01-17.22 9.22c-1.21.17-2.43.26-3.66.27z"/><path fill="#999298" d="M104.58 125.2v.57c6.2 0 11.1 1.77 14.58 5.25 4.26 4.27 6.4 11.03 6.39 20.09 0 .44 0 .88-.02 1.32l-.02.7.69-.11c.3-.06.6-.08.9-.09.67 0 1.12.17 1.4.5.63.8.31 2.6-.07 4.25-.05.18-.09.4-.13.62-.29 1.5-.72 3.76-2.93 4.32l-.33.08-.1.33a39.8 39.8 0 01-9.08 17.14 28.58 28.58 0 01-17.04 9.14c-1.2.17-2.42.26-3.64.26-5.56 0-10.4-1.87-14.39-5.55-3.61-3.34-6.3-8.01-7.78-13.52l-.11-.44-.46.02h-.1c-1.88 0-2.4-1.7-2.76-3.44l-.11-.52c-.41-1.65-.7-3.32.01-4.38.44-.63 1.22-1.03 2.4-1.2l.48-.06v-1.74c0-8.66 2-15.81 5.95-21.24 4.5-6.2 11.49-10.03 20.77-11.32a39.7 39.7 0 015.48-.4v-.58m0 0a40 40 0 00-5.56.41c-20.16 2.84-27.19 16.94-27.22 33.13v1.23c-3.95.56-3.57 3.54-2.89 6.28.3 1.22.6 4.4 3.44 4.4h.13c2.88 10.79 10.71 19.49 22.72 19.49 1.25 0 2.5-.09 3.73-.27 14.1-1.98 23.39-13.95 26.6-26.7 2.95-.74 3.17-4.04 3.48-5.36.63-2.67 1.01-5.45-1.88-5.45-.34 0-.67.04-1 .1l.02-1.35c.03-14.6-5.64-25.9-21.54-25.9l-.03-.01z"/><path fill="#000" d="M125.87 157.22a4.13 4.13 0 013.65 1.3 6 6 0 011.43 4.1 9.74 9.74 0 01-1.3 4.66 15.82 15.82 0 01-4.2 4.75 26.03 26.03 0 01-4.8 2.9c-3.6 1.72-8.27 3.13-14.26 3.98l-.17.03a.67.67 0 01-.76-.72c0-.46.32-.85.76-.94l.17-.02c6.71-.96 11.66-2.62 15.19-4.54l.48-.27c3.27-1.88 5.25-3.97 6.3-5.9a7.75 7.75 0 001.05-3.72 4.79 4.79 0 00-.86-2.83 2.78 2.78 0 00-2.7-1.14.68.68 0 01-.76-.71c0-.46.32-.85.78-.93z"/><path fill="#000" d="M106.9 175.34c1-.15 1.97.46 2.26 1.44l-.17.02a.95.95 0 00-.76.93.68.68 0 00.76.72l.17-.02a2.91 2.91 0 01-2.28 2.08l-8.71 1.22c-1.33.19-2.4-.82-2.4-2.24 0-1.43 1.08-2.74 2.4-2.93l8.72-1.22zm-22.98-18.17c1.9-.26 3.44 1.18 3.43 3.22-.02 2.05-1.55 3.92-3.44 4.19-1.9.26-3.44-1.18-3.44-3.22s1.56-3.92 3.45-4.19z"/><path fill="#EFEFEF" d="M85.45 158.11a.73.73 0 01.82.77c0 .5-.34.92-.82 1.01a.73.73 0 01-.82-.77c0-.5.34-.91.82-1z"/><path fill="#000" d="M115.79 152.7c1.9-.27 3.42 1.17 3.42 3.22 0 2.04-1.54 3.91-3.44 4.18-1.9.27-3.44-1.18-3.42-3.22.01-2.04 1.54-3.92 3.44-4.19z"/><path fill="#EFEFEF" d="M117.46 153.62a.73.73 0 01.82.78c0 .48-.34.9-.82 1a.73.73 0 01-.82-.77c0-.5.34-.91.82-1z"/></g><g fill-rule="nonzero"><g fill="#D97507"><path d="M109.4 73.97l2.48 1.35a1.47 1.47 0 00-.92-.12c-1.2.17-2.94 1.3-4.66 3.09l-2.49-1.35c1.72-1.78 3.46-2.93 4.66-3.1.32-.05.64 0 .93.13z"/><path d="M106.3 78.29l-2.49-1.35.68-.67 2.49 1.35c-.23.2-.46.43-.68.67"/><path d="M106.98 77.62l-2.49-1.35c.67-.65 1.41-1.22 2.2-1.7l2.5 1.34c-.8.5-1.54 1.07-2.21 1.72"/><path d="M109.19 75.91l-2.49-1.35c.36-.22.75-.4 1.15-.55l2.48 1.35c-.4.15-.78.33-1.15.55"/><path d="M110.33 75.36L107.85 74c.2-.08.42-.13.64-.16h.08l2.48 1.35h-.08c-.22.03-.43.08-.64.16"/><path d="M111.04 75.19l-2.49-1.35c.3-.05.59 0 .85.13l2.48 1.35a1.43 1.43 0 00-.84-.13m-8.57 12.39l-2.49-1.35a.951.951 0 01-.2-.15c-.96-.9-.13-3.64 1.86-6.5l2.49 1.35c-2 2.87-2.83 5.6-1.87 6.5a.9.9 0 00.2.15z"/><path d="M102.47 87.58l-2.49-1.35a1.05 1.05 0 01-.35-.31l2.48 1.35c.04.06.1.11.15.16a.9.9 0 00.2.15"/><path d="M102.11 87.27l-2.48-1.35a1.2 1.2 0 01-.14-.27l2.49 1.35c.03.1.08.18.13.27m-.13-.27l-2.49-1.35a1.8 1.8 0 01-.09-.35l2.49 1.35c.01.12.04.23.09.35m-.09-.35L99.4 85.3c-.02-.2-.03-.4-.01-.61l2.48 1.35c-.02.2-.01.4.02.6"/><path d="M101.87 86.04l-2.48-1.35c.1-1.3.9-3.18 2.25-5.11l2.49 1.35c-1.35 1.93-2.17 3.81-2.26 5.1m11.34-15.75l-2.48-1.35c-1.02-.56-1.82-2.61-2.05-5.3l2.49 1.35c.23 2.69 1.02 4.74 2.04 5.3z"/><path d="M113.21 70.28l-2.48-1.35c-.3-.18-.56-.44-.75-.74l2.48 1.35c.2.3.45.56.75.74"/><path d="M112.46 69.54l-2.48-1.35a5.54 5.54 0 01-.6-1.18l2.48 1.34c.15.42.35.82.6 1.2m-.6-1.2l-2.48-1.34c-.27-.75-.46-1.53-.57-2.31l2.48 1.35c.11.78.3 1.56.57 2.3m-.56-2.3l-2.49-1.36c-.05-.34-.1-.7-.13-1.07l2.49 1.35c.03.37.07.73.12 1.08m.91-11.81l2.48 1.35a1.15 1.15 0 00-.72-.14l-2.48-1.36c.25-.03.5.02.72.15z"/><path d="M113.96 55.44l-2.48-1.35h.05l2.48 1.35h-.05"/><path d="M114 55.44l-2.48-1.35c.24-.02.47.03.68.15l2.48 1.35c-.2-.12-.44-.17-.67-.15m-2.84 6.23l-2.48-1.35c.29-3.38 1.43-6.04 2.79-6.22l2.48 1.35c-1.36.19-2.48 2.84-2.79 6.22z"/><path d="M111.17 61.67l-2.48-1.35c.23-2.66.98-4.87 1.95-5.78l2.49 1.35c-.97.91-1.72 3.12-1.96 5.78"/><path d="M113.13 55.89l-2.49-1.35c.1-.1.22-.19.34-.26l2.48 1.35c-.12.07-.23.16-.33.26"/><path d="M113.46 55.63l-2.48-1.35c.09-.05.17-.1.27-.13l2.48 1.35-.27.13m.27-.13l-2.48-1.35.23-.05 2.48 1.35a1.3 1.3 0 00-.23.05m-9.61 25.43l-2.48-1.35-3.8-3.58 2.47 1.35zm-9.9 6.25l2.49 1.35a8.7 8.7 0 00-4.3-.73l-2.49-1.35c1.8-.07 3.33.2 4.3.73z"/><path d="M92.42 87.8l-2.49-1.35a8.7 8.7 0 014.3.73l2.48 1.35a8.7 8.7 0 00-4.3-.73m13.37-25.37l-2.49-1.35 5.4-.76 2.48 1.35zM89.35 88.24l-2.48-1.35v-5.82l2.5 1.34zm18.46-37.57l-2.48-1.35c-.51-.29-1-.6-1.46-.96l2.48 1.35c.46.36.95.68 1.46.96z"/><path d="M107.81 50.67l-2.48-1.35c-.51-.29-1-.6-1.46-.96l2.48 1.35c.46.35.95.67 1.46.95M85.05 93.5l-2.48-1.35c-.7-.38-1.11-.9-1.11-1.5 0-1.47 2.32-3.02 5.4-3.77l2.5 1.35c-3.1.75-5.42 2.3-5.42 3.76 0 .62.4 1.13 1.1 1.51z"/><path d="M85.05 93.5l-2.48-1.35a2.4 2.4 0 01-.86-.7l2.48 1.34c.23.3.52.55.86.71m-.85-.71l-2.49-1.35c-.07-.1-.12-.2-.17-.32l2.49 1.35c.04.11.1.22.17.32m-.17-.32l-2.49-1.35-.07-.29 2.5 1.37c.01.1.03.19.07.27"/><path d="M83.97 92.2l-2.48-1.35v-.3l2.48 1.35v.1l.01.2"/><path d="M83.94 91.9l-2.48-1.36c.04-.5.35-1.03.86-1.51l2.48 1.35c-.46.38-.77.92-.86 1.51m.89-1.51l-2.48-1.35c.33-.3.69-.57 1.08-.8l2.48 1.35c-.39.23-.75.5-1.08.8"/><path d="M85.9 89.58l-2.49-1.35c.64-.37 1.31-.68 2-.92l2.5 1.35c-.7.24-1.38.55-2.01.92"/><path d="M87.9 88.66l-2.5-1.35c.46-.16.95-.3 1.46-.43l2.48 1.35c-.5.12-.98.27-1.46.43m12.48-36.32l-2.48-1.35 3.82-4.65 2.48 1.35zM82.92 80.91l-2.48-1.35c-.5-.27-.98-.58-1.43-.92L81.49 80c.45.34.93.65 1.43.92z"/><path d="M82.92 80.91l-2.48-1.35c-.5-.27-.98-.58-1.43-.92L81.49 80c.45.34.93.65 1.43.92m21.26-40.32l2.48 1.35a5.51 5.51 0 00-3.19-.84c-.44.05-.84.26-1.13.6-.96 1.16-.13 3.68 1.85 5.97l-2.48-1.34c-1.98-2.3-2.81-4.82-1.85-5.99.29-.34.7-.55 1.14-.59.85-.12 1.98.18 3.18.84z"/><path d="M104.19 47.68l-2.48-1.34c-.31-.36-.6-.73-.86-1.11l2.48 1.35c.27.38.55.75.86 1.1"/><path d="M103.33 46.58l-2.48-1.35a9.32 9.32 0 01-1.06-1.98l2.49 1.35c.27.7.62 1.36 1.05 1.98m-1.05-1.98l-2.49-1.35a5.36 5.36 0 01-.28-1.08l2.48 1.35c.06.37.15.73.29 1.08"/><path d="M101.98 43.52l-2.48-1.35a3.44 3.44 0 01-.04-.74l2.49 1.35c-.02.25 0 .5.03.74"/><path d="M101.95 42.78l-2.49-1.35c.02-.39.16-.77.4-1.08l.13-.14 2.49 1.35-.14.14c-.24.31-.38.7-.4 1.08"/><path d="M102.48 41.56l-2.49-1.35c.08-.08.17-.14.27-.2l2.48 1.35c-.1.06-.18.12-.26.2"/><path d="M102.74 41.36l-2.48-1.35c.1-.06.2-.1.31-.15l2.49 1.35c-.11.04-.22.1-.32.15m.32-.15l-2.49-1.35c.14-.04.28-.08.42-.1h.1l2.48 1.35h-.1a2.1 2.1 0 00-.41.1"/><path d="M103.57 41.1l-2.49-1.34c.86-.08 1.94.21 3.1.84l2.48 1.36a5.82 5.82 0 00-3.1-.86M75.5 82.62L73 81.27l3.82-4.66 2.5 1.35zm20.94-32.54l2.48 1.35a12.59 12.59 0 00-6.44-1.5L90 48.58a12.6 12.6 0 016.44 1.5z"/><path d="M92.48 49.92L90 48.57a12.6 12.6 0 016.44 1.5l2.48 1.36a12.59 12.59 0 00-6.44-1.5M79.32 77.96l-2.48-1.35a14.53 14.53 0 01-3.26-8.05l2.49 1.35a14.5 14.5 0 003.25 8.05z"/><path d="M79.32 77.96l-2.48-1.35c-.29-.33-.54-.68-.8-1.04l2.5 1.35c.24.36.5.7.78 1.04"/><path d="M78.52 76.92l-2.47-1.34a14.12 14.12 0 01-1.54-3l2.48 1.35c.4 1.06.9 2.06 1.53 3"/><path d="M76.98 73.93l-2.47-1.35c-.37-1-.64-2.04-.8-3.1l2.49 1.35c.15 1.06.42 2.1.8 3.1"/><path d="M76.18 70.83l-2.48-1.35c-.05-.3-.09-.6-.12-.92l2.49 1.35.11.92m13.24-20.48L86.93 49l.02-5.82 2.48 1.35zM75.18 90.39l-2.48-1.34c-.94-.52-1.8-1.16-2.58-1.9-2.7-2.55-4-5.7-2.88-7.06.3-.33.7-.54 1.15-.58.86-.12 1.99.18 3.19.83l2.48 1.35a5.52 5.52 0 00-3.2-.83c-.43.04-.83.25-1.12.58-1.12 1.35.17 4.52 2.86 7.06.78.73 1.65 1.37 2.58 1.89z"/><path d="M75.18 90.39l-2.48-1.34a13.76 13.76 0 01-4.46-4.08l2.48 1.35a13.6 13.6 0 004.45 4.06m-4.46-4.08l-2.48-1.35a9.49 9.49 0 01-1.06-1.97l2.48 1.35c.27.7.63 1.36 1.06 1.97"/><path d="M69.65 84.33l-2.48-1.35a5.3 5.3 0 01-.29-1.1l2.47 1.36c.06.37.16.74.29 1.09"/><path d="M69.35 83.24l-2.47-1.35a3.25 3.25 0 01-.04-.74l2.48 1.35c-.01.25 0 .5.04.74"/><path d="M69.32 82.5l-2.48-1.35a1.87 1.87 0 01.53-1.22l2.48 1.35-.13.14c-.25.31-.38.7-.4 1.09"/><path d="M69.85 81.28l-2.48-1.35c.08-.08.17-.14.26-.2l2.48 1.35c-.09.06-.18.12-.26.2"/><path d="M70.11 81.08l-2.48-1.35c.1-.06.2-.1.32-.15l2.48 1.36c-.1.03-.21.08-.31.14"/><path d="M70.43 80.94l-2.48-1.35c.13-.04.27-.08.41-.1h.1l2.48 1.36h-.1a2.1 2.1 0 00-.41.1m.51-.13l-2.48-1.35c.84-.09 1.94.22 3.1.85l2.47 1.35a5.63 5.63 0 00-3.1-.85m10.6-25.83l-2.48-1.35A16.94 16.94 0 0186.94 49l2.47 1.36c-3 .8-5.73 2.4-7.88 4.63z"/><path d="M81.53 54.99l-2.48-1.35c.18-.19.36-.37.55-.54l2.49 1.34-.58.55"/><path d="M82.09 54.44L79.6 53.1c.93-.87 1.95-1.64 3.04-2.3l2.47 1.35c-1.09.65-2.1 1.42-3.03 2.29"/><path d="M85.11 52.15l-2.48-1.35c.93-.56 1.92-1.03 2.94-1.4l2.49 1.36c-1.03.36-2.01.83-2.95 1.39"/><path d="M88.07 50.76l-2.49-1.35c.45-.16.9-.29 1.36-.41l2.47 1.36c-.46.12-.9.26-1.35.41M76.07 66.6l-2.48-1.33a19.2 19.2 0 013.29-8.98l2.48 1.36a19.2 19.2 0 00-3.29 8.95z"/><path d="M76.07 66.6l-2.48-1.33a19.2 19.2 0 013.29-8.98l2.48 1.36a19.2 19.2 0 00-3.29 8.97"/><path d="M70.68 67.36L68.2 66l5.4-.76 2.48 1.35zM85.14 43.8l-2.48-1.35c-.7-.38-1.11-.9-1.1-1.5 0-1.7 3.1-3.52 6.93-4.06 2.45-.34 4.59-.08 5.83.58l2.48 1.35c-1.24-.68-3.38-.93-5.82-.58-3.83.54-6.94 2.35-6.95 4.05 0 .62.41 1.13 1.11 1.51z"/><path d="M85.14 43.8l-2.48-1.35a2.43 2.43 0 01-.86-.72l2.48 1.35c.23.3.52.55.86.72m-.85-.72l-2.49-1.35c-.06-.1-.12-.2-.16-.31l2.48 1.35c.04.1.1.21.17.31"/><path d="M84.12 42.77l-2.48-1.35c-.04-.1-.06-.2-.07-.29l2.48 1.35c.01.1.04.18.07.27"/><path d="M84.05 42.5l-2.48-1.35a1.2 1.2 0 01-.02-.2v-.12l2.49 1.36v.1l.01.2m-.01-.3l-2.49-1.36c.1-.59.4-1.12.86-1.5l2.49 1.35c-.52.49-.83 1-.86 1.5"/><path d="M84.9 40.68l-2.48-1.35c.33-.3.7-.57 1.08-.8l2.47 1.35c-.38.23-.74.5-1.08.8"/><path d="M85.97 39.88l-2.48-1.35c.64-.37 1.3-.68 2-.92l2.49 1.35c-.7.24-1.37.55-2 .92m2-.92l-2.48-1.35a15.76 15.76 0 013.55-.78l2.48 1.35-.55.07c-1.02.14-2.03.38-3 .71m3.55-.78l-2.48-1.35c2.2-.24 4.12.03 5.27.65l2.48 1.35c-1.15-.62-3.06-.89-5.27-.65M79.35 57.63l-2.48-1.35-3.8-3.58 2.48 1.35z"/><g><path d="M67.17 76.75l-2.49-1.35c-1.22-.67-2.12-3.47-2.11-6.95 0-4.13 1.29-7.66 2.86-7.88.25-.04.5.01.72.14l2.49 1.35a1.16 1.16 0 00-.72-.14c-1.57.22-2.87 3.75-2.87 7.88 0 3.49.9 6.28 2.12 6.95z"/><path d="M67.17 76.75l-2.49-1.35c-.3-.18-.56-.43-.75-.73l2.48 1.35c.2.3.45.55.76.73"/><path d="M66.41 76.02l-2.48-1.35a5.7 5.7 0 01-.6-1.2l2.49 1.35c.15.42.35.82.6 1.2"/><path d="M65.82 74.82l-2.49-1.35a11.6 11.6 0 01-.57-2.29l2.49 1.35c.1.78.3 1.55.57 2.3m-.57-2.31l-2.49-1.35a18.34 18.34 0 01-.14-4.06l2.48 1.35a20.47 20.47 0 00.15 4.06"/><path d="M65.1 68.46l-2.48-1.35c.2-2.8.96-5.14 1.97-6.1l2.49 1.35c-1.01.96-1.79 3.3-1.98 6.1"/><path d="M67.08 62.36l-2.49-1.35c.1-.1.22-.19.34-.26l2.49 1.36c-.13.08-.24.17-.34.27"/><path d="M67.42 62.11l-2.49-1.35.27-.12 2.48 1.35c-.09.03-.18.07-.26.12m.26-.14l-2.48-1.35.23-.05h.04l2.49 1.35h-.04a1.3 1.3 0 00-.23.06m.27-.07l-2.49-1.35c.24-.02.47.03.68.15l2.48 1.35c-.2-.12-.44-.17-.67-.15"/></g><g><path d="M69.97 57.02l-2.48-1.35a.99.99 0 01-.21-.15c-1.11-1.05.19-4.59 2.9-7.88 2.06-2.5 4.33-4.15 5.8-4.36.31-.06.63-.02.92.12l2.48 1.35c-.28-.14-.6-.18-.92-.12-1.47.2-3.74 1.86-5.8 4.36-2.7 3.3-4 6.83-2.9 7.88.06.06.13.1.2.15z"/><path d="M69.97 57.02l-2.48-1.35a.99.99 0 01-.36-.32l2.49 1.35a1.03 1.03 0 00.35.32m-.35-.32l-2.49-1.35a1.2 1.2 0 01-.13-.27l2.48 1.35c.03.1.08.18.14.27"/><path d="M69.48 56.43L67 55.08a1.58 1.58 0 01-.1-.35l2.49 1.35c.02.12.05.23.09.35m-.09-.35l-2.48-1.35c-.03-.2-.04-.41-.02-.61l2.49 1.35c-.03.2-.03.4 0 .6"/><path d="M69.38 55.47l-2.49-1.35c.12-1.6 1.34-4.1 3.3-6.48.55-.68 1.16-1.33 1.8-1.94l2.49 1.35c-.65.61-1.25 1.26-1.81 1.94-1.96 2.38-3.18 4.88-3.3 6.48m5.11-8.42l-2.49-1.35c.68-.65 1.42-1.22 2.21-1.72l2.49 1.35c-.8.5-1.54 1.07-2.21 1.72"/><path d="M76.69 45.34L74.2 44c.37-.22.75-.4 1.15-.55l2.48 1.35c-.4.15-.78.33-1.14.55m1.13-.56l-2.48-1.35c.2-.07.42-.13.64-.16h.08l2.48 1.35h-.08a3.6 3.6 0 00-.64.16m.72-.16l-2.48-1.35c.29-.04.58 0 .84.13l2.48 1.34a1.43 1.43 0 00-.84-.13"/></g></g><path fill="#FFBE00" d="M88.77 94.03c-1.92 0-3.5-.43-4.21-1.15-.25-.23-.4-.55-.4-.9 0-1.32 2.2-2.8 5.24-3.54l.17-.04v-6.22h-.63c-2.64.02-5.21-.81-7.34-2.38l-.17-.12-4.05 4.97.11.14c1.94 2.25 2.71 4.65 1.85 5.7-.26.3-.61.48-1 .52l-.36.02c-1.45 0-3.46-1.04-5.24-2.7-2.58-2.43-3.88-5.52-2.86-6.77.25-.3.6-.47.99-.51.12-.02.24-.02.36-.02 1.15 0 2.65.64 4.13 1.76l.16.13 4.08-4.96-.12-.14a14.28 14.28 0 01-3.2-7.93l-.03-.23-5.79.82v.17c-.28 3.32-1.38 5.85-2.6 6.02h-.12a1.18 1.18 0 01-.83-.4c-1-1-1.64-3.55-1.63-6.48 0-3.96 1.23-7.47 2.67-7.67h.12c1.13 0 2.14 2.2 2.4 5.25l.02.23 5.79-.82.02-.16a18.96 18.96 0 013.25-8.87l.1-.16-4.1-3.85-.16.16c-1.67 1.72-3.36 2.86-4.53 3.02l-.26.02a.96.96 0 01-.69-.23c-.9-.86.06-4.1 2.92-7.58 1.94-2.36 4.22-4.08 5.66-4.3l.27-.02c.25-.01.5.07.68.24.84.79.02 3.46-1.9 6.22l-.1.15 4.1 3.86.14-.15a16.7 16.7 0 017.8-4.59l.16-.04v-6.2h-.79c-1.92 0-3.5-.43-4.2-1.15a1.25 1.25 0 01-.4-.85c0-1.56 3.1-3.32 6.76-3.83.68-.1 1.38-.15 2.07-.15 1.92 0 3.5.43 4.2 1.15.25.22.4.54.4.87 0 1.33-2.2 2.82-5.24 3.55l-.16.04v6.22h.62c2.65-.02 5.22.82 7.35 2.38l.16.13 4.08-4.96-.12-.14c-1.94-2.25-2.72-4.65-1.85-5.7.26-.3.61-.48 1-.51.11-.02.23-.03.35-.03 1.46 0 3.47 1.04 5.25 2.7 2.58 2.43 3.88 5.52 2.86 6.77-.25.3-.6.47-.99.51a2.9 2.9 0 01-.36.03c-1.15 0-2.65-.65-4.13-1.77l-.17-.12-4.09 4.95.12.14a14.28 14.28 0 013.2 7.93l.03.23 5.78-.82.02-.17c.29-3.32 1.38-5.86 2.6-6.02h.13c.31.02.61.17.82.4 1 1 1.64 3.55 1.64 6.48 0 3.96-1.23 7.47-2.68 7.67h-.12c-1.13 0-2.14-2.2-2.4-5.25l-.02-.23-5.79.81-.01.17a18.96 18.96 0 01-3.25 8.86l-.1.15 4.1 3.86.16-.15c1.67-1.72 3.36-2.87 4.53-3.03l.27-.02c.25-.01.5.07.68.24.9.86-.06 4.09-2.92 7.57-1.94 2.36-4.22 4.09-5.66 4.3l-.27.02a.97.97 0 01-.68-.23c-.84-.8-.02-3.47 1.9-6.23l.1-.15-4.12-3.87-.15.15a16.68 16.68 0 01-7.79 4.59l-.16.04v6.22h.8c1.93 0 3.5.42 4.2 1.14.26.23.4.55.41.9 0 1.56-3.1 3.31-6.75 3.83-.7.08-1.39.12-2.09.12z"/><path fill="#D97507" d="M93.08 38.53c1.86 0 3.38.4 4.05 1.07.2.2.33.45.34.73 0 1.21-2.18 2.65-5.08 3.34l-.33.08v6.61h.85c2.6-.01 5.12.81 7.2 2.35l.34.24.26-.32 3.83-4.65.23-.29-.24-.29c-1.84-2.13-2.63-4.46-1.84-5.42.22-.25.53-.4.86-.43.1-.02.22-.02.33-.02 1.38 0 3.39 1.03 5.1 2.64a11.44 11.44 0 012.76 3.82c.47 1.15.5 2.13.07 2.65-.22.25-.53.4-.86.43-.1.02-.22.02-.33.02-1.08 0-2.58-.64-4-1.71l-.33-.26-.26.33-3.84 4.64-.23.29.23.28a14.07 14.07 0 013.16 7.82l.04.45.45-.06 5.4-.76.34-.05.03-.34c.23-2.73 1.2-5.66 2.41-5.83h.1c.26.02.5.14.66.34.95.95 1.59 3.5 1.58 6.32 0 4.19-1.32 7.3-2.49 7.45h-.1c-.84 0-1.89-1.77-2.17-5.05l-.04-.46-.45.06-5.4.76-.34.05-.03.34a18.72 18.72 0 01-3.21 8.77l-.21.3.28.26 3.81 3.58.32.3.28-.32c1.6-1.67 3.3-2.8 4.4-2.96l.24-.02c.19-.01.38.05.53.18.4.36.34 1.34-.13 2.61a17.08 17.08 0 01-2.81 4.66c-1.91 2.33-4.13 4.02-5.52 4.21-.08.02-.16.02-.24.02a.74.74 0 01-.53-.17c-.66-.62-.11-3.01 1.93-5.94l.21-.31-.28-.26-3.81-3.58-.3-.3-.29.31a16.5 16.5 0 01-7.68 4.52l-.33.08v6.62l.46-.02H93c1.86 0 3.38.4 4.05 1.07.21.2.33.46.34.74 0 1.28-2.7 3.08-6.57 3.62-.67.1-1.35.15-2.03.15-1.87 0-3.39-.4-4.06-1.08a1.02 1.02 0 01-.34-.73c0-1.21 2.18-2.64 5.07-3.34l.34-.08v-6.61h-.84c-2.6.01-5.12-.8-7.2-2.34l-.34-.25-.26.32-3.82 4.66-.24.28.24.29c1.84 2.13 2.63 4.46 1.84 5.42-.22.25-.53.4-.86.44l-.33.02c-1.38 0-3.38-1.04-5.1-2.65a11.46 11.46 0 01-2.76-3.82c-.47-1.15-.5-2.13-.07-2.64.22-.25.53-.4.86-.44l.33-.02c1.08 0 2.58.64 4 1.72l.33.25.27-.32 3.82-4.66.23-.3-.23-.28a14.1 14.1 0 01-3.16-7.8l-.04-.46-.45.06-5.4.77-.35.05-.03.35c-.24 2.73-1.2 5.66-2.42 5.83h-.09a.97.97 0 01-.67-.33c-.95-.95-1.58-3.5-1.57-6.33 0-4.18 1.31-7.29 2.48-7.45h.1c.86 0 1.9 1.78 2.17 5.06l.04.46.46-.07 5.39-.75.34-.05.03-.34a18.73 18.73 0 013.21-8.77l.22-.31-.29-.26-3.8-3.58-.32-.28-.29.3c-1.61 1.67-3.3 2.8-4.4 2.96l-.24.02a.75.75 0 01-.53-.17c-.4-.37-.34-1.35.13-2.62.68-1.7 1.63-3.27 2.81-4.66 1.9-2.32 4.13-4.02 5.52-4.21l.23-.02c.2-.01.39.05.54.17.65.62.11 3.01-1.93 5.95l-.21.3.28.26 3.81 3.58.31.3.29-.32a16.48 16.48 0 017.69-4.53l.33-.08v-6.61l-.46.01h-.55c-1.87 0-3.38-.4-4.05-1.07a1.02 1.02 0 01-.35-.74c0-1.27 2.7-3.07 6.57-3.62.68-.1 1.36-.14 2.04-.14m0-.44c-.7 0-1.4.05-2.1.15-3.83.54-6.94 2.35-6.94 4.05 0 1.37 2.02 2.25 4.83 2.25h.57v5.83c-3.01.8-5.75 2.4-7.9 4.64l-3.8-3.6c2-2.86 2.83-5.6 1.87-6.5-.23-.2-.53-.3-.83-.29-.1 0-.2.01-.29.03-1.47.2-3.74 1.86-5.8 4.36-2.7 3.3-4 6.83-2.9 7.87.23.2.53.3.83.29l.3-.02c1.19-.17 2.93-1.31 4.65-3.1l3.8 3.59a19.2 19.2 0 00-3.28 8.97l-5.4.76c-.26-3.17-1.31-5.45-2.6-5.45h-.16c-1.57.23-2.86 3.75-2.86 7.9 0 3.99 1.18 7.09 2.67 7.09h.16c1.36-.2 2.5-2.85 2.79-6.23l5.4-.75a14.5 14.5 0 003.25 8.05l-3.82 4.65c-1.54-1.17-3.1-1.81-4.26-1.81-.13 0-.26 0-.4.02-.43.05-.83.25-1.12.58-1.12 1.35.17 4.52 2.86 7.06 1.87 1.76 3.93 2.76 5.4 2.76.12 0 .25 0 .38-.02.44-.04.84-.25 1.13-.58.97-1.17.14-3.68-1.84-5.98l3.82-4.66a12.45 12.45 0 007.47 2.43h.41v5.82c-3.1.75-5.4 2.3-5.4 3.76 0 1.38 2.02 2.25 4.82 2.25.7 0 1.4-.05 2.1-.15 3.83-.54 6.94-2.35 6.94-4.05 0-1.37-2.02-2.25-4.83-2.25h-.57v-5.82c3-.79 5.74-2.4 7.9-4.64l3.8 3.59c-1.99 2.86-2.82 5.6-1.87 6.5.23.2.53.3.84.29.1 0 .19 0 .28-.02 1.47-.2 3.74-1.87 5.8-4.37 2.71-3.3 4-6.83 2.9-7.87-.23-.2-.53-.3-.83-.29-.1 0-.2.01-.29.03-1.2.16-2.94 1.3-4.66 3.08l-3.8-3.58a19.2 19.2 0 003.28-8.97l5.4-.75c.3 3.17 1.33 5.44 2.62 5.44h.15c1.58-.22 2.87-3.75 2.87-7.88 0-4.01-1.18-7.1-2.68-7.1h-.15c-1.36.2-2.5 2.84-2.8 6.22l-5.39.76a14.5 14.5 0 00-3.25-8.04l3.82-4.66c1.53 1.15 3.09 1.8 4.26 1.8.13 0 .26 0 .4-.02.43-.04.83-.25 1.12-.59 1.12-1.35-.17-4.51-2.86-7.06-1.88-1.76-3.94-2.76-5.4-2.76-.13 0-.26 0-.39.02-.44.05-.84.26-1.13.6-.96 1.16-.13 3.68 1.85 5.97l-3.84 4.66a12.44 12.44 0 00-7.46-2.43h-.42V44.1c3.1-.74 5.41-2.29 5.41-3.75 0-1.38-2.02-2.25-4.82-2.25z"/><path fill="#000" d="M99.68 57l-.02 6.04-10.68 13-6.8-6.4.01-5.2 6.41 6.03z"/></g><path d="M47 24h280.84v192H47z"/></g></svg>