<?xml version="1.0" encoding="UTF-8"?>
<svg width="375px" height="240px" viewBox="0 0 375 240" version="1.1" xmlns="http://www.w3.org/2000/svg" xmlns:xlink="http://www.w3.org/1999/xlink">
    <title>howitworks3</title>
    <g id="howitworks3" stroke="none" stroke-width="1" fill="none" fill-rule="evenodd">
        <g id="Group">
            <g id="howitworks3" transform="translate(47.000000, 24.000000)">
                <g id="_3D_phone_clean" transform="translate(191.426866, 91.414925)" fill-rule="nonzero">
                    <path d="M7.13838806,0.103164179 C6.43742655,-0.00435857982 5.72049847,0.118313547 5.09516418,0.452776119 L1.82256716,2.23235821 C1.82256716,2.23235821 3.30985075,3.0118209 3.31271642,3.70244776 L3.45886567,82.9726567 C3.45886567,85.265194 5.17826866,87.3485373 7.30173134,87.6465672 L45.879403,94.6531343 C45.879403,94.6531343 48.5072239,93.2202985 49.0946866,92.9050746 C50.1807761,92.3319403 50.9029254,91.1283582 50.9000682,89.6439403 L50.7539104,10.368 C50.7539104,8.07546269 49.0345075,5.98925373 46.9139104,5.69408955 L7.13838806,0.103164179 Z" id="Path" fill="#000000"></path>
                    <path d="M43.6642388,7.45074627 L3.88585075,1.86841791 C1.7681194,1.58185075 0.0573134328,3.18089552 0.0630304177,5.46483582 L0.20919403,84.7379104 C0.20919403,87.0304478 1.92859701,89.113791 4.04919403,89.4089552 L43.8275821,94.9998806 C45.9424478,95.2864478 47.6561194,93.687403 47.6504024,91.4034627 L47.5042388,12.1332537 C47.5042388,9.84071642 45.7848358,7.75737313 43.6642388,7.45934328" id="Path" fill="#000000"></path>
                    <path d="M43.6642388,7.45074627 L3.88585075,1.86841791 C1.7681194,1.58185075 0.0573134328,3.18089552 0.0630304177,5.46483582 L0.20919403,84.7379104 C0.20919403,84.8840597 0.20919403,85.0244776 0.232119403,85.1734925 L47.4813134,11.694806 C47.2835821,9.58567164 45.6415522,7.73731343 43.6642388,7.45074627 Z" id="Path" fill="#414141"></path>
                    <polyline id="Path" fill="#FFFFFF" points="45.8507463 14.233791 1.71940299 8.0238806 1.8598209 82.6259104 45.9911642 88.8272239 45.8507463 14.233791"></polyline>
                    <path d="M38.0589851,62.3312239 L9.68883582,58.3450746 C8.08692537,58.1215522 6.79164179,59.3394627 6.79450272,61.0674627 L6.79450272,68.736 C6.79450272,70.455403 8.09838806,72.0487164 9.70029851,72.2751045 L38.0704478,76.2612537 C39.6723582,76.4847761 40.9676418,75.2668657 40.9647809,73.536 L40.9647809,65.8674627 C40.9647809,64.1480597 39.6608955,62.5576119 38.0589851,62.3312239" id="Path" fill="#0073FF"></path>
                    <path d="M14.3512836,61.6119403 C14.032926,61.5660891 13.7096411,61.5660891 13.3912836,61.6119403 C13.0865943,61.6518224 12.7936929,61.7553142 12.5315821,61.9157015 C12.2805041,62.0689331 12.0739949,62.2853231 11.9326567,62.5432836 C11.7722687,62.8474545 11.6942235,63.1882847 11.7062687,63.5319403 C11.7065808,63.7378286 11.7325724,63.9428741 11.7836418,64.1423284 C11.8357077,64.3531341 11.9228966,64.5536687 12.0415522,64.7355224 C12.1755226,64.942324 12.3419564,65.1261753 12.5344478,65.28 C12.7681787,65.4688933 13.0290111,65.6215285 13.3081791,65.7327761 C13.806806,65.9486567 14.2261493,66.1253731 14.566209,66.2629254 C14.9072239,66.4033433 15.2052537,66.5494925 15.4631642,66.6784478 C15.6223058,66.7681613 15.760917,66.8901782 15.8700896,67.0366567 C16.0085591,67.2382887 16.076098,67.4802192 16.0620896,67.7244179 C16.062241,67.8679955 16.0339977,68.0101857 15.9789851,68.142806 C15.925829,68.2787226 15.8354501,68.3969104 15.718209,68.4838209 C15.5756273,68.5836027 15.4134854,68.6519758 15.2425075,68.6844179 C15.0091503,68.7235354 14.7709094,68.7235354 14.5375522,68.6844179 C14.2916352,68.6507361 14.0509368,68.5862289 13.8211343,68.4924179 C13.6095453,68.400618 13.4155931,68.2726096 13.248,68.1141493 C13.0752747,67.9542142 12.9393634,67.7586583 12.8496716,67.5410149 C12.7501738,67.2924158 12.7014552,67.0264122 12.7063881,66.7586866 L11.4454686,66.5810149 C11.4438132,67.0217035 11.5305384,67.4582529 11.7005373,67.8648358 C11.8499499,68.2241362 12.0702117,68.5496559 12.3481791,68.8219701 C12.624126,69.090684 12.9464633,69.3071937 13.2995821,69.4610149 C13.6703811,69.6205229 14.0606199,69.7303679 14.4601791,69.7877015 C14.809345,69.8320297 15.1627147,69.8320297 15.5118806,69.7877015 C15.8358378,69.7494417 16.1487248,69.6461208 16.4317612,69.4839403 C16.7034469,69.3235906 16.9278754,69.0942187 17.0822687,68.8191045 C17.2585465,68.4850641 17.3435575,68.1104226 17.3287164,67.7330149 C17.3275447,67.5219096 17.2986406,67.3118732 17.2427463,67.1082985 C17.1834567,66.8940753 17.0937044,66.6894787 16.9762388,66.5007761 C16.8573522,66.3014794 16.7095994,66.1208927 16.537791,65.9648955 C16.3538649,65.7963895 16.1450908,65.6572068 15.918806,65.5522388 L15.4488358,65.3459104 L14.775403,65.0593433 L14.1535522,64.7928358 L13.8383284,64.6524179 C13.6013038,64.5510044 13.3884068,64.4006093 13.2136119,64.2111045 C13.0511449,64.0218972 12.9661859,63.7782798 12.9757612,63.5290746 C12.9676202,63.3625808 13.0106198,63.1975825 13.0989851,63.0562388 C13.179301,62.9405803 13.2891392,62.8485537 13.4170746,62.7897313 C13.5507683,62.7287325 13.6945237,62.6927937 13.841194,62.6837015 C13.9931845,62.6739661 14.1457573,62.678764 14.2968358,62.6980299 C14.6960704,62.7435129 15.0729435,62.906027 15.3800597,63.1651343 C15.6865673,63.4606969 15.8593803,63.8684114 15.8586269,64.294209 L17.1195224,64.4718806 C17.1250073,64.0914193 17.0487838,63.7142109 16.896,63.3657313 C16.7518058,63.043555 16.5475699,62.7517895 16.294209,62.5060299 C16.0373763,62.2575309 15.7398041,62.0549491 15.4144478,61.9071045 C15.0749705,61.7534207 14.7148745,61.6501224 14.3455522,61.6004776" id="Path" fill="#FFFFFF"></path>
                    <path d="M19.174209,66.9392239 C19.1782027,66.7429014 19.2170137,66.5488464 19.2888358,66.3660896 C19.3542669,66.2031921 19.4517117,66.0550759 19.575403,65.9305075 C19.6940593,65.8124308 19.8395967,65.7249116 19.9995224,65.6754627 C20.1783041,65.6195341 20.3676154,65.6058017 20.552597,65.6353433 C20.7420518,65.6618747 20.9231826,65.7304107 21.0827463,65.8359403 C21.2374229,65.9411105 21.3739026,66.0708146 21.486806,66.2199403 C21.6015642,66.3757191 21.6905767,66.5489065 21.7504478,66.7328955 C21.8147526,66.9180513 21.8551979,67.1106477 21.870806,67.3060299 L19.1799403,66.9277612 M20.5497313,64.6352239 C20.1970538,64.5762693 19.8351819,64.6078222 19.4980299,64.7269254 C19.1940898,64.8387215 18.9224222,65.0237704 18.7071045,65.2656716 C18.4812877,65.5207639 18.3096928,65.8191051 18.2027463,66.1425672 C18.0821888,66.5016713 18.0230906,66.8785439 18.0279403,67.2573134 C18.0257556,67.6719075 18.081703,68.0847609 18.1941493,68.4838209 C18.3011417,68.8462212 18.4698218,69.1874591 18.6927761,69.4925373 C18.911264,69.7837092 19.1848716,70.0290797 19.4980299,70.2146866 C19.833153,70.4111595 20.2045277,70.5378753 20.5898507,70.5872239 C20.8602601,70.6318579 21.1361578,70.6318579 21.4065672,70.5872239 C21.6567273,70.5403232 21.8946675,70.4428067 22.105791,70.3006567 C22.3195167,70.1633474 22.5020722,69.9827443 22.6416716,69.7705075 C22.796219,69.5348954 22.9023954,69.2709155 22.9540299,68.9939104 L21.862209,68.8420299 C21.7895238,69.1024536 21.6271217,69.3288016 21.4037015,69.4810746 C21.1554573,69.6169817 20.8668064,69.6596695 20.5898507,69.6014328 C20.3666705,69.5743822 20.1523006,69.4980313 19.9622687,69.3779104 C19.790795,69.2651312 19.6428612,69.1201171 19.5266866,68.9509254 C19.4082519,68.7758473 19.3200976,68.5821017 19.2659104,68.377791 C19.2086728,68.1666756 19.1797627,67.9488862 19.1799403,67.7301493 L23.022806,68.2717612 C23.1126484,67.4468427 22.9185698,66.6159437 22.472597,65.9161791 C22.2600182,65.5783217 21.9823997,65.2860917 21.6558806,65.0564776 C21.327791,64.8245217 20.948125,64.6759995 20.5497313,64.6237612" id="Shape" fill="#FFFFFF"></path>
                    <path d="M26.6306866,65.5121194 C26.3109813,65.4589468 25.9826549,65.5059936 25.6907463,65.646806 C25.4045644,65.7888965 25.1656802,66.0108597 25.0029851,66.2858507 L24.985791,66.2600597 L24.985791,65.4318806 L23.8939701,65.28 L23.8939701,70.9196418 L25.0402388,71.0829851 L25.0402388,67.7530746 C25.0368466,67.5583546 25.0668946,67.3644966 25.1290746,67.1799403 C25.1846173,67.0182787 25.2701746,66.8685533 25.3812537,66.7386269 C25.4928024,66.6187589 25.6342383,66.5307324 25.7910448,66.4835821 C26.2538661,66.3410312 26.757214,66.4848449 27.0748657,66.8503881 C27.2596623,67.1503767 27.351406,67.4984043 27.3385075,67.8505075 L27.3385075,71.398209 L28.4847761,71.5615522 L28.4847761,67.6842985 C28.5322588,67.1486314 28.362673,66.6163301 28.014076,66.2068499 C27.665479,65.7973696 27.1670658,65.5450044 26.6306866,65.5063881" id="Path" fill="#FFFFFF"></path>
                    <path d="M32.0496716,71.2348657 C31.8159488,71.2068876 31.5931304,71.1201265 31.4020299,70.9826866 C31.2200838,70.8521668 31.0661292,70.6865194 30.9492537,70.4955224 C30.8279589,70.2917295 30.7390203,70.0703497 30.6856119,69.8392836 C30.6280054,69.6018709 30.5981933,69.3585662 30.5967761,69.1142687 C30.5952462,68.8677677 30.6202256,68.6218167 30.6712836,68.3806567 C30.7136862,68.1588225 30.7993775,67.9475154 30.9234627,67.758806 C31.0376993,67.5868556 31.1947285,67.4476033 31.3791045,67.3547463 C31.5910873,67.2563101 31.8284444,67.2262649 32.0582687,67.2687761 C32.4933118,67.3249495 32.8808212,67.5717373 33.1157015,67.942209 C33.3952569,68.396876 33.5320148,68.9249411 33.5082985,69.4581493 C33.5106311,69.699662 33.481735,69.9404632 33.4223284,70.1745672 C33.3717745,70.3885591 33.2845129,70.5921696 33.1644179,70.7763582 C33.0501895,70.9454474 32.8928941,71.0809787 32.7087761,71.1689552 C32.5016261,71.2631569 32.2704632,71.2911766 32.046806,71.249194 M34.6259104,64.6581493 L33.4796418,64.4976716 L33.4796418,67.3633433 L33.4567164,67.3633433 C33.3715587,67.1992104 33.2613405,67.0493524 33.1300299,66.9191642 C33.0007528,66.7896992 32.8564425,66.6761752 32.7001791,66.5810149 C32.5466789,66.4877385 32.383288,66.4118098 32.2130149,66.3546269 C32.051912,66.2990128 31.8859234,66.258715 31.7172537,66.2342687 C31.43864,66.1952923 31.1550297,66.2128352 30.8833433,66.2858507 C30.6081332,66.3649581 30.3576233,66.512897 30.1554627,66.7157015 C29.9246085,66.9610196 29.7513332,67.2547066 29.6482388,67.575403 C29.5107852,67.9919959 29.446788,68.4293104 29.4591045,68.8678209 C29.4576121,69.274827 29.5087071,69.6803203 29.6109851,70.0742687 C29.7060247,70.4365678 29.8609991,70.780417 30.0694925,71.0915821 C30.2709743,71.3895901 30.5313725,71.6431614 30.8346269,71.8366567 C31.1602732,72.0447048 31.5285083,72.1769169 31.9121194,72.2235224 C32.2273783,72.271216 32.5494462,72.2437224 32.8520597,72.1432836 C33.1492161,72.0386072 33.3925338,71.8200336 33.5283582,71.5357612 L33.5283582,71.5357612 L33.5283582,72.2980299 L34.6230448,72.4527761 L34.6087164,64.6581493" id="Shape" fill="#FFFFFF"></path>
                    <path d="M35.3480597,21.3005373 L18.1282388,18.8819104 L18.1282388,18.8819104 L12.2736716,24.3868657 L12.3166567,51.089194 L35.4111045,54.336 L35.3480597,21.3005373 Z M13.4056119,50.1492537 L13.3597612,25.0946866 L18.649791,25.8368955 L18.649791,20.0568358 L18.649791,20.0568358 L34.2705672,22.254806 L34.3278806,53.0865672 L13.4056119,50.1492537 Z" id="Shape" fill="#787878"></path>
                    <path d="M21.9797015,34.0757015 L21.9797015,31.0495522 C21.9797015,29.934806 22.9884179,29.2842985 24.1060299,29.4419104 C25.2236418,29.5995224 26.1836418,30.528 26.1865075,31.6398806 L26.1865075,34.6660299 L21.9768358,34.0757015 M24.0974328,27.9402985 C22.2261493,27.6766567 20.5669254,28.8945672 20.569791,30.8518209 L20.569791,33.8779701 L19.5152239,33.7318209 C19.241436,33.7098849 18.9711573,33.8048728 18.7712904,33.9932719 C18.5714235,34.181671 18.4606494,34.4458723 18.4663881,34.7204776 L18.4663881,42.2887164 C18.4940632,42.9038687 18.9232126,43.4274775 19.5209552,43.575403 L28.6567164,44.8563582 C28.9305043,44.8782942 29.200783,44.7833063 29.4006499,44.5949072 C29.6005168,44.4065081 29.7112909,44.1423068 29.7055522,43.8677015 L29.7055522,36.296597 C29.6785111,35.6818077 29.2488169,35.1587017 28.6509851,35.0127761 L27.5964179,34.8637612 L27.5964179,31.8376119 C27.5964179,29.8803582 25.9801791,28.2039403 24.1117612,27.9402985" id="Shape" fill="#232323"></path>
                    <path d="M58.760597,41.4261493 L54.3503284,43.558209 C55.8716154,46.4438216 56.6775054,49.6526397 56.7001791,52.9146269 C56.7444555,56.046168 55.9009198,59.1262157 54.2672239,61.798209 L58.6946866,65.1739701 C60.6691343,61.9586866 61.806806,58.009791 61.8010962,53.6281791 C61.7717843,49.3760791 60.7294957,45.1921893 58.760597,41.4232836" id="Path" fill="#000000"></path>
                    <path d="M68.0167164,36.9671642 L63.6007164,39.0992239 C66.0602227,43.8377825 67.3614661,49.09186 67.3977313,54.4305672 C67.3977313,59.9154627 65.9964179,64.8530149 63.5462687,68.8907463 L67.968,72.2636418 C70.8537313,67.4665075 72.5014925,61.6119403 72.5014925,55.1355224 C72.4560907,48.8109931 70.9195649,42.5863458 68.0167164,36.9671642" id="Path" fill="#000000"></path>
                    <path d="M77.2671045,32.4852537 L72.8539701,34.6173134 C76.2497442,41.2082033 78.044405,48.5066214 78.0924179,55.9207164 C78.0924179,63.5090149 76.1810149,70.3436418 72.8195821,75.9517612 L77.2413134,79.3246567 C80.3935522,74.0231642 82.4425075,67.7645373 83.0242388,60.846806 C83.0242388,60.846806 83.1789851,59.1818507 83.1732537,56.7718209 C83.1675224,54.361791 83.0070448,52.3758806 83.0070448,52.3758806 C82.3931481,45.4388596 80.4471663,38.6853296 77.2757015,32.4852537" id="Path" fill="#000000"></path>
                    <polyline id="Path" fill="#646464" opacity="0.15" points="45.8507463 14.233791 1.86268657 82.6345075 45.9940299 88.8358209 45.8507463 14.233791"></polyline>
                </g>
                <g id="_3d_chat_clean" transform="translate(14.901493, 9.170149)" fill-rule="nonzero">
                    <path d="M136.102209,146.722388 L62.8928955,146.722388 L62.8928955,145.189254 C75.7482985,145.189254 75.6594627,133.342567 75.6594627,129.737552 L75.6594627,52.8745075 C75.6594627,48.2657819 79.3955729,44.5296716 84.0042985,44.5296716 L136.102209,44.5296716 C140.711398,44.5296716 144.448328,48.2653184 144.449918,52.8745075 L144.449918,138.363224 C144.452953,140.579157 143.574809,142.705374 142.008982,144.273352 C140.443154,145.841329 138.318145,146.722388 136.102209,146.722388 L136.102209,146.722388 Z" id="Path" fill="#E1E1E1"></path>
                    <path d="M132.078806,31.3791045 L137.904716,27.8743881 C138.432,27.5562985 139.205731,27.4273433 140.303284,27.5620299 L134.480239,31.0667463 C133.379821,30.9320597 132.608955,31.0610149 132.078806,31.3791045 Z" id="Path" fill="#0051BA"></path>
                    <g id="Group" transform="translate(176.811940, 44.704478)" fill="#0051BA">
                        <path d="M11.8524179,3.62507463 L17.6783284,0.117492537 C17.3373134,1.34113433 16.9418507,2.54185075 16.4890746,3.71104478 L10.6631642,7.21576119 C11.1159403,6.04943284 11.5228657,4.84585075 11.8524179,3.62507463" id="Path"></path>
                        <path d="M10.6631642,7.21576119 L16.4890746,3.72537313 C15.4709115,6.41192989 14.0902477,8.94668208 12.3854328,11.2592239 L6.56238806,14.7496119 C8.26514076,12.4362325 9.64475466,9.90163783 10.6631642,7.21576119" id="Path"></path>
                        <path d="M6.56238806,14.7496119 L12.3854328,11.2448955 C10.6086184,13.6680725 8.37671057,15.721856 5.81444776,17.2914627 L0,20.7961791 C2.5623515,19.2266899 4.79428037,17.172887 6.57098507,14.7496119" id="Path"></path>
                    </g>
                    <g id="Group" transform="translate(189.994030, 34.388060)" fill="#0051BA">
                        <path d="M0.229253731,3.63367164 L6.05516418,0.126089552 C6.3023232,0.150049968 6.54812464,0.186394149 6.79164179,0.234985075 L0.965731343,3.73970149 C0.722192012,3.69191361 0.476382895,3.65652474 0.229253731,3.63367164" id="Path"></path>
                        <path d="M0.965731343,3.73970149 L6.79164179,0.234985075 C7.16415476,0.306871496 7.52615582,0.425292054 7.86913433,0.587462687 L2.04608955,4.0921791 C1.70159484,3.93131425 1.33881098,3.8129524 0.965731343,3.73970149" id="Path"></path>
                        <path d="M2.04608955,4.0921791 L7.86913433,0.587462687 C8.08375676,0.69087743 8.28569595,0.81877225 8.47092537,0.968597015 L2.6478806,4.4761791 C2.46301134,4.32505713 2.26103036,4.19617403 2.04608955,4.0921791" id="Path"></path>
                        <path d="M2.6478806,4.4761791 L8.47092537,0.968597015 C8.68982548,1.14796525 8.87681962,1.36305695 9.024,1.60477612 L3.20095522,5.10949254 C3.05281884,4.86930638 2.8659329,4.65530746 2.6478806,4.4761791" id="Path"></path>
                        <path d="M3.20095522,5.10949254 L9.024,1.60477612 C9.18068379,1.86353193 9.29394322,2.14619649 9.35928358,2.44155224 L3.53623881,5.94913433 C3.46839125,5.65365523 3.35529586,5.37043345 3.20095522,5.10949254" id="Path"></path>
                        <path d="M3.53623881,5.94913433 L9.35928358,2.44155224 C9.48180197,3.04242584 9.50021889,3.65987738 9.41373134,4.26698507 L3.5878209,7.77456716 C3.67525178,7.16762325 3.65780419,6.55017254 3.53623881,5.94913433" id="Path"></path>
                        <path d="M3.5878209,7.77456716 L9.41373134,4.26698507 C9.32214727,4.94382862 9.18621299,5.61392719 9.00680597,6.27295522 C8.93271642,6.55072625 8.84375231,6.8243148 8.74029851,7.09253731 L2.91725373,10.6029851 C3.02127252,10.3342734 3.10930684,10.0596447 3.18089552,9.78053731 C3.36178012,9.12186074 3.49773455,8.45166281 3.5878209,7.77456716" id="Path"></path>
                        <path d="M2.91725373,10.6029851 L8.74029851,7.09540299 C8.52812971,7.6687582 8.23890791,8.21056703 7.88059701,8.70591045 L2.05468657,12.2134925 C2.41756315,11.7182055 2.71248244,11.1765563 2.93158209,10.6029851" id="Path"></path>
                        <path d="M2.04035821,12.2134925 L7.86626866,8.70591045 C7.52096587,9.17951954 7.08688404,9.58148321 6.5881791,9.88943284 L0.765134328,13.3970149 C1.26294177,13.0889435 1.69606172,12.6869692 2.04035821,12.2134925" id="Path"></path>
                    </g>
                    <g id="Group" transform="translate(144.429851, 0.000000)" fill="#0051BA">
                        <path d="M0.232119403,6.60537313 L6.05516418,3.09779104 C10.3536716,0.518686567 16.1767164,-0.581731343 23.8567164,0.361074627 C25.1290746,0.515820896 26.350806,0.714507463 27.5219104,0.957134328 L21.6988657,4.46185075 C20.5277612,4.22113433 19.3060299,4.02244776 18.0336716,3.86579104 C10.350806,2.92298507 4.52489552,4.02053731 0.232119403,6.60537313" id="Path"></path>
                        <path d="M21.6988657,4.46185075 L27.5104478,0.957134328 C30.410287,1.53162384 33.2263981,2.46840198 35.8925373,3.74543284 L30.0895522,7.25014925 C27.4244124,5.97311984 24.6092489,5.03633663 21.7103284,4.46185075" id="Path"></path>
                        <path d="M30.0895522,7.25014925 L35.9154627,3.74543284 C37.8402107,4.67754244 39.6492864,5.8316577 41.305791,7.18423881 L35.4684179,10.6918209 C33.8151393,9.33969109 32.0100267,8.18468825 30.0895522,7.25014925" id="Path"></path>
                        <path d="M35.4684179,10.6918209 L41.2943284,7.18710448 C43.4461834,8.95848925 45.2940627,11.0696599 46.7648955,13.4371343 L40.9389851,16.9447164 C39.4698615,14.5751439 37.6217745,12.4627679 35.4684179,10.6918209" id="Path"></path>
                        <path d="M40.9389851,16.9447164 L46.7648955,13.4371343 C48.538737,16.3439924 49.8206787,19.5236725 50.5590448,22.848 L44.736,26.3641791 C43.9973982,23.0403722 42.7144321,19.8615211 40.9389851,16.9561791" id="Path"></path>
                        <path d="M44.736,26.3641791 L50.5590448,22.8594627 C51.315803,26.2451441 51.6792825,29.7068531 51.6422687,33.1758806 C51.6422687,33.6229254 51.6422687,34.0699701 51.6193433,34.5170149 L45.7934328,38.0217313 C45.8077612,37.5718209 45.8163582,37.1276418 45.8192239,36.680597 C45.8545587,33.2116487 45.4910995,29.7501318 44.736,26.3641791" id="Path"></path>
                    </g>
                    <path d="M165.584239,68.2201791 C164.481548,68.2174887 163.380046,68.147628 162.285851,68.0109851 C155.574448,67.1885373 149.797254,64.1566567 145.117612,58.9984478 C141.051224,54.5165373 137.993552,48.567403 136.271284,41.8044179 L136.225433,41.6353433 L136.056358,41.5952239 C133.041672,40.9074627 132.044418,37.5546269 131.789373,36.5459104 C131.362388,34.7405373 131.067224,32.9437612 131.806567,32.0066866 C132.176239,31.5424478 132.783761,31.3160597 133.669254,31.3160597 C133.927923,31.3163011 134.186328,31.332571 134.442985,31.3647761 L134.755343,31.4048955 L134.755343,31.0896716 C134.755343,30.8661493 134.755343,30.5967761 134.755343,30.3073433 L134.755343,29.8488358 C134.795463,17.9792239 138.73003,3.83426866 157.256597,3.83426866 C158.98105,3.84067633 160.703558,3.9507255 162.414806,4.1638209 C172.029134,5.34447761 179.256358,9.09850746 183.907343,15.3399403 C187.953672,20.7675224 189.991164,27.9488955 189.962507,36.7063881 C189.962507,37.1505672 189.962507,37.6004776 189.936716,38.0389254 L189.936716,38.3082985 L190.203224,38.3340896 C191.515701,38.4601791 192.392597,38.8613731 192.879761,39.5577313 C193.656358,40.6667463 193.352597,42.4090746 192.908418,44.1256119 C192.667701,45.0512239 191.656119,48.0716418 188.750328,48.0716418 L188.463761,48.0716418 L188.406448,48.2865672 C186.79594,54.0637612 184.053493,58.9325373 180.477134,62.3656119 C176.402149,66.2715224 171.398687,68.2545672 165.601433,68.2545672 L165.584239,68.2201791 Z" id="Path" fill="#66ABFF"></path>
                    <path d="M157.273791,3.53337313 L157.273791,4.10650746 C158.98495,4.11172866 160.694182,4.22178559 162.391881,4.4360597 C171.940299,5.60525373 179.087284,9.32202985 183.689552,15.4746269 C187.701493,20.8534925 189.707463,27.9832836 189.687403,36.680597 C189.687403,37.1247761 189.687403,37.5689552 189.661612,38.0045373 L189.644418,38.5432836 L190.180299,38.5948657 C191.40394,38.7123582 192.21206,39.0734328 192.647642,39.6981493 C193.358328,40.7097313 193.060299,42.3775522 192.633313,44.0281791 C192.406925,44.902209 191.455522,47.7535522 188.753194,47.7535522 L188.684418,47.7535522 L188.243104,47.7535522 L188.122746,48.1805373 C186.529433,53.9118806 183.824239,58.734806 180.270806,62.1306269 C176.258866,65.9849552 171.315582,67.9393433 165.595701,67.9393433 C164.504501,67.9375255 163.414445,67.8686194 162.331701,67.7330149 C155.689075,66.9191642 149.97206,63.9159403 145.341134,58.8121791 C141.306269,54.3646567 138.271522,48.4556418 136.557851,41.7241791 L136.471881,41.3860299 L136.130866,41.3086567 C133.205015,40.6380896 132.245015,37.1620299 132.081672,36.471403 C131.689075,34.8207761 131.376716,33.0182687 132.041552,32.1728955 C132.35391,31.7802985 132.901254,31.5997612 133.680716,31.5997612 C133.927957,31.600036 134.174921,31.6163088 134.42006,31.6484776 L135.044776,31.7229851 L135.06197,31.095403 C135.06197,30.8632836 135.06197,30.5853134 135.06197,30.2930149 L135.06197,29.8459701 C135.099224,18.0967164 138.985075,4.11797015 157.276657,4.11797015 L157.276657,3.54483582 M157.276657,3.54483582 C140.549731,3.54483582 134.537552,15.0505075 134.488836,29.8431045 C134.488836,30.2901493 134.488836,30.7400597 134.488836,31.078209 C134.219743,31.0452365 133.948953,31.0280131 133.677851,31.0266269 C130.49409,31.0266269 130.872358,33.8922985 131.52,36.6089552 C131.832358,37.9300299 132.978627,41.1797015 136.00191,41.873194 C139.240119,54.6139701 147.776955,66.5179701 162.26006,68.3090149 C163.365711,68.4463094 164.478695,68.51617 165.592836,68.518209 C178.072836,68.518209 185.612418,59.3308657 188.672955,48.3410149 L188.750328,48.3410149 C191.716299,48.3410149 192.865433,45.4122985 193.183522,44.1800597 C193.89994,41.4175522 194.306866,38.4229254 190.231881,38.033194 C190.249075,37.5832836 190.254806,37.1391045 190.257672,36.6920597 C190.312119,20.4580299 183.168,6.41910448 162.460657,3.87725373 C160.738352,3.65895511 159.004141,3.54793503 157.26806,3.54483582 L157.276657,3.54483582 Z" id="Shape" fill="#0051BA"></path>
                    <path d="M168.229254,54.8804776 C169.055887,55.0202036 169.66124,55.7357314 169.66209,56.5740896 C169.680582,56.9515992 169.532156,57.3181465 169.256212,57.5764301 C168.980268,57.8347137 168.604718,57.9586076 168.229254,57.9152239 L156.73791,56.5024478 C155.911278,56.3627218 155.305924,55.647194 155.305075,54.8088358 C155.28557,54.4310355 155.433686,54.0638646 155.709879,53.8053479 C155.986072,53.5468311 156.362223,53.4232881 156.73791,53.4677015 L168.229254,54.8804776 Z" id="Path" fill="#000000"></path>
                    <path d="M146.831284,31.4163582 C148.777075,31.654209 150.347463,33.5111642 150.341747,35.5629851 C150.336,37.614806 148.751284,39.0791642 146.808358,38.8413134 C144.865433,38.6034627 143.292179,36.7465075 143.297895,34.6975522 C143.303642,32.648597 144.885493,31.1756418 146.831284,31.4163582 Z" id="Path" fill="#000000"></path>
                    <path d="M148.126567,32.7718209 C148.612138,32.8517349 148.968597,33.2712402 148.969075,33.7633433 C148.981681,33.9889386 148.89241,34.2082888 148.725852,34.3609669 C148.559294,34.5136451 148.333023,34.5835422 148.109373,34.551403 C147.633503,34.4600502 147.290987,34.0415529 147.295522,33.5570149 C147.284152,33.3372681 147.369752,33.1235946 147.529694,32.9724771 C147.689636,32.8213595 147.907818,32.7480111 148.126567,32.7718209 L148.126567,32.7718209 Z" id="Path" fill="#F5F5F5"></path>
                    <path d="M179.54006,35.4311642 C181.488716,35.6718806 183.059104,37.5259701 183.053389,39.577791 C183.047642,41.6296119 181.462925,43.0968358 179.517134,42.8561194 C177.571343,42.615403 176.000955,40.7613134 176.009517,38.7123582 C176.018149,36.663403 177.597134,35.1933134 179.54006,35.4311642 Z" id="Path" fill="#000000"></path>
                    <path d="M180.958567,36.8353433 C181.444255,36.9142942 181.800354,37.3348076 181.798209,37.8268657 C181.810083,38.0496098 181.722678,38.2661717 181.559517,38.4182713 C181.396355,38.570371 181.1742,38.6423821 180.952836,38.6149254 C180.466194,38.5348359 180.109402,38.1137243 180.110328,37.6205373 C180.10022,37.3980114 180.188694,37.18234 180.352164,37.0310202 C180.515633,36.8797004 180.737482,36.8081132 180.958567,36.8353433 L180.958567,36.8353433 Z" id="Path" fill="#F5F5F5"></path>
                    <path d="M60.0358209,115.979463 L66.5695522,119.532896 C66.0537313,119.246328 65.305791,119.163224 64.2512239,119.340896 L57.7174925,115.787463 C58.7749254,115.609791 59.5228657,115.698627 60.0358209,115.979463 Z" id="Path" fill="#999298"></path>
                    <path d="M10.6029851,137.552239 L8.0038209,136.119403 C7.39916418,135.110687 7.23295522,133.826866 7.0638806,133.14197 C6.37898507,130.396657 5.99785075,127.410627 9.94674627,126.860418 L3.4158806,123.309851 C-0.535880597,123.865791 -0.151880597,126.84609 0.530149254,129.591403 C0.773731343,130.568597 1.01158209,132.815284 2.56477612,133.660657 L4.2440597,134.574806 C6.25002985,141.575642 10.3651343,147.642269 16.3744478,150.909134 L22.9053134,154.459701 C16.729791,151.104 12.5516418,144.790925 10.6029851,137.552239 Z" id="Path" fill="#999298"></path>
                    <path d="M47.2835821,91.033791 L53.8173134,94.5872239 C49.719403,92.3577313 44.2631642,91.5037612 37.1792239,92.5010149 C17.0163582,95.3351642 9.99259701,109.44 9.95534328,125.63391 C9.95534328,126.07809 9.95534328,126.522269 9.95534328,126.863284 L3.4158806,123.309851 C3.4158806,122.971701 3.4158806,122.524657 3.4158806,122.080478 C3.44453731,105.889433 10.4682985,91.7817313 30.6397612,88.9475821 C37.7208358,87.9503284 43.1770746,88.8042985 47.2835821,91.033791 Z" id="Path" fill="#999298"></path>
                    <path d="M33.2819104,156.686328 C27.8793731,156.745415 22.6595173,154.732335 18.6956418,151.061015 C15.0419104,147.688119 12.3223881,142.965493 10.8351045,137.40609 L10.777791,137.188299 L10.551403,137.188299 L10.4339104,137.188299 C8.16716418,137.188299 7.68573134,134.895761 7.39916418,133.514507 C7.35904478,133.322507 7.32465672,133.150567 7.28740299,133.007284 C6.86041791,131.287881 6.57098507,129.545552 7.34471642,128.399284 C7.82614925,127.688597 8.67152239,127.253015 9.9238209,127.078209 L10.1645373,127.046687 L10.1645373,126.803104 C10.1645373,126.576716 10.1645373,126.304478 10.1645373,126.01791 L10.1645373,125.573731 C10.1645373,116.84203 12.1991642,109.640597 16.1681194,104.164299 C20.7159403,97.8884776 27.7712239,94.0398806 37.1333731,92.7245373 C38.962367,92.4601183 40.807533,92.3231911 42.6555224,92.3147463 C48.9313433,92.3147463 53.9061493,94.1086567 57.4395224,97.6477612 C61.7523582,101.969194 63.9302687,108.795224 63.9130746,117.936716 C63.9130746,118.380896 63.9130746,118.830806 63.8930149,119.272119 L63.8930149,119.621731 L64.2368955,119.564418 C64.5520734,119.509154 64.8712012,119.479445 65.1911642,119.475582 C65.9505672,119.475582 66.4807164,119.676179 66.807403,120.088836 C67.5152239,120.985791 67.2200597,122.77397 66.7930746,124.576478 C66.7529552,124.748418 66.7157015,124.954746 66.6698507,125.181134 C66.3832836,126.656955 65.9190448,129.127164 63.5176119,129.723224 L63.351403,129.763343 L63.3084179,129.932418 C61.6291343,136.583642 58.4654328,142.555701 54.1554627,147.19809 C49.4041791,152.319045 43.4493134,155.508537 36.9385075,156.422687 C35.727181,156.594795 34.5053978,156.682886 33.2819104,156.686328 Z" id="Path" fill="#D8D1D4"></path>
                    <path d="M42.6784478,92.0281791 L42.6784478,92.6013134 C48.8740299,92.6013134 53.7800597,94.3665672 57.2561194,97.8512239 C61.5145075,102.115343 63.6637612,108.875463 63.6465672,117.936716 C63.6465672,118.375164 63.6465672,118.822209 63.6236418,119.263522 L63.6035821,119.962746 L64.294209,119.845254 C64.5933372,119.793271 64.8961681,119.76548 65.1997612,119.762149 C65.8674627,119.762149 66.3231045,119.928358 66.5896119,120.266507 C67.225791,121.068896 66.9134328,122.862806 66.5237015,124.510567 C66.4807164,124.691104 66.440597,124.903164 66.3976119,125.129552 C66.1110448,126.628299 65.6783284,128.892179 63.4660299,129.445254 L63.1336119,129.528358 L63.0476418,129.860776 C61.4056119,136.374448 58.176,142.469731 53.9634627,147.003224 C49.2580299,152.075463 43.3604776,155.233433 36.9155821,156.138985 C35.7119634,156.310932 34.4977479,156.398072 33.2819104,156.399761 C27.7225075,156.399761 22.8795224,154.531343 18.8905075,150.848955 C15.2768955,147.513313 12.5860299,142.839403 11.1130746,137.331582 L10.9955821,136.893134 L10.5399403,136.907463 L10.4339104,136.907463 C8.55689552,136.907463 8.0439403,135.205254 7.68,133.468657 C7.6398806,133.282388 7.60549254,133.104716 7.56537313,132.952836 C7.15558209,131.299343 6.8718806,129.625791 7.58256716,128.57409 C8.01528358,127.935045 8.79761194,127.542448 9.97540299,127.376239 L10.4568358,127.310328 L10.4568358,126.823164 C10.4568358,126.591045 10.4568358,126.318806 10.4568358,126.029373 L10.4568358,125.573731 C10.4568358,116.905075 12.462806,109.75809 16.4059701,104.333373 C20.9079403,98.1234627 27.8973134,94.3035224 37.1792239,93.0082388 C38.9949703,92.7460985 40.8267034,92.6101309 42.6612537,92.6013134 L42.6612537,92.0281791 M42.6612537,92.0281791 C40.8007776,92.0362704 38.9431328,92.1741575 37.1018507,92.4408358 C16.9361194,95.2749851 9.91235821,109.382687 9.87797015,125.573731 C9.87797015,126.01791 9.87797015,126.464955 9.87797015,126.803104 C5.92620896,127.359045 6.31020896,130.339343 6.99223881,133.084657 C7.296,134.302567 7.58829851,137.483463 10.4310448,137.483463 L10.5571343,137.483463 C13.4428657,148.266985 21.2718806,156.97003 33.2790448,156.97003 C34.5255509,156.968717 35.7704185,156.879661 37.0044179,156.703522 C51.1092537,154.720478 60.3940299,142.753433 63.6121791,129.998328 C66.5580896,129.264716 66.7787463,125.960597 67.0911045,124.639522 C67.7186866,121.974448 68.1026866,119.194746 65.2083582,119.194746 C64.8721293,119.198711 64.5367464,119.229375 64.2053731,119.286448 C64.2197015,118.836537 64.2282985,118.389493 64.2282985,117.942448 C64.2569552,103.341851 58.5886567,92.0339104 42.6841791,92.0339104 L42.6612537,92.0281791 Z" id="Shape" fill="#999298"></path>
                    <path d="M63.9646567,124.046328 C64.6473302,123.943483 65.3448945,124.013437 65.9935522,124.249791 C66.39058,124.398966 66.7625987,124.607683 67.0968358,124.868776 C67.2818815,125.014605 67.4553003,125.17461 67.6155224,125.347343 C68.5210746,126.333134 69.0483582,127.777433 69.0483582,129.442388 C69.0178586,131.083407 68.5732995,132.690128 67.7559403,134.113433 C66.6894734,135.963752 65.2594348,137.579003 63.552,138.861851 C62.0594155,139.999897 60.4481382,140.973197 58.7462687,141.764776 C55.1527164,143.484179 50.4816716,144.885493 44.4866866,145.742328 L44.3176119,145.765254 C44.1164546,145.792574 43.9137067,145.727693 43.7657813,145.588666 C43.6178558,145.449638 43.5405389,145.251299 43.5553433,145.048836 C43.5524922,144.593935 43.8739326,144.201464 44.3204776,144.114627 L44.4895522,144.088836 C51.2009552,143.131701 56.1442388,141.472478 59.6776119,139.546746 L60.1561791,139.280239 C63.4316418,137.403224 65.4089552,135.311284 66.4606567,133.385552 C67.1196291,132.252415 67.4804881,130.970676 67.5094925,129.660179 C67.5298825,128.798183 67.3170093,127.946691 66.8933731,127.195701 C66.818545,127.070506 66.7362468,126.94993 66.6469254,126.834627 C66.3103522,126.383354 65.852077,126.037411 65.3258507,125.837373 C64.8864605,125.675581 64.4133471,125.627284 63.9503284,125.696955 C63.7484093,125.724257 63.5449429,125.659068 63.3964858,125.519507 C63.2480287,125.379946 63.170406,125.180891 63.185194,124.977672 C63.1850038,124.51936 63.5134791,124.12688 63.9646567,124.046328 L63.9646567,124.046328 Z" id="Path" fill="#000000"></path>
                    <path d="M44.9910448,142.174567 C45.9994638,142.017318 46.9689552,142.629371 47.2606567,143.607403 L47.0915821,143.630328 C46.6456581,143.718204 46.3247372,144.11004 46.3264478,144.564537 C46.3118174,144.767187 46.389071,144.965678 46.5368454,145.105119 C46.6846198,145.24456 46.8872554,145.310176 47.0887164,145.283821 L47.257791,145.25803 C46.9579589,146.328027 46.0752222,147.134053 44.9824478,147.335642 L36.2650746,148.562149 C34.9411343,148.748418 33.8722388,147.742567 33.8750987,146.315463 C33.8779701,144.888358 34.952597,143.578746 36.2736716,143.392478 L44.9910448,142.174567 Z" id="Path" fill="#000000"></path>
                    <path d="M22.0226866,124.003343 C23.9168955,123.736836 25.4614925,125.178269 25.4442985,127.224358 C25.4271045,129.270448 23.9025672,131.141731 22.0054925,131.408239 C20.1084179,131.674746 18.5666866,130.233313 18.5666866,128.19009 C18.5666866,126.146866 20.1284776,124.269851 22.0226866,124.003343 Z" id="Path" fill="#000000"></path>
                    <path d="M23.5500896,124.943284 C23.7661767,124.915339 23.9834183,124.985667 24.1421321,125.134947 C24.300846,125.284227 24.3843384,125.496757 24.3696716,125.714149 C24.3706746,126.203717 24.0246959,126.625378 23.5443582,126.72 C23.3277404,126.748074 23.1099656,126.677384 22.9511337,126.527438 C22.7923017,126.377492 22.7092051,126.164142 22.7247761,125.946269 C22.7251435,125.457779 23.0708102,125.037698 23.5500896,124.943284 L23.5500896,124.943284 Z" id="Path" fill="#EFEFEF"></path>
                    <path d="M53.8889552,119.524299 C55.7831642,119.257791 57.3134328,120.699224 57.3105712,122.745313 C57.3077015,124.791403 55.7688358,126.662687 53.8717612,126.929194 C51.9746866,127.195701 50.4329552,125.754269 50.4472836,123.711045 C50.4616119,121.667821 51.9918806,119.785075 53.8889552,119.524299 Z" id="Path" fill="#000000"></path>
                    <path d="M55.5596418,120.452776 C55.7764894,120.423602 55.9949144,120.493918 56.1540167,120.64412 C56.3131189,120.794321 56.3958797,121.008341 56.3792239,121.226507 C56.3802529,121.714514 56.0355303,122.134908 55.5567761,122.229493 C55.3396998,122.258512 55.1210952,122.188246 54.9615814,122.038181 C54.8020676,121.888116 54.7186015,121.674203 54.7343284,121.455761 C54.7346957,120.967271 55.0803625,120.54719 55.5596418,120.452776 L55.5596418,120.452776 Z" id="Path" fill="#EFEFEF"></path>
                </g>
                <g id="_3D_virus_clean" transform="translate(15.474627, 12.608955)" fill-rule="nonzero">
                    <g id="Group" fill="#D97507">
                        <g transform="translate(41.265672, 36.967164)" id="Path">
                            <path d="M5.65683582,0.392597015 L8.13850746,1.74232836 C7.85201264,1.60355039 7.52826801,1.56132283 7.21576119,1.62197015 C6.01791045,1.79104478 4.27558209,2.93158209 2.5561791,4.71116418 L0.0745074627,3.36143284 C1.79391045,1.57898507 3.53337313,0.438447761 4.73408955,0.269373134 C5.04695388,0.211458243 5.37013157,0.254615511 5.65683582,0.392597015 L5.65683582,0.392597015 Z"></path>
                            <g>
                                <path d="M2.5561791,4.71116418 L0.0745074627,3.36143284 C0.300895522,3.12644776 0.527283582,2.90292537 0.75080597,2.69086567 L3.23534328,4.04346269 C3.00895522,4.25265672 2.78256716,4.4761791 2.5561791,4.71116418"></path>
                                <path d="M3.23534328,4.04346269 L0.75080597,2.69086567 C1.42465675,2.04688286 2.16422947,1.47539484 2.95737313,0.985791045 L5.44191045,2.33552239 C4.64836644,2.83003364 3.90880828,3.40631273 3.23534328,4.05492537"></path>
                                <path d="M5.44477612,2.33552239 L2.96023881,0.985791045 C3.32217168,0.762284766 3.7063179,0.576934212 4.10650746,0.432716418 L6.5881791,1.78244776 C6.18895852,1.92896266 5.8050384,2.11420412 5.44191045,2.33552239"></path>
                                <path d="M6.59104478,1.78244776 L4.10937313,0.432716418 C4.31548133,0.357274185 4.5285937,0.302556142 4.74555224,0.269373134 L4.82579104,0.269373134 L7.31032836,1.61910448 L7.22722388,1.61910448 C7.01013497,1.65019859 6.79690787,1.70398561 6.59104478,1.77958209"></path>
                                <path d="M7.29886567,1.61050746 L4.81432836,0.260776119 C5.10203418,0.218190982 5.39588732,0.264168004 5.65683582,0.392597015 L8.13850746,1.74232836 C7.87840051,1.61447939 7.58563692,1.5685165 7.29886567,1.61050746"></path>
                            </g>
                        </g>
                        <g transform="translate(36.680597, 42.698507)" id="Path">
                            <path d="M3.30985075,8.2760597 L0.825313433,6.92632836 C0.750743248,6.88521651 0.681457133,6.83517654 0.618985075,6.77731343 C-0.338149254,5.87462687 0.498626866,3.12931343 2.48740299,0.272238806 L4.9719403,1.62197015 C2.98029851,4.48764179 2.14638806,7.22435821 3.10065672,8.12704478 C3.16287848,8.18649464 3.23333195,8.23668067 3.30985075,8.2760597 L3.30985075,8.2760597 Z"></path>
                            <g>
                                <path d="M3.30985075,8.2760597 L0.825313433,6.92632836 C0.750743248,6.88521651 0.681457133,6.83517654 0.618985075,6.77731343 C0.565874989,6.72571548 0.517889574,6.66909269 0.475701493,6.60823881 L2.95737313,7.95797015 C2.99970044,8.01871705 3.047675,8.07532703 3.10065672,8.12704478 C3.16287848,8.18649464 3.23333195,8.23668067 3.30985075,8.2760597"></path>
                                <path d="M2.95737313,7.95797015 L0.475701493,6.60823881 C0.41768015,6.52475457 0.370496669,6.43423932 0.335283582,6.33886567 L2.8198209,7.68859701 C2.85462005,7.78361566 2.90080759,7.87406626 2.95737313,7.95797015"></path>
                                <path d="M2.8198209,7.68859701 L0.335283582,6.33886567 C0.295233604,6.22641008 0.266435937,6.11025949 0.249313433,5.9921194 L2.73098507,7.34185075 C2.74869361,7.46016012 2.77846055,7.5763472 2.8198209,7.68859701"></path>
                                <path d="M2.73098507,7.34185075 L0.249313433,5.9921194 C0.220171699,5.78902972 0.214402711,5.58326915 0.232119403,5.37886567 L2.71379104,6.72859701 C2.69890985,6.93307355 2.70467029,7.13852923 2.73098507,7.34185075"></path>
                                <path d="M2.71379104,6.72859701 L0.232119403,5.37886567 C0.326686567,4.08358209 1.14340299,2.20370149 2.48740299,0.272238806 L4.9719403,1.62197015 C3.62507463,3.55343284 2.80835821,5.43331343 2.71379104,6.72859701"></path>
                            </g>
                        </g>
                        <g transform="translate(46.137313, 26.937313)" id="Path">
                            <path d="M4.60226866,6.73146269 L2.12059701,5.38173134 C1.09755224,4.82579104 0.300895522,2.77397015 0.071641791,0.0773731343 L2.55331343,1.42997015 C2.78543284,4.12370149 3.57922388,6.17552239 4.60226866,6.73146269 Z"></path>
                            <g>
                                <path d="M4.60226866,6.73146269 L2.12059701,5.38173134 C1.81546188,5.19949511 1.55732482,4.94822862 1.36692537,4.6481194 L3.84859701,5.99785075 C4.03899646,6.29795997 4.29713352,6.54922646 4.60226866,6.73146269"></path>
                                <path d="M3.84859701,5.99785075 L1.36692537,4.6481194 C1.12118768,4.27708457 0.921058376,3.87778811 0.770865672,3.45886567 L3.25253731,4.80859701 C3.40273002,5.22751946 3.60285932,5.62681591 3.84859701,5.99785075"></path>
                                <path d="M3.25253731,4.80859701 L0.770865672,3.45886567 C0.500201008,2.71092572 0.308121341,1.93684467 0.197731343,1.14913433 L2.67940299,2.50173134 C2.79258734,3.28796409 2.98459933,4.06081237 3.25253731,4.80859701"></path>
                                <path d="M2.67940299,2.50173134 L0.197731343,1.14626866 C0.146149254,0.80238806 0.103164179,0.444179104 0.071641791,0.0745074627 L2.55331343,1.42710448 C2.58483582,1.79677612 2.6278209,2.15498507 2.67940299,2.49886567"></path>
                            </g>
                        </g>
                        <g transform="translate(49.002985, 17.194030)" id="Path">
                            <path d="M0.719283582,0.432716418 L3.2038209,1.78244776 C2.98588528,1.65819274 2.73320438,1.60886459 2.48453731,1.64202985 L0,0.286567164 C0.24929918,0.255129711 0.50202178,0.306479722 0.719283582,0.432716418 Z"></path>
                            <g>
                                <polyline points="2.48453731 1.64202985 0 0.286567164 0.0458507463 0.286567164 2.52752239 1.63629851 2.48453731 1.63629851"></polyline>
                                <path d="M2.52752239,1.63629851 L0.0458507463,0.286567164 C0.280005097,0.265058024 0.515109604,0.316080704 0.719283582,0.432716418 L3.2038209,1.78244776 C2.99882379,1.66523229 2.76262766,1.61418991 2.52752239,1.63629851"></path>
                            </g>
                        </g>
                        <g transform="translate(46.137313, 17.480597)" id="Path">
                            <path d="M2.56191045,7.57970149 L0.0773731343,6.22997015 C0.363940299,2.84847761 1.51020896,0.194865672 2.86567164,0.00573134328 L5.35020896,1.35546269 C3.9918806,1.54746269 2.86567164,4.19820896 2.56191045,7.57970149 Z"></path>
                            <g>
                                <path d="M2.56191045,7.57970149 L0.0773731343,6.22997015 C0.309492537,3.57062687 1.06029851,1.35832836 2.03176119,0.449910448 L4.51629851,1.79964179 C3.54483582,2.71379104 2.79689552,4.92322388 2.56191045,7.57970149"></path>
                                <path d="M4.51629851,1.79964179 L2.03176119,0.449910448 C2.1340073,0.350193407 2.24748316,0.262682358 2.36991045,0.189134328 L4.85158209,1.53886567 C4.73073045,1.61342646 4.61831321,1.70086208 4.51629851,1.79964179"></path>
                                <path d="M4.85158209,1.53886567 L2.36991045,0.189134328 C2.45340298,0.138485495 2.54171645,0.0962486193 2.63355224,0.0630447761 L5.11808955,1.41277612 C5.02532558,1.44594479 4.93605795,1.48817894 4.85158209,1.53886567"></path>
                                <path d="M5.11808955,1.41277612 L2.63355224,0.0630447761 C2.70871596,0.0359011661 2.78651218,0.016692224 2.86567164,0.00573134328 L5.35020896,1.35546269 C5.27124698,1.36743382 5.19354871,1.38661857 5.11808955,1.41277612"></path>
                            </g>
                        </g>
                        <polygon id="Path" points="41.6525373 44.3204776 39.168 42.9707463 35.3595224 39.385791 37.8440597 40.7383881"></polygon>
                        <g transform="translate(27.223881, 49.576119)" id="Path">
                            <path d="M4.52489552,0.99438806 L7.00656716,2.3441194 C6.03797015,1.81683582 4.50770149,1.54746269 2.7080597,1.61910448 L0.223522388,0.269373134 C2.02602985,0.194865672 3.55629851,0.467104478 4.52489552,0.99438806 Z"></path>
                            <path d="M2.71665672,1.61910448 L0.232119403,0.269373134 C2.02602985,0.194865672 3.55629851,0.467104478 4.53062687,0.99438806 L7.01229851,2.3441194 C6.04370149,1.81683582 4.51343284,1.54746269 2.71379104,1.61910448"></path>
                        </g>
                        <polygon id="Path" points="43.3060299 25.8168358 40.8214925 24.4671045 46.2146866 23.7105672 48.6992239 25.0602985"></polygon>
                        <polygon id="Path" points="26.8771343 51.6250746 24.3954627 50.2753433 24.4040597 44.4551642 26.888597 45.8048955"></polygon>
                        <g transform="translate(41.265672, 11.749254)" id="Path">
                            <path d="M4.06925373,2.31259701 L1.58471642,0.96 C1.07560205,0.676237887 0.588074798,0.355370249 0.126089552,-4.07236434e-15 L2.61062687,1.35259701 C3.07240561,1.70825711 3.55995482,2.02913921 4.06925373,2.31259701 L4.06925373,2.31259701 Z"></path>
                            <path d="M4.06925373,2.31259701 L1.58471642,0.96 C1.07560205,0.676237887 0.588074798,0.355370249 0.126089552,-4.07236434e-15 L2.61062687,1.35259701 C3.07277873,1.70431452 3.5603183,2.02135892 4.06925373,2.30113433"></path>
                        </g>
                        <g transform="translate(18.913433, 50.149254)" id="Path">
                            <path d="M3.65946269,6.74579104 L1.17779104,5.3960597 C0.475701493,5.01492537 0.0687761194,4.49910448 0.0716267564,3.88585075 C0.0716267564,2.41862687 2.38710448,0.871164179 5.47916418,0.126089552 L7.96370149,1.4758209 C4.86877612,2.22089552 2.5561791,3.76835821 2.55331343,5.23558209 C2.55331343,5.84883582 2.95737313,6.36465672 3.65946269,6.74579104 Z"></path>
                            <g>
                                <path d="M3.65946269,6.74579104 L1.17779104,5.3960597 C0.839169586,5.22901448 0.544651344,4.98456433 0.318089552,4.68250746 L2.80262687,6.03223881 C3.02957811,6.33392468 3.32399981,6.57829469 3.66232836,6.74579104"></path>
                                <path d="M2.81122388,6.03223881 L0.326686567,4.68250746 C0.256626432,4.58183348 0.19890033,4.47311599 0.154746269,4.35868657 L2.63928358,5.70841791 C2.68228814,5.82336844 2.74008817,5.93222517 2.81122388,6.03223881"></path>
                                <path d="M2.63928358,5.70841791 L0.154746269,4.35868657 C0.122205144,4.26573103 0.0991621901,4.16971872 0.0859701493,4.0721194 L2.57910448,5.44477612 C2.5928396,5.5369631 2.61687039,5.62731886 2.65074627,5.71414925"></path>
                                <path d="M2.57910448,5.44477612 L0.0974328358,4.0921791 C0.090210917,4.02550844 0.090210917,3.95825276 0.0974328358,3.89158209 C0.0974328358,3.85432836 0.0974328358,3.8199403 0.0974328358,3.78555224 L2.57910448,5.13814925 C2.57910448,5.17253731 2.57910448,5.20692537 2.57910448,5.24131343 C2.5794986,5.30937195 2.58428466,5.37733409 2.59343284,5.44477612"></path>
                                <path d="M2.5561791,5.13241791 L0.0745074627,3.7798209 C0.111761194,3.27259701 0.424119403,2.75677612 0.934208955,2.26961194 L3.4158806,3.62220896 C2.95275364,4.00226168 2.64654541,4.54016747 2.5561791,5.13241791"></path>
                                <path d="M3.43880597,3.62220896 L0.957134328,2.26961194 C1.28851584,1.96714668 1.65060214,1.70014405 2.03749254,1.47295522 L4.51916418,2.82555224 C4.13195855,3.0522629 3.76982385,3.31930123 3.43880597,3.62220896"></path>
                                <path d="M4.50483582,2.82555224 L2.02316418,1.47295522 C2.66046465,1.10211165 3.33227483,0.7940387 4.02913433,0.553074627 L6.51367164,1.90567164 C5.81569235,2.14383549 5.14361065,2.45203295 4.50770149,2.82555224"></path>
                                <path d="M6.5079403,1.90567164 L4.0119403,0.553074627 C4.47331343,0.392597015 4.96047761,0.249313433 5.46770149,0.126089552 L7.95223881,1.4758209 C7.45979967,1.59353972 6.97387771,1.73702062 6.49647761,1.90567164"></path>
                            </g>
                        </g>
                        <polygon id="Path" points="37.8899104 15.7325373 35.4082388 14.382806 39.2310448 9.72608955 41.7127164 11.0758209"></polygon>
                        <g transform="translate(16.334328, 41.838806)" id="Path">
                            <path d="M4.11510448,2.46447761 L1.63056716,1.1118806 C1.13204525,0.840181935 0.653251792,0.53375412 0.197731343,0.194865672 L2.67940299,1.54459701 C3.13562109,1.88478023 3.6153919,2.1921783 4.11510448,2.46447761 L4.11510448,2.46447761 Z"></path>
                            <path d="M4.11510448,2.46447761 L1.63056716,1.1118806 C1.13204525,0.840181935 0.653251792,0.53375412 0.197731343,0.194865672 L2.67940299,1.54459701 C3.13469961,1.88466553 3.61350939,2.19206142 4.11223881,2.46447761"></path>
                        </g>
                        <g transform="translate(36.967164, 2.865672)" id="Path">
                            <path d="M4.7398209,1.12047761 L7.22149254,2.47307463 C6.02077612,1.81683582 4.88597015,1.51880597 4.02913433,1.63916418 C3.5910666,1.68409306 3.18693521,1.89539018 2.9000597,2.22949254 C1.9400597,3.39868657 2.76537313,5.9118806 4.74555224,8.21014925 L2.2638806,6.86041791 C0.283701493,4.5678806 -0.544477612,2.04895522 0.415522388,0.876895522 C0.707061836,0.539950065 1.11801715,0.329335467 1.56179104,0.289432836 C2.40429851,0.169074627 3.53623881,0.467104478 4.7398209,1.12047761 Z"></path>
                            <g>
                                <path d="M4.74555224,8.21014925 L2.2638806,6.86041791 C1.95727024,6.50672795 1.67027278,6.13650123 1.4041791,5.75140299 L3.88871642,7.104 C4.15477041,7.48821129 4.44177172,7.85748631 4.74841791,8.21014925"></path>
                                <path d="M3.89158209,7.104 L1.40704478,5.75140299 C0.977469621,5.13801471 0.623393684,4.47508449 0.352477612,3.77695522 L2.83414925,5.12668657 C3.10608829,5.82579705 3.46111476,6.48966769 3.89158209,7.104"></path>
                                <path d="M2.83414925,5.12668657 L0.352477612,3.77695522 C0.21953758,3.42781585 0.123492336,3.06572528 0.0659104478,2.69659701 L2.54758209,4.04632836 C2.60616441,4.4152458 2.70218262,4.77723446 2.83414925,5.12668657"></path>
                                <path d="M2.54185075,4.04632836 L0.0601791045,2.69659701 C0.0213992328,2.45314942 0.00890952981,2.2062376 0.0229253731,1.9601194 L2.50746269,3.30985075 C2.49099926,3.55585342 2.50253591,3.80293012 2.54185075,4.04632836"></path>
                                <path d="M2.50746269,3.30985075 L0.0229253731,1.9601194 C0.0385145307,1.56711211 0.175689519,1.1886293 0.415522388,0.876895522 C0.458408303,0.826373965 0.504344853,0.778523392 0.553074627,0.73361194 L3.03474627,2.08334328 C2.98691569,2.12927074 2.94193634,2.17807811 2.9000597,2.22949254 C2.65857141,2.53921757 2.52116068,2.91734781 2.50746269,3.30985075"></path>
                                <path d="M3.03474627,2.08334328 L0.553074627,0.73361194 C0.633021778,0.658971781 0.720403032,0.592715665 0.813850746,0.535880597 L3.29838806,1.88561194 C3.20403326,1.94241697 3.11569844,2.00866809 3.03474627,2.08334328"></path>
                                <path d="M3.29838806,1.88561194 L0.813850746,0.535880597 C0.913540625,0.476303599 1.0191904,0.427320523 1.12907463,0.389731343 L3.61361194,1.73946269 C3.50421956,1.77826673 3.39868733,1.82719531 3.29838806,1.88561194"></path>
                                <path d="M3.61361194,1.73946269 L1.12907463,0.389731343 C1.26468396,0.341263874 1.40486633,0.30669836 1.54746269,0.286567164 L1.64202985,0.286567164 L4.12370149,1.63629851 L4.02913433,1.63629851 C3.88757291,1.65549503 3.74834276,1.68910231 3.61361194,1.73659701"></path>
                                <path d="M4.12370149,1.62770149 L1.64202985,0.286567164 C2.50173134,0.200597015 3.57922388,0.498626866 4.7398209,1.12907463 L7.22149254,2.48167164 C6.07522388,1.85122388 4.96907463,1.55032836 4.12370149,1.62197015"></path>
                            </g>
                        </g>
                        <polygon id="Path" points="13.0216119 46.0054925 10.5399403 44.6557612 14.3627463 40.0019104 16.8472836 41.3516418"></polygon>
                        <g transform="translate(27.510448, 11.749254)" id="Path">
                            <path d="M6.45635821,1.71940299 L8.93802985,3.06913433 C6.96382505,2.00367578 4.74072149,1.48524843 2.49886567,1.56752239 L0.0171940299,0.217791045 C2.25894211,0.136632019 4.48175685,0.654992022 6.45635821,1.71940299 Z"></path>
                            <path d="M2.49886567,1.56179104 L0.0171940299,0.212059701 C2.25946371,0.132656395 4.4823097,0.653002184 6.45635821,1.71940299 L8.93802985,3.06913433 C6.96382505,2.00367578 4.74072149,1.48524843 2.49886567,1.56752239"></path>
                        </g>
                        <g transform="translate(10.889552, 31.808955)" id="Path">
                            <path d="M5.95773134,9.54268657 L3.47319403,8.19295522 C1.5935416,5.90306859 0.458670022,3.09338654 0.220656716,0.14041791 L2.70232836,1.49014925 C2.93953733,4.44382098 4.07561125,7.25400382 5.95773134,9.54268657 Z"></path>
                            <g>
                                <path d="M5.95773134,9.54268657 L3.47319403,8.19295522 C3.18662687,7.86053731 2.93444776,7.51665672 2.68513433,7.15558209 L5.16967164,8.50531343 C5.41460098,8.8642414 5.67762731,9.21047971 5.95773134,9.54268657"></path>
                                <path d="M5.15820896,8.50531343 L2.68513433,7.1641791 C2.05378382,6.22731021 1.53713542,5.21806595 1.14626866,4.15808955 L3.63080597,5.51068657 C4.01637983,6.56724527 4.52929617,7.57286923 5.15820896,8.50531343"></path>
                                <path d="M3.61647761,5.51068657 L1.14626866,4.15808955 C0.773199306,3.15793543 0.505248086,2.1216653 0.346746269,1.06602985 L2.83128358,2.41576119 C2.98878934,3.47253159 3.25676445,4.50985458 3.63080597,5.51068657"></path>
                                <path d="M2.81695522,2.41576119 L0.33241791,1.06602985 C0.286567164,0.762268657 0.249313433,0.452776119 0.220656716,0.14041791 L2.70232836,1.49014925 C2.73098507,1.80250746 2.77110448,2.112 2.81695522,2.41576119"></path>
                            </g>
                        </g>
                        <polygon id="Path" points="26.9459104 13.7408955 24.4642388 12.3911642 24.4757015 6.57098507 26.9573731 7.92071642"></polygon>
                        <g transform="translate(4.298507, 42.698507)" id="Path">
                            <path d="M8.41074627,11.0815522 L5.92620896,9.74328358 C4.98947151,9.22067748 4.1228463,8.58130066 3.34710448,7.84047761 C0.641910448,5.29576119 -0.644776119,2.13492537 0.467104478,0.779462687 C0.761058509,0.447839315 1.17170202,0.242517561 1.61337313,0.206328358 C2.47307463,0.0859701493 3.60214925,0.384 4.80286567,1.03737313 L7.28453731,2.38710448 C6.0838209,1.73373134 4.9518806,1.43570149 4.09504478,1.5560597 C3.65948285,1.59652359 3.2557196,1.80147955 2.96597015,2.12919403 C1.85122388,3.48465672 3.14077612,6.64835821 5.83164179,9.19020896 C6.60773682,9.92738411 7.47438302,10.5629247 8.41074627,11.0815522 Z"></path>
                            <g>
                                <path d="M8.41074627,11.0815522 L5.92620896,9.74328358 C4.98947151,9.22067748 4.1228463,8.58130066 3.34710448,7.84047761 C2.64391446,7.18160792 2.01190682,6.45066899 1.46149254,5.65970149 L3.94602985,7.00943284 C4.49308064,7.79353003 5.12126862,8.51777122 5.8201791,9.17014925 C6.59543225,9.91236005 7.4621157,10.5527428 8.39928358,11.0758209"></path>
                                <path d="M3.93743284,6.99510448 L1.45289552,5.64537313 C1.02350183,5.03038151 0.66854618,4.3666433 0.395462687,3.6680597 L2.88,5.02065672 C3.15084183,5.71937305 3.50594448,6.3824238 3.93743284,6.99510448"></path>
                                <path d="M2.88,5.02065672 L0.395462687,3.6680597 C0.261769486,3.31719273 0.165708637,2.95312211 0.108895522,2.58197015 L2.57910448,3.93456716 C2.63676676,4.30554211 2.7328044,4.66952477 2.86567164,5.02065672"></path>
                                <path d="M2.57910448,3.93456716 L0.103164179,2.57910448 C0.0628177917,2.33582332 0.0503192899,2.08873755 0.0659104478,1.84262687 L2.54758209,3.19522388 C2.53356625,3.44134208 2.54605595,3.6882539 2.58483582,3.93170149"></path>
                                <path d="M2.54758209,3.19808955 L0.0659104478,1.84549254 C0.0801898681,1.45310268 0.217537544,1.07514594 0.458507463,0.765134328 C0.500453112,0.714683645 0.545431866,0.666833906 0.59319403,0.621850746 L3.07773134,1.97158209 C3.02919051,2.01578075 2.98415931,2.06368628 2.94304478,2.11486567 C2.70065559,2.42540448 2.56228255,2.80442628 2.54758209,3.19808955"></path>
                                <path d="M3.07773134,1.97158209 L0.59319403,0.621850746 C0.674146199,0.547175549 0.762481024,0.48092443 0.856835821,0.424119403 L3.34137313,1.77385075 C3.24652996,1.82992751 3.15812112,1.89623414 3.07773134,1.97158209"></path>
                                <path d="M3.34137313,1.77385075 L0.859701493,0.424119403 C0.959301048,0.363607669 1.0649489,0.313665047 1.17492537,0.275104478 L3.65946269,1.62770149 C3.54935746,1.66473831 3.44364991,1.71374818 3.34423881,1.77385075"></path>
                                <path d="M3.65659701,1.62770149 L1.1720597,0.286567164 C1.30787021,0.240029914 1.44805004,0.207385297 1.59044776,0.189134328 L1.68214925,0.189134328 L4.1638209,1.53886567 L4.0721194,1.53886567 C3.93055799,1.55806219 3.79132783,1.59166947 3.65659701,1.63916418"></path>
                                <path d="M4.1638209,1.5159403 L1.68214925,0.166208955 C2.52752239,0.0773731343 3.62220896,0.378268657 4.7799403,1.00871642 L7.26161194,2.35844776 C6.11534328,1.728 5.00919403,1.42710448 4.1638209,1.5159403"></path>
                            </g>
                        </g>
                        <g transform="translate(16.334328, 12.322388)" id="Path">
                            <path d="M2.71952239,6.05802985 L0.237850746,4.70543284 C2.3933779,2.46516019 5.1236876,0.861078457 8.12991045,0.0687761194 L10.6029851,1.43283582 C7.60105534,2.22321318 4.87398321,3.8231748 2.71952239,6.05802985 L2.71952239,6.05802985 Z"></path>
                            <g>
                                <path d="M2.71952239,6.05802985 L0.237850746,4.70543284 C0.41838806,4.52202985 0.604656716,4.34149254 0.793791045,4.1638209 L3.27832836,5.51355224 C3.08919403,5.69122388 2.90292537,5.87176119 2.70519403,6.05802985"></path>
                                <path d="M3.27832836,5.51355224 L0.793791045,4.1638209 C1.72096947,3.29389695 2.73830816,2.52536913 3.82853731,1.87128358 L6.30447761,3.21528358 C5.21440694,3.86960393 4.19709231,4.63811357 3.26973134,5.5078209"></path>
                                <path d="M6.30447761,3.21528358 L3.8199403,1.86555224 C4.75290438,1.30481307 5.73982716,0.839192892 6.76585075,0.475701493 L9.24752239,1.82829851 C8.22250073,2.19081917 7.23652681,2.65548458 6.30447761,3.21528358"></path>
                                <path d="M9.2561194,1.82829851 L6.77444776,0.475701493 C7.21862687,0.320955224 7.67140299,0.189134328 8.12991045,0.0687761194 L10.6029851,1.43283582 C10.1444776,1.54746269 9.69456716,1.68501493 9.24752239,1.84262687"></path>
                            </g>
                        </g>
                        <g transform="translate(10.889552, 19.486567)" id="Path">
                            <path d="M2.7080597,10.5055522 L0.22638806,9.17014925 C0.548391968,5.95013593 1.67904886,2.86374819 3.51331343,0.197731343 L5.99498507,1.55032836 C4.16342472,4.2113548 3.03288986,7.29149555 2.7080597,10.5055522 L2.7080597,10.5055522 Z"></path>
                            <path d="M2.7080597,10.5055522 L0.22638806,9.17014925 C0.548391968,5.95013593 1.67904886,2.86374819 3.51331343,0.197731343 L5.99498507,1.55032836 C4.16117159,4.21551355 3.03053505,7.30085999 2.7080597,10.5198806"></path>
                        </g>
                        <polygon id="Path" points="8.20728358 30.7515224 5.72274627 29.401791 11.1159403 28.6423881 13.5976119 29.9921194"></polygon>
                        <g transform="translate(18.913433, 0.000000)" id="Path">
                            <path d="M3.75402985,7.19570149 L1.26949254,5.84597015 C0.567402985,5.46483582 0.160477612,4.94901493 0.163328249,4.33289552 C0.163328249,2.63355224 3.27546269,0.822447761 7.104,0.283701493 C9.54841791,-0.0573134328 11.6890746,0.197731343 12.9270448,0.856835821 L15.4115821,2.20656716 C14.1764776,1.536 12.0300896,1.27808955 9.58853731,1.63343284 C5.75713433,2.1721791 2.6478806,3.98328358 2.64501493,5.67976119 C2.64501493,6.30447761 3.0519403,6.81456716 3.75402985,7.19570149 Z"></path>
                            <g>
                                <path d="M3.75402985,7.19570149 L1.26949254,5.84597015 C0.930483492,5.67566191 0.636058693,5.42834508 0.409791045,5.1238209 L2.89146269,6.47355224 C3.11741732,6.77837114 3.41191887,7.02575245 3.75116418,7.19570149"></path>
                                <path d="M2.89719403,6.47355224 L0.415522388,5.1238209 C0.347217869,5.0260721 0.291383163,4.9201787 0.249313433,4.80859701 L2.73098507,6.15832836 C2.77372885,6.26960543 2.82952164,6.37541934 2.89719403,6.47355224"></path>
                                <path d="M2.73098507,6.15832836 L0.249313433,4.80859701 C0.214363215,4.7161878 0.190319902,4.62001455 0.177671642,4.52202985 L2.65934328,5.87176119 C2.6740632,5.9646742 2.69806389,6.0558768 2.73098507,6.144"></path>
                                <path d="M2.65934328,5.88608955 L0.177671642,4.53635821 C0.167105653,4.46906961 0.162312076,4.40100083 0.163343284,4.33289552 C0.163343284,4.29564179 0.163343284,4.26125373 0.163343284,4.224 L2.6478806,5.57659701 C2.6478806,5.61098507 2.6478806,5.64537313 2.6478806,5.68262687 C2.64827472,5.75068538 2.65306078,5.81864752 2.66220896,5.88608955"></path>
                                <path d="M2.65074627,5.57659701 L0.166208955,4.224 C0.257912251,3.6338147 0.564000174,3.09816084 1.02591045,2.71952239 L3.50758209,4.06925373 C2.99176119,4.55641791 2.67940299,5.06937313 2.6478806,5.57659701"></path>
                                <path d="M3.5161791,4.06925373 L1.03450746,2.71952239 C1.36516635,2.41617841 1.72734938,2.14910445 2.11486567,1.92286567 L4.58507463,3.27259701 C4.19914109,3.5012332 3.83719785,3.76813034 3.50471642,4.06925373"></path>
                                <path d="M4.58507463,3.27259701 L2.10340299,1.92286567 C2.73931214,1.54934638 3.41139384,1.24114892 4.10937313,1.00298507 L6.59104478,2.35271642 C5.89425913,2.5938646 5.22246642,2.90192954 4.58507463,3.27259701"></path>
                                <path d="M6.59104478,2.35271642 L4.10937313,1.00298507 C5.0818069,0.667011978 6.08480093,0.427061253 7.104,0.286567164 C7.29026866,0.260776119 7.47653731,0.237850746 7.6599403,0.220656716 L10.1416119,1.57038806 L9.58853731,1.63916418 C8.56824393,1.77735287 7.56416748,2.01637298 6.59104478,2.35271642"></path>
                                <path d="M10.1416119,1.56752239 L7.6599403,0.217791045 C9.86937313,-0.0171940299 11.7865075,0.249313433 12.9270448,0.871164179 L15.4115821,2.22089552 C14.2653134,1.59904478 12.3510448,1.33253731 10.1416119,1.56752239"></path>
                            </g>
                        </g>
                        <polygon id="Path" points="16.8845373 21.0225672 14.4 19.6699701 10.5915224 16.0907463 13.0760597 17.4404776"></polygon>
                        <g transform="translate(0.000000, 23.785075)" id="Path">
                            <path d="M4.69110448,16.3572537 L2.20943284,15.0046567 C0.985791045,14.3398209 0.0888358209,11.5400597 0.0945398536,8.05826866 C0.0945398536,3.92310448 1.3841194,0.392597015 2.96023881,0.171940299 C3.20890587,0.13877504 3.46158677,0.188103183 3.67952239,0.312358209 L6.1640597,1.66208955 C5.94568504,1.53902164 5.69340352,1.48977146 5.44477612,1.52167164 C3.87152239,1.74519403 2.57910448,5.27283582 2.57910448,9.41086567 C2.57910448,12.8955224 3.47032836,15.6895522 4.69110448,16.3572537 Z"></path>
                            <g>
                                <path d="M4.69110448,16.3572537 L2.20943284,15.0046567 C1.9042977,14.8224205 1.64616064,14.571154 1.45576119,14.2710448 L3.93743284,15.6236418 C4.12840994,15.9232814 4.38642325,16.1744274 4.69110448,16.3572537"></path>
                                <path d="M3.93743284,15.6236418 L1.45576119,14.2710448 C1.21113814,13.8983491 1.01108419,13.4982412 0.859701493,13.0789254 L3.34423881,14.4286567 C3.49449597,14.8493571 3.69460812,15.2505435 3.94029851,15.6236418"></path>
                                <path d="M3.34137313,14.4286567 L0.859701493,13.0789254 C0.591154366,12.3362366 0.399114406,11.5680768 0.286567164,10.7863881 L2.77110448,12.1361194 C2.8832972,12.9178777 3.07534611,13.6860734 3.34423881,14.4286567"></path>
                                <path d="M2.77110448,12.1303881 L0.286567164,10.7806567 C0.155044243,9.87922181 0.090866605,8.96924037 0.0945671642,8.05826866 C0.0945671642,7.60262687 0.111761194,7.15558209 0.143283582,6.71713433 L2.62495522,8.06973134 C2.59629851,8.50531343 2.57910448,8.95522388 2.57910448,9.41086567 C2.57404004,10.3209307 2.63822529,11.230062 2.77110448,12.1303881"></path>
                                <path d="M2.62495522,8.06973134 L0.143283582,6.71713433 C0.338149254,3.92023881 1.10901493,1.57325373 2.11773134,0.618985075 L4.60226866,1.96871642 C3.59355224,2.92298507 2.8198209,5.26997015 2.62495522,8.06973134"></path>
                                <path d="M4.60226866,1.96871642 L2.11773134,0.618985075 C2.22150078,0.518991982 2.33584579,0.430590797 2.45874627,0.355343284 L4.94328358,1.71940299 C4.82003482,1.79414434 4.70563595,1.88258717 4.60226866,1.98304478"></path>
                                <path d="M4.94328358,1.71940299 L2.45874627,0.369671642 C2.5422388,0.319022809 2.63055227,0.276785933 2.72238806,0.24358209 L5.20692537,1.59331343 C5.11508958,1.62651728 5.02677612,1.66875415 4.94328358,1.71940299"></path>
                                <path d="M5.20692537,1.57898507 L2.72238806,0.229253731 C2.79794694,0.203434334 2.87561462,0.184257129 2.95450746,0.171940299 L3.00035821,0.171940299 L5.48202985,1.52453731 L5.44477612,1.52453731 C5.36581414,1.53650844 5.28811587,1.5556932 5.21265672,1.58185075"></path>
                                <path d="M5.48202985,1.51880597 L3.00035821,0.166208955 C3.23451256,0.144699815 3.46961707,0.195722495 3.67379104,0.312358209 L6.15832836,1.66208955 C5.95301288,1.54586775 5.71683631,1.49583034 5.48202985,1.51880597"></path>
                            </g>
                        </g>
                        <g transform="translate(4.298507, 6.591045)" id="Path">
                            <path d="M3.19522388,13.8182687 L0.713552239,12.4656716 C0.637638033,12.4253075 0.567313402,12.3752133 0.504358209,12.3166567 C-0.604656716,11.2735522 0.696358209,7.73158209 3.41014925,4.44179104 C5.46483582,1.94292537 7.73731343,0.286567164 9.20453731,0.0773731343 C9.51739654,0.0192566091 9.84063716,0.0624222814 10.1272836,0.200597015 L12.6089552,1.55032836 C12.3234163,1.41177384 12.0006486,1.36954254 11.6890746,1.42997015 C10.2218507,1.63629851 7.94650746,3.29265672 5.89468657,5.79438806 C3.18089552,9.09850746 1.88274627,12.6232836 2.98889552,13.6663881 C3.05129786,13.725147 3.12057688,13.776144 3.19522388,13.8182687 L3.19522388,13.8182687 Z"></path>
                            <g>
                                <path d="M3.19522388,13.8182687 L0.713552239,12.4656716 C0.637638033,12.4253075 0.567313402,12.3752133 0.504358209,12.3166567 C0.452052521,12.2643128 0.404130509,12.2077648 0.361074627,12.1475821 L2.84274627,13.4973134 C2.88519647,13.5587977 2.93420036,13.6154884 2.98889552,13.6663881 C3.05129786,13.725147 3.12057688,13.776144 3.19522388,13.8182687"></path>
                                <path d="M2.84274627,13.4973134 L0.361074627,12.1475821 C0.3039729,12.0639954 0.257750215,11.973476 0.223522388,11.878209 L2.70519403,13.2279403 C2.73999319,13.3229589 2.78618073,13.4134095 2.84274627,13.4973134"></path>
                                <path d="M2.70519403,13.2279403 L0.223522388,11.878209 C0.180488727,11.7645128 0.150680743,11.6462424 0.134686567,11.5257313 L2.61635821,12.8783284 C2.63407153,12.9975699 2.66383585,13.1147069 2.70519403,13.2279403"></path>
                                <path d="M2.61635821,12.8783284 L0.134686567,11.5257313 C0.106922337,11.3234872 0.101157337,11.1188297 0.117492537,10.9153433 L2.60202985,12.2650746 C2.58009417,12.4689041 2.58009417,12.6744989 2.60202985,12.8783284"></path>
                                <path d="M2.60202985,12.2650746 L0.117492537,10.9153433 C0.234985075,9.31629851 1.45576119,6.82316418 3.41014925,4.44179104 C3.97148207,3.75681251 4.57644107,3.10877891 5.22125373,2.50173134 L7.70292537,3.85432836 C7.0591081,4.46147851 6.45510887,5.10950937 5.89468657,5.79438806 C3.94029851,8.17289552 2.71952239,10.6660299 2.60202985,12.2650746"></path>
                                <path d="M7.70292537,3.85432836 L5.22125373,2.50173134 C5.89582561,1.85319683 6.6363248,1.27693287 7.43068657,0.782328358 L9.91522388,2.13492537 C9.11880144,2.62783777 8.37718038,3.2042272 7.70292537,3.85432836"></path>
                                <path d="M9.91522388,2.14352239 L7.43068657,0.790925373 C7.793517,0.569838991 8.17751014,0.385522285 8.57695522,0.240716418 L11.0586269,1.59044776 C10.659356,1.73684387 10.2754245,1.92209082 9.91235821,2.14352239"></path>
                                <path d="M11.0500299,1.59044776 L8.56835821,0.240716418 C8.77457179,0.165614026 8.98765015,0.110904717 9.20453731,0.0773731343 L9.28764179,0.0773731343 L11.7693134,1.43283582 L11.6890746,1.43283582 C11.4715948,1.46664589 11.257681,1.52036416 11.0500299,1.59331343"></path>
                                <path d="M11.7693134,1.43283582 L9.28764179,0.0831044776 C9.57441829,0.0398193259 9.86756821,0.085842863 10.1272836,0.214925373 L12.6089552,1.55032836 C12.3488483,1.42247939 12.0560847,1.3765165 11.7693134,1.41850746"></path>
                            </g>
                        </g>
                    </g>
                    <path d="M26.2982687,57.416597 C24.3725373,57.416597 22.7992836,56.9896119 22.0857313,56.2703284 C21.8359845,56.0404491 21.6910465,55.7184798 21.6845373,55.3791045 C21.6845373,54.0522985 23.8911045,52.5621493 26.9287164,51.831403 L27.0949254,51.7912836 L27.0949254,45.5756418 L26.8685373,45.5756418 C26.7338507,45.5756418 26.5991642,45.5756418 26.4644776,45.5756418 C23.8250586,45.593035 21.2507359,44.7567068 19.1254925,43.191403 L18.9592836,43.0681791 L14.9014925,48.0429851 L15.0189851,48.183403 C16.9561791,50.4300896 17.7299104,52.8286567 16.8616119,53.8832239 C16.6098675,54.1759877 16.254492,54.3598381 15.8700896,54.3961791 C15.7503344,54.4114187 15.6297359,54.4190757 15.5090149,54.4191045 C14.0503881,54.4191045 12.0415522,53.384597 10.2677015,51.7167761 C7.68859701,49.2952836 6.38471642,46.1974925 7.40202985,44.9509254 C7.65444719,44.6594653 8.00965734,44.4767271 8.39355224,44.4408358 C8.51330742,44.4255962 8.63390592,44.4179392 8.75462687,44.4179104 C9.90089552,44.4179104 11.4025075,45.0598209 12.881194,46.1802985 L13.0502687,46.3063881 L17.1223881,41.3487761 L17.0048955,41.2112239 C15.151267,38.956802 14.0331161,36.1884285 13.8010746,33.2790448 L13.7781493,33.0526567 L7.98949254,33.8665075 L7.98949254,34.0384478 C7.70292537,37.3597612 6.60537313,39.8930149 5.38746269,40.0563582 C5.34548109,40.0592066 5.30335473,40.0592066 5.26137313,40.0563582 C4.94435513,40.0389463 4.64779395,39.8942824 4.43892537,39.6551642 C3.43880597,38.6521791 2.79689552,36.1103284 2.8025888,33.1787463 C2.8025888,29.2212537 4.032,25.7079403 5.47343284,25.5073433 C5.51541443,25.5044949 5.5575408,25.5044949 5.59952239,25.5073433 C6.72859701,25.5073433 7.73731343,27.7167761 7.99522388,30.7601194 L8.01528358,30.9893731 L13.8039403,30.1755224 L13.8211343,30.0064478 C14.1387468,26.8232139 15.2566657,23.7721039 17.070806,21.137194 L17.1739701,20.9824478 L13.0674627,17.1338507 L12.9184478,17.288597 C11.2477612,19.008 9.55414925,20.1542687 8.38495522,20.3147463 C8.29751247,20.3259005 8.20946423,20.3316427 8.12131343,20.3319403 C7.87152739,20.3464944 7.62588555,20.2632434 7.43641791,20.0998209 C6.53659701,19.2401194 7.49659701,16.0076418 10.359403,12.5229851 C12.2994627,10.1616716 14.574806,8.43940299 16.0162388,8.22447761 C16.1045993,8.21252187 16.1935917,8.20582352 16.2827463,8.20441791 C16.5328384,8.19125833 16.7783069,8.27547765 16.9676418,8.43940299 C17.8044179,9.22746269 16.9877015,11.9011343 15.0677015,14.6607761 L14.9616716,14.8155224 L19.0595821,18.6727164 L19.208597,18.5208358 C21.3347367,16.3049629 24.0308482,14.7184317 27.0003582,13.9357612 L27.1637015,13.8956418 L27.1637015,7.67713433 L26.9373134,7.67713433 C26.7481791,7.67713433 26.5619104,7.67713433 26.3785075,7.67713433 C24.4527761,7.67713433 22.8795224,7.25301493 22.1688358,6.53086567 C21.933966,6.30926877 21.794249,6.00517863 21.7791045,5.68262687 C21.7791045,4.12083582 24.8768955,2.3641791 28.5334925,1.85122388 C29.2197834,1.75314797 29.9121108,1.70335402 30.6053731,1.70220896 C32.5282388,1.70220896 34.1014925,2.12632836 34.8121791,2.84847761 C35.058666,3.07473174 35.2033362,3.39093928 35.2133731,3.72537313 C35.2133731,5.0521791 33.006806,6.54519403 29.969194,7.27307463 L29.8029851,7.31319403 L29.8029851,13.5288358 L30.0293731,13.5288358 L30.4334328,13.5288358 C33.0726609,13.5126737 35.6466055,14.3488791 37.7724179,15.9130746 L37.9386269,16.0362985 L42.0107463,11.0786866 L41.8903881,10.9411343 C39.9560597,8.69444776 39.1794627,6.2958806 40.0477612,5.23844776 C40.3005502,4.94746091 40.6555576,4.76482702 41.0392836,4.72835821 C41.1588227,4.71069988 41.2795229,4.70207844 41.4003582,4.70256716 C42.8589851,4.70256716 44.8678209,5.7399403 46.6416716,7.40776119 C49.2207761,9.82638806 50.5246567,12.9241791 49.5073433,14.1707463 C49.2541179,14.4616311 48.8995452,14.645066 48.5158209,14.6837015 C48.3960557,14.6988361 48.2754638,14.7064927 48.1547463,14.7066269 C47.0084776,14.7066269 45.5068657,14.0647164 44.0281791,12.9442388 L43.8591045,12.8181493 L39.7669254,17.7671642 L39.8844179,17.9075821 C41.7377266,20.162194 42.8558352,22.9304629 43.0882388,25.8397612 L43.1111642,26.0661493 L48.8998209,25.2522985 L48.9141493,25.0803582 C49.2007164,21.7590448 50.2982687,19.2229254 51.5161791,19.0624478 C51.5581607,19.0595994 51.6002871,19.0595994 51.6422687,19.0624478 C51.959552,19.0812347 52.2559447,19.2268492 52.4647164,19.4665075 C53.4648358,20.4694925 54.1096119,23.0113433 54.1039185,25.9429254 C54.1039185,29.8975522 52.8716418,33.4108657 51.430209,33.6143284 C51.3882274,33.6171767 51.346101,33.6171767 51.3041194,33.6143284 C50.1779104,33.6143284 49.169194,31.4048955 48.9084179,28.3586866 L48.8883582,28.1294328 L43.0997015,28.9432836 L43.0825075,29.1152239 C42.763008,32.2944867 41.6451708,35.341431 39.8328358,37.9730149 L39.726806,38.1248955 L43.8447761,41.9849552 L43.993791,41.830209 C45.6644776,40.110806 47.3580896,38.9645373 48.5272836,38.8040597 C48.614673,38.7920046 48.702718,38.7853055 48.7909254,38.784 C49.0411019,38.7702338 49.2867917,38.8545291 49.4758209,39.0189851 C50.3756418,39.8786866 49.4156418,43.1111642 46.5528358,46.5929552 C44.6127761,48.9542687 42.3374328,50.679403 40.8931343,50.8914627 C40.8058989,50.9049063 40.7177577,50.9116127 40.6294925,50.9115224 C40.3797886,50.9254713 40.1343674,50.8422951 39.944597,50.679403 C39.1078209,49.8884776 39.9245373,47.214806 41.8445373,44.4551642 L41.9534328,44.3032836 L37.8268657,40.4317612 L37.6778507,40.5836418 C35.5520826,42.7999846 32.85583,44.3865989 29.8860896,45.1687164 L29.7227463,45.2117015 L29.7227463,51.4273433 L29.952,51.4273433 C30.1411343,51.4273433 30.327403,51.4273433 30.5251343,51.4273433 C32.4508657,51.4273433 34.0241194,51.8543284 34.734806,52.5736119 C34.9864497,52.8023868 35.1326247,53.1248012 35.1388657,53.4648358 C35.1388657,55.0294925 32.0410746,56.7832836 28.3844776,57.2962388 C27.6927725,57.3853924 26.9956373,57.4256118 26.2982687,57.416597 Z" id="Path" fill="#FFBE00"></path>
                    <path d="M30.6025075,1.92 C32.4680597,1.92 33.984,2.32119403 34.6574328,2.99462687 C34.8647491,3.18215063 34.9868282,3.44596563 34.9955821,3.72537313 C34.9955821,4.9318209 32.8119403,6.36752239 29.9176119,7.06101493 L29.585194,7.14125373 L29.585194,7.48513433 L29.585194,13.3053134 L29.585194,13.7552239 L30.0351045,13.7552239 L30.4334328,13.7552239 C33.0260311,13.7398795 35.5544759,14.5609206 37.6434627,16.0964776 L37.9758806,16.3429254 L38.2366567,16.0248358 L42.0623284,11.3681194 L42.2944478,11.0815522 L42.056597,10.7949851 C40.2197015,8.66292537 39.4287761,6.33313433 40.2139701,5.37313433 C40.4343235,5.12383063 40.7421636,4.96888444 41.0736716,4.94041791 C41.1838198,4.92515246 41.2948886,4.91749254 41.4060896,4.91749254 C42.790209,4.91749254 44.7904478,5.95486567 46.4983881,7.56250746 C47.6757341,8.63083404 48.6175431,9.93277513 49.2637612,11.3853134 C49.736597,12.5315821 49.7623881,13.5116418 49.3382687,14.0303284 C49.1179153,14.2796321 48.8100752,14.4345782 48.4785672,14.4630448 C48.3693691,14.4782062 48.2592604,14.485866 48.1490149,14.4859701 C47.0686567,14.4859701 45.5699104,13.8440597 44.151403,12.7665672 L43.8189851,12.5143881 L43.5524776,12.838209 L39.7153433,17.480597 L39.4832239,17.7671642 L39.718209,18.0537313 C41.5424474,20.2755327 42.6425179,23.0027077 42.8704478,25.8684179 L42.9134328,26.321194 L43.366209,26.2581493 L48.759403,25.5044776 L49.1032836,25.4557612 L49.1319403,25.1090149 C49.369791,22.3780299 50.3383881,19.4493134 51.5477015,19.2802388 C51.5791603,19.2774064 51.6108099,19.2774064 51.6422687,19.2802388 C51.9015894,19.2996698 52.1422047,19.4225591 52.3099701,19.6212537 C53.2585075,20.569791 53.8918209,23.1116418 53.8861281,25.9429254 C53.8861281,30.1296716 52.5678806,33.233194 51.3986866,33.3936716 C51.3672278,33.3965041 51.3355782,33.3965041 51.3041194,33.3936716 C50.4587463,33.3936716 49.4070448,31.6198209 49.126209,28.3386269 L49.0860896,27.8801194 L48.6304478,27.9431642 L43.2401194,28.6997015 L42.8991045,28.7484179 L42.8647164,29.0922985 C42.5516198,32.2387813 41.4464279,35.254644 39.6522985,37.8583881 L39.4431045,38.1650149 L39.7296716,38.4200597 L43.5381493,42.0050149 L43.8505075,42.2915821 L44.1313433,41.9820896 C45.7418507,40.3085373 47.432597,39.176597 48.5387463,39.0189851 C48.6156266,39.0078737 48.6931873,39.0021284 48.7708657,39.001791 C48.9654162,38.9882511 49.1576014,39.0509425 49.3067463,39.176597 C49.6964776,39.543403 49.6477612,40.5234627 49.177791,41.7958209 C48.4949404,43.4894914 47.5448424,45.0626679 46.3637015,46.455403 C44.4551642,48.776597 42.2371343,50.4673433 40.8444179,50.6650746 C40.7665748,50.6761723 40.6880622,50.6819171 40.6094328,50.6822687 C40.4156582,50.6965935 40.2240738,50.6337621 40.0764179,50.5074627 C39.4201791,49.8913433 39.961791,47.5013731 42.0050149,44.569791 L42.2199403,44.2602985 L41.9333731,44.0023881 L38.1248955,40.4202985 L37.8268657,40.119403 L37.5402985,40.4317612 C35.4414548,42.6167219 32.7812831,44.1812954 29.8517015,44.953791 L29.5250149,45.0340299 L29.5250149,45.3750448 L29.5250149,51.1952239 L29.5250149,51.6508657 L29.9806567,51.630806 C30.1640597,51.630806 30.3503284,51.630806 30.5308657,51.630806 C32.3992836,51.630806 33.9152239,52.032 34.585791,52.7054328 C34.7965778,52.8942926 34.9199817,53.1618406 34.926806,53.4447761 C34.926806,54.72 32.2273433,56.5167761 28.3586866,57.0612537 C27.6837739,57.1578747 27.0029828,57.2076654 26.321194,57.2102687 C24.4527761,57.2102687 22.9368358,56.806209 22.263403,56.1356418 C22.0533969,55.9464848 21.9310021,55.6788757 21.9252537,55.3962985 C21.9252537,54.1898507 24.1088955,52.7570149 27.0003582,52.0606567 L27.3356418,51.9804179 L27.3356418,51.639403 L27.3356418,45.8192239 L27.3356418,45.3693134 L26.8857313,45.3693134 C26.7539104,45.3693134 26.6192239,45.3693134 26.487403,45.3693134 C23.8946142,45.3858862 21.3657925,44.5647227 19.2773731,43.0280597 L18.9449552,42.7816119 L18.6813134,43.1025672 L14.8613731,47.7564179 L14.6263881,48.0429851 L14.8671045,48.3295522 C16.7011343,50.4616119 17.4920597,52.7942687 16.7068657,53.751403 C16.4860829,54.0005953 16.1786805,54.1563458 15.8471642,54.1869851 C15.7369364,54.2011504 15.6258776,54.2078522 15.5147463,54.2070448 C14.1306269,54.2070448 12.1303881,53.1696716 10.4224478,51.5620299 C9.24554086,50.4933103 8.30380344,49.1914681 7.65707463,47.7392239 C7.18423881,46.5929552 7.15844776,45.6157612 7.58256716,45.0970746 C7.80334995,44.8478823 8.11075231,44.6921318 8.44226866,44.6614925 C8.55248809,44.6472392 8.66355296,44.640537 8.77468657,44.6414328 C9.85504478,44.6414328 11.353791,45.2833433 12.7694328,46.3608358 L13.1047164,46.6130149 L13.3712239,46.289194 L17.1940299,41.6267463 L17.4232836,41.3401791 L17.1911642,41.0536119 C15.3687413,38.83184 14.2688712,36.1061619 14.0389254,33.241791 L13.9959403,32.7861493 L13.5460299,32.849194 L8.13850746,33.625791 L7.79462687,33.6745075 L7.76597015,34.0183881 C7.5281194,36.7522388 6.55952239,39.6780896 5.35020896,39.8500299 L5.25564179,39.8500299 C4.99677781,39.8329169 4.75542753,39.7132731 4.58507463,39.5176119 C3.63940299,38.5690746 3.00608955,36.0272239 3.01178231,33.1959403 C3.01178231,29.0063284 4.32716418,25.902806 5.49635821,25.745194 L5.59092537,25.745194 C6.45062687,25.745194 7.49086567,27.5161791 7.76883582,30.8002388 L7.80895522,31.2587463 L8.26459701,31.1928358 L13.6549254,30.4362985 L13.9959403,30.3875821 L14.0303284,30.0465672 C14.3433038,26.9005138 15.4474373,23.8848494 17.2398806,21.2804776 L17.4519403,20.9709851 L17.1653731,20.7159403 L13.3568955,17.1338507 L13.0445373,16.8472836 L12.7579701,17.1539104 C11.144597,18.824597 9.45671642,19.959403 8.35343284,20.1141493 C8.27558124,20.1251675 8.19707401,20.130912 8.11844776,20.1313433 C7.92389724,20.1448832 7.73171201,20.0821918 7.58256716,19.9565373 C7.19283582,19.592597 7.24155224,18.6125373 7.71152239,17.3373134 C8.39437306,15.6436429 9.34447104,14.0704664 10.5256119,12.6777313 C12.4341493,10.3565373 14.6521791,8.66579104 16.0448955,8.4680597 C16.1227386,8.45696204 16.2012512,8.45121721 16.2798806,8.45086567 C16.4736552,8.43654082 16.6652396,8.49937225 16.8128955,8.62567164 C17.4691343,9.24179104 16.9275224,11.6317612 14.8871642,14.566209 L14.6722388,14.8728358 L14.958806,15.1307463 L18.7672836,18.7157015 L19.0767761,19.0022687 L19.3633433,18.6956418 C21.4606724,16.5069539 24.121119,14.9392438 27.0519403,14.1650149 L27.3814925,14.0819104 L27.3814925,13.7552239 L27.3814925,7.93504478 L27.3814925,7.4679403 L26.9258507,7.48513433 C26.7395821,7.48513433 26.5561791,7.48513433 26.3756418,7.48513433 C24.5072239,7.48513433 22.9912836,7.0839403 22.3207164,6.41050746 C22.109648,6.22185579 21.9861846,5.95417882 21.9797015,5.67116418 C21.9797015,4.39880597 24.6791642,2.59916418 28.5478209,2.05468657 C29.223756,1.95897456 29.9055031,1.91014155 30.5881791,1.90853731 M30.5881791,1.47295522 C29.8853188,1.47464013 29.1834335,1.52539036 28.4876418,1.62483582 C24.6562388,2.16358209 21.5469851,3.97468657 21.5441194,5.67116418 C21.5441194,7.0438209 23.5701493,7.92071642 26.3756418,7.92071642 C26.5619104,7.92071642 26.7510448,7.92071642 26.9487761,7.92071642 L26.9373134,13.7552239 C23.9307167,14.5481969 21.2003392,16.1533099 19.0452537,18.3947463 L15.2482388,14.7954627 C17.2370149,11.929791 18.073791,9.19307463 17.1166567,8.29038806 C16.8861272,8.09075379 16.5872941,7.98806201 16.2827463,8.0038209 C16.1868189,8.00504988 16.0910818,8.01270884 15.9961791,8.02674627 C14.5289552,8.23307463 12.2536119,9.88943284 10.201791,12.3911642 C7.488,15.6952836 6.18985075,19.2200597 7.296,20.2631642 C7.52464016,20.4660575 7.82484956,20.5692223 8.12991045,20.5497313 C8.22583783,20.5485024 8.3215749,20.5408434 8.41647761,20.526806 C9.61432836,20.3577313 11.3566567,19.217194 13.0760597,17.4376119 L16.8845373,21.0197015 C15.0507238,23.6848867 13.9200873,26.7702331 13.5976119,29.9892537 L8.20441791,30.7486567 C7.93504478,27.5763582 6.88047761,25.3038806 5.59379104,25.3038806 C5.54224833,25.3010303 5.49058749,25.3010303 5.43904478,25.3038806 C3.86579104,25.527403 2.57337313,29.0550448 2.57337313,33.1930746 C2.57337313,37.1906866 3.75116418,40.2884776 5.24991045,40.2884776 C5.30140432,40.292744 5.35316284,40.292744 5.40465672,40.2884776 C6.76298507,40.0993433 7.90065672,37.4457313 8.19295522,34.0642388 L13.5861493,33.3077015 C13.8233582,36.2613732 14.9594321,39.0715561 16.8415522,41.3602388 L13.0216119,46.0083582 C11.4884776,44.8448955 9.93241791,44.2001194 8.76322388,44.2001194 C8.63192358,44.1997659 8.50075251,44.208383 8.37062687,44.2259104 C7.93506494,44.2663743 7.53130169,44.4713303 7.24155224,44.7990448 C6.12680597,46.1545075 7.41635821,49.318209 10.1072239,51.8600597 C11.9785075,53.6195821 14.0389254,54.6225672 15.4975522,54.6225672 C15.6288525,54.6229206 15.7600236,54.6143036 15.8901493,54.5967761 C16.3257112,54.5563122 16.7294744,54.3513563 17.0192239,54.0236418 C17.9820896,52.8515821 17.1539104,50.3383881 15.1737313,48.0401194 L18.9965373,43.383403 C21.158438,44.9779996 23.778167,45.8304671 26.4644776,45.8134925 C26.6020299,45.8134925 26.7395821,45.8134925 26.8771343,45.8134925 L26.8771343,51.6336716 C23.782209,52.3787463 21.4696119,53.926209 21.4667463,55.3934328 C21.4667463,56.7660896 23.4927761,57.6429851 26.2982687,57.6429851 C27.0011252,57.6411978 27.7030033,57.5904481 28.398806,57.4911045 C32.2273433,56.9523582 35.336597,55.1412537 35.3394627,53.4447761 C35.3394627,52.0692537 33.3105672,51.1923582 30.5079403,51.1923582 C30.3216716,51.1923582 30.1325373,51.1923582 29.934806,51.1923582 L29.934806,45.3721791 C32.9421717,44.5806343 35.6735988,42.9764786 37.8297313,40.7355224 L41.638209,44.3176119 C39.6465672,47.1832836 38.8126567,49.92 39.7669254,50.8226866 C39.9974549,51.0223208 40.296288,51.1250126 40.6008358,51.1092537 C40.6967009,51.109026 40.7924411,51.1023242 40.887403,51.089194 C42.3546269,50.8828657 44.6271045,49.2236418 46.681791,46.7247761 C49.3984478,43.4206567 50.6937313,39.8930149 49.5875821,38.8499104 C49.3573573,38.6497474 49.0583041,38.5469799 48.7536716,38.5633433 C48.657749,38.5646737 48.5620186,38.5723322 48.4671045,38.5862687 C47.2692537,38.7553433 45.5269254,39.8958806 43.8075224,41.6754627 L39.9990448,38.0933731 C41.8333093,35.4273563 42.9639662,32.3409685 43.2859701,29.1209552 L48.6906269,28.3701493 C48.977194,31.5424478 50.0174328,33.8149254 51.3041194,33.8149254 C51.3556623,33.8177698 51.4073228,33.8177698 51.4588657,33.8149254 C53.0321194,33.5942687 54.3245373,30.0637612 54.3245373,25.928597 C54.3245373,21.9166567 53.1438806,18.8303284 51.6451343,18.8303284 C51.5935915,18.8274839 51.5419309,18.8274839 51.4903881,18.8303284 C50.1320597,19.0223284 48.9943881,21.6730746 48.7020896,25.0545672 L43.3088955,25.8111045 C43.0696917,22.8599821 41.9326392,20.0528526 40.0506269,17.7671642 L43.8762985,13.1133134 C45.4094328,14.2595821 46.9654925,14.9186866 48.1346866,14.9186866 C48.2659838,14.9189429 48.3971483,14.9103263 48.5272836,14.8928955 C48.9653513,14.8479666 49.3694827,14.6366695 49.6563582,14.3025672 C50.7711045,12.9471045 49.4844179,9.78626866 46.7906866,7.24155224 C44.919403,5.48202985 42.8589851,4.47904478 41.4003582,4.47904478 C41.2690579,4.4786913 41.1378868,4.48730838 41.0077612,4.50483582 C40.5696935,4.5497647 40.1655621,4.76106182 39.8786866,5.09516418 C38.9186866,6.26435821 39.744,8.77755224 41.7241791,11.0758209 L37.8899104,15.7325373 C35.7279396,14.1384057 33.1080517,13.2868919 30.4219701,13.3053134 L30.0093134,13.3053134 L30.0093134,7.48513433 C33.1042388,6.74292537 35.4168358,5.19259701 35.4197015,3.72823881 C35.4197015,2.35558209 33.3936716,1.47868657 30.5910448,1.47868657 L30.5881791,1.47295522 Z" id="Shape" fill="#D97507"></path>
                    <polygon id="Path" fill="#000000" points="37.2050149 20.3921194 37.1935522 26.4272239 26.5103284 39.4345075 19.7072239 33.041194 19.7215522 27.831403 26.129194 33.8607761"></polygon>
                </g>
                <rect id="FRAME" x="0" y="0" width="280.835821" height="192"></rect>
            </g>
            <path d="M207,112 L207,145 L206.3,145 L206.3,139 C206.3,136.311245 204.177693,134.118182 201.51689,134.00462 L201.3,134 L142.5,134 C139.738576,134 137.5,136.238576 137.5,139 L137.5,139 L137.5,145 L137,145 L137,112 L137.5,112 C137.5,114.761424 139.738576,117 142.5,117 L142.5,117 L201.3,117 C204.061424,117 206.3,114.761424 206.3,112 L206.3,112 L207,112 Z" id="Combined-Shape" fill="#FFFFFF"></path>
        </g>
    </g>
</svg>