<svg xmlns="http://www.w3.org/2000/svg" viewBox="0 0 375 240"><g fill="none" fill-rule="evenodd"><path fill="#66ABFF" fill-rule="nonzero" d="M169.1 137.23c10.67-6.2 25.35-8.68 39.25-7.44-1.8-4.83-5.95-9.43-12.45-13.18-17.9-10.34-46.83-10.34-64.62 0-17.79 10.33-17.68 27.07.22 37.41 7.16 4.13 16.09 6.61 25.36 7.44-3.17-8.46.9-17.64 12.23-24.23z" opacity=".4"/><path fill="#DAA2FF" fill-rule="nonzero" d="M233.7 137.23c-7.17-4.13-16.1-6.61-25.36-7.44 3.15 8.47-.92 17.65-12.25 24.24-10.66 6.2-25.34 8.68-39.23 7.44 1.8 4.83 5.95 9.43 12.45 13.18 17.9 10.34 46.81 10.34 64.6 0 17.77-10.33 17.68-27.08-.21-37.42z" opacity=".5" style="mix-blend-mode:multiply"/><path fill="#FFBE00" fill-rule="nonzero" d="M196.09 154.03c11.32-6.58 15.4-15.77 12.25-24.24-13.9-1.23-28.58 1.24-39.26 7.44-11.32 6.59-15.39 15.76-12.23 24.24 13.9 1.24 28.57-1.24 39.24-7.44z" style="mix-blend-mode:multiply"/><g fill-rule="nonzero"><g fill="#724292"><path d="M210.18 155.9l-2.8-1.52a1.67 1.67 0 01-.83-1.58l2.8 1.53c-.04.64.28 1.25.83 1.57"/><path d="M209.36 154.33l-2.8-1.52.07-.91 2.8 1.53zm-15.84 4.07l-2.8-1.53c-.73-.38-1.03-1.3-.74-2.21l2.8 1.52c-.3.9 0 1.83.74 2.22"/><path d="M192.79 156.19l-2.8-1.53.66-2.02 2.8 1.53zm.67-2.02l-2.81-1.53.63-1.96 2.8 1.52zm15.98-.74l-2.8-1.53c.66-7.5 1.78-20.02-2.36-32.52l2.8 1.53c4.15 12.5 3.03 25 2.36 32.52m7.06-35.6l-2.81-1.52a1.23 1.23 0 01-.58-1.3c.3-2.06.42-4.15.39-6.24a26.21 26.21 0 00-.74-5.82 17.82 17.82 0 00-1.08-3.13l2.8 1.52c.46 1.01.82 2.06 1.09 3.14.46 1.9.7 3.86.73 5.82.04 2.09-.1 4.17-.38 6.24-.1.51.13 1.03.57 1.3m-2.63-27.76l-2.81-1.52.15.07 2.8 1.53-.14-.08"/><path d="M194.08 152.2l-2.8-1.52a208.35 208.35 0 003.32-11.86l.5-1.99.46-1.98a135.77 135.77 0 002.64-15.9 113.65 113.65 0 00.49-7.89 79.45 79.45 0 00-.68-12.92l2.8 1.52a79.53 79.53 0 01.69 12.93 120.05 120.05 0 01-.96 11.86c-.39 2.85-.82 5.45-1.33 7.95-.24 1.16-.5 2.43-.85 3.97a73 73 0 01-.46 1.99c-.15.6-.31 1.3-.5 1.98a152.07 152.07 0 01-2.14 7.92c-.37 1.32-.77 2.62-1.18 3.94m8.65-63.39l-2.8-1.52c3.67-.52 6.28-.28 8.3.25l2.8 1.52c-2.01-.52-4.62-.76-8.3-.24m8.31.24l-2.8-1.52c.92.24 1.82.56 2.7.95l2.8 1.53a17.1 17.1 0 00-2.7-.96m-17.69 17.19l-2.8-1.53a1.77 1.77 0 01-.33-.22l2.81 1.52c.1.1.2.17.32.23m7.06-15.81l-2.8-1.52.09-.14 2.8 1.52-.09.14"/><path d="M200.5 90.3l-2.8-1.52.28-.35 2.8 1.52-.28.35"/><path d="M200.78 89.95l-2.8-1.52.3-.31 2.8 1.52-.3.31"/><path d="M201.1 89.64l-2.81-1.52.36-.3 2.8 1.53a4 4 0 00-.36.3"/><path d="M201.45 89.35l-2.8-1.52c.15-.11.32-.2.49-.29l2.8 1.53a3.4 3.4 0 00-.49.28m.5-.28l-2.81-1.53c.25-.11.51-.2.78-.24l2.8 1.52c-.26.05-.52.13-.77.25m-8 11.42l-2.8-1.53 6.46-10.04 2.8 1.52zm-.92 5.54l-2.8-1.53-6.78-5.96 2.8 1.53zm-6.78-5.97l-2.8-1.52c-.3-.28-.48-.67-.48-1.09 0-.23.03-.47.11-.69l2.81 1.53c-.08.22-.12.45-.12.7 0 .4.18.8.48 1.07"/><path d="M185.89 98.3l-2.8-1.53.1-.25 2.81 1.53a1.8 1.8 0 00-.11.24m.11-.25l-2.8-1.53.12-.2 2.8 1.54-.12.2"/><path d="M186.13 97.85l-2.8-1.53.05-.09.08-.09 2.8 1.53-.07.09-.06.09m.14-.19l-2.8-1.53.15-.15 2.8 1.52-.15.16"/><path d="M186.42 97.5l-2.8-1.52.18-.15 2.8 1.53-.18.14m.18-.15l-2.8-1.52c.08-.06.16-.1.25-.15l2.8 1.53-.25.14"/><path d="M186.85 97.22l-2.8-1.53a1.52 1.52 0 01.97-.1l2.8 1.52a1.3 1.3 0 00-.52-.03c-.16.02-.3.07-.45.14m.97-.12l-2.8-1.52.24.09 2.8 1.53a1.23 1.23 0 00-.24-.1m.25.1l-2.81-1.53.05.02 2.8 1.53-.04-.03m18.03-10.44l-2.8-1.53a5.23 5.23 0 01-2.6-4.73c0-.81.15-1.61.43-2.37l2.8 1.53a6.93 6.93 0 00-.43 2.36 5.24 5.24 0 002.6 4.74"/><path d="M203.93 79.65l-2.8-1.53c.12-.32.26-.64.42-.94l2.8 1.53c-.16.3-.3.61-.42.94m.43-.95l-2.8-1.53c.13-.26.28-.5.45-.74l2.8 1.53c-.16.23-.32.48-.45.74m.45-.74l-2.8-1.53c.15-.22.31-.44.49-.64l2.8 1.53c-.17.2-.34.42-.49.64m.51-.64l-2.8-1.52c.17-.2.36-.4.56-.58l2.81 1.53c-.2.18-.4.37-.57.57m.57-.57l-2.8-1.53c.2-.2.43-.37.67-.53l2.8 1.52c-.23.17-.46.35-.67.54m.67-.54l-2.8-1.52c.29-.2.59-.38.9-.53l2.81 1.53c-.31.15-.62.32-.9.52"/><path d="M207.47 75.7l-2.8-1.53a5.64 5.64 0 011.63-.5 4.9 4.9 0 011.92.1l2.8 1.53a4.92 4.92 0 00-1.92-.1c-.56.08-1.11.25-1.63.5m3.56-.4l-2.8-1.53c.3.08.6.19.88.33l2.8 1.52a4.5 4.5 0 00-.87-.32"/><path d="M211.91 75.63l-2.81-1.53.17.09 2.81 1.53-.17-.1"/></g><path d="M219.97 103.04c.2 2.33.15 4.67-.16 6.99-.3 2.29-.76 4.56-1.4 6.78-.1.37-.32.68-.63.9-.18.13-.38.21-.6.25-.12.02-.26.01-.38-.01-.6-.12-.99-.71-.88-1.4.29-2.07.42-4.16.38-6.25a26.21 26.21 0 00-.73-5.82 18.23 18.23 0 00-1.09-3.14 85.68 85.68 0 00-.08 14.21c.16 2.28.4 4.54.65 6.92l.05.46c.3 2.96.5 5.4.63 7.72a68.15 68.15 0 01-2.96 23.9 2.14 2.14 0 01-1.67 1.52c-.19.03-.38.02-.57-.02-.74-.17-1.22-.87-1.19-1.72l.08-.9c.67-7.51 1.8-20.03-2.35-32.52a125.7 125.7 0 01-5.92 24.55c-.26.72-.49 1.36-.75 2.02-.23.6-.5 1.32-.78 2.01a83.07 83.07 0 01-2.66 5.95c-.17.37-.34.69-.49.99l-.52.98a2.1 2.1 0 01-1.52 1.13c-.32.05-.64 0-.93-.15-.74-.38-1.03-1.3-.74-2.22l.7-2 .62-1.97 1.2-3.94c.46-1.6.8-2.81 1.1-3.96.37-1.33.71-2.66 1.03-3.96l.5-1.99a163.74 163.74 0 001.31-5.96 133.8 133.8 0 001.8-11.92 120.05 120.05 0 00.48-7.89 79.53 79.53 0 00-.69-12.92l-4.53 5.58-.3.35c-.37.45-.9.75-1.47.85a1.8 1.8 0 01-1.48-.43l-6.78-5.95c-.3-.28-.48-.67-.48-1.08 0-.45.14-.88.42-1.23.27-.36.67-.6 1.12-.67.28-.04.57.01.82.15l5.82 3.25 6.47-10.04a3.57 3.57 0 012.31-1.63c5.56-.78 8.68.18 11.02 1.22a2.93 2.93 0 01.6.34l.15.12.2.18.28.27c.3.3.5.53.69.74a17.97 17.97 0 012.7 4.54 23.33 23.33 0 011.6 6.82h0zm-.38 6.99c.3-2.3.36-4.62.16-6.93a23.01 23.01 0 00-1.59-6.73 17.54 17.54 0 00-2.67-4.49c-.18-.22-.38-.44-.6-.67-.16-.15-.25-.25-.36-.33a3.47 3.47 0 00-.19-.17l-.14-.12-.13-.1c-.13-.08-.28-.16-.43-.22-2.33-1.04-5.38-1.97-10.64-1.25-.99.13-1.87.7-2.4 1.54L194 100.8l-6-3.35a1.11 1.11 0 00-.7-.12c-.38.06-.72.26-.95.57-.24.3-.36.67-.36 1.06 0 .35.15.68.4.92l6.8 5.96c.35.31.83.45 1.3.38.53-.09 1-.36 1.34-.77l.3-.34 4.83-5.96.03.23a79.47 79.47 0 01.72 13.2 125.58 125.58 0 01-.96 11.88 128.57 128.57 0 01-2.64 13.93c-.15.61-.31 1.3-.5 1.99-.31 1.3-.66 2.64-1.03 3.97a179.9 179.9 0 01-2.3 7.9l-.94 2.95-.35 1.04c-.26.8 0 1.6.65 1.94.25.13.53.18.8.13.58-.1 1.08-.46 1.34-.98l.52-.99a66.24 66.24 0 001.42-2.93 94.05 94.05 0 002.5-5.98c.24-.65.49-1.3.73-2.02.47-1.33.93-2.71 1.38-4.08a125.2 125.2 0 004.6-20.9l.06-.5.14.44c4.34 12.7 3.2 25.44 2.51 33.06l-.08.89c-.06.68.38 1.32 1.04 1.5.17.04.34.04.5.02.25-.04.48-.13.68-.27.38-.25.66-.63.79-1.06a67.9 67.9 0 002.93-23.81c-.12-2.31-.32-4.76-.62-7.7l-.05-.46c-.25-2.4-.5-4.65-.66-6.94a89.82 89.82 0 01-.26-7.27c.02-2.35.14-4.75.38-7.35l.05-.47.17.35c.54 1.13.96 2.32 1.26 3.54.47 1.92.71 3.9.74 5.87.04 2.1-.1 4.2-.39 6.28a.98.98 0 00.74 1.17 1.15 1.15 0 00.81-.2c.26-.18.45-.44.53-.74.63-2.21 1.1-4.47 1.4-6.74m-10.52-22.78c-3.08.43-5.58-1.92-5.58-5.24 0-3.33 2.52-6.39 5.6-6.82 3.08-.43 5.58 1.92 5.58 5.24-.01 3.33-2.51 6.39-5.6 6.82zm.02-11.81c-2.95.41-5.37 3.35-5.38 6.54 0 3.2 2.4 5.46 5.36 5.04 2.96-.41 5.37-3.35 5.38-6.55 0-3.19-2.4-5.45-5.36-5.03" fill="#724292" stroke="#724292" stroke-width=".5"/><path d="M219.75 103.1c.2 2.3.15 4.63-.16 6.93-.29 2.28-.75 4.53-1.39 6.74-.08.3-.27.56-.52.74a1.15 1.15 0 01-.82.2.98.98 0 01-.74-1.17c.3-2.08.43-4.18.4-6.28a26.54 26.54 0 00-.74-5.87c-.3-1.22-.73-2.4-1.27-3.54l-.17-.35-.04.47a83.59 83.59 0 00-.12 14.62c.16 2.29.4 4.55.65 6.94l.05.46c.3 2.94.5 5.39.62 7.7a67.9 67.9 0 01-2.93 23.8c-.13.44-.4.82-.78 1.07-.2.14-.44.23-.68.27a1.4 1.4 0 01-.5-.02 1.42 1.42 0 01-1.04-1.5l.08-.89c.68-7.62 1.82-20.37-2.51-33.06l-.15-.44-.07.5c-.18 1.4-.38 2.83-.6 4.22a125.2 125.2 0 01-5.36 20.76l-.74 2.02c-.23.6-.5 1.31-.79 2a94.05 94.05 0 01-3.12 6.91l-.52.99c-.27.52-.76.89-1.34.98-.28.05-.56 0-.81-.13-.64-.33-.9-1.15-.65-1.94l.35-1.04.95-2.95c.4-1.33.8-2.63 1.18-3.94.47-1.6.81-2.82 1.12-3.96.36-1.33.71-2.67 1.03-3.97l.5-1.99.45-2a138.5 138.5 0 002.65-15.93 127.4 127.4 0 00.5-7.89 79.47 79.47 0 00-.72-13.2l-.04-.22-4.84 5.96-.29.34c-.34.41-.8.68-1.33.77-.47.07-.96-.07-1.32-.38l-6.78-5.96c-.26-.24-.4-.57-.4-.92-.01-.39.11-.76.35-1.06.23-.3.57-.51.95-.57.24-.04.49 0 .7.12l6 3.36 6.6-10.24a3.3 3.3 0 012.27-1.53c5.4-.74 8.45.19 10.74 1.2.17.07.33.15.48.25l.12.09.15.12c.07.05.13.1.19.17l.28.26a14.36 14.36 0 011.73 2.15c.64.98 1.17 2.02 1.6 3.1.87 2.15 1.4 4.42 1.6 6.73zm-10.67-16.08c-2.96.41-5.36-1.85-5.36-5.05 0-3.2 2.42-6.13 5.38-6.54 2.96-.42 5.36 1.84 5.36 5.04-.01 3.2-2.42 6.14-5.38 6.55z" fill="#D18AFF"/></g><g fill-rule="nonzero"><g fill="#0051BA"><path d="M156.74 135.82l-2.8-1.52a1.6 1.6 0 01-.8-1.12l-.17-.97 2.8 1.53.19.97c.08.47.36.88.78 1.11"/><path d="M155.77 133.74l-2.8-1.53-.16-.95 2.8 1.52zm17.59-.31l-2.8-1.53c-.28-.16-.5-.4-.64-.7-2.13-4.62-3.93-9.39-5.36-14.27a124 124 0 01-1.97-7.54l2.8 1.53c.56 2.49 1.23 5.03 1.97 7.53 1.44 4.89 3.23 9.66 5.37 14.28.13.3.36.54.64.7m-7.99-22.52l-2.8-1.53-.83-3.78 1.73-4.6 1.07 6.13zm8.3-13.31l-2.8-1.53a1.25 1.25 0 01-.64-1.05 55.98 55.98 0 00-1-7.7l-.12-.6 2.8 1.53.12.59a55.98 55.98 0 011 7.7c.02.44.26.84.64 1.06"/><path d="M171.92 88.26l-2.8-1.53-.13-.56-.25-1.02 2.8 1.53c.1.33.17.68.25 1.01l.13.57m-.37-1.58l-2.8-1.53a45.14 45.14 0 00-1.98-6l2.8 1.52a40.57 40.57 0 011.98 6m-15.93 46.12l-2.8-1.53a77.78 77.78 0 01-.65-5.77 85.38 85.38 0 01.29-15.86 68.58 68.58 0 012.53-12.19l2.8 1.53a69 69 0 00-2.53 12.19 82.07 82.07 0 00-.28 15.85 78.25 78.25 0 00.64 5.78"/><path d="M157.8 98.97l-2.8-1.52.62-1.93 2.8 1.53z"/><path d="M158.42 97.05l-2.8-1.53a11.77 11.77 0 00.44-4.3c-.09-1.1-.24-2.19-.45-3.26-.3-1.68-.69-3.37-1.1-5.15l-.42-1.88-.26-1.21 2.8 1.53.27 1.2.42 1.88c.4 1.79.79 3.47 1.1 5.15.2 1.08.36 2.16.45 3.26.07.96.04 1.92-.1 2.87-.1.49-.2.97-.35 1.44m9.2-30l-2.81-1.52a3.26 3.26 0 011.08.07l2.8 1.52a2.75 2.75 0 00-1.07-.06m1.08.04l-2.8-1.52c.17.05.33.11.5.19l2.8 1.52a2.49 2.49 0 00-.5-.18"/><path d="M169.2 67.3l-2.8-1.54.1.05 2.8 1.53-.1-.05m-13.3 27.94l-2.82-1.53-7.95-6.76 2.8 1.53zm1.23-24.31l-2.8-1.53c1-.65 2.04-1.24 3.11-1.75l2.81 1.53c-1.08.5-2.12 1.1-3.12 1.75m3.12-1.75l-2.8-1.53a24.64 24.64 0 017.38-2.11l2.8 1.52a24.6 24.6 0 00-7.38 2.12m-4.22 2.9l-2.8-1.53.1-.17 2.81 1.52a4.3 4.3 0 00-.11.18"/><path d="M156.14 71.9l-2.8-1.53c.08-.12.17-.24.27-.35l2.8 1.53c-.1.1-.18.22-.27.34"/><path d="M156.42 71.55l-2.81-1.52.31-.32 2.8 1.53-.3.32m.31-.33l-2.8-1.53c.11-.1.23-.2.36-.29l2.81 1.53c-.13.09-.25.18-.37.29m.37-.3l-2.8-1.52.02-.02 2.81 1.52-.03.02m-9.26 14.18l-2.8-1.53 8.18-13.04 2.81 1.52z"/><path d="M147.63 85.45l-2.8-1.53.21-.34 2.8 1.53zm.29 3.02l-2.8-1.53c-.68-.57-.88-1.6-.53-2.53l2.8 1.53c-.34.93-.15 1.95.53 2.53m-.52-2.53l-2.8-1.53c.04-.12.1-.24.16-.36l2.8 1.53a3.1 3.1 0 00-.16.36"/><path d="M147.56 85.58l-2.8-1.53.07-.12 2.8 1.52-.07.13m10.77-18.92l-2.8-1.53a5.23 5.23 0 01-2.6-4.73c0-.8.15-1.61.43-2.37l2.8 1.53a6.93 6.93 0 00-.42 2.37 5.23 5.23 0 002.6 4.73m-2.17-7.1l-2.8-1.53c.11-.32.25-.64.42-.94l2.8 1.52c-.16.3-.3.62-.42.95m.43-.95l-2.81-1.52c.13-.26.29-.5.45-.74l2.8 1.53c-.16.23-.31.48-.45.73m.46-.73l-2.8-1.53c.15-.22.32-.44.5-.64l2.8 1.53c-.18.2-.35.41-.5.64m.5-.65l-2.8-1.53c.18-.2.37-.4.57-.57l2.8 1.52c-.2.18-.39.38-.57.58"/><path d="M158.12 56.66l-2.8-1.53c.21-.19.44-.37.67-.53l2.81 1.52c-.24.17-.46.34-.68.54m.68-.54L156 54.6c.28-.2.59-.38.9-.53l2.8 1.53a6.3 6.3 0 00-.9.52"/><path d="M159.7 55.6l-2.8-1.53a5.76 5.76 0 011.63-.49c.64-.1 1.3-.06 1.93.1l2.8 1.53a4.95 4.95 0 00-1.92-.1c-.57.08-1.12.25-1.63.49"/><path d="M163.26 55.21l-2.8-1.53c.3.08.6.19.88.33l2.8 1.52a4.57 4.57 0 00-.88-.32m.89.32l-2.81-1.52.17.08 2.8 1.53-.16-.09"/></g><path d="M176.02 131.03a2.23 2.23 0 01-1.34 2.46 1.7 1.7 0 01-.38.1c-.66.1-1.31-.25-1.58-.86-2.14-4.62-3.93-9.4-5.37-14.28a124 124 0 01-1.97-7.53l-.83-3.78a132.64 132.64 0 01-1.14-5.83c-.28.87-.56 1.8-.8 2.7a88.54 88.54 0 00-2.55 14.74c-.23 2.38-.4 4.92-.5 7.51-.04 1.08-.06 2.17-.08 3.22v3.34l.01.96c0 .53-.17 1.04-.49 1.44-.3.4-.76.68-1.25.77a1.54 1.54 0 01-1.77-1.28l-.18-.97-.16-.96a78.25 78.25 0 01-.64-5.77 84.55 84.55 0 01.29-15.86 69 69 0 012.52-12.19l.64-1.92a12.44 12.44 0 00.44-4.31c-.1-1.1-.25-2.18-.48-3.25-.3-1.68-.69-3.37-1.09-5.15l-.42-1.88-.27-1.2-3.86 4.94 5.33 6.51c.25.33.37.75.31 1.16-.05.44-.24.85-.56 1.17-.25.26-.58.43-.94.49-.37.06-.74-.05-1.02-.29l-7.97-6.76c-.8-.68-.92-1.97-.3-3.02l.21-.34 8.19-13.05c.28-.45.66-.85 1.1-1.15a24.3 24.3 0 0110.5-3.86 2.61 2.61 0 012.54 1.05l.3.48a11.4 11.4 0 01.68 1.22 40.23 40.23 0 012.1 4.96 48.5 48.5 0 012.33 10.51l.12 1.18.06.62.05.63.07 1.19a61 61 0 01-.07 7.28 1.72 1.72 0 01-1.4 1.59 1.23 1.23 0 01-1.37-1.2 55.98 55.98 0 00-1-7.72l-.13-.58-.13-.57a45.14 45.14 0 00-2.23-7.03 95 95 0 00-.2 13.05c.15 2.76.5 5.42.79 7.44.15 1.08.34 2.27.6 3.74l.65 3.79a329.43 329.43 0 003 14.88l.56 2.55c.38 1.6.74 3.27 1.08 4.92zm-1.39 2.24a1.95 1.95 0 001.18-2.15c-.34-1.66-.7-3.32-1.06-4.92l-.57-2.55a341.67 341.67 0 01-3-14.89l-.65-3.8c-.25-1.47-.45-2.66-.6-3.74a82.54 82.54 0 01-.9-15.01c.05-1.9.17-3.86.36-6l.04-.46.17.4a42.66 42.66 0 012.4 7.46l.14.57.12.59.2 1.04c.4 2.21.68 4.44.82 6.69a1.03 1.03 0 001.08 1.03c.33-.03.63-.18.85-.42.24-.26.38-.58.4-.93a62.13 62.13 0 000-8.43l-.05-.63-.05-.61c-.04-.39-.07-.8-.12-1.18a48.19 48.19 0 00-2.32-10.46 39.3 39.3 0 00-2.1-4.93c-.13-.26-.28-.53-.44-.8l-.24-.41-.23-.36a2.48 2.48 0 00-2.43-1.08c-2.9.41-6.3 1.18-10.24 3.72-.48.3-.88.7-1.18 1.17l-8.18 13.05-.2.34c-.57.94-.46 2.1.26 2.7l7.96 6.77c.24.2.56.3.87.24.3-.04.59-.2.8-.41.28-.27.45-.62.5-1 .04-.36-.06-.71-.27-.99l-5.45-6.66 4.27-5.47.05.21.31 1.41.43 1.88c.38 1.7.78 3.48 1.09 5.17.22 1.09.37 2.18.45 3.29.13 1.48-.03 2.97-.47 4.4l-.13.41-.5 1.52a68.92 68.92 0 00-2.52 12.13 84.9 84.9 0 00.35 21.56l.17.95.18.97c.11.73.8 1.23 1.53 1.12.44-.07.84-.32 1.12-.67a2 2 0 00.44-1.27l-.02-2.38v-1.93c.02-1.06.04-2.15.09-3.23.1-2.6.27-5.14.5-7.53a89.05 89.05 0 012.55-14.78c.28-1.08.62-2.16.95-3.17l.14-.44.07.43a154.87 154.87 0 001.2 6.26l.84 3.78a111.02 111.02 0 007.32 21.77c.24.54.8.85 1.39.76l.33-.09m-13.32-66.11c-3.08.43-5.58-1.92-5.57-5.24 0-3.33 2.52-6.39 5.6-6.82 3.08-.43 5.58 1.92 5.57 5.25 0 3.32-2.52 6.38-5.6 6.81zm.03-11.81c-2.97.4-5.38 3.35-5.38 6.55 0 3.2 2.4 5.45 5.35 5.04 2.96-.42 5.37-3.36 5.38-6.55.01-3.2-2.4-5.46-5.35-5.04" fill="#0051BA" stroke="#0051BA" stroke-width=".5"/><path d="M175.81 131.11c.17.9-.32 1.8-1.18 2.16-.1.04-.22.07-.33.08a1.3 1.3 0 01-1.38-.75 103.57 103.57 0 01-5.36-14.25c-.74-2.5-1.4-5.04-1.97-7.52l-.83-3.78a154.87 154.87 0 01-1.2-6.26l-.08-.44-.14.45c-.32 1-.66 2.08-.95 3.17a89.05 89.05 0 00-2.56 14.78c-.22 2.39-.4 4.93-.49 7.52-.04 1.09-.06 2.18-.08 3.24v1.93l.01 2.38a2 2 0 01-.44 1.26c-.27.36-.67.6-1.11.67a1.35 1.35 0 01-1.55-1.11 30.8 30.8 0 01-.18-.97l-.16-.95a68.29 68.29 0 01-.64-5.75 84.9 84.9 0 01.29-15.81A68.92 68.92 0 01158 99.03l.49-1.52.13-.41c.15-.49.26-.98.35-1.48.15-.97.18-1.95.1-2.93-.08-1.1-.23-2.2-.45-3.29-.3-1.68-.7-3.44-1.1-5.17l-.42-1.87-.31-1.42-.05-.2-4.27 5.47 5.45 6.65c.22.28.31.64.27.99-.05.38-.22.73-.5 1-.21.22-.5.37-.8.42a1.1 1.1 0 01-.87-.25l-7.96-6.76c-.72-.61-.83-1.78-.26-2.7l.2-.35 8.18-13.05c.28-.45.66-.83 1.1-1.12a24.05 24.05 0 0110.23-3.76c.24-.04.5-.04.74-.02.68.07 1.3.43 1.7.98l.3.46.19.3.49.91a39.3 39.3 0 012.09 4.93 48.19 48.19 0 012.32 10.47l.13 1.17.05.62.04.62.08 1.18c.12 2.42.1 4.84-.07 7.26a1.5 1.5 0 01-.4.92c-.2.22-.47.37-.77.42a1.04 1.04 0 01-1.17-1.03c-.13-2.24-.4-4.48-.8-6.69l-.2-1.04c-.05-.2-.09-.39-.12-.59l-.14-.57-.24-1.02a43.7 43.7 0 00-2.17-6.44l-.16-.4-.04.46a97.26 97.26 0 00-.25 13.56c.15 2.76.5 5.41.79 7.45.15 1.08.34 2.28.6 3.75l.65 3.79a412.72 412.72 0 003.56 17.44c.4 1.63.76 3.3 1.1 4.94zm-14.5-64.18c-2.95.42-5.36-1.84-5.35-5.03 0-3.2 2.41-6.14 5.38-6.55 2.96-.42 5.36 1.84 5.35 5.04 0 3.2-2.42 6.13-5.38 6.54z" fill="#66ABFF"/></g><path fill="#BBB3B8" fill-rule="nonzero" d="M187.25 43.3a77.23 77.23 0 110 154.45 77.23 77.23 0 010-154.46m0-13.88a91.13 91.13 0 00-35.47 175.06 91.13 91.13 0 0070.94-167.88 90.54 90.54 0 00-35.47-7.17z"/><path fill="#FFBE00" fill-rule="nonzero" d="M254.14 81.9l12.14-6.75a91.02 91.02 0 00-78.81-45.73l-.22 13.87a77.2 77.2 0 0166.9 38.61z"/><path stroke="#FFF" stroke-width="1.36" d="M233.72 40.51l-8.73 14.59"/><path stroke="#FFF" stroke-width="1.37" d="M187.47 29.42l-.22 13.87"/><path stroke="#FFF" stroke-width="1.09" d="M196.43 35.27l-1.11 8.44m9.97-7.01l-1.98 8.28m10.64-5.94l-2.84 8.03m11.21-4.79l-3.66 7.69m19.16 1.31l-5.18 6.76m12.14-1.09l-5.85 6.18m12.18.18l-6.47 5.53m12.1 1.46l-7.01 4.83"/><path stroke="#FFF" stroke-width="1.36" d="M266.28 75.15l-12.15 6.76"/><path fill="#000" fill-rule="nonzero" d="M271.98 50.64V36.99h-5.28v-3.22c.72.03 1.45-.03 2.15-.16a5.63 5.63 0 001.87-.7 4.62 4.62 0 001.4-1.3c.4-.6.66-1.3.75-2.01h3.4v21.04h-4.29zm7.45-15.77a9.3 9.3 0 011.66-3.35c.65-.8 1.5-1.43 2.46-1.8a8.25 8.25 0 015.94 0c.97.37 1.82 1 2.47 1.8.79.98 1.36 2.13 1.69 3.35.4 1.4.61 3.12.61 5.17 0 2.1-.2 3.86-.61 5.27a9.13 9.13 0 01-1.69 3.38c-.65.8-1.5 1.43-2.46 1.8a8.2 8.2 0 01-3 .54 8.1 8.1 0 01-2.95-.54c-.96-.38-1.8-1-2.46-1.8a9.27 9.27 0 01-1.67-3.39 19.22 19.22 0 01-.61-5.27c0-2.05.21-3.77.62-5.16zm3.72 7.35c.03.83.16 1.65.37 2.46.19.74.54 1.43 1.02 2.02.46.56 1.12.84 1.98.84.86 0 1.54-.28 2.03-.84a5.2 5.2 0 001.01-2.02c.22-.8.34-1.63.38-2.46.04-.86.06-1.58.06-2.18 0-.36 0-.8-.02-1.31a14.17 14.17 0 00-.42-3.19c-.12-.5-.31-.98-.58-1.43-.25-.4-.59-.75-.99-1.02-.44-.27-.95-.4-1.47-.39a2.56 2.56 0 00-1.46.4c-.4.26-.73.6-.96 1.01a5.4 5.4 0 00-.59 1.43 11 11 0 00-.3 1.61c-.06.54-.1 1.07-.1 1.58l-.02 1.3c0 .6.02 1.33.06 2.19zm-7.97 14.95v1.66h.05a4.34 4.34 0 013.75-2c.74 0 1.46.15 2.13.45a3 3 0 011.46 1.6c.4-.57.9-1.06 1.47-1.43a3.94 3.94 0 012.22-.62c.6 0 1.22.08 1.8.25.53.14 1.02.4 1.43.76.41.37.73.84.93 1.36.24.65.35 1.34.33 2.03v8.21h-3.37v-6.95c0-.41-.01-.8-.05-1.17a2.46 2.46 0 00-.26-.95c-.14-.27-.36-.49-.62-.64a2.26 2.26 0 00-1.13-.24c-.4-.02-.8.07-1.15.27-.29.18-.53.42-.7.71-.16.31-.28.65-.32 1-.06.37-.09.75-.09 1.13v6.84h-3.37v-6.9c0-.36 0-.72-.02-1.07a3.09 3.09 0 00-.2-.99c-.12-.3-.33-.55-.6-.72a2.53 2.53 0 00-1.86-.16c-.27.07-.53.21-.75.4-.28.23-.5.52-.63.85-.2.46-.28.96-.26 1.46v7.13h-3.38V57.17h3.2zm18.32-1.91V52.5h3.38v2.77h-3.37zm3.38 1.9v12.28h-3.37V57.17l3.37-.01zm5.86.01v1.7h.07c.39-.66.97-1.2 1.66-1.55a5.7 5.7 0 014.3-.12c.54.21 1.01.56 1.37 1.02a4 4 0 01.7 1.59 10 10 0 01.2 2.07v7.56h-3.36v-6.93a4.3 4.3 0 00-.48-2.27c-.31-.5-.88-.73-1.68-.73-.92 0-1.59.27-2 .81-.4.55-.61 1.45-.61 2.7v6.42h-3.38V57.17h3.2z"/><path d="M47 24h280.62v192H47z"/></g></svg>