<svg xmlns="http://www.w3.org/2000/svg" viewBox="0 0 375 240"><g fill="none"><path fill="#DAA2FF" d="M254.1 152.02c-25.28-14.6-66.13-14.6-91.26 0-25.12 14.6-24.96 38.25.32 52.84 25.27 14.6 66.1 14.6 91.22 0 25.11-14.59 24.99-38.25-.29-52.84" opacity=".5" style="mix-blend-mode:multiply"/><g fill="#724292"><path d="M224.38 178.37l-5.08-2.77c-1-.59-1.58-1.7-1.5-2.86l5.09 2.77a3.03 3.03 0 001.49 2.86"/><path d="M222.89 175.5l-5.1-2.76.15-1.64 5.1 2.78zm-28.75 7.38l-5.08-2.77c-1.32-.68-1.88-2.37-1.33-4l5.08 2.78c-.54 1.64.02 3.32 1.33 4"/><path d="M192.8 178.88l-5.08-2.77 1.2-3.67 5.1 2.78zm1.22-3.66l-5.1-2.78 1.14-3.56 5.09 2.77zm29.01-1.34l-5.08-2.78c1.22-13.64 3.27-36.35-4.27-59.04l5.09 2.76c7.52 22.7 5.49 45.42 4.26 59.06m12.82-64.64l-5.08-2.77a2.25 2.25 0 01-1.05-2.35c.53-3.75.77-7.54.7-11.33-.04-3.56-.48-7.1-1.32-10.56a32.78 32.78 0 00-1.97-5.7l5.08 2.77a32.7 32.7 0 011.97 5.7c.83 3.46 1.28 7 1.33 10.56a72.2 72.2 0 01-.71 11.33c-.18.93.24 1.87 1.05 2.35m-4.79-50.4l-5.08-2.77.26.14 5.08 2.77-.26-.14"/><path d="M195.15 171.65l-5.08-2.78c.72-2.4 1.45-4.76 2.15-7.15a394.32 394.32 0 003.89-14.39c.32-1.24.62-2.5.89-3.6a274.97 274.97 0 002.38-10.82 230.92 230.92 0 003.26-21.65 210.72 210.72 0 00.89-14.3c.05-2.3.04-4.68 0-7.08-.11-5.49-.54-10.96-1.27-16.39l5.08 2.77c.73 5.43 1.15 10.9 1.25 16.38a161.26 161.26 0 01-.31 14.21 212.45 212.45 0 01-1.42 14.38 230.57 230.57 0 01-3.96 21.66 234.77 234.77 0 01-3.6 14.4c-.55 2.1-1.17 4.3-2.01 7.2-.69 2.4-1.42 4.75-2.16 7.16m15.72-115.09l-5.08-2.78c6.68-.94 11.42-.5 15.09.45l5.08 2.78c-3.67-.96-8.41-1.4-15.09-.45m15.1.44l-5.09-2.77a31.4 31.4 0 014.92 1.75l5.08 2.77a31.16 31.16 0 00-4.91-1.74M193.83 88.2l-5.08-2.76a3.2 3.2 0 01-.58-.41l5.08 2.77c.18.16.37.3.58.4m12.82-28.7l-5.08-2.76.17-.25 5.08 2.77a10 10 0 00-.17.25m.17-.25l-5.08-2.77c.15-.22.32-.43.5-.64l5.08 2.77c-.18.2-.35.42-.5.64m.5-.64l-5.08-2.77c.17-.2.36-.39.56-.56l5.08 2.77c-.2.17-.38.36-.56.56"/><path d="M207.88 58.06l-5.08-2.77c.2-.2.43-.37.66-.53l5.08 2.77a6.9 6.9 0 00-.66.53"/><path d="M208.54 57.53l-5.08-2.77c.28-.2.58-.37.9-.52l5.07 2.78c-.3.14-.6.32-.89.51"/><path d="M209.43 57.03l-5.08-2.77a5.8 5.8 0 011.42-.47l5.08 2.78c-.49.09-.96.24-1.42.46m-14.51 20.71l-5.1-2.77 11.74-18.23 5.09 2.77zm-1.67 10.06l-5.1-2.77-12.31-10.82 5.09 2.77z"/><path d="M180.93 77l-5.08-2.78a2.66 2.66 0 01-.86-1.96c-.01-.43.06-.86.2-1.27l5.09 2.78c-.15.4-.22.83-.22 1.26 0 .75.32 1.46.87 1.96m-.65-3.23l-5.08-2.77.2-.46 5.09 2.77c-.08.15-.15.3-.2.46m.2-.46l-5.09-2.77c.07-.13.15-.25.23-.36l5.08 2.77c-.08.11-.15.23-.22.36m.22-.36l-5.08-2.77.11-.16.14-.17 5.08 2.77-.14.17-.11.16m.26-.33l-5.08-2.77c.09-.1.18-.2.28-.28l5.08 2.77c-.1.09-.2.18-.28.28m.28-.28l-5.08-2.77c.1-.1.21-.18.33-.26l5.08 2.77a3.2 3.2 0 00-.33.26"/><path d="M181.57 72.07l-5.08-2.77c.15-.1.3-.19.45-.26l5.08 2.77c-.15.07-.3.16-.45.26m.45-.27l-5.08-2.76a2.73 2.73 0 011.77-.2l5.08 2.78c-.31-.08-.64-.1-.96-.06a2.9 2.9 0 00-.8.25"/><path d="M183.79 71.62l-5.08-2.77c.15.03.3.09.43.16l5.08 2.77a2.13 2.13 0 00-.43-.16m.44.16L179.15 69l.08.05 5.08 2.77-.08-.04m32.75-18.98l-5.08-2.77c-2.84-1.55-4.72-4.7-4.72-8.6 0-1.46.27-2.92.78-4.3l5.08 2.77a12.55 12.55 0 00-.78 4.3c0 3.9 1.87 7.05 4.72 8.6"/><path d="M213.04 39.9l-5.08-2.76c.22-.6.47-1.16.77-1.71l5.08 2.76c-.3.56-.55 1.13-.77 1.71"/><path d="M213.81 38.2l-5.08-2.77c.25-.47.53-.92.83-1.35l5.08 2.77c-.3.43-.58.88-.83 1.34"/><path d="M214.64 36.85l-5.08-2.77c.28-.4.58-.79.91-1.16l5.08 2.77c-.32.36-.62.76-.91 1.16"/><path d="M215.55 35.7l-5.08-2.78c.33-.37.67-.72 1.04-1.05l5.08 2.77c-.36.33-.7.68-1.04 1.05"/><path d="M216.6 34.64l-5.09-2.77c.39-.35.8-.67 1.22-.97l5.08 2.77c-.43.3-.84.62-1.23.97m1.24-.97l-5.08-2.77c.52-.36 1.07-.68 1.65-.95l5.08 2.77c-.57.27-1.13.6-1.65.95m1.65-.96l-5.08-2.77c.93-.44 1.93-.74 2.95-.9a8.95 8.95 0 013.5.19l5.08 2.77a8.95 8.95 0 00-3.5-.18c-1.02.15-2.01.45-2.95.9"/><path d="M225.92 32.01l-5.08-2.77c.55.14 1.09.34 1.6.6l5.08 2.76a8.55 8.55 0 00-1.6-.59"/><path d="M227.52 32.6l-5.08-2.77.31.16 5.08 2.78-.31-.17"/></g><path d="M242.16 82.4a58.7 58.7 0 01-.3 12.67 83.12 83.12 0 01-2.53 12.32 3 3 0 01-1.16 1.63c-.32.24-.7.39-1.09.44-.23.04-.47.03-.7-.02-1.1-.22-1.78-1.29-1.6-2.54.53-3.75.76-7.54.7-11.33-.05-3.56-.5-7.1-1.33-10.56a32.7 32.7 0 00-1.96-5.7 153.52 153.52 0 00-.16 25.79c.3 4.13.73 8.23 1.2 12.57l.08.83c.55 5.35.91 9.8 1.13 14.01.26 4.84.24 9.69-.05 14.52-.62 9.8-2.4 19.49-5.27 28.88a3.9 3.9 0 01-3.03 2.75c-.35.06-.7.04-1.04-.04-1.34-.3-2.22-1.58-2.16-3.11l.14-1.63c1.23-13.64 3.27-36.36-4.26-59.06-.3 2.27-.64 4.56-1 6.8a228.7 228.7 0 01-7.26 30.36c-.8 2.5-1.64 5-2.5 7.42-.47 1.31-.9 2.49-1.37 3.68a171.9 171.9 0 01-7.12 16.23l-.94 1.81a3.82 3.82 0 01-2.77 2.05c-.57.09-1.16 0-1.68-.27-1.31-.7-1.87-2.37-1.33-4l1.2-3.66 1.14-3.57c.74-2.4 1.47-4.76 2.15-7.16a359.88 359.88 0 003.9-14.38 211.58 211.58 0 001.72-7.21 230.57 230.57 0 004.8-28.86 210.62 210.62 0 00.89-14.31 158.63 158.63 0 00-1.23-23.49l-8.23 10.13-.54.64a4.38 4.38 0 01-2.69 1.54 3.27 3.27 0 01-2.66-.77L180.93 77a2.66 2.66 0 01-.86-1.97 3.5 3.5 0 01.76-2.24 3.14 3.14 0 012-1.22c.52-.08 1.05.02 1.5.27l10.59 5.9 11.73-18.23a6.48 6.48 0 014.2-2.95c10.1-1.43 15.76.32 20.01 2.18a5.32 5.32 0 011.08.65l.27.22a8.6 8.6 0 01.88.81 25.38 25.38 0 013.19 3.96 32.48 32.48 0 012.96 5.65 42.23 42.23 0 012.92 12.36zm-.7 12.67c.55-4.17.65-8.39.29-12.58a41.78 41.78 0 00-2.89-12.24 32.23 32.23 0 00-2.93-5.58 25.74 25.74 0 00-3.02-3.8l-.63-.6c-.11-.1-.22-.2-.36-.3l-.26-.22-.23-.16c-.25-.17-.51-.3-.79-.42-4.2-1.89-9.75-3.56-19.3-2.27a6.14 6.14 0 00-4.36 2.82L195 78.3l-10.88-6.07c-.4-.22-.85-.3-1.29-.23a2.7 2.7 0 00-1.72 1.04 3.02 3.02 0 00-.64 1.91c0 .64.26 1.25.72 1.68l12.32 10.82c.66.57 1.53.82 2.39.69.95-.15 1.8-.65 2.41-1.39l.54-.63 8.79-10.81.05.41c.77 5.6 1.2 11.22 1.31 16.86a156.57 156.57 0 01-.32 14.25c-.16 2.66-.36 5.02-.57 7.19a222.36 222.36 0 01-3.26 21.7 273.22 273.22 0 01-2.39 10.85c-.27 1.11-.57 2.37-.89 3.61-.57 2.37-1.2 4.8-1.87 7.2a363.47 363.47 0 01-4.17 14.37l-1.72 5.35-.62 1.88c-.48 1.43 0 2.9 1.17 3.51.45.24.97.32 1.47.25a3.35 3.35 0 002.43-1.8l.95-1.82a106.55 106.55 0 002.57-5.32 166.68 166.68 0 004.52-10.83c.46-1.2.89-2.37 1.36-3.67.86-2.42 1.7-4.9 2.5-7.4a227.3 227.3 0 007.22-30.28c.42-2.55.8-5.13 1.12-7.68l.11-.89.27.8c7.87 23.03 5.8 46.18 4.56 60.02l-.14 1.61c-.06 1.34.72 2.46 1.88 2.73.3.06.61.08.92.03.44-.06.86-.23 1.23-.48a3.58 3.58 0 001.42-1.93 124.97 124.97 0 005.27-28.79c.3-4.81.31-9.64.05-14.46-.22-4.2-.58-8.65-1.13-13.98l-.1-.84c-.45-4.35-.9-8.45-1.18-12.59a153.14 153.14 0 01-.47-13.2c.03-4.27.25-8.63.69-13.34l.08-.86.3.63a33.18 33.18 0 012.3 6.44 48.1 48.1 0 011.34 10.66 72.1 72.1 0 01-.7 11.4c-.15 1.05.4 1.94 1.32 2.12a2.06 2.06 0 001.48-.36c.47-.33.8-.8.96-1.36 1.14-4 1.98-8.1 2.5-12.23m-19.08-41.34c-5.59.79-10.13-3.49-10.12-9.52.01-6.04 4.57-11.6 10.16-12.38 5.6-.78 10.14 3.49 10.13 9.52-.01 6.04-4.57 11.6-10.17 12.38zm.04-21.47c-5.37.76-9.75 6.09-9.76 11.89-.01 5.8 4.36 9.9 9.72 9.15 5.37-.75 9.76-6.07 9.77-11.88.01-5.8-4.35-9.9-9.73-9.15" fill="#724292" stroke="#724292" stroke-width=".5"/><path d="M241.76 82.49c.36 4.19.27 8.4-.28 12.58a82.1 82.1 0 01-2.52 12.24 2.44 2.44 0 01-.96 1.36 2.06 2.06 0 01-1.48.36c-.91-.18-1.47-1.09-1.33-2.12.54-3.78.78-7.59.71-11.4a48.1 48.1 0 00-1.33-10.67 33.18 33.18 0 00-2.3-6.44l-.31-.63-.08.86a158.4 158.4 0 00-.6 19.95c.06 1.98.19 4.08.38 6.6.29 4.14.73 8.25 1.19 12.59l.09.83c.55 5.34.91 9.8 1.13 14 .26 4.8.24 9.63-.05 14.44a124.97 124.97 0 01-5.26 28.78 3.58 3.58 0 01-1.42 1.93c-.37.25-.8.42-1.24.49-.3.04-.61.03-.91-.04-1.16-.27-1.94-1.4-1.89-2.73l.15-1.6c1.23-13.84 3.3-37-4.56-60.04l-.27-.79-.12.9c-.32 2.53-.7 5.13-1.11 7.67a227.3 227.3 0 01-7.23 30.28c-.8 2.5-1.64 4.99-2.49 7.4-.47 1.3-.9 2.48-1.36 3.67-.42 1.09-.9 2.38-1.43 3.63a166.68 166.68 0 01-5.67 12.53l-.95 1.81a3.35 3.35 0 01-2.42 1.8c-.5.07-1.02-.01-1.48-.24-1.17-.6-1.65-2.08-1.17-3.51l.63-1.9 1.71-5.34a363.47 363.47 0 004.18-14.37c.67-2.4 1.3-4.84 1.87-7.2.32-1.24.62-2.5.9-3.61.3-1.24.58-2.47.83-3.63a232.02 232.02 0 004.82-28.92 220.47 220.47 0 00.88-14.35c.06-2.3.05-4.69 0-7.1-.1-5.63-.54-11.25-1.3-16.84l-.06-.41-8.78 10.81-.54.63a3.92 3.92 0 01-2.42 1.39 2.93 2.93 0 01-2.39-.7l-12.3-10.81a2.27 2.27 0 01-.73-1.68c-.02-.7.21-1.37.64-1.92a2.7 2.7 0 011.72-1.04c.44-.06.9.02 1.28.23l10.9 6.08 11.95-18.58a5.98 5.98 0 014.13-2.77c9.8-1.34 15.34.33 19.5 2.18.3.13.59.28.86.46l.23.17.26.2.36.32a21.58 21.58 0 011.74 1.83c.7.81 1.33 1.67 1.92 2.56a32.23 32.23 0 012.93 5.58 41.78 41.78 0 012.85 12.24zM222.38 53.3c-5.37.76-9.73-3.35-9.72-9.15.01-5.8 4.39-11.13 9.76-11.89 5.38-.75 9.74 3.35 9.73 9.16 0 5.8-4.39 11.13-9.77 11.88z" fill="#D18AFF"/><path fill="#000" d="M156.79 24.4c.89-.13 1.8.03 2.59.45l3.31 1.82s-1.05 1.42-1.05 2.3l-.2 100.4c0 2.9-2.17 5.54-4.85 5.91l-49.67 8.46-3.27-1.8a4.52 4.52 0 01-2.3-4.13l.2-100.38c0-2.9 2.18-5.55 4.86-5.92l50.38-7.1z"/><path fill="#000" d="M160.08 26.22l-50.37 7.08c-2.69.38-4.86 3.04-4.87 5.92l-.18 100.4c0 2.9 2.18 4.93 4.84 4.56l50.38-7.08c2.68-.36 4.86-3.03 4.86-5.92l.19-100.4c0-2.91-2.18-4.94-4.85-4.56"/><path fill="#414141" d="M160.08 26.22l-50.37 7.08c-2.69.38-4.86 3.04-4.87 5.92l-.18 100.4c0 .18 0 .36.02.55L164.9 30.22c-.25-2.6-2.3-4.35-4.82-4z"/><path fill="#FFF" d="M162.82 34.02l-.17 94.51-55.9 7.85.18-94.49z"/><path fill="#8C8C8C" d="M124.71 39.38l-.97.14v.36c0 .54-.14 1.07-.43 1.52-.16.26-.42.44-.73.49a.7.7 0 01-.7-.26c-.3-.4-.46-.91-.44-1.42v-.37l-.96.13v.36c0 .54.12 1.07.36 1.54.16.38.43.7.77.92.3.15.65.2.99.14.68-.1 1.26-.53 1.56-1.15.35-.62.54-1.32.55-2.03v-.36m5.82-.82l-.98.13v.37c.01.53-.13 1.06-.42 1.51-.16.27-.42.45-.72.5a.7.7 0 01-.7-.26c-.31-.42-.47-.92-.45-1.43v-.36l-.97.13v.37c0 .53.12 1.06.36 1.54.16.37.43.69.77.91.3.16.65.2.99.14.68-.1 1.26-.53 1.56-1.15.35-.62.54-1.32.55-2.04v-.36m4.2-.59l-.97.13v2.05l-.98.14a.78.78 0 00-.5.21c-.1.11-.15.25-.15.4-.01.14.05.27.15.36.15.1.33.12.5.08l2.92-.41a.79.79 0 00.5-.22c.1-.1.15-.24.15-.39a.45.45 0 00-.14-.36.64.64 0 00-.5-.08l-.99.14v-2.05m7.45-1.05l-.98.14v.36c.01.53-.13 1.06-.42 1.51-.16.27-.42.45-.72.5a.7.7 0 01-.7-.26 2.18 2.18 0 01-.45-1.43v-.36l-.97.13v.36c0 .54.12 1.06.36 1.54.16.37.43.69.77.91.3.16.66.2 1 .14.67-.1 1.26-.53 1.56-1.15.35-.62.54-1.32.55-2.04v-.36m5.81-.81l-.97.14v.36c0 .54-.14 1.06-.42 1.52-.16.26-.43.44-.73.49a.7.7 0 01-.7-.26c-.3-.41-.46-.91-.44-1.43v-.36l-.97.13v.37c0 .53.12 1.06.36 1.53.16.38.42.7.76.92.3.15.66.2 1 .14.67-.1 1.26-.52 1.56-1.14.35-.62.54-1.32.55-2.04v-.36m-24.9 11.66l-2.09.88a.95.95 0 00-.41.27c-.08.1-.11.24-.1.36 0 .14.04.27.13.37.08.08.2.13.32.1.11-.01.22-.05.31-.1l.87-.36v4.36l-.98.13a.8.8 0 00-.5.22c-.1.11-.15.25-.15.4 0 .14.05.27.15.36.15.1.33.12.5.07l2.93-.4a.8.8 0 00.5-.22c.1-.11.15-.25.15-.4a.45.45 0 00-.15-.36.64.64 0 00-.5-.08l-.98.14V47.8m5.32 5.12a.7.7 0 01-.7-.25 2.24 2.24 0 01-.45-1.45V50.1c0-.54.14-1.07.43-1.52.16-.26.42-.44.73-.49.26-.05.53.05.7.26.3.41.45.92.43 1.43v1.15c.01.53-.13 1.06-.42 1.51-.16.27-.42.44-.73.49m0-5.88c-.68.1-1.27.53-1.56 1.16a4.22 4.22 0 00-.54 2.03v1.15c-.01.53.11 1.06.36 1.53.16.37.42.7.76.92.3.15.65.2 1 .14.67-.1 1.26-.53 1.56-1.16.35-.62.54-1.32.55-2.03v-1.15c0-.54-.12-1.07-.37-1.54-.16-.37-.43-.7-.76-.92a1.6 1.6 0 00-1-.13m7.46 4.68c.13.02.25.05.37.09a.52.52 0 00-.37-.1m-1.14-5.58l-2.09.89a1 1 0 00-.41.27c-.07.1-.1.22-.1.34 0 .13.04.26.13.36.08.1.2.13.32.12l.32-.1.86-.37v4.36l-.98.13a.82.82 0 00-.5.22.58.58 0 00-.15.4c0 .13.05.27.15.36a.5.5 0 00.1.05 4 4 0 012.35-1.45v-5.58m5.32 5.14a.7.7 0 01-.7-.25c-.31-.41-.47-.92-.45-1.43v-1.15c0-.53.14-1.06.42-1.51.16-.27.43-.45.73-.5.26-.04.53.05.7.26.3.41.46.92.44 1.43v1.15c.01.54-.14 1.06-.42 1.52-.16.26-.43.44-.73.48m0-5.88c-.68.1-1.27.53-1.56 1.16a4.22 4.22 0 00-.55 2.03v1.15c0 .53.12 1.06.36 1.53.16.38.43.7.77.92.3.16.65.2 1 .14.67-.1 1.26-.53 1.55-1.16.36-.62.55-1.32.56-2.03V48c0-.53-.12-1.06-.37-1.53a2.18 2.18 0 00-.77-.92c-.3-.15-.65-.2-.98-.13m5.82 5.05a.7.7 0 01-.7-.26c-.31-.4-.47-.91-.45-1.42v-1.15c0-.53.14-1.05.43-1.5a1 1 0 01.72-.49c.27-.05.54.04.7.25.31.42.47.93.45 1.45v1.11c0 .54-.14 1.07-.43 1.52-.15.26-.42.44-.72.49m0-5.89c-.68.1-1.27.54-1.56 1.16a4.22 4.22 0 00-.55 2.03v1.15c0 .53.12 1.06.36 1.54.16.37.43.69.77.91.3.16.65.2.99.14.68-.1 1.27-.53 1.56-1.15.35-.62.54-1.32.55-2.04v-1.14c.01-.54-.11-1.07-.36-1.54-.16-.37-.43-.7-.77-.92a1.6 1.6 0 00-.99-.14m-23.29 21.01a.7.7 0 01-.7-.25c-.3-.41-.46-.9-.45-1.42v-1.15c0-.53.14-1.06.43-1.51.15-.26.42-.44.73-.49.26-.05.53.04.7.25.3.42.45.92.44 1.43v1.15c0 .54-.14 1.06-.43 1.52-.15.26-.42.44-.72.48m0-5.88c-.68.1-1.27.54-1.57 1.16a4.26 4.26 0 00-.54 2.03v1.15c0 .53.12 1.06.36 1.53.16.38.43.7.77.92.3.16.65.2.99.14.68-.1 1.27-.53 1.56-1.15.35-.63.54-1.32.56-2.04v-1.15c0-.53-.12-1.06-.37-1.54a2.18 2.18 0 00-.77-.91c-.3-.15-.65-.2-.98-.14m5.8-.83c-.68.1-1.27.53-1.56 1.16a4.22 4.22 0 00-.55 2.03v1.15c0 .46.1.92.28 1.35l.7-1.4v-1.24a2.7 2.7 0 01.42-1.51 1 1 0 01.73-.5c.15-.02.3 0 .44.06l.49-.99c-.3-.13-.62-.17-.94-.11m12.13-1.71l-.3.13.3.52v-.65m5.31 5.14a.69.69 0 01-.7-.25c-.3-.41-.46-.92-.44-1.43v-1.15c-.01-.54.14-1.06.42-1.51a1 1 0 01.73-.5.7.7 0 01.7.26c.3.41.46.91.44 1.43v1.15a2.7 2.7 0 01-.42 1.51 1 1 0 01-.73.49m0-5.88c-.68.1-1.26.53-1.56 1.15a4.23 4.23 0 00-.55 2.03v1.16c0 .53.12 1.06.37 1.53.15.37.42.7.76.92.3.15.65.2 1 .14.67-.1 1.26-.53 1.55-1.16.36-.62.55-1.31.56-2.03v-1.15c0-.54-.12-1.07-.37-1.54a2.18 2.18 0 00-.77-.92 1.6 1.6 0 00-.98-.13m-26.2 15.53c-.68.1-1.27.54-1.56 1.16a4.25 4.25 0 00-.55 2.03v1.14c0 .54.12 1.07.37 1.54.16.38.43.7.76.92.23.12.48.17.73.16l.59-1.17c-.1.05-.21.09-.33.1a.7.7 0 01-.7-.25c-.3-.41-.46-.92-.44-1.43v-1.15c-.01-.54.14-1.06.42-1.51a.99.99 0 01.73-.49c.27-.06.55.04.72.25.3.42.46.92.44 1.43v1.45l.97-1.96c-.04-.4-.16-.8-.36-1.17-.18-.37-.46-.7-.81-.91-.3-.15-.65-.2-.98-.14m29.08-4.09c-.69.1-1.27.54-1.57 1.16l-.08.16.59 1.02c.07-.29.18-.56.34-.8.16-.26.42-.44.73-.49.27-.06.55.04.72.25.3.42.45.92.44 1.43v1.15a2.7 2.7 0 01-.43 1.52l.51.88a4.27 4.27 0 00.91-2.54v-1.16c.01-.53-.11-1.06-.36-1.53a2.12 2.12 0 00-.77-.92c-.3-.15-.65-.2-.98-.14m-26.26 33.29a.73.73 0 01-.73-.26c-.3-.41-.46-.92-.43-1.43v-1.15c-.01-.53.13-1.06.42-1.51.15-.27.42-.45.73-.5a.7.7 0 01.7.27c.3.4.45.91.44 1.42v1.15c0 .54-.14 1.06-.43 1.52a1 1 0 01-.72.49m0-5.89c-.68.1-1.27.54-1.57 1.16a4.3 4.3 0 00-.54 2.03v1.15c-.01.53.11 1.06.36 1.53.16.37.43.7.76.92.31.16.66.2 1 .14.68-.1 1.27-.53 1.56-1.15.35-.62.54-1.32.55-2.04v-1.15c0-.53-.12-1.06-.36-1.54-.17-.37-.43-.69-.77-.91a1.6 1.6 0 00-.99-.14m6.33-.88l-2.09.87c-.16.06-.3.15-.42.27-.06.1-.1.22-.1.34 0 .14.05.27.14.37.08.09.2.13.32.11.1-.02.21-.05.3-.1l.88-.36v4.35l-.98.14a.8.8 0 00-.5.21.58.58 0 00-.15.4c-.01.14.04.27.14.37.16.08.34.11.5.07l2.93-.42a.78.78 0 00.5-.21c.1-.1.16-.25.15-.4a.45.45 0 00-.14-.36.64.64 0 00-.5-.07l-.98.14v-5.73m5.32 5.14a.73.73 0 01-.73-.26c-.3-.4-.46-.91-.44-1.42v-1.15c0-.54.14-1.06.43-1.52a1 1 0 01.72-.49c.28-.06.56.04.73.26.3.41.45.92.44 1.43v1.15c0 .53-.14 1.06-.43 1.51-.15.27-.42.45-.72.5m0-5.9c-.69.1-1.28.54-1.57 1.16a4.26 4.26 0 00-.55 2.04v1.14c0 .54.12 1.06.37 1.54.16.37.43.69.76.92.3.15.66.2 1 .13.68-.1 1.26-.53 1.56-1.15.35-.62.54-1.32.55-2.03v-1.15c0-.54-.12-1.07-.36-1.54a2.13 2.13 0 00-.76-.92c-.3-.15-.65-.2-.99-.13m6.3-.89l-2.09.87c-.15.06-.3.15-.41.28-.07.1-.11.22-.1.34-.01.14.04.27.13.36.08.1.2.14.32.12.1-.02.21-.06.31-.1l.87-.37v4.35l-.98.14a.8.8 0 00-.5.22c-.1.1-.15.25-.15.4-.01.13.04.26.15.35.15.1.33.13.5.08l2.92-.41a.79.79 0 00.5-.22c.1-.1.15-.25.15-.4a.44.44 0 00-.15-.36.63.63 0 00-.5-.07l-.97.14v-5.73m5.82-.81l-2.1.88a1 1 0 00-.4.27c-.08.1-.11.22-.1.34-.01.14.04.27.13.36.08.1.2.13.32.12.1-.02.21-.06.3-.1l.87-.37v4.35l-.98.14a.8.8 0 00-.5.22c-.1.1-.15.25-.15.4 0 .13.05.26.15.35.15.1.33.12.5.08l2.93-.41a.78.78 0 00.5-.22c.1-.1.15-.25.15-.4a.43.43 0 00-.15-.36.64.64 0 00-.5-.08l-.97.14v-5.73m-23.81 32.95a.7.7 0 01-.7-.25c-.31-.41-.46-.92-.44-1.43v-1.15c-.01-.53.13-1.06.42-1.51a1 1 0 01.73-.5.7.7 0 01.7.26c.3.42.45.92.44 1.43v1.15a2.7 2.7 0 01-.42 1.51 1 1 0 01-.73.5m0-5.89c-.68.1-1.27.53-1.56 1.16a4.3 4.3 0 00-.55 2.03v1.15c0 .53.12 1.06.36 1.53.16.38.43.7.77.92.3.16.65.2.99.14.68-.1 1.27-.53 1.56-1.16.35-.62.54-1.32.55-2.03v-1.15c0-.54-.12-1.07-.37-1.54a2.14 2.14 0 00-.77-.92c-.3-.15-.65-.2-.98-.13m5.82 5.07a.7.7 0 01-.7-.26c-.31-.41-.47-.92-.45-1.43v-1.16c-.01-.53.14-1.06.43-1.5a1 1 0 01.72-.5c.26-.04.52.05.69.26.3.41.47.93.45 1.45v1.15c.01.53-.13 1.06-.42 1.51a1 1 0 01-.73.5m0-5.9c-.68.1-1.27.54-1.56 1.17a4.3 4.3 0 00-.55 2.02v1.16c0 .53.12 1.06.36 1.53.16.37.43.7.76.92.3.15.66.2 1 .14.68-.1 1.27-.53 1.56-1.16.35-.62.54-1.31.55-2.03v-1.15c0-.54-.12-1.06-.36-1.54a2.14 2.14 0 00-.77-.91c-.3-.16-.65-.2-.99-.14m6.32-.9l-2.09.87c-.16.06-.3.15-.42.27-.07.1-.1.24-.1.36 0 .14.05.27.14.37.08.08.2.13.32.11.1-.02.21-.06.31-.1l.87-.37v4.36l-.98.13a.79.79 0 00-.5.22c-.1.11-.15.25-.15.4-.01.13.05.27.15.36.15.1.33.12.5.07l2.93-.41a.8.8 0 00.5-.21c.1-.11.15-.25.15-.4a.44.44 0 00-.15-.36.63.63 0 00-.5-.08l-.98.14v-5.73m5.82-.82l-2.09.88c-.16.05-.3.14-.42.26a.6.6 0 00-.1.37c0 .13.05.26.14.36.08.1.2.13.32.1.1-.01.2-.04.3-.1l.87-.36v4.36l-.98.14a.8.8 0 00-.5.22c-.1.1-.15.24-.15.39 0 .14.05.27.15.36.15.1.33.12.5.07l2.93-.4a.79.79 0 00.5-.22c.1-.11.15-.25.15-.4a.42.42 0 00-.15-.36.63.63 0 00-.5-.08l-.98.13v-5.73m5.32 5.15a.7.7 0 01-.7-.26c-.3-.41-.46-.91-.44-1.43v-1.15c-.01-.53.13-1.06.42-1.51a1 1 0 01.73-.5.7.7 0 01.7.26c.3.42.46.92.44 1.43v1.15a2.7 2.7 0 01-.42 1.51 1 1 0 01-.73.5m0-5.89c-.68.1-1.27.54-1.56 1.16a4.29 4.29 0 00-.55 2.03v1.15c0 .53.12 1.06.36 1.53.16.38.43.7.76.92.31.15.66.2 1 .14.68-.1 1.27-.53 1.56-1.15.35-.62.54-1.32.55-2.03v-1.15c0-.54-.12-1.07-.36-1.55a2.14 2.14 0 00-.77-.91 1.6 1.6 0 00-.99-.14m-23.29 15.13c-.68.1-1.27.53-1.56 1.16a4.3 4.3 0 00-.55 2.02v.45l.97-.14v-.44c-.01-.54.13-1.06.42-1.52.15-.26.42-.44.72-.49.27-.05.54.05.7.26.3.41.46.91.44 1.43v.44l.98-.14v-.44c.01-.54-.11-1.06-.36-1.54a2.1 2.1 0 00-.77-.91c-.3-.16-.65-.2-.99-.14m6.32-.89l-2.08.87c-.16.06-.3.15-.42.28-.07.1-.1.22-.1.34 0 .13.04.26.13.36.09.09.2.13.32.11.11-.02.21-.05.31-.1l.87-.36v1.96l.97-.13v-3.34m5.82-.81l-2.09.88c-.16.05-.3.15-.42.27-.07.1-.1.22-.1.34 0 .13.05.26.14.36.08.1.2.13.32.12l.31-.1.86-.37v1.97l.98-.14v-3.33m5.82-.81l-2.1.87c-.15.05-.3.15-.41.27-.07.1-.1.22-.1.34 0 .14.04.27.13.37.09.08.2.13.32.1.11-.01.22-.05.32-.1l.86-.36v1.99l.97-.14v-3.33m5.82-.83l-2.09.87c-.16.06-.3.15-.41.27-.07.1-.1.22-.1.35 0 .13.04.26.13.36.08.09.2.13.32.11.1-.02.21-.06.31-.1l.87-.37v1.97l.97-.13v-3.34"/><path fill="#FFBE00" d="M162.7 98.88l-55.89 7.87v11.84l55.89-7.85.02-11.85"/><path fill="#000" d="M128.87 105.67l-1.52.22-1.68 5.5h-.02l-1.7-5.02-1.54.22-.01 6.72 1.03-.15.01-5.19h.02l1.72 4.95.9-.13 1.73-5.43.02-.01-.01 5.2 1.04-.15.01-6.73m3.03 5.59a1.83 1.83 0 01-.59-.06.59.59 0 01-.23-.16.41.41 0 01-.1-.29c0-.12.03-.25.07-.36.04-.1.1-.19.18-.26.08-.07.17-.13.26-.18l.3-.12c.23-.08.45-.14.67-.2.2-.04.4-.13.56-.26v.8c0 .15-.04.3-.11.44-.08.13-.17.24-.29.33-.1.09-.23.16-.36.2-.12.05-.24.09-.36.1m.31-4.31c-.24.03-.49.1-.72.18-.24.08-.45.2-.64.36-.42.34-.67.84-.68 1.38l1-.14a.89.89 0 01.3-.63c.2-.16.43-.26.69-.29.1 0 .2 0 .31-.02.1 0 .2.02.3.06.1.03.17.1.23.17.06.1.1.2.09.32 0 .13-.03.26-.11.37a.76.76 0 01-.3.21c-.14.06-.28.11-.43.15a5 5 0 00-.52.15c-.2.05-.4.12-.62.2-.2.07-.39.17-.56.3-.17.14-.3.3-.4.5a1.72 1.72 0 00-.03 1.37c.08.15.2.3.34.4.15.09.32.16.5.19.19.03.38.03.58 0 .29-.05.57-.13.83-.26.28-.13.53-.32.73-.56.01.18.1.33.26.43.16.07.33.1.5.06l.15-.03.18-.05.17-.07.13-.06v-.74a.63.63 0 01-.13.04h-.11c-.1 0-.16 0-.19-.06a.56.56 0 01-.05-.28v-2.5c.01-.22-.04-.44-.15-.63-.1-.17-.24-.3-.41-.39-.18-.09-.38-.14-.58-.16a2.82 2.82 0 00-.66.02m4.33-1.92l-1 .13v1.46l-.74.1v.8l.75-.1v2.86c0 .18.02.36.06.53.02.14.09.27.18.37.1.1.23.16.37.18.2.04.42.04.63 0l.32-.06.32-.09v-.82a1.96 1.96 0 01-.68.1.24.24 0 01-.14-.12.43.43 0 01-.06-.2v-2.88l.89-.14v-.8l-.9.12v-1.45m3.7.81a2.43 2.43 0 00-1.67 1c-.19.26-.33.57-.41.89a3.83 3.83 0 000 2.02c.08.27.22.51.42.72.18.2.42.35.68.43.3.1.62.12.94.07.53-.06 1.03-.31 1.4-.7.37-.44.6-.98.67-1.55l-1 .14c-.03.32-.15.62-.36.86-.18.23-.44.37-.72.4a.9.9 0 01-.55-.07.95.95 0 01-.36-.33c-.1-.15-.18-.33-.21-.5a2.95 2.95 0 01.06-1.51c.06-.22.17-.41.3-.58a1.34 1.34 0 01.8-.45c.26-.05.5 0 .7.13.2.15.33.39.34.64l1-.15a1.76 1.76 0 00-.21-.75 1.4 1.4 0 00-1.07-.72 2.43 2.43 0 00-.73 0m4-2.28l-1 .14v6.72l1-.14v-2.87a1.7 1.7 0 01.3-.95 1.18 1.18 0 01.8-.48.7.7 0 01.65.17c.17.23.24.51.22.8v3.06l1-.14v-3.34a1.26 1.26 0 00-1.6-1.46c-.29.05-.56.16-.8.34-.23.17-.41.38-.54.63v-2.5M134.8 51.7h-.1a4 4 0 00-2.37 1.46c-.2.25-.38.52-.53.81L129.31 59l-.49.99-1.59 3.18-.7 1.4-2.8 5.62-2 4-.98 1.94-.8 1.6-.6 1.18-3.71 7.47a4 4 0 000 3.73 2.9 2.9 0 003 1.46l16.11-2.27 16.12-2.27a4.11 4.11 0 003-2.29 4 4 0 000-3.73l-3.94-6.84-.51-.88-1.77-3.07-.59-1.02-1.22-2.12-5.34-9.25-.3-.52-2.4-4.16a2.9 2.9 0 00-3.01-1.45"/><path fill="#FFBE00" d="M134.8 54c-.5.09-.92.42-1.13.88l-8.1 16.2-8.1 16.19c-.5 1.03.13 2.14 1.16 2L134.75 87l16.12-2.26a1.64 1.64 0 001.16-2.33L144 68.5l-8.04-13.93a1.12 1.12 0 00-1.16-.56"/><path fill="#000" d="M136.96 79.3l-4.8.68v5.08l4.8-.68V79.3m-.11-18.51l-4.54.64v6.35l1.15 10.02 2.18-.3 1.2-10.36v-6.35"/><path fill="#646464" d="M162.82 34.02l-.17 94.51-55.9 7.85z" opacity=".15"/></g></svg>