<svg xmlns="http://www.w3.org/2000/svg" viewBox="0 0 375 240"><g fill="none" fill-rule="evenodd"><path fill="#66ABFF" fill-rule="nonzero" d="M213.95 110.28c-24.1-13.92-63.05-13.92-87.01 0-23.96 13.93-23.81 36.48.3 50.4 24.1 13.9 63.04 13.91 86.98 0 23.95-13.93 23.83-36.47-.27-50.4" opacity=".4"/><path fill="#DAA2FF" fill-rule="nonzero" d="M264.87 138.06c-24.1-13.92-63.05-13.92-87.01 0-23.96 13.92-23.8 36.46.3 50.39 24.1 13.92 63.04 13.92 86.98 0 23.95-13.93 23.83-36.47-.27-50.39" opacity=".5" style="mix-blend-mode:multiply"/><path fill="#DCD5D8" fill-rule="nonzero" d="M134.88 173.84c-24.1-13.93-63.06-13.93-87.02 0-23.95 13.92-23.8 36.46.3 50.38 24.1 13.93 63.04 13.93 86.99 0 23.95-13.92 23.83-36.46-.27-50.38M323.8 84.11c-24.1-13.92-63.06-13.92-87.02 0-23.95 13.93-23.8 36.48.3 50.39 24.1 13.9 63.04 13.92 86.99 0 23.95-13.92 23.83-36.46-.27-50.39" opacity=".4" style="mix-blend-mode:multiply"/><g fill-rule="nonzero"><g fill="#999298"><path d="M110.42 176.35v-4.13l.06.57.02.8v4.1c0-.23 0-.48-.02-.79 0-.14-.02-.27-.06-.56M67.58 199.5v-4.12c0-.43.11-.87.32-1.26 1.06-2.02 2.14-4.06 3.2-6.02 1.91-3.61 3.9-7.34 5.73-11a118.96 118.96 0 002.45-5.22v4.1l-.16.38-.28.67c-.55 1.22-1.17 2.51-2.01 4.2-1.83 3.64-3.82 7.37-5.73 10.98-1.06 1.96-2.14 4-3.2 6.03-.2.39-.31.82-.32 1.26m42.68-24v-4.12c.08.27.13.55.16.84v4.13a4.45 4.45 0 00-.16-.83m-.12-.35v-4.12l.12.33v4.12a4.86 4.86 0 00-.12-.34m-30.74.54v-4.12l.31-.74v4.1l-.3.75"/><path d="M110.03 174.89v-4.12l.12.28v4.12zm-.17-.32v-4.12l.17.33v4.12l-.17-.33m-.46-.72v-4.12l.46.72v4.12zm-29.7 1.1v-4.11l.89-2.2v4.1z"/><path d="M108.02 171.97v-4.11l1.39 1.87v4.12zm-27.43.78v-4.11a165.45 165.45 0 005.61-17.24v4.1a174.47 174.47 0 01-5.62 17.24m39.09-18.62v-4.11c.5.4.8 1 .8 1.63v4.11c0-.64-.3-1.24-.8-1.63m-22.35-.85v-4.1c1.28 3 2.65 5.85 4.21 8.7a76.34 76.34 0 006.49 10v4.11a76 76 0 01-6.48-10 98.3 98.3 0 01-4.22-8.7m5.84-12.08v-4.11l16.5 12.92v4.1z"/><path d="M100.76 126.5v-4.1l2.4 14.69v4.1zm-3.18-3.9v-4.12c.32.14.63.3.92.5v4.11c-.29-.2-.6-.36-.92-.5"/><path d="M98.52 123.1v-4.12a5.14 5.14 0 012.26 3.42v4.11a5.13 5.13 0 00-2.26-3.42M75.04 160.4v-4.23c.18-2.68.45-5.41.9-8.87a211.73 211.73 0 015.1-26.26 4.5 4.5 0 011.88-2.65v4.11a4.49 4.49 0 00-1.89 2.65 210.38 210.38 0 00-5.1 26.26c-.44 3.46-.71 6.2-.89 8.87v.12"/><path d="M82.92 122.51v-4.11c.3-.2.64-.38.99-.5v4.1c-.35.14-.68.3-1 .51"/><path d="M83.9 122v-4.1c1.27-.44 3.13-.61 5.15-.61 3.16 0 6.74.43 8.53 1.2v4.1c-1.8-.76-5.37-1.2-8.53-1.2-2.02 0-3.88.18-5.15.62m-.04-9.97v-4.12a8.03 8.03 0 013.64-6.68v4.11a8.04 8.04 0 00-3.64 6.68m3.64-6.68v-4.1a8.7 8.7 0 019.62 0v4.1a8.72 8.72 0 00-9.61 0"/><path d="M97.11 105.35v-4.1a8.04 8.04 0 013.65 6.67v4.12a8.04 8.04 0 00-3.65-6.68"/></g><path d="M119.67 154.12a2.05 2.05 0 01.32 2.96c-.7.8-1.84 1-2.76.5l-18.52-9.91c-.41 1.85-.86 3.64-1.39 5.6 1.28 3 2.65 5.85 4.21 8.7a76 76 0 006.49 10l1.4 1.88.44.72c.06.1.12.2.17.33l.11.28.12.33c.08.27.13.55.16.84l.06.56.02.8v1.36l-.1 2.57c-.16 3.04-.38 6.23-.72 10.06-.27 3.32-.6 6.66-1 10a2.43 2.43 0 01-.95 1.67 2.63 2.63 0 01-1.91.54 2.54 2.54 0 01-2.32-2.32c-.22-3.25-.42-6.6-.6-9.98l-.3-4.97c-.08-1.45-.17-3.01-.3-4.93-.04-.67-.1-1.55-.18-2.42l-.09-.88-.93-.97c-.66-.7-1.27-1.33-1.81-1.93a78.74 78.74 0 01-6.6-8.24 155.02 155.02 0 01-3.73 8.78l-1.05 2.23-.43.87-.14.3-.2.4-.4.75-.33.6-.9 1.63-.63 1.1-.45.74-.2.33a204.2 204.2 0 01-2.65 4.2 150.46 150.46 0 01-8.73 12.02 3.01 3.01 0 01-4.11.5 2.75 2.75 0 01-.84-3.49c1.06-2.03 2.14-4.06 3.2-6.03 1.91-3.6 3.9-7.34 5.73-10.98a116.04 116.04 0 002.29-4.86l.16-.38.13-.3.3-.75.88-2.2a165.33 165.33 0 005.61-17.24 72.1 72.1 0 01-3.16-9 213 213 0 00-3.05 10.1c-.44 1.61-.78 2.96-1.06 4.16a1.9 1.9 0 01-.87 1.23 1.99 1.99 0 01-2.45-.3 1.96 1.96 0 01-.56-1.41c.17-2.68.45-5.41.88-8.87a210.38 210.38 0 015.1-26.26 4.58 4.58 0 012.88-3.15c1.27-.43 3.12-.6 5.14-.6 3.17 0 6.74.43 8.53 1.19a5.24 5.24 0 013.19 3.92l2.39 14.72 16.51 12.9zm.06 2.76a1.74 1.74 0 00-.27-2.51l-16.61-13-2.41-14.8a4.88 4.88 0 00-2.99-3.68c-1.87-.77-5.32-1.18-8.38-1.18-1.93 0-3.71.16-4.82.51a4.3 4.3 0 00-2.9 3c-.65 2.56-1.4 5.59-2.06 8.7a204.8 204.8 0 00-3.03 17.53c-.43 3.45-.7 6.18-.88 8.85a1.6 1.6 0 001.27 1.63 1.66 1.66 0 001.24-.2c.36-.23.62-.59.71-1a119.54 119.54 0 012.26-8.4c.66-2.21 1.34-4.38 2.03-6.45l.18-.52.14.53a71.3 71.3 0 003.32 9.53 123.9 123.9 0 01-2.48 8.54c-1 3.05-2.05 6.04-3.16 8.9l-.87 2.2-.3.74-.14.3-.15.38c-.1.22-.18.44-.29.66-.55 1.22-1.17 2.52-2.01 4.2-1.83 3.65-3.82 7.38-5.74 11l-3.18 6a2.45 2.45 0 00.71 3.12c.46.34 1.02.53 1.6.52.79.01 1.55-.35 2.05-.96a151.81 151.81 0 0011.36-16.2l.2-.32.45-.74.63-1.1c.3-.52.61-1.07.9-1.61l.33-.6.39-.75.2-.4.15-.3c.15-.29.3-.58.42-.86l1.05-2.25c1.45-3.15 2.7-6.1 3.84-9.05l.12-.3.24.37a78.68 78.68 0 008.5 10.29l.99 1.05.1 1a393.07 393.07 0 01.48 7.36l.3 4.97c.18 3.38.38 6.73.6 9.96a2.22 2.22 0 002.26 2.03c.52 0 1.02-.17 1.42-.48.47-.35.77-.88.84-1.46a352.23 352.23 0 001.7-20.03c.05-.75.08-1.64.1-2.57 0-.44.02-.88 0-1.35l-.01-.75c0-.17-.02-.3-.04-.47a4.67 4.67 0 00-.27-1.2l-.11-.27-.16-.3-.25-.42-.33-.47-1.25-1.65a76.7 76.7 0 01-6.51-10.04 98.52 98.52 0 01-4.12-8.48c.4-2.36.85-4.17 1.24-5.93l.12-.53 18.9 10.13a1.9 1.9 0 002.35-.43m-27.39-36.71c-4.66 0-8.45-3.65-8.45-8.13 0-4.47 3.79-8.12 8.45-8.12 4.66 0 8.45 3.65 8.45 8.12 0 4.48-3.8 8.13-8.45 8.13zm0-15.93c-4.48 0-8.12 3.5-8.12 7.8 0 4.31 3.65 7.8 8.12 7.8 4.48 0 8.12-3.48 8.12-7.79 0-4.3-3.65-7.8-8.12-7.8" fill="#999298" stroke="#999298" stroke-width=".5"/><g fill="#DCD5D8" transform="translate(67.7 104.09)"><path d="M51.77 50.28a1.74 1.74 0 01.27 2.51 1.9 1.9 0 01-2.35.43L30.8 43.1l-.12.53c-.4 1.77-.84 3.58-1.37 5.54a90.4 90.4 0 004.25 8.88 76.7 76.7 0 006.5 10.04l1.26 1.65.33.47.25.42.15.3.11.26a4.96 4.96 0 01.26 1.1c.04.28.04.41.05.58l.02.75v1.35a269.46 269.46 0 01-.82 12.62c-.26 3.29-.6 6.65-.99 9.98-.06.58-.37 1.1-.83 1.46-.4.31-.9.48-1.42.48h-.25a2.22 2.22 0 01-2.04-2.04c-.21-3.24-.42-6.59-.6-9.97l-.3-4.97c-.07-1.45-.16-3.02-.3-4.94l-.17-2.42a31 31 0 00-.1-.94l-1.01-1.1-1.8-1.92a78.39 78.39 0 01-6.7-8.38l-.24-.36-.11.3c-1.14 2.94-2.4 5.9-3.84 9.05l-1.05 2.25-.42.86-.15.29-.2.4-.4.75-.33.6c-.28.54-.59 1.1-.9 1.62l-.62 1.1-.44.73-.21.33c-.84 1.38-1.71 2.75-2.65 4.2a151.81 151.81 0 01-8.71 12c-.5.61-1.26.97-2.06.96-.57 0-1.13-.18-1.59-.52a2.45 2.45 0 01-.72-3.12c1.05-2 2.14-4.04 3.19-6.01a371.5 371.5 0 005.74-10.98c.84-1.68 1.46-2.98 2.01-4.2.1-.23.2-.45.28-.67l.16-.37.13-.3.31-.75.87-2.2a166.98 166.98 0 005.65-17.33 78.7 78.7 0 01-3.33-9.63l-.15-.53-.17.52a201.6 201.6 0 00-3.23 10.63c-.44 1.62-.77 2.98-1.05 4.17-.09.43-.35.8-.72 1.03a1.66 1.66 0 01-1.24.2 1.6 1.6 0 01-1.27-1.62c.17-2.67.44-5.4.88-8.85a204.8 204.8 0 015.1-26.22 4.26 4.26 0 012.8-2.99c1.2-.38 2.99-.54 4.9-.54 3.07 0 6.52.4 8.3 1.13a4.93 4.93 0 013.07 3.72l2.42 14.8 16.61 13.01zM34.27 73.3c-.1.07-.07.17 0 .47l.33-.09-.03-.18a.75.75 0 00-.03-.12v-.08l-.19-.08-.08.07"/><ellipse cx="24.62" cy="7.95" rx="8.12" ry="7.81"/></g></g><g fill-rule="nonzero"><g fill="#724292"><path d="M233.2 163.2l-3.78-2.05a2.25 2.25 0 01-1.1-2.12l3.77 2.05c-.06.86.36 1.69 1.1 2.12"/><path d="M232.09 161.09l-3.77-2.06.1-1.21 3.78 2.05zm-21.32 5.46l-3.78-2.05c-1-.51-1.39-1.76-1-2.99l3.78 2.06c-.4 1.21 0 2.46 1 2.98"/><path d="M209.78 163.58l-3.77-2.05.89-2.72 3.78 2.06zm.9-2.71l-3.78-2.06.84-2.64 3.78 2.05zm21.52-1l-3.78-2.06c.9-10.11 2.41-26.96-3.16-43.79l3.77 2.06c5.58 16.82 4.07 33.67 3.17 43.79m9.5-47.94l-3.78-2.05a1.66 1.66 0 01-.77-1.74c.4-2.79.57-5.6.52-8.4a35.3 35.3 0 00-1-7.84 24.55 24.55 0 00-1.45-4.23l3.78 2.05c.61 1.36 1.1 2.78 1.45 4.23.63 2.57.96 5.2 1 7.84.04 2.8-.13 5.62-.53 8.4-.13.69.18 1.38.78 1.74m-3.55-37.37l-3.77-2.05.19.1 3.78 2.05-.2-.1"/><path d="M211.52 158.22l-3.78-2.06a258.12 258.12 0 003.1-10.63c.49-1.8.96-3.59 1.38-5.34.24-.92.46-1.85.66-2.67a220.51 220.51 0 001.77-8.03 179.87 179.87 0 002.42-16.05 152.93 152.93 0 00.66-10.61c.04-1.7.03-3.47 0-5.26-.08-4.06-.39-8.12-.92-12.15l3.77 2.06c.54 4.03.85 8.08.92 12.14a121.76 121.76 0 01-.23 10.55 152.4 152.4 0 01-1.05 10.67 172.06 172.06 0 01-2.94 16.07l-.62 2.67c-.2.82-.42 1.75-.66 2.67-.43 1.75-.9 3.55-1.4 5.34a253.9 253.9 0 01-3.1 10.63m11.66-85.36l-3.78-2.06c4.95-.7 8.47-.37 11.2.33l3.77 2.06c-2.72-.7-6.24-1.04-11.19-.33"/><path d="M234.36 73.19l-3.78-2.06c1.25.33 2.47.77 3.65 1.3L238 74.5a23.2 23.2 0 00-3.64-1.3m-23.82 23.13l-3.78-2.05c-.15-.09-.3-.19-.43-.3l3.78 2.05c.13.12.28.22.43.3m9.51-21.28l-3.78-2.06.12-.18 3.78 2.05-.12.19m.13-.19l-3.78-2.05c.11-.17.24-.33.37-.48l3.78 2.06c-.14.15-.26.3-.37.47"/><path d="M220.54 74.39l-3.77-2.06.41-.42 3.78 2.06c-.15.13-.29.27-.42.42"/><path d="M220.96 73.97l-3.78-2.06c.16-.14.32-.27.5-.38l3.77 2.05c-.17.12-.34.25-.5.39"/><path d="M221.45 73.6l-3.78-2.06c.21-.15.44-.28.67-.39l3.77 2.06c-.23.1-.45.23-.66.38m.66-.39l-3.77-2.06c.33-.15.69-.26 1.05-.33l3.78 2.06a4.4 4.4 0 00-1.06.33m-10.76 15.37l-3.78-2.05 8.7-13.52 3.78 2.05zm-1.25 7.46l-3.77-2.05-9.13-8.02 3.77 2.05zM200.97 88l-3.78-2.05c-.4-.37-.63-.9-.63-1.45-.01-.32.04-.64.15-.94l3.78 2.05c-.11.3-.16.62-.16.94 0 .56.24 1.08.64 1.46"/><path d="M200.49 85.61l-3.78-2.05c.05-.11.1-.23.16-.33l3.78 2.05c-.06.11-.12.22-.16.33m.16-.33l-3.78-2.06.16-.27 3.78 2.05a2.6 2.6 0 00-.16.28"/><path d="M200.81 85l-3.78-2.05.09-.11.1-.13 3.78 2.06-.1.12-.09.11m.19-.23l-3.78-2.06.21-.2 3.78 2.05c-.08.06-.15.13-.21.2"/><path d="M201.2 84.56l-3.77-2.06.25-.2 3.77 2.06c-.08.06-.17.12-.24.2"/><path d="M201.45 84.36l-3.77-2.05c.1-.08.21-.14.33-.2l3.78 2.06c-.12.05-.23.12-.34.2m.34-.2L198 82.1c.19-.09.39-.15.6-.18.23-.03.47-.02.7.04l3.79 2.06a1.83 1.83 0 00-.71-.04c-.21.03-.41.09-.6.18"/><path d="M203.1 84.03l-3.78-2.06.33.12 3.77 2.06c-.1-.06-.21-.1-.33-.12"/><path d="M203.42 84.15l-3.78-2.06.06.04 3.78 2.05-.06-.03m24.28-14.08l-3.77-2.05c-2.1-1.15-3.5-3.5-3.5-6.38 0-1.09.2-2.17.58-3.19l3.78 2.06a9.33 9.33 0 00-.58 3.19c0 2.88 1.4 5.22 3.5 6.37"/><path d="M224.79 60.5L221 58.46c.16-.43.35-.86.57-1.26l3.78 2.05c-.22.4-.41.83-.57 1.27m.58-1.28l-3.78-2.05c.19-.35.4-.68.62-1l3.77 2.06c-.22.32-.42.65-.6 1"/><path d="M225.97 58.24l-3.77-2.05c.2-.3.42-.59.66-.86l3.78 2.05c-.24.28-.46.56-.67.86m.68-.86l-3.77-2.05c.24-.28.5-.54.76-.78l3.78 2.06c-.27.24-.53.5-.77.77m.77-.78l-3.78-2.05c.3-.26.6-.5.92-.72l3.77 2.05c-.31.22-.62.46-.9.73m.9-.73l-3.77-2.05c.38-.27.8-.5 1.22-.7l3.77 2.05c-.42.2-.83.43-1.22.7m1.22-.7l-3.77-2.06c.7-.33 1.43-.55 2.19-.66a6.67 6.67 0 012.6.13l3.77 2.06a6.67 6.67 0 00-2.6-.14 7.8 7.8 0 00-2.19.67"/><path d="M234.34 54.65l-3.78-2.05c.41.1.81.25 1.2.44l3.77 2.05a6.16 6.16 0 00-1.19-.44"/><path d="M235.53 55.09l-3.77-2.05.22.12 3.78 2.05-.23-.12"/></g><path d="M246.38 92.02c.27 3.13.2 6.28-.21 9.4a61.7 61.7 0 01-1.88 9.14 2.2 2.2 0 01-.86 1.21c-.23.17-.5.29-.8.33-.17.03-.34.02-.52-.01-.81-.17-1.32-.96-1.19-1.9.4-2.78.58-5.58.53-8.4a35.1 35.1 0 00-1-7.83 24.27 24.27 0 00-1.45-4.23 112.46 112.46 0 00-.12 19.13c.22 3.07.54 6.1.88 9.32l.07.62c.41 3.98.66 7.27.84 10.4a91.78 91.78 0 01-3.98 32.18 2.89 2.89 0 01-2.23 2.05 2.1 2.1 0 01-.77-.04c-1-.22-1.66-1.17-1.6-2.32l.11-1.21c.9-10.12 2.41-26.96-3.17-43.8-.21 1.69-.47 3.38-.73 5.05a169.27 169.27 0 01-5.38 22.5c-.6 1.87-1.22 3.71-1.85 5.51-.36.98-.66 1.85-1.02 2.73a115.34 115.34 0 01-4.63 10.72c-.24.5-.45.93-.66 1.33l-.7 1.33c-.41.8-1.17 1.36-2.05 1.52-.43.06-.87-.01-1.25-.2-.98-.52-1.4-1.77-1-3l.9-2.7.84-2.66a280.58 280.58 0 004.48-15.97c.24-.92.46-1.85.66-2.68a204.34 204.34 0 001.77-8.03 182.5 182.5 0 002.42-16.04 152.4 152.4 0 00.66-10.63c.04-1.71.03-3.47 0-5.25-.08-4.06-.39-8.12-.93-12.15l-6.1 7.5-.38.53a3.27 3.27 0 01-2 1.15c-.7.11-1.43-.1-1.98-.57l-9.13-8.03a2 2 0 01-.64-1.45 2.6 2.6 0 01.56-1.66c.36-.48.9-.8 1.49-.9.38-.06.77.01 1.11.2l7.85 4.38 8.7-13.52a4.81 4.81 0 013.12-2.2c7.49-1.06 11.69.24 14.84 1.64.21.09.42.2.62.33l.18.13.2.16.27.24c.14.12.26.24.38.37.4.4.66.7.93 1 .52.62 1 1.26 1.44 1.93.86 1.32 1.6 2.73 2.2 4.19a31.47 31.47 0 012.16 9.16zm-.5 9.42c.4-3.1.48-6.22.21-9.33a30.96 30.96 0 00-2.14-9.08 23.62 23.62 0 00-3.6-6.04c-.24-.3-.51-.6-.81-.9l-.47-.46-.26-.23-.2-.15-.16-.13a3.4 3.4 0 00-.58-.3c-3.15-1.4-7.26-2.66-14.34-1.69a4.54 4.54 0 00-3.25 2.1L211.41 89l-8.08-4.5a1.5 1.5 0 00-.94-.18c-.51.09-.97.37-1.28.78-.33.4-.5.9-.5 1.42.01.47.2.92.56 1.24l9.13 8.02c.49.43 1.13.61 1.77.52a2.9 2.9 0 001.8-1.03l.4-.47 6.5-8.02.05.31c.57 4.14.89 8.32.97 12.5a115.71 115.71 0 01-.23 10.57 158.8 158.8 0 01-1.06 10.69 172.7 172.7 0 01-1.79 10.73c-.33 1.58-.68 3.28-1.15 5.36a113.03 113.03 0 01-1.28 5.36c-.43 1.75-.9 3.56-1.4 5.35a241.96 241.96 0 01-3.1 10.65l-1.26 3.98-.47 1.4c-.35 1.06 0 2.16.87 2.6.34.18.72.24 1.1.19a2.49 2.49 0 001.8-1.33l.7-1.32.66-1.33a121.12 121.12 0 004.6-10.7c.33-.88.67-1.75 1.01-2.72a205 205 0 001.85-5.5 169.1 169.1 0 005.36-22.45c.3-1.89.59-3.8.83-5.7l.08-.66.2.6c5.84 17.08 4.3 34.25 3.39 44.51l-.11 1.2c-.09.92.5 1.78 1.4 2.02.22.05.45.06.68.03.32-.05.64-.17.9-.36.52-.34.89-.85 1.06-1.44a92.82 92.82 0 003.97-32.07c-.16-3.12-.43-6.42-.84-10.37l-.07-.62c-.33-3.23-.66-6.27-.88-9.34a109.94 109.94 0 01.16-19.69l.06-.64.23.47c.73 1.53 1.3 3.13 1.7 4.77.63 2.6.96 5.24 1 7.9.05 2.84-.13 5.66-.53 8.46-.15.71.3 1.41 1 1.58a1.5 1.5 0 001.1-.27c.34-.24.6-.6.71-1 .84-2.97 1.46-6 1.84-9.06m-14.16-30.68c-4.15.58-7.52-2.59-7.5-7.06 0-4.48 3.38-8.6 7.53-9.18 4.15-.59 7.51 2.58 7.5 7.06 0 4.48-3.38 8.6-7.53 9.18zm.03-15.91c-3.98.56-7.24 4.52-7.24 8.82-.01 4.3 3.22 7.35 7.2 6.79 4-.56 7.24-4.52 7.25-8.83.01-4.3-3.23-7.34-7.21-6.78" fill="#724292" stroke="#724292" stroke-width=".5"/><path d="M246.09 92.09c.27 3.1.2 6.24-.21 9.33-.4 3.07-1.02 6.1-1.87 9.08-.12.4-.37.75-.71 1a1.5 1.5 0 01-1.1.26 1.33 1.33 0 01-1-1.57c.4-2.8.58-5.63.53-8.46a35.73 35.73 0 00-1-7.9c-.4-1.65-.97-3.25-1.7-4.77l-.23-.47-.06.64a112.6 112.6 0 00-.16 19.68c.22 3.08.54 6.12.88 9.34l.07.62c.41 3.96.68 7.26.84 10.38.19 3.57.18 7.15-.04 10.72a92.82 92.82 0 01-3.91 21.34c-.18.59-.55 1.1-1.05 1.44-.28.18-.59.3-.92.35-.22.04-.45.03-.68-.02a1.91 1.91 0 01-1.4-2.02l.11-1.2c.92-10.26 2.45-27.43-3.38-44.52l-.2-.6-.08.67c-.25 1.9-.52 3.81-.83 5.7a169.1 169.1 0 01-5.36 22.45c-.6 1.86-1.22 3.7-1.85 5.5-.35.96-.66 1.84-1.01 2.72a121.12 121.12 0 01-5.27 12.03l-.7 1.32c-.36.7-1.02 1.2-1.8 1.33-.37.05-.76-.01-1.1-.19-.85-.44-1.21-1.54-.86-2.6l.47-1.4 1.27-3.98a241.96 241.96 0 003.1-10.66c.49-1.79.96-3.59 1.39-5.34l.66-2.68.62-2.68a183.18 183.18 0 003.57-21.45 160.95 160.95 0 00.66-10.64 121.14 121.14 0 00-.94-17.77l-.04-.3-6.52 8.02-.4.46a2.9 2.9 0 01-1.8 1.03c-.63.1-1.28-.09-1.77-.51l-9.13-8.02a1.7 1.7 0 01-.56-1.23 2.2 2.2 0 01.48-1.42c.3-.41.77-.7 1.28-.78.32-.04.66.01.94.17l8.08 4.5 8.87-13.77a4.44 4.44 0 013.06-2.06c7.27-1 11.38.25 14.46 1.61.23.1.44.2.65.34l.17.12.19.15.26.24.38.36a18.46 18.46 0 012.33 2.9c.86 1.3 1.58 2.69 2.17 4.14 1.17 2.9 1.9 5.95 2.15 9.07zm-14.37-21.65c-3.98.56-7.22-2.48-7.21-6.79 0-4.3 3.25-8.25 7.24-8.81 3.99-.56 7.22 2.48 7.21 6.78 0 4.3-3.26 8.26-7.24 8.82z" fill="#D18AFF"/></g><g fill-rule="nonzero"><g fill="#0051BA"><path d="M161.23 136.16l-3.77-2.06a2.14 2.14 0 01-1.06-1.5c-.1-.47-.17-.88-.24-1.31l3.77 2.05.25 1.33c.1.63.5 1.18 1.05 1.5"/><path d="M159.94 133.35l-3.78-2.06-.21-1.28 3.78 2.06zm23.68-.42l-3.78-2.06c-.38-.2-.69-.53-.87-.93a139.68 139.68 0 01-7.23-19.22c-1-3.38-1.88-6.8-2.65-10.15l3.78 2.06c.75 3.35 1.65 6.77 2.65 10.14 1.93 6.58 4.35 13 7.22 19.23.19.4.5.73.88.94m-10.74-30.33l-3.78-2.06-1.12-5.09 2.34-6.19 1.44 8.25zm11.16-17.91l-3.77-2.06a1.7 1.7 0 01-.87-1.42 75.38 75.38 0 00-1.35-10.38l-.15-.79 3.77 2.06.16.78a75.3 75.3 0 011.35 10.38c.02.6.35 1.14.86 1.43m-2.36-12.6l-3.78-2.05-.17-.76c-.1-.45-.21-.92-.34-1.37l3.78 2.05.33 1.37.18.77"/><path d="M181.18 69.97l-3.78-2.05a61.2 61.2 0 00-2.67-8.1l3.78 2.06a58.78 58.78 0 012.67 8.1m-21.46 62.09l-3.78-2.06a104.3 104.3 0 01-.87-7.77 115.01 115.01 0 01.4-21.36 92.3 92.3 0 013.4-16.41l3.78 2.05a81.04 81.04 0 00-1.5 5.48 92.3 92.3 0 00-1.9 10.94 113.85 113.85 0 00.47 29.13"/><path d="M162.66 86.53l-3.78-2.05.85-2.59 3.77 2.05z"/><path d="M163.5 83.94l-3.79-2.05c.2-.64.35-1.28.46-1.94.2-1.28.24-2.58.14-3.87a36.95 36.95 0 00-.61-4.38c-.4-2.26-.93-4.53-1.47-6.94-.2-.84-.38-1.68-.57-2.53l-.36-1.62 3.78 2.05a285.61 285.61 0 00.93 4.16c.54 2.4 1.06 4.67 1.47 6.93.29 1.45.5 2.92.6 4.39.11 1.29.06 2.59-.13 3.87-.12.65-.27 1.3-.46 1.93m12.41-40.4l-3.79-2.05a4.36 4.36 0 011.46.1l3.77 2.05a3.74 3.74 0 00-1.45-.1m1.46.08l-3.78-2.05c.23.06.45.14.67.25l3.77 2.05c-.2-.1-.43-.19-.66-.25"/><path d="M178.01 43.88l-3.78-2.06.13.06 3.78 2.06-.13-.06M160.09 81.5l-3.78-2.06-10.71-9.1 3.78 2.05zm1.67-32.75l-3.78-2.06a35.72 35.72 0 014.2-2.35l3.78 2.06a35.99 35.99 0 00-4.2 2.35"/><path d="M165.96 46.4l-3.77-2.05a33.13 33.13 0 019.94-2.84l3.78 2.05a33.2 33.2 0 00-9.95 2.85m-5.68 3.89l-3.78-2.05.15-.24 3.78 2.06-.15.23m.15-.24L156.65 48c.12-.16.24-.32.37-.46l3.78 2.05c-.13.15-.25.3-.37.47"/><path d="M160.8 49.6l-3.78-2.05c.13-.16.27-.3.42-.43l3.78 2.05c-.15.14-.3.28-.42.43"/><path d="M161.22 49.17l-3.78-2.05c.16-.14.33-.28.5-.4l3.78 2.06c-.18.12-.34.25-.5.4m.5-.4l-3.78-2.06.04-.02 3.78 2.05-.04.03m-12.46 19.08l-3.78-2.06 11.02-17.56 3.78 2.06z"/><path d="M148.98 68.32l-3.78-2.05.28-.47 3.78 2.06zm.39 4.08l-3.78-2.06c-.9-.78-1.17-2.16-.7-3.42l3.77 2.06c-.46 1.26-.2 2.64.71 3.41"/><path d="M148.66 68.98l-3.78-2.06c.06-.16.14-.32.22-.48l3.78 2.06c-.09.15-.16.31-.22.48"/><path d="M148.88 68.5l-3.78-2.06.1-.17 3.78 2.06-.1.17m14.5-25.49l-3.78-2.05c-2.1-1.14-3.5-3.48-3.5-6.37.01-1.1.2-2.17.59-3.2l3.78 2.06a9.33 9.33 0 00-.58 3.2c0 2.88 1.39 5.22 3.5 6.36"/><path d="M160.47 33.45l-3.78-2.05c.16-.44.35-.86.57-1.27l3.78 2.05c-.22.41-.42.84-.57 1.27"/><path d="M161.04 32.18l-3.78-2.05a9 9 0 01.61-1l3.78 2.06c-.22.32-.43.65-.61 1"/><path d="M161.65 31.19l-3.78-2.06c.21-.3.44-.58.68-.86l3.78 2.06c-.24.27-.46.56-.66.86m.66-.86l-3.78-2.06c.24-.27.5-.53.77-.78l3.78 2.06c-.27.24-.53.5-.77.78"/><path d="M163.1 29.55l-3.78-2.06c.29-.26.6-.5.91-.72l3.78 2.07a9.4 9.4 0 00-.9.72"/><path d="M164 28.84l-3.77-2.06c.39-.26.8-.5 1.22-.7l3.78 2.05c-.42.2-.83.44-1.22.71m1.22-.72l-3.78-2.05a7.8 7.8 0 012.2-.66 6.74 6.74 0 012.59.13l3.78 2.05a6.75 6.75 0 00-2.6-.13c-.76.11-1.5.34-2.19.66"/><path d="M170.02 27.6l-3.78-2.06c.41.1.8.26 1.19.44l3.78 2.06a6.4 6.4 0 00-1.2-.44"/><path d="M171.2 28.03l-3.77-2.05.23.12 3.78 2.05-.23-.12"/></g><path d="M187.2 129.7a3 3 0 01-1.8 3.32c-.17.06-.34.1-.52.13-.9.14-1.77-.33-2.13-1.16a139.68 139.68 0 01-7.23-19.23c-1-3.37-1.89-6.79-2.65-10.14l-1.12-5.1a193.06 193.06 0 01-1.53-7.84 80.95 80.95 0 00-1.09 3.64 119.18 119.18 0 00-3.43 19.84 181.82 181.82 0 00-.77 14.46v4.5l.02 1.3c0 .7-.24 1.4-.68 1.94-.42.54-1.02.9-1.69 1.03a2.07 2.07 0 01-2.38-1.72c-.1-.47-.17-.88-.25-1.33l-.2-1.28a104.75 104.75 0 01-.87-7.78 113.85 113.85 0 01.39-21.36 92.3 92.3 0 011.9-10.93c.4-1.7.89-3.5 1.5-5.48l.85-2.6c.2-.63.34-1.27.46-1.93.2-1.28.24-2.58.14-3.87a37.56 37.56 0 00-.63-4.36c-.4-2.26-.92-4.53-1.47-6.93a282.8 282.8 0 01-.93-4.16l-5.2 6.66 7.18 8.77c.34.45.5 1 .42 1.56-.07.6-.34 1.15-.76 1.57-.34.35-.78.58-1.27.66-.49.08-.99-.07-1.37-.39l-10.72-9.1c-1.07-.92-1.25-2.66-.4-4.07l.28-.46 11.03-17.57c.38-.62.88-1.15 1.48-1.55a32.73 32.73 0 0114.13-5.2c.32-.04.63-.04.95 0 .99.1 1.89.62 2.47 1.43l.41.63c.1.14.17.28.25.42a38.15 38.15 0 011.72 3.42 53.11 53.11 0 011.78 4.49 64.95 64.95 0 013.14 14.15c.07.53.12 1.07.17 1.6l.08.82c.03.28.03.57.05.85a84.3 84.3 0 010 11.4 2.32 2.32 0 01-1.87 2.15 1.66 1.66 0 01-1.86-1.63 75.3 75.3 0 00-1.35-10.37l-.16-.8-.17-.76a60.65 60.65 0 00-3-9.46 128.33 128.33 0 00-.28 17.57c.2 3.71.66 7.28 1.06 10.01.2 1.46.46 3.06.8 5.04l.89 5.1a441.37 441.37 0 004.03 20.04l.76 3.44c.49 2.16.99 4.4 1.45 6.63zm-1.87 3.02a2.63 2.63 0 001.6-2.9c-.47-2.23-.97-4.46-1.45-6.62a1074.76 1074.76 0 01-2.88-13.45c-.64-3.14-1.26-6.42-1.91-10.04l-.89-5.1c-.33-2-.6-3.59-.8-5.05-.39-2.75-.86-6.36-1.07-10.04-.2-3.72-.25-7.05-.14-10.18.07-2.55.22-5.2.48-8.07l.05-.63.23.54a57.88 57.88 0 013.24 10.06l.18.76.16.8a76.69 76.69 0 011.36 10.41 1.39 1.39 0 001.46 1.38 1.8 1.8 0 001.14-.57c.32-.34.51-.78.54-1.24.22-3.25.26-6.51.1-9.77-.02-.53-.06-1.07-.1-1.59l-.06-.84-.08-.83-.16-1.59a67.75 67.75 0 00-3.13-14.08 52.49 52.49 0 00-2.82-6.64c-.18-.35-.37-.71-.59-1.09-.15-.27-.23-.4-.33-.54l-.3-.48a3.34 3.34 0 00-3.28-1.46 32.3 32.3 0 00-13.79 5.01c-.64.4-1.18.94-1.59 1.58l-11.02 17.57-.27.46c-.77 1.26-.61 2.83.35 3.65l10.72 9.1c.32.28.75.4 1.17.33.42-.06.8-.26 1.09-.56.37-.36.6-.83.66-1.35.06-.47-.07-.95-.36-1.32l-7.34-8.98 5.75-7.37.06.28.43 1.9c.18.85.38 1.7.57 2.53.52 2.3 1.06 4.68 1.47 6.96.3 1.47.5 2.94.61 4.43a15.36 15.36 0 01-.61 5.94l-.17.56-.68 2.04c-.6 1.97-1.1 3.75-1.5 5.45a92.99 92.99 0 00-1.89 10.88 115.4 115.4 0 00.47 29.04l.21 1.28.25 1.3a1.8 1.8 0 002.05 1.51 2.4 2.4 0 001.52-.9c.38-.48.6-1.08.6-1.7l-.03-3.21v-2.6c.03-1.43.05-2.9.11-4.36.14-3.5.37-6.91.66-10.13a119.4 119.4 0 013.45-19.89 82.6 82.6 0 011.28-4.27l.2-.6.08.6a201.13 201.13 0 001.62 8.43l1.12 5.08c.76 3.35 1.65 6.75 2.66 10.12a139.27 139.27 0 007.21 19.2 1.74 1.74 0 001.87 1.02c.15-.03.3-.07.44-.12M167.4 43.7c-4.15.6-7.52-2.58-7.51-7.06 0-4.48 3.39-8.6 7.53-9.18 4.15-.58 7.52 2.59 7.51 7.07 0 4.48-3.39 8.6-7.54 9.18zm.02-15.9c-3.98.54-7.24 4.5-7.24 8.8 0 4.3 3.23 7.35 7.21 6.79 3.98-.56 7.24-4.52 7.24-8.82.01-4.3-3.23-7.35-7.21-6.79" fill="#0051BA" stroke="#0051BA" stroke-width=".5"/><path d="M186.92 129.82a2.63 2.63 0 01-1.59 2.9c-.14.05-.3.1-.45.12-.78.12-1.54-.3-1.86-1.02a139.27 139.27 0 01-7.22-19.2c-1-3.37-1.88-6.77-2.65-10.12l-1.12-5.1a201.13 201.13 0 01-1.62-8.42l-.1-.58-.19.6a82.6 82.6 0 00-1.27 4.27c-1.6 5.89-2.73 12.4-3.45 19.88a182.572 182.572 0 00-.77 14.49v2.6l.02 3.2c0 .63-.21 1.23-.6 1.7-.36.48-.9.8-1.48.9a1.81 1.81 0 01-2.09-1.5 84 84 0 01-.24-1.3l-.2-1.28a105.92 105.92 0 01-1.18-18.3c.06-3.57.29-7.18.7-10.74.41-3.66 1.05-7.3 1.9-10.88.4-1.7.88-3.48 1.48-5.45l.68-2.04.18-.56a15.36 15.36 0 00.6-5.94 36.06 36.06 0 00-.6-4.43c-.42-2.26-.95-4.64-1.48-6.96a283.49 283.49 0 01-.99-4.43l-.06-.28-5.77 7.4 7.33 8.97c.3.38.42.86.36 1.33-.06.51-.29.99-.66 1.35-.29.3-.67.5-1.08.56-.42.06-.85-.06-1.18-.33l-10.7-9.1c-.97-.82-1.12-2.4-.36-3.65l.28-.46 11.02-17.57c.38-.6.88-1.12 1.48-1.5a32.39 32.39 0 0113.77-5.07c.33-.05.66-.06 1-.03.91.1 1.75.58 2.3 1.33l.4.62.24.41a36.6 36.6 0 011.72 3.4 52.49 52.49 0 011.76 4.46 64.9 64.9 0 013.12 14.08c.07.53.12 1.07.17 1.59l.08.83.06.84.1 1.6c.15 3.25.12 6.5-.1 9.76-.03.46-.22.9-.54 1.24-.27.3-.63.5-1.03.56a1.4 1.4 0 01-1.58-1.38 76.69 76.69 0 00-1.35-10.41l-.16-.79c-.05-.27-.12-.51-.18-.77-.1-.45-.2-.92-.33-1.38a59.51 59.51 0 00-2.9-8.67l-.24-.54-.05.63c-.26 2.87-.4 5.52-.48 8.07a112.57 112.57 0 001.2 20.22c.22 1.46.47 3.06.81 5.04l.89 5.1a441.91 441.91 0 004.04 20.06l.75 3.44c.5 2.17 1 4.4 1.46 6.63zM167.4 43.39c-3.98.56-7.23-2.48-7.22-6.79 0-4.3 3.26-8.26 7.24-8.82 3.99-.56 7.22 2.49 7.22 6.8-.01 4.3-3.26 8.25-7.25 8.8z" fill="#66ABFF"/></g><g fill-rule="nonzero"><g fill="#999298"><path d="M315.94 102.3v-4.1c.07.04.14.1.2.16v4.11a2.57 2.57 0 00-.2-.17m.21.17v-4.11c.57.52.9 1.26.9 2.04v4.1c0-.77-.33-1.5-.9-2.03"/><path d="M311.52 98.95v-4.11l4.43 3.35v4.11z"/><path d="M307.17 95.6v-4.1c1.54 1.19 2.95 2.29 4.35 3.35v4.11c-1.4-1.06-2.81-2.16-4.35-3.36m-50.4-3.03v-4.11c0 1.13.05 2.37.14 3.75.1 1.75.27 3.57.48 5.43a209.66 209.66 0 001.6 10.94v4.13a195.08 195.08 0 01-1.6-10.93c-.2-1.84-.37-3.7-.48-5.44a58.37 58.37 0 01-.14-3.75"/><path d="M298.74 88.7v-4.1a256.6 256.6 0 008.44 6.9v4.1a268.65 268.65 0 01-8.44-6.89m-4.02-3.58v-4.11l.57.53v4.11c-.2-.17-.38-.35-.57-.53m.58.53v-4.11l.86.77.53.48v4.1l-.53-.47-.87-.77m1.41 1.25v-4.1l.07.07v4.11a.9.9 0 01-.08-.08m.09.09v-4.13l1.36 1.2.59.5v4.12l-.59-.51-1.36-1.2m-2.44-2.21v-4.11l.38.36v4.11zm-45.25 4.45v-4.1c0-.44 0-.87.03-1.29.03-.59.09-1.18.18-1.77.11-.7.29-1.37.52-2.03v4.1c-.23.67-.4 1.35-.52 2.04a16.86 16.86 0 00-.21 3.05"/><path d="M249.82 84.14v-4.11l.2-.51v4.11zm42.99-.84v-4.1c.49.5 1.01.99 1.52 1.46v4.1c-.5-.46-1.03-.96-1.52-1.46m-42.79.33v-4.11l.18-.43v4.11zm41.87-1.25v-4.11l.92.92v4.11z"/><path d="M281.04 66.36v-4.1c.43.9.84 1.75 1.26 2.55a73.03 73.03 0 002.56 4.44c1.8 2.88 3.85 5.6 6.15 8.1l.33.33c.18.2.36.39.56.58v4.11l-.56-.58-.33-.33a54.33 54.33 0 01-6.15-8.1 75.05 75.05 0 01-2.56-4.43c-.42-.81-.83-1.66-1.26-2.57M250.2 83.2v-4.1c.14-.31.26-.58.4-.84a26.41 26.41 0 012.87-4.3 48.9 48.9 0 015.1-5.25v4.12l-.73.66a48.57 48.57 0 00-4.37 4.58 25.73 25.73 0 00-2.88 4.3l-.4.83m8.39-10.4v-4.1c1.1-1 2.29-2.04 3.76-3.28l1.73-1.45 2.6-2.18v4.11l-2.6 2.18-1.73 1.45a157.89 157.89 0 00-3.76 3.28m8.09-6.91v-4.1l1.77-1.57v4.11c-.54.49-1.1 1-1.77 1.57m1.78-1.58v-4.11l.18-.17.3 3.82-.48.46m13.51-19.29v-4.11c.52 3.31 1.05 6.7 1.15 10.44v4.13c-.1-3.74-.63-7.15-1.15-10.45"/><path d="M281.73 43.52V39.4l.24 1.53v4.11zm-38.25-.59v-4.11l12.16 3.91v4.11zm-3.18 2.2v-4.11a2.24 2.24 0 01.74-1.68v4.12a2.32 2.32 0 00-.76 1.69"/><path d="M241.04 43.46v-4.12a2.49 2.49 0 012.42-.52v4.11a2.49 2.49 0 00-2.42.52m46.41 14.7v-4.12l.6-15.72v4.11zm-6.25-18.37v-4.11c.11 1.2.33 2.43.53 3.73v4.11c-.21-1.3-.42-2.52-.54-3.73m11.99-1.77v-4.1c.15.08.28.19.41.3v4.11a2.88 2.88 0 00-.4-.3m.41.3v-4.11c.57.53.9 1.27.9 2.05v4.11c0-.78-.33-1.52-.9-2.05"/><path d="M292.94 37.86v-4.11l.25.15v4.11zm-37.3 8.98v-4.11l8.6-15.24v4.11zm8.6-15.24v-4.1c.27-.46.6-.87 1-1.22v4.11c-.4.35-.73.76-1 1.22"/><path d="M265.22 30.38v-4.1c.45-.42.97-.75 1.53-.98v4.12c-.56.23-1.08.55-1.53.96m10.82-1.83v-4.1c.38.06.76.17 1.13.32 1.47.67 2.88 1.33 4.18 2.02a102.14 102.14 0 017.82 4.5 181.05 181.05 0 013.76 2.46v4.11a102.1 102.1 0 00-3.76-2.45 106.77 106.77 0 00-7.82-4.5 96.14 96.14 0 00-4.18-2.02 5.11 5.11 0 00-1.13-.34m-9.29.87V25.3a18.2 18.2 0 019.28-.86v4.11a18.16 18.16 0 00-9.28.87m-5.55-10.3v-4.1c.02-2.26.98-4.4 2.66-5.9v4.11a7.96 7.96 0 00-2.65 5.9"/><path d="M263.84 13.23V9.12a8.69 8.69 0 0111.63 0v4.11a8.7 8.7 0 00-11.63 0m11.63 0V9.12a7.96 7.96 0 012.65 5.9v4.1a7.96 7.96 0 00-2.65-5.89"/></g><path d="M315.94 102.3a2.74 2.74 0 01.76 3.56 2.95 2.95 0 01-2.58 1.47c-.48 0-.96-.11-1.4-.33a123.64 123.64 0 01-7.44-4.23l-2.42-1.5a148.76 148.76 0 01-9.43-6.43 93.85 93.85 0 01-4.54-3.55l-.4-.33c-.6-.5-1.22-1-1.82-1.55l-1.09-.97-.72-.67-.37-.39a63.7 63.7 0 01-7.7-9.06 72.3 72.3 0 01-3.01-4.7l-.31.24c-1.5 1.09-2.99 2.1-4.4 3.06l-.61.42c-1.53 1.04-2.99 2.02-4.36 3.04a37.8 37.8 0 00-3.95 3.28 18.52 18.52 0 00-2.2 2.55l-.2.33-.27.44c-.1.21-.19.44-.25.67-.08.32-.16.66-.2 1-.13.79-.2 1.59-.23 2.4-.05 1.75-.02 3.51.1 5.26.12 1.75.28 3.58.49 5.44a205.74 205.74 0 001.6 10.93 2.5 2.5 0 01-1.82 2.85c-.24.07-.48.1-.73.1a2.59 2.59 0 01-2.5-1.78 159.74 159.74 0 01-2.97-11.1 72.89 72.89 0 01-1.84-11.6 27.56 27.56 0 01-.03-3.2c.03-.6.1-1.19.19-1.78.1-.69.28-1.37.51-2.03l.2-.51.18-.43.4-.83a25.73 25.73 0 012.87-4.3 48.57 48.57 0 014.38-4.58 120.2 120.2 0 014.49-3.96l1.73-1.45c.89-.74 1.76-1.46 2.6-2.18.74-.66 1.37-1.19 1.96-1.73l.3-.3A74.91 74.91 0 01264.16 47l-5.02 5.32c-.54.57-1.29.89-2.07.88-.38 0-.74-.06-1.09-.2l-14.21-5.7a2.32 2.32 0 01-1.36-2.88 2.43 2.43 0 013.06-1.47l12.19 3.89 8.62-15.25a5.1 5.1 0 012.5-2.19 18.16 18.16 0 019.29-.86c.38.06.76.18 1.13.33 1.47.66 2.88 1.33 4.18 2.02a106.77 106.77 0 019.7 5.7c.59.38 1.19.78 1.88 1.25l.25.16a2.78 2.78 0 011.3 2.76l-2.74 17.75a2.16 2.16 0 01-4.29-.38l.6-15.72-.28-.12-1.96-.8c-1.3-.52-2.65-1.02-3.98-1.5l-.66-.22c.12 1.2.33 2.43.53 3.73l.24 1.52c.51 3.31 1.04 6.7 1.15 10.45a28.5 28.5 0 01-.55 6.78l-.06.27-.16.67-.29.99c-.26.76-.6 1.5-1.02 2.2.43.91.85 1.75 1.27 2.56a74 74 0 002.56 4.43c1.79 2.88 3.85 5.6 6.14 8.1l.33.33.56.58.93.92c.48.5 1.01 1 1.52 1.47l.39.36c.46.45.96.89 1.44 1.31l.54.48c.47.43.96.86 1.44 1.27l.58.51a261.2 261.2 0 008.45 6.9c1.53 1.19 2.95 2.29 4.35 3.35l4.41 3.35zm.47 3.4a2.42 2.42 0 00-.66-3.15l-4.43-3.34-4.18-3.24a239.38 239.38 0 01-8.62-7.03l-.58-.51c-.48-.42-.97-.84-1.45-1.28l-.54-.47c-.47-.43-.98-.87-1.44-1.33l-.41-.35c-.51-.48-1.04-.97-1.53-1.47l-.93-.93-.56-.59-.34-.33a54.77 54.77 0 01-6.18-8.15 69.12 69.12 0 01-3.88-7.1c.4-.76.76-1.55 1.04-2.35l.15-.5.14-.47.15-.63.07-.28c.44-2.2.62-4.45.54-6.7-.1-3.72-.64-7.12-1.15-10.41l-.24-1.52c-.23-1.4-.44-2.7-.64-4.02l-.04-.26.59.2.66.22c1.33.48 2.65 1 3.98 1.5l1.99.81.47.2-.6 15.94a1.78 1.78 0 001.76 1.82c.9.04 1.7-.6 1.87-1.5l2.74-17.75c.14-.97-.31-1.93-1.15-2.45l-.25-.16a90.98 90.98 0 00-3.76-2.44 91.65 91.65 0 00-11.97-6.51 4.58 4.58 0 00-1.06-.33 17.63 17.63 0 00-8.72.73 4.97 4.97 0 00-2.73 2.18l-8.73 15.47-12.43-3.97a2.11 2.11 0 00-2.65 1.26 1.99 1.99 0 001.18 2.5l14.23 5.7c.96.39 2.07.15 2.79-.6l5.49-5.82.05.33c.56 3.63 1.4 7.21 2.48 10.72a150 150 0 002.36 6.5l.04.1-.47.46-1.9 1.67c-.91.79-1.78 1.51-2.67 2.25l-1.73 1.45c-1.8 1.52-3.19 2.74-4.48 3.94-1.55 1.43-3 2.95-4.35 4.56a25.93 25.93 0 00-2.84 4.24l-.39.82-.37.92c-.23.64-.4 1.3-.5 1.98-.09.58-.15 1.16-.18 1.74-.05 1.06-.04 2.12.03 3.17a74.79 74.79 0 001.83 11.57c.79 3.54 1.75 7.12 2.96 11.07.3.94 1.18 1.57 2.17 1.56.21 0 .43-.03.64-.09a2.17 2.17 0 001.59-2.46c-.32-1.72-.61-3.56-.9-5.5-.24-1.76-.5-3.64-.71-5.49-.21-1.84-.37-3.7-.48-5.45a51.22 51.22 0 01-.1-5.3c.02-.82.1-1.64.21-2.45.07-.38.14-.72.22-1.04.07-.25.16-.5.28-.73l.27-.45a11.33 11.33 0 01.87-1.2c.49-.61 1.02-1.19 1.58-1.73a39.1 39.1 0 013.98-3.32c1.39-1.03 2.84-2 4.37-3.04l.62-.42c1.42-.97 2.9-2 4.38-3.06.16-.11.31-.23.47-.33 1.22 1.7 2.26 3.31 3.34 4.88a63.69 63.69 0 007.64 9l.38.36c.23.23.47.46.71.67l1.1.97c.59.54 1.2 1.05 1.8 1.55l.4.33a91.84 91.84 0 004.53 3.54c2.9 2.15 5.97 4.25 9.4 6.42l2.42 1.5 2.44 1.43c1.7 1 3.32 1.9 4.98 2.77.38.2.8.3 1.23.3.95.01 1.82-.48 2.29-1.3m-46.73-78.45c-4.67 0-8.45-3.64-8.45-8.13 0-4.48 3.78-8.12 8.45-8.12 4.66 0 8.45 3.65 8.45 8.12 0 4.48-3.8 8.13-8.45 8.13zm0-15.93c-4.48 0-8.13 3.5-8.13 7.8s3.65 7.81 8.13 7.81c4.47 0 8.12-3.5 8.12-7.8 0-4.31-3.65-7.81-8.12-7.81" fill="#999298" stroke="#999298" stroke-width=".5"/><path d="M315.69 102.52c1.02.72 1.33 2.1.72 3.19a2.61 2.61 0 01-2.29 1.3c-.43 0-.85-.1-1.23-.3-1.66-.87-3.3-1.78-4.98-2.77l-2.44-1.45-2.42-1.5a147.09 147.09 0 01-9.4-6.4 91.84 91.84 0 01-4.53-3.55l-.41-.33a54.5 54.5 0 01-1.8-1.55l-1.1-.98-.71-.67-.38-.35a63.69 63.69 0 01-7.64-9.01 71.96 71.96 0 01-3.1-4.84c-.26.03-.5.14-.7.3-1.49 1.09-2.97 2.09-4.4 3.06l-.61.42c-1.53 1.03-2.98 2.01-4.37 3.04a39.1 39.1 0 00-3.98 3.32 19.03 19.03 0 00-2.23 2.6l-.22.33-.27.45a3.6 3.6 0 00-.28.73c-.08.32-.15.67-.22 1.04-.12.81-.2 1.63-.22 2.45-.05 1.77-.02 3.54.1 5.3.12 1.75.28 3.6.49 5.45a195.1 195.1 0 001.6 10.96c.2 1.12-.49 2.2-1.58 2.5-.21.05-.43.08-.64.08a2.26 2.26 0 01-2.17-1.56c-1.2-3.95-2.18-7.57-2.96-11.07-.79-3.5-1.56-7.4-1.83-11.57a26.98 26.98 0 01-.03-3.17c.03-.58.1-1.16.18-1.74.1-.67.27-1.34.5-1.98l.37-.92a19.48 19.48 0 011.26-2.35c.6-.95 1.25-1.85 1.97-2.71 1.35-1.61 2.8-3.13 4.35-4.56 1.3-1.2 2.67-2.42 4.48-3.94l1.73-1.45c.89-.74 1.76-1.46 2.6-2.18l1.97-1.74.4-.38c-.85-2.3-1.64-4.5-2.33-6.68a75.41 75.41 0 01-2.49-10.72l-.05-.33-5.49 5.82c-.72.75-1.82.99-2.79.6L241.91 47a1.99 1.99 0 01-1.17-2.5 2.11 2.11 0 012.65-1.27l12.42 3.98 8.72-15.47a4.82 4.82 0 012.55-2.12 18 18 0 018.7-.79c.43.06.85.17 1.25.33 1.47.66 2.87 1.33 4.16 2.01a110.55 110.55 0 0111.57 6.95l.26.16a2.47 2.47 0 011.14 2.45l-2.74 17.75a1.83 1.83 0 01-3.63-.34l.6-15.93-.47-.2a187.01 187.01 0 00-5.97-2.31l-.66-.23-.59-.2.04.26c.2 1.33.42 2.63.65 4.02l.24 1.52c.5 3.3 1.04 6.7 1.14 10.4.09 2.26-.1 4.51-.54 6.72l-.06.27-.16.64-.13.46-.16.5c-.26.77-.6 1.5-1.02 2.2.38.96.82 1.89 1.3 2.8a71.92 71.92 0 002.57 4.45 54.77 54.77 0 006.51 8.48l.56.6.93.92c.5.5 1.02.99 1.53 1.47l.39.36c.46.45.97.89 1.44 1.33l.54.47c.48.44.97.86 1.45 1.28l.58.5c2.48 2.12 5.25 4.38 8.46 6.91 1.54 1.2 2.95 2.3 4.35 3.37l4.38 3.31zm-46.03-75.59c-4.48 0-8.13-3.5-8.13-7.8 0-4.31 3.65-7.81 8.13-7.81 4.47 0 8.12 3.5 8.12 7.8s-3.65 7.81-8.12 7.81z" fill="#D8D1D4"/></g><path d="M12 0h350.57v239.68H12z"/></g></svg>