<?xml version="1.0" encoding="UTF-8"?>
<svg width="20px" height="19px" viewBox="0 0 20 19" version="1.1" xmlns="http://www.w3.org/2000/svg" xmlns:xlink="http://www.w3.org/1999/xlink">
    <title>Icon/24x24/Warning</title>
    <g id="NY-App" stroke="none" stroke-width="1" fill="none" fill-rule="evenodd">
        <g id="error-transaction" transform="translate(-39.000000, -132.000000)">
            <g id="Icon/24x24/Warning" transform="translate(40.000000, 132.000000)">
                <path d="M7.59633684,1.62316604 C8.32849072,1.23555516 9.14844201,1.18140337 9.88225755,1.40719277 C10.6160731,1.63298216 11.2637529,2.13871275 11.6513637,2.87086663 L11.6513637,2.87086663 L17.3295539,13.5963368 C17.5584999,14.0287905 17.6781901,14.5106816 17.6781901,15 C17.6781901,15.8284271 17.3424037,16.5784271 16.7995105,17.1213203 C16.2566172,17.6642136 15.5066172,18 14.6781901,18 L14.6781901,18 L3.32180989,18 C2.83249154,18 2.35060038,17.8803098 1.91814673,17.6513637 C1.18599285,17.2637529 0.68026226,16.6160731 0.454472863,15.8822575 C0.228683467,15.148442 0.282835262,14.3284907 0.670446141,13.5963368 L0.670446141,13.5963368 L6.34863625,2.87086663 C6.63005692,2.33929426 7.06476447,1.90458671 7.59633684,1.62316604 Z" id="Path-3" stroke="#DC0000" stroke-width="2" fill="#FFFFFF"></path>
                <rect id="Rectangle" fill="#DC0000" x="8" y="6" width="2" height="5"></rect>
                <rect id="Rectangle-Copy" fill="#DC0000" x="8" y="13" width="2" height="2"></rect>
            </g>
        </g>
    </g>
</svg>