<svg xmlns="http://www.w3.org/2000/svg" width="24" height="24" viewBox="0 0 24 24">
  <path fill="currentColor" d="M7.55,4.58 L6.12,3.15 C3.72,4.98 2.14,7.8 2,11 L4,11 C4.15,8.35 5.51,6.03 7.55,4.58 L7.55,4.58 Z M19.94,11 L21.94,11 C21.79,7.8 20.21,4.98 17.82,3.15 L16.4,4.58 C18.42,6.03 19.79,8.35 19.94,11 Z M17.97,11.5 C17.97,8.43 16.33,5.86 13.47,5.18 L13.47,4.5 C13.47,3.67 12.8,3 11.97,3 C11.14,3 10.47,3.67 10.47,4.5 L10.47,5.18 C7.6,5.86 5.97,8.42 5.97,11.5 L5.97,16.5 L3.97,18.5 L3.97,19.5 L19.97,19.5 L19.97,18.5 L17.97,16.5 L17.97,11.5 Z M11.97,22.5 C12.11,22.5 12.24,22.49 12.37,22.46 C13.02,22.32 13.55,21.88 13.81,21.28 C13.91,21.04 13.96,20.78 13.96,20.5 L9.96,20.5 C9.97,21.6 10.86,22.5 11.97,22.5 Z"/>
</svg>
