<?xml version="1.0" encoding="UTF-8"?>
<svg width="24px" height="24px" viewBox="0 0 24 24" version="1.1" xmlns="http://www.w3.org/2000/svg" xmlns:xlink="http://www.w3.org/1999/xlink">
    <title>app-share-android</title>
    <g id="app-share-android" stroke="none" stroke-width="1" fill="none" fill-rule="evenodd">
        <path d="M18.6666667,16.6555556 C17.8222222,16.6555556 17.0611111,16.9833333 16.4833333,17.5111111 L8.56666667,12.8944444 C8.62777778,12.6444444 8.66666667,12.3833333 8.66666667,12.1166667 C8.66666667,11.85 8.62777778,11.5888889 8.56666667,11.3388889 L16.4,6.76666667 C16.9944444,7.32222222 17.7888889,7.66666667 18.6666667,7.66666667 C20.5055556,7.66666667 22,6.17222222 22,4.33333333 C22,2.49444444 20.5055556,1 18.6666667,1 C16.8277778,1 15.3333333,2.49444444 15.3333333,4.33333333 C15.3333333,4.6 15.3722222,4.86111111 15.4333333,5.11111111 L7.6,9.68333333 C7.00555556,9.12777778 6.21111111,8.78333333 5.33333333,8.78333333 C3.49444444,8.78333333 2,10.2777778 2,12.1166667 C2,13.9555556 3.49444444,15.45 5.33333333,15.45 C6.21111111,15.45 7.00555556,15.1055556 7.6,14.55 L15.5166667,19.1666667 C15.4611111,19.4 15.4277778,19.6444444 15.4277778,19.8944444 C15.4277778,21.6833333 16.8777778,23.1333333 18.6666667,23.1333333 C20.4555556,23.1333333 21.9055556,21.6833333 21.9055556,19.8944444 C21.9055556,18.1055556 20.4555556,16.6555556 18.6666667,16.6555556 L18.6666667,16.6555556 Z" id="Path" fill="#523178" fill-rule="nonzero"></path>
    </g>
</svg>