<svg xmlns="http://www.w3.org/2000/svg" viewBox="0 0 24 24"><defs/><path fill="currentColor" fill-rule="evenodd" d="M16.66 4.49c.3.3.3.78 0 1.07a.74.74 0 01-1.05 0l-2.88-2.89V15.1c0 .42-.33.76-.75.76a.76.76 0 01-.75-.76V2.7L8.4 5.56a.76.76 0 01-1.05 0 .77.77 0 010-1.07L11.6.19c.25-.25.54-.25.78 0l4.27 4.3zM21 22.22c0 .98-.8 1.78-1.8 1.78H4.8c-1 0-1.8-.8-1.8-1.78V8.95c0-.99.8-1.79 1.8-1.79h3.85V8.7H5.49a.94.94 0 00-.95.94v11.9c0 .52.42.94.95.94H18.5c.53 0 .95-.42.95-.93V9.63a.94.94 0 00-.95-.94h-3.17V7.16h3.86c1 0 1.8.8 1.8 1.79v13.27z"/></svg>