<svg xmlns="http://www.w3.org/2000/svg" width="92" height="36" viewBox="0 0 92 36">
  <g fill="none">
    <path fill="#FFF" d="M8.62545418,0.842841519 C9.24425316,0.842841519 9.82720709,0.897552405 10.3743159,1.00697418 C10.9214248,1.11639595 11.4326886,1.26732253 11.9081073,1.45975392 C12.3835261,1.65218532 12.8212132,1.88234835 13.2211686,2.15024304 C13.6211241,2.41813772 13.9758015,2.71433114 14.285201,3.03882329 L14.285201,3.03882329 L12.9947787,4.77070582 L12.9067382,4.87321013 C12.8446906,4.93945013 12.7759352,5.00149772 12.7004719,5.05935291 C12.587277,5.1461357 12.4288041,5.18952709 12.2250532,5.18952709 C12.0892192,5.18952709 11.9609316,5.15934177 11.8401904,5.09897114 C11.7194491,5.03860051 11.5911615,4.9650238 11.4553276,4.87824101 C11.3194937,4.79145823 11.1704537,4.69712911 11.0082076,4.59525367 C10.8459615,4.49337823 10.6535301,4.39904911 10.4309134,4.31226633 C10.2082967,4.22548354 9.94794835,4.15190684 9.64986835,4.0915362 C9.35178835,4.03116557 9.00277063,4.00098025 8.60281519,4.00098025 C7.90855291,4.00098025 7.27466127,4.1236081 6.70114025,4.3688638 C6.12761924,4.61411949 5.63522127,4.9650238 5.22394633,5.42157671 C4.81267139,5.87812962 4.49195241,6.43089823 4.26178937,7.07988253 C4.03162633,7.72886684 3.91654481,8.45708759 3.91654481,9.26454481 C3.91654481,10.1097337 4.03162633,10.8605934 4.26178937,11.5171241 C4.49195241,12.1736547 4.80512506,12.7264233 5.20130734,13.1754299 C5.59748962,13.6244365 6.05970228,13.9659078 6.58794532,14.1998441 C7.11618835,14.4337803 7.68216304,14.5507484 8.28586937,14.5507484 C8.63300051,14.5507484 8.94994633,14.5337691 9.23670684,14.4998106 C9.52346734,14.4658522 9.78947544,14.4073681 10.0347311,14.3243585 C10.2799868,14.2413489 10.513923,14.1338137 10.7365397,14.0017529 C10.9591565,13.8696922 11.1836597,13.7055595 11.4100496,13.5093549 C11.5006056,13.4338916 11.5987078,13.3716344 11.7043565,13.3225833 C11.8100051,13.2735322 11.9194268,13.2490066 12.0326218,13.2490066 C12.1231777,13.2490066 12.2137337,13.2659858 12.3042896,13.2999443 C12.3948456,13.3339028 12.4816284,13.3923868 12.564638,13.4753965 L12.564638,13.4753965 L14.0814501,15.0714451 L13.8771899,15.3253979 C13.2492975,16.0680699 12.4854015,16.638063 11.5855018,17.0353772 C10.5856132,17.4768375 9.40272608,17.6975676 8.03684051,17.6975676 C6.78414987,17.6975676 5.66163342,17.4843838 4.66929114,17.0580162 C3.67694886,16.6316486 2.83553316,16.0430349 2.14504405,15.2921752 C1.45455494,14.5413154 0.924425316,13.6508486 0.55465519,12.6207747 C0.184885063,11.5907008 1.22479804e-12,10.4719575 1.22479804e-12,9.26454481 C1.22479804e-12,8.03449316 0.211297215,6.90443038 0.633891646,5.87435646 C1.05648608,4.84428253 1.64698633,3.95570228 2.40539241,3.2086157 C3.16379848,2.46152911 4.07124456,1.88046177 5.12773063,1.46541367 C6.18421671,1.05036557 7.35012456,0.842841519 8.62545418,0.842841519 Z M43.6714005,1.02395342 L43.8323889,1.03024203 C44.092318,1.05120405 44.310323,1.12457114 44.4864041,1.25034329 C44.6977013,1.40126987 44.8486278,1.60124759 44.9391838,1.85027646 L44.9391838,1.85027646 L48.131281,10.6794815 L48.2391699,10.9744958 C48.3474126,11.2758773 48.4567165,11.5963605 48.5670815,11.9359453 C48.7142349,12.3887251 48.8519554,12.8641438 48.980243,13.3622015 C49.0858916,12.8641438 49.2085195,12.3887251 49.3481266,11.9359453 C49.4877337,11.4831656 49.6254542,11.0643443 49.7612881,10.6794815 L49.7612881,10.6794815 L52.9307463,1.85027646 L52.9846271,1.72598842 C53.0679386,1.56359141 53.1971317,1.41447595 53.3722066,1.27864203 C53.5910501,1.10884962 53.8589448,1.02395342 54.1758906,1.02395342 L54.1758906,1.02395342 L57.2774319,1.02395342 L50.6668476,17.5164557 L47.2030825,17.5164557 L40.5924982,1.02395342 L43.6714005,1.02395342 Z M65.8915278,1.02395342 L65.8915278,17.5164557 L62.0428999,17.5164557 L62.0428999,1.02395342 L65.8915278,1.02395342 Z M77.8221685,1.02395342 L78.2455315,1.03163949 C79.3631336,1.0726319 80.389807,1.27759392 81.3255518,1.64652557 C82.3782647,2.06157367 83.2781645,2.63509468 84.025251,3.36708861 C84.7723376,4.09908253 85.3515184,4.96879696 85.7627933,5.9762319 C86.1740683,6.98366684 86.3797057,8.07977114 86.3797057,9.26454481 C86.3797057,10.4568648 86.1740683,11.5567423 85.7627933,12.5641772 C85.3515184,13.5716122 84.7723376,14.4432132 84.025251,15.1789803 C83.2781645,15.9147473 82.3782647,16.4882684 81.3255518,16.8995433 C80.2728389,17.3108182 79.1050445,17.5164557 77.8221685,17.5164557 L77.8221685,17.5164557 L71.4153351,17.5164557 L71.4153351,1.02395342 L77.8221685,1.02395342 Z M77.8221685,3.96702177 L75.2639629,3.96702177 L75.2639629,14.5733873 L77.8221685,14.5733873 C78.5541624,14.5733873 79.2069199,14.4507595 79.7804409,14.2055038 C80.3539619,13.9602481 80.8388136,13.6093438 81.2349958,13.1527909 C81.6311781,12.696238 81.9349179,12.1396962 82.1462151,11.4831656 C82.3575123,10.8266349 82.4631609,10.0870947 82.4631609,9.26454481 C82.4631609,8.44954127 82.3575123,7.71377418 82.1462151,7.05724354 C81.9349179,6.40071291 81.6311781,5.84417114 81.2349958,5.38761823 C80.8388136,4.93106532 80.3539619,4.58016101 79.7804409,4.33490532 C79.2069199,4.08964962 78.5541624,3.96702177 77.8221685,3.96702177 L77.8221685,3.96702177 Z" transform="translate(3.243 1.582)"/>
    <path fill="#FFF" d="M34.5,0 C35.3284271,0 36,0.671572875 36,1.5 C36,2.27865929 35.406693,2.9187443 34.6474936,2.99284044 L34.3728015,3.86465813 C36.3856886,4.97356732 37.7942815,7.0442475 37.9792819,9.45740048 L39.2595842,9.65631354 C39.5295745,9.26013331 39.9844085,9 40.5,9 C41.3284271,9 42,9.67157288 42,10.5 C42,11.3284271 41.3284271,12 40.5,12 C39.8181379,12 39.2425385,11.5450354 39.0602115,10.9221158 L37.9601985,10.7508809 C37.7769285,12.4693892 36.9717699,14.0020248 35.7741312,15.119379 L36.2277466,16.0246462 C36.3160373,16.0084579 36.4070309,16 36.5,16 C37.3284271,16 38,16.6715729 38,17.5 C38,18.3284271 37.3284271,19 36.5,19 C35.6715729,19 35,18.3284271 35,17.5 C35,17.2431298 35.0645672,17.00134 35.1783573,16.7899751 L34.7426602,15.9165078 C34.0097875,16.3810794 33.1846829,16.7132345 32.3009929,16.8793265 L32.6787368,18.0105385 C33.4229078,18.0988963 34,18.7320546 34,19.5 C34,20.3284271 33.3284271,21 32.5,21 C31.6715729,21 31,20.3284271 31,19.5 C31,19.0736037 31.1779145,18.6887615 31.4635581,18.415659 L30.991789,16.999983 L30.7593502,16.995941 C28.7281375,16.9273196 26.9163704,15.9933044 25.6811025,14.5509488 L22.9965395,15.6026992 C22.9437633,16.3832256 22.2939093,17 21.5,17 C20.6715729,17 20,16.3284271 20,15.5 C20,14.6715729 20.6715729,14 21.5,14 C21.8989851,14 22.261587,14.1557751 22.5303045,14.409824 L24.9212964,13.4736279 C24.3350919,12.4500031 24,11.264134 24,10 C24,8.61794169 24.4005258,7.32943118 25.0918355,6.24421039 L23.1998069,4.82709273 C22.9908815,4.93749221 22.7527405,5 22.5,5 C21.6715729,5 21,4.32842712 21,3.5 C21,2.67157288 21.6715729,2 22.5,2 C23.3284271,2 24,2.67157288 24,3.5 C24,3.60355339 23.9895067,3.70465593 23.9695253,3.80230232 L25.8749853,5.23191649 C27.1530132,3.85883189 28.9762111,3 31,3 C31.7658834,3 32.5030388,3.12299942 33.1927902,3.35032237 L33.4403383,2.56165767 C33.168305,2.29013262 33,1.91472118 33,1.5 C33,0.671572875 33.6715729,0 34.5,0 Z M31,4.92 C28.1943935,4.92 25.92,7.19439347 25.92,10 C25.92,12.8056065 28.1943935,15.08 31,15.08 C33.8056065,15.08 36.08,12.8056065 36.08,10 C36.08,7.19439347 33.8056065,4.92 31,4.92 Z M29.5,8 C30.3284271,8 31,8.67157288 31,9.5 C31,10.3284271 30.3284271,11 29.5,11 C28.6715729,11 28,10.3284271 28,9.5 C28,8.67157288 28.6715729,8 29.5,8 Z M33,8 C33.5522847,8 34,8.44771525 34,9 C34,9.55228475 33.5522847,10 33,10 C32.4477153,10 32,9.55228475 32,9 C32,8.44771525 32.4477153,8 33,8 Z"/>
    <path fill="#C5E6FF" d="M22.586,35 L23.386,32.344 L27.114,32.344 L27.914,35 L30.442,35 L26.81,23.832 L23.802,23.832 L20.122,35 L22.586,35 Z M26.522,30.28 L23.962,30.28 L25.194,26.04 L25.274,26.04 L26.522,30.28 Z M39.782,35 L39.782,32.84 L35.526,32.84 L35.526,23.832 L33.094,23.832 L33.094,35 L39.782,35 Z M50.274,35 L50.274,32.84 L45.106,32.84 L45.106,30.424 L49.538,30.424 L49.538,28.28 L45.106,28.28 L45.106,25.992 L50.274,25.992 L50.274,23.832 L42.674,23.832 L42.674,35 L50.274,35 Z M55.918,35 L55.918,30.904 L57.662,30.904 L59.614,35 L62.318,35 L60.126,30.616 C60.8086667,30.36 61.318,29.9493333 61.654,29.384 C61.99,28.8186667 62.158,28.1573333 62.158,27.4 C62.158,26.8666667 62.078,26.3813333 61.918,25.944 C61.758,25.5066667 61.5313333,25.1306667 61.238,24.816 C60.9446667,24.5013333 60.59,24.2586667 60.174,24.088 C59.758,23.9173333 59.294,23.832 58.782,23.832 L58.782,23.832 L53.486,23.832 L53.486,35 L55.918,35 Z M58.478,28.856 L55.918,28.856 L55.918,25.944 L58.478,25.944 C58.8406667,25.944 59.126,26.0373333 59.334,26.224 C59.542,26.4106667 59.646,26.6853333 59.646,27.048 L59.646,27.048 L59.646,27.752 C59.646,28.1146667 59.542,28.3893333 59.334,28.576 C59.126,28.7626667 58.8406667,28.856 58.478,28.856 L58.478,28.856 Z M69.642,35 L69.642,25.992 L72.666,25.992 L72.666,23.832 L64.186,23.832 L64.186,25.992 L67.21,25.992 L67.21,35 L69.642,35 Z"/>
  </g>
</svg>
