<svg width="40" height="40" xmlns="http://www.w3.org/2000/svg"><path d="M16.99 29.695a1.895 1.895 0 110 3.79 1.895 1.895 0 010-3.79zm6.82 0a1.895 1.895 0 110 3.79 1.895 1.895 0 010-3.79zm-12.126-3.032a1.895 1.895 0 110 3.79 1.895 1.895 0 010-3.79zm17.432 0a1.895 1.895 0 110 3.79 1.895 1.895 0 010-3.79zM20.4 11a8.337 8.337 0 110 16.674A8.337 8.337 0 0120.4 11zM7.895 20.6a1.895 1.895 0 110 3.79 1.895 1.895 0 010-3.79zm25.01 0a1.895 1.895 0 110 3.79 1.895 1.895 0 010-3.79zm-25.01-6.505a1.895 1.895 0 110 3.79 1.895 1.895 0 010-3.79zm25.01 0a1.895 1.895 0 110 3.79 1.895 1.895 0 010-3.79zM10.926 8.032a1.895 1.895 0 110 3.79 1.895 1.895 0 010-3.79zm18.19 0a1.895 1.895 0 110 3.79 1.895 1.895 0 010-3.79zM16.989 5a1.895 1.895 0 110 3.79 1.895 1.895 0 010-3.79zm6.822 0a1.895 1.895 0 110 3.79 1.895 1.895 0 010-3.79z" fill="#B2B2B2" fill-rule="evenodd"/></svg>