<?xml version="1.0" encoding="UTF-8"?>
<svg width="40px" height="40px" viewBox="0 0 40 40" version="1.1" xmlns="http://www.w3.org/2000/svg" xmlns:xlink="http://www.w3.org/1999/xlink">
    <title>app-ens</title>
    <g id="app-ens" stroke="none" stroke-width="1" fill="none" fill-rule="evenodd">
        <path d="M16.9894737,29.6947368 C18.0359079,29.6947368 18.8842105,30.5430394 18.8842105,31.5894737 C18.8842105,32.6359079 18.0359079,33.4842105 16.9894737,33.4842105 C15.9430394,33.4842105 15.0947368,32.6359079 15.0947368,31.5894737 C15.0947368,30.5430394 15.9430394,29.6947368 16.9894737,29.6947368 Z M23.8105263,29.6947368 C24.8569606,29.6947368 25.7052632,30.5430394 25.7052632,31.5894737 C25.7052632,32.6359079 24.8569606,33.4842105 23.8105263,33.4842105 C22.7640921,33.4842105 21.9157895,32.6359079 21.9157895,31.5894737 C21.9157895,30.5430394 22.7640921,29.6947368 23.8105263,29.6947368 Z M11.6842105,26.6631579 C12.7306448,26.6631579 13.5789474,27.5114605 13.5789474,28.5578947 C13.5789474,29.604329 12.7306448,30.4526316 11.6842105,30.4526316 C10.6377763,30.4526316 9.78947368,29.604329 9.78947368,28.5578947 C9.78947368,27.5114605 10.6377763,26.6631579 11.6842105,26.6631579 Z M29.1157895,26.6631579 C30.1622237,26.6631579 31.0105263,27.5114605 31.0105263,28.5578947 C31.0105263,29.604329 30.1622237,30.4526316 29.1157895,30.4526316 C28.0693552,30.4526316 27.2210526,29.604329 27.2210526,28.5578947 C27.2210526,27.5114605 28.0693552,26.6631579 29.1157895,26.6631579 Z M20.4,11 C25.0043108,11 28.7368421,14.7325313 28.7368421,19.3368421 C28.7368421,23.9411529 25.0043108,27.6736842 20.4,27.6736842 C15.7956892,27.6736842 12.0631579,23.9411529 12.0631579,19.3368421 C12.0631579,14.7325313 15.7956892,11 20.4,11 Z M7.89473684,20.6 C8.9411711,20.6 9.78947368,21.4483026 9.78947368,22.4947368 C9.78947368,23.5411711 8.9411711,24.3894737 7.89473684,24.3894737 C6.84830258,24.3894737 6,23.5411711 6,22.4947368 C6,21.4483026 6.84830258,20.6 7.89473684,20.6 Z M32.9052632,20.6 C33.9516974,20.6 34.8,21.4483026 34.8,22.4947368 C34.8,23.5411711 33.9516974,24.3894737 32.9052632,24.3894737 C31.8588289,24.3894737 31.0105263,23.5411711 31.0105263,22.4947368 C31.0105263,21.4483026 31.8588289,20.6 32.9052632,20.6 Z M7.89473684,14.0947368 C8.9411711,14.0947368 9.78947368,14.9430394 9.78947368,15.9894737 C9.78947368,17.0359079 8.9411711,17.8842105 7.89473684,17.8842105 C6.84830258,17.8842105 6,17.0359079 6,15.9894737 C6,14.9430394 6.84830258,14.0947368 7.89473684,14.0947368 Z M32.9052632,14.0947368 C33.9516974,14.0947368 34.8,14.9430394 34.8,15.9894737 C34.8,17.0359079 33.9516974,17.8842105 32.9052632,17.8842105 C31.8588289,17.8842105 31.0105263,17.0359079 31.0105263,15.9894737 C31.0105263,14.9430394 31.8588289,14.0947368 32.9052632,14.0947368 Z M10.9263158,8.03157895 C11.9727501,8.03157895 12.8210526,8.87988153 12.8210526,9.92631579 C12.8210526,10.9727501 11.9727501,11.8210526 10.9263158,11.8210526 C9.87988153,11.8210526 9.03157895,10.9727501 9.03157895,9.92631579 C9.03157895,8.87988153 9.87988153,8.03157895 10.9263158,8.03157895 Z M29.1157895,8.03157895 C30.1622237,8.03157895 31.0105263,8.87988153 31.0105263,9.92631579 C31.0105263,10.9727501 30.1622237,11.8210526 29.1157895,11.8210526 C28.0693552,11.8210526 27.2210526,10.9727501 27.2210526,9.92631579 C27.2210526,8.87988153 28.0693552,8.03157895 29.1157895,8.03157895 Z M16.9894737,5 C18.0359079,5 18.8842105,5.84830258 18.8842105,6.89473684 C18.8842105,7.9411711 18.0359079,8.78947368 16.9894737,8.78947368 C15.9430394,8.78947368 15.0947368,7.9411711 15.0947368,6.89473684 C15.0947368,5.84830258 15.9430394,5 16.9894737,5 Z M23.8105263,5 C24.8569606,5 25.7052632,5.84830258 25.7052632,6.89473684 C25.7052632,7.9411711 24.8569606,8.78947368 23.8105263,8.78947368 C22.7640921,8.78947368 21.9157895,7.9411711 21.9157895,6.89473684 C21.9157895,5.84830258 22.7640921,5 23.8105263,5 Z" id="Combined-Shape" fill="#B2B2B2"></path>
    </g>
</svg>