<svg width="144" height="144" xmlns="http://www.w3.org/2000/svg" xmlns:xlink="http://www.w3.org/1999/xlink"><defs><linearGradient x1="-8.335%" y1="66.102%" x2="438.008%" y2="-77.821%" id="c"><stop stop-color="#010101" stop-opacity="0" offset="0%"/><stop stop-color="#010101" offset="95%"/></linearGradient><linearGradient x1="67.486%" y1="23.805%" x2="-27.707%" y2="166.508%" id="d"><stop stop-color="#010101" stop-opacity="0" offset="0%"/><stop stop-color="#010101" offset="100%"/></linearGradient><ellipse id="a" cx="72" cy="72.348" rx="71.654" ry="72"/><path d="M57.073 30.89l31.221-.021a3.77 3.77 0 013.773 3.772l-.043 60.834a3.77 3.77 0 01-3.767 3.767l-31.221.021a3.77 3.77 0 01-3.773-3.772l.043-60.833a3.77 3.77 0 013.767-3.768z" id="e"/></defs><g fill="none" fill-rule="evenodd"><g transform="translate(0 26)"><ellipse fill="#DC0000" opacity=".298" cx="72" cy="72.348" rx="55.038" ry="55.304"/><ellipse fill="#DC0000" opacity=".497" cx="72.519" cy="72.87" rx="38.942" ry="39.13"/><mask id="b" fill="#fff"><use xlink:href="#a"/></mask><use fill="#DC0000" opacity=".148" xlink:href="#a"/><path d="M141.565 64.821c-1.679 3.146-6.708 2.79-8.901 5.54-.952 1.178-1.2 2.79-1.41 4.297-.974 7.032-1.983 14.043-2.984 21.054 2.743 1.667 5.593 3.488 7.003 6.369 1.411 2.881.515 6.976-2.525 8.03-3.286 1.046-6.298-1.912-9.232-3.712-3.42-2.148-8.823-2.386-10.756 1.158 1.933 1.13 3.915 2.337 5.191 4.186 1.277 1.849 1.658 4.507.268 6.278-2.031 2.498-6.002 1.689-9.014.454-3.011-1.235-6.623-2.553-9.232-.614a18.896 18.896 0 014.972 5.693c.755 1.29 1.298 2.95.459 4.185-.84 1.235-2.688 1.235-4.232.963-7.138-1.312-13.606-6.041-20.771-6.362a10.19 10.19 0 00-1.305 0c-7.413.216-13.521 5.4-19.904 9.16-.252.158-.513.3-.783.425a55.667 55.667 0 01-15.587 6.125c-2.857.649-5.706.188-8.5 1.019-3.18.941-5.783 2.957-8.364 5.022-7.552 6.103-28.92 21.381-35.547 28.495-1.997-7.66-5.882-16.04-7.8-22.025-1.735-5.412-1.64-8.353-1.097-16.273 1.869-.803 17.085-10.49 17.247-10.595a4127.838 4127.838 0 0122.21-13.003 5.673 5.673 0 011.792-.803c2.066-.349 3.64 1.584 4.725 3.412 3.64-5.24 8.852-9.376 14.205-12.864 5.918-3.921 12.139-7.36 18.338-10.827 5.7-3.196 11.426-6.363 17.132-9.565 6.348-3.488 12.787-7.088 19.657-9.557 5.868-2.093 12.033-3.384 17.788-5.776 5.868-2.393 9.994-4.674 16.222-5.693 2.42-.377 6.348-.886 8.421.349 2.074 1.235 3.428 3.3 2.314 5.455z" fill="#663C29" fill-rule="nonzero" mask="url(#b)" transform="rotate(-50 61.565 115.586)"/><path d="M80.729 112.483c-.434 1.7-2.618 2.335-4.424 2.556-.462.15-.842.49-1.05.936a9.805 9.805 0 00-1.295 0c-7.356.221-13.418 5.526-19.752 9.375-.25.162-.51.308-.777.436-.567-1.864-.54-7.198 3.31-19.458.7-2.142 1.484-4.998 2.1-7.069.36-1.37.886-2.69 1.568-3.927 2.407-3.803 6.115-6.557 10.401-7.726a2.97 2.97 0 012.422.079c.812.492.917 1.62.651 2.506-.266.885-.84 1.67-1.134 2.556-1.21 3.32 1.4 6.648 3.423 9.59a36.383 36.383 0 014.123 7.647c.395.767.547 1.64.434 2.5z" fill="url(#c)" fill-rule="nonzero" mask="url(#b)" transform="rotate(-50 66.965 106.586)"/><path d="M56.418 26.378l33.06-.112a4.217 4.217 0 014.232 4.232l-.24 70.85a4.217 4.217 0 01-4.203 4.202l-33.06.113a4.217 4.217 0 01-4.232-4.232l.24-70.85a4.217 4.217 0 014.203-4.203z" fill="#2E2E2E" fill-rule="nonzero" mask="url(#b)" transform="rotate(.07 72.842 65.964)"/><path d="M56.418 26.378l33.06-.112a4.217 4.217 0 014.232 4.232l-.24 70.85a4.217 4.217 0 01-4.203 4.202l-33.06.113a4.217 4.217 0 01-4.232-4.232l.24-70.85a4.217 4.217 0 014.203-4.203z" stroke="#222" stroke-width="1.038" fill="url(#d)" fill-rule="nonzero" mask="url(#b)" transform="rotate(.07 72.842 65.964)"/><path d="M57.254 30.917l30.91-.105a3.77 3.77 0 013.782 3.783l-.206 60.808a3.77 3.77 0 01-3.757 3.757l-30.91.105a3.77 3.77 0 01-3.782-3.783l.206-60.808a3.77 3.77 0 013.757-3.757z" fill="#FFFBFF" fill-rule="nonzero" mask="url(#b)" transform="rotate(.07 72.619 65.039)"/><mask id="f" fill="#fff"><use xlink:href="#e"/></mask><use fill="#FFFBFF" fill-rule="nonzero" xlink:href="#e"/><path fill="#EEEEEF" mask="url(#f)" d="M56.119 71.562h33.349v9.464H56.119zM56.119 83.866h33.349v9.464H56.119zM56.119 96.169h33.349v9.464H56.119z"/><rect fill="#EEEEEF" mask="url(#f)" x="55.166" y="41.277" width="34.302" height="5.679" rx="1.657"/><rect fill="#EEEEEF" mask="url(#f)" x="55.166" y="32.796" width="34.302" height="5.679" rx="1.657"/><path fill="#EEEEEF" mask="url(#f)" d="M55.539 52.167h34.725v17.272H55.539z"/><path d="M30.206 94.719a79.813 79.813 0 0111.141-5.264c7.26-2.96 14.525-5.934 22.044-8.156 2.286-.69 4.586-1.283 6.886-1.883l19.885-5.23c.626 1.952-.285 7.012-1.488 8.682-3.753 5.21-7.53 6.726-13.615 8.98-1.723.635-5.161.629-6.624 1.753a17.542 17.542 0 00-2.814 3.153c-4.396 5.52-10.832 9.722-13.364 16.27-.851 2.173-1.245 4.546-2.504 6.513-1.407 2.16-3.658 3.595-5.86 4.954-8.44 5.237-17.134 10.529-26.84 12.957a6.527 6.527 0 01-3.56.166 6.775 6.775 0 01-2.855-2.298c-2.588-2.987-5.38-5.899-7.793-9.024-2.322-3.016-1.21-4.906 1.146-7.48a223.28 223.28 0 0116.958-17.014 64.77 64.77 0 019.257-7.08z" fill="#663C29" fill-rule="nonzero" mask="url(#f)" transform="rotate(-50 45.965 105.986)"/></g><path d="M51.611 80.845c.123-.174.347-.298.672-.371.326-.074.652-.074.977 0l-.009 8.179-.015 13.07-1.93 4.316.305-25.194z" fill="#663C29"/><g transform="translate(59 76)"><circle fill="#FD2D55" cx="14.4" cy="14.337" r="8.337"/><circle fill="#FD4076" cx="10.989" cy="1.895" r="1.895"/><circle fill="#FE3B6D" cx="4.926" cy="4.926" r="1.895"/><circle fill="#FE3B6D" cx="23.116" cy="4.926" r="1.895"/><circle fill="#FE315F" cx="1.895" cy="10.989" r="1.895"/><circle fill="#FE315F" cx="26.905" cy="10.989" r="1.895"/><circle fill="#FE2C54" cx="1.895" cy="17.495" r="1.895"/><circle fill="#FE2C54" cx="26.905" cy="17.495" r="1.895"/><circle fill="#FE2C55" cx="5.684" cy="23.558" r="1.895"/><circle fill="#FE2C55" cx="23.116" cy="23.558" r="1.895"/><circle fill="#FE2C55" cx="10.989" cy="26.589" r="1.895"/><circle fill="#FE2C55" cx="17.811" cy="26.589" r="1.895"/><circle fill="#FD4076" cx="17.811" cy="1.895" r="1.895"/></g></g></svg>