<?xml version="1.0" encoding="UTF-8"?>
<svg width="144px" height="144px" viewBox="0 0 144 144" version="1.1" xmlns="http://www.w3.org/2000/svg" xmlns:xlink="http://www.w3.org/1999/xlink">
    <title>notif-error-bluetooth</title>
    <defs>
        <filter x="-4.7%" y="-6.5%" width="109.4%" height="112.9%" filterUnits="objectBoundingBox" id="filter-1">
            <feOffset dx="0" dy="0" in="SourceAlpha" result="shadowOffsetOuter1"></feOffset>
            <feGaussianBlur stdDeviation="2" in="shadowOffsetOuter1" result="shadowBlurOuter1"></feGaussianBlur>
            <feColorMatrix values="0 0 0 0 0   0 0 0 0 0   0 0 0 0 0  0 0 0 0.1 0" type="matrix" in="shadowBlurOuter1" result="shadowMatrixOuter1"></feColorMatrix>
            <feMerge>
                <feMergeNode in="shadowMatrixOuter1"></feMergeNode>
                <feMergeNode in="SourceGraphic"></feMergeNode>
            </feMerge>
        </filter>
        <linearGradient x1="-8.43351735%" y1="66.1019533%" x2="438.665933%" y2="-77.8206366%" id="linearGradient-2">
            <stop stop-color="#010101" stop-opacity="0" offset="0%"></stop>
            <stop stop-color="#010101" offset="95%"></stop>
        </linearGradient>
        <linearGradient x1="67.2777373%" y1="23.8054348%" x2="-26.7813426%" y2="166.507508%" id="linearGradient-3">
            <stop stop-color="#010101" stop-opacity="0" offset="0%"></stop>
            <stop stop-color="#010101" offset="100%"></stop>
        </linearGradient>
        <path d="M97.5099429,75.8903033 L128.499919,75.8687711 C130.582003,75.8673245 132.271038,77.554014 132.272485,79.6360976 C132.272486,79.637845 132.272486,79.6395924 132.272485,79.6413397 L132.230163,140.474601 C132.228716,142.554637 130.542874,144.240478 128.462837,144.241924 L97.4728605,144.263456 C95.3907769,144.264903 93.7017419,142.578213 93.7002952,140.496129 C93.700294,140.494382 93.700294,140.492635 93.7002952,140.490887 L93.7426164,79.6576265 C93.7440635,77.5775898 95.4299062,75.8917486 97.5099429,75.8903033 Z" id="path-4"></path>
    </defs>
    <g id="notif-error-bluetooth" stroke="none" stroke-width="1" fill="none" fill-rule="evenodd">
        <g id="Group-18" transform="translate(-42.000000, -19.000000)">
            <g id="Group-6" transform="translate(0.671642, 0.000000)">
                <g id="Group-5">
                    <g id="Group-3" transform="translate(40.755224, 45.000000)"></g>
                    <g id="Visual/contact-tracing" transform="translate(40.755224, 45.000000)"></g>
                    <g id="Visual/contact-tracing" transform="translate(40.325373, 45.347826)"></g>
                    <g id="Group-4" filter="url(#filter-1)" transform="translate(101.589851, 154.800000) rotate(-50.000000) translate(-101.589851, -154.800000) translate(16.898507, 93.000000)"></g>
                    <g id="Group" transform="translate(21.325373, 0.000000)">
                        <g id="c-remove" transform="translate(0.856183, 0.856183)">
                            <path d="M124.867235,43.1438172 L137.143817,55.4203993 L102.419817,90.1438172 L137.143817,124.867235 L124.867235,137.143817 L90.1438172,102.419817 L55.4203993,137.143817 L43.1438172,124.867235 L77.8678172,90.1438172 L43.1438172,55.4203993 L55.4203993,43.1438172 L90.1438172,77.8668172 L124.867235,43.1438172 Z" id="Combined-Shape" fill="#DC0000" fill-rule="nonzero"></path>
                            <circle id="Oval" stroke="#DC0000" stroke-width="11.1666667" opacity="0" stroke-linecap="square" cx="90.1438172" cy="90.1438172" r="90.1438172"></circle>
                        </g>
                    </g>
                    <path d="M181.88755,109.735726 C180.20381,112.87589 175.188418,112.536136 172.992242,115.281565 C172.03896,116.459206 171.787974,118.065781 171.572474,119.567976 C170.580878,126.57818 169.554166,133.567632 168.534489,140.557063 C171.266466,142.210461 174.103527,144.016485 175.502193,146.883402 C176.900859,149.750319 175.995289,153.833617 172.959816,154.892264 C169.678114,155.944686 166.682575,153.006006 163.761024,151.221086 C160.355037,149.090009 154.966406,148.869533 153.028212,152.406692 C154.952665,153.527191 156.926143,154.724014 158.194166,156.562469 C159.462189,158.400924 159.834302,161.048413 158.443064,162.818236 C156.409447,165.312927 152.45074,164.518199 149.450135,163.296597 C146.449531,162.074995 142.85114,160.771734 140.242239,162.711986 C142.260303,164.248101 143.941638,166.172474 145.185657,168.369979 C145.93468,169.65383 146.471546,171.306745 145.630671,172.539668 C144.789795,173.772591 142.946448,173.778023 141.406434,173.511447 C134.290184,172.225505 127.852373,167.531246 120.705068,167.232533 C120.271738,167.206031 119.836961,167.207313 119.403467,167.236368 C112.008335,167.473663 105.900201,172.656753 99.5218588,176.422499 C99.2705501,176.580998 99.0092731,176.723411 98.7396477,176.848856 C93.8925815,179.666807 88.6432908,181.740456 83.1727947,182.998296 C80.3214381,183.653204 77.480378,183.202767 74.6918093,184.038233 C71.5159502,184.986067 68.9138584,187.002768 66.3327301,189.068068 C58.7817493,195.171747 37.4214956,210.459018 30.7892915,217.566985 C28.8203549,209.939369 24.969933,201.599913 23.0738943,195.642188 C21.3594009,190.254913 21.4626975,187.323876 22.0272167,179.429375 C23.8940296,178.624431 39.1009955,168.925918 39.2631237,168.821165 C46.6399296,164.461585 54.037788,160.12048 61.4566986,155.797852 C62.0015173,155.428462 62.6071877,155.156088 63.2461191,154.993136 C65.308598,154.639475 66.8718733,156.56048 67.9499945,158.37864 C71.5958055,153.147193 76.8073324,149.009496 82.1576655,145.517894 C88.0721243,141.593627 94.2877022,138.148137 100.482255,134.674903 C106.176475,131.474258 111.898756,128.301338 117.600032,125.093721 C123.942396,121.599196 130.376551,117.993174 137.236561,115.512067 C143.096397,113.409297 149.249373,112.105106 154.99752,109.703744 C160.858237,107.302051 164.980815,105.016706 171.196312,103.983446 C173.610657,103.60094 177.531026,103.081915 179.595885,104.306275 C181.660745,105.530636 183.005524,107.584366 181.88755,109.735726 Z" id="Path" fill="#663C29" fill-rule="nonzero" transform="translate(101.974577, 160.553538) rotate(-50.000000) translate(-101.974577, -160.553538) "></path>
                    <path d="M121.053956,157.442565 C120.616066,159.137289 118.435765,159.776973 116.633719,160.002857 C116.172559,160.15369 115.792321,160.492329 115.583645,160.938052 C115.153615,160.910887 114.722145,160.912159 114.291947,160.941858 C106.95305,161.184059 100.890907,166.488569 94.5607416,170.342353 C94.3113302,170.504559 94.0520277,170.6503 93.7844419,170.778672 C93.2243658,168.923238 93.2679744,163.608004 97.1442012,151.379666 C97.848714,149.243009 98.6391117,146.394573 99.2596287,144.329316 C99.6219905,142.962141 100.151324,141.645804 100.835177,140.411276 C103.247356,136.614597 106.953679,133.85955 111.233372,132.681912 C112.015086,132.361386 112.89069,132.387176 113.648967,132.753061 C114.457449,133.241632 114.558865,134.365546 114.29094,135.248629 C114.023015,136.131711 113.44817,136.916085 113.152316,137.79925 C111.934642,141.111438 114.529205,144.419507 116.5384,147.345076 C118.199156,149.701808 119.572494,152.256545 120.628409,154.953475 C121.020866,155.716431 121.169606,156.586437 121.053956,157.442565 Z" id="Path" fill="url(#linearGradient-2)" fill-rule="nonzero" transform="translate(107.309238, 151.618736) rotate(-50.000000) translate(-107.309238, -151.618736) "></path>
                    <path d="M96.8609384,71.3781345 L129.673607,71.2663747 C132.002782,71.2584415 133.897383,73.1401799 133.905316,75.469355 C133.905349,75.4788684 133.905349,75.4883818 133.905317,75.4978951 L133.667169,146.347399 C133.659377,148.665464 131.782183,150.542711 129.464119,150.550568 L96.6514497,150.661789 C94.3222745,150.669683 92.4277048,148.787914 92.4198099,146.458739 C92.4197778,146.449248 92.4197776,146.439758 92.4198095,146.430268 L92.6579574,75.5813032 C92.6657491,73.2632655 94.5429011,71.3860297 96.8609384,71.3781345 Z" id="Rectangle" fill="#2E2E2E" fill-rule="nonzero" transform="translate(113.162563, 110.964047) rotate(0.070000) translate(-113.162563, -110.964047) "></path>
                    <path d="M96.8609384,71.3781345 L129.673607,71.2663747 C132.002782,71.2584415 133.897383,73.1401799 133.905316,75.469355 C133.905349,75.4788684 133.905349,75.4883818 133.905317,75.4978951 L133.667169,146.347399 C133.659377,148.665464 131.782183,150.542711 129.464119,150.550568 L96.6514497,150.661789 C94.3222745,150.669683 92.4277048,148.787914 92.4198099,146.458739 C92.4197778,146.449248 92.4197776,146.439758 92.4198095,146.430268 L92.6579574,75.5813032 C92.6657491,73.2632655 94.5429011,71.3860297 96.8609384,71.3781345 Z" id="Rectangle" stroke="#222222" stroke-width="1.03846154" fill="url(#linearGradient-3)" fill-rule="nonzero" transform="translate(113.162563, 110.964047) rotate(0.070000) translate(-113.162563, -110.964047) "></path>
                    <path d="M97.6898348,75.9171251 L128.369573,75.81263 C130.451645,75.8055385 132.145247,77.4876426 132.152338,79.5697146 C132.152367,79.5782187 132.152368,79.5867228 132.152339,79.5952269 L131.947945,140.402905 C131.94098,142.475022 130.262976,144.153101 128.19086,144.160158 L97.5111216,144.264653 C95.4290495,144.271745 93.7354478,142.589641 93.7283563,140.507569 C93.7283273,140.499065 93.7283271,140.490561 93.7283557,140.482057 L93.9327496,79.6743781 C93.9397146,77.6022619 95.6177189,75.9241827 97.6898348,75.9171251 Z" id="Rectangle" fill="#FFFBFF" fill-rule="nonzero" transform="translate(112.940347, 110.038642) rotate(0.070000) translate(-112.940347, -110.038642) "></path>
                    <g id="Group-2" transform="translate(49.907453, 28.640762)">
                        <g id="Group" transform="translate(0.052902, 0.225386)"></g>
                    </g>
                    <mask id="mask-5" fill="white">
                        <use xlink:href="#path-4"></use>
                    </mask>
                    <use id="Rectangle" fill="#FFFBFF" fill-rule="nonzero" xlink:href="#path-4"></use>
                    <rect id="Rectangle" fill="#EEEEEF" mask="url(#mask-5)" x="96.5390742" y="116.562156" width="33.1497289" height="9.46418787"></rect>
                    <rect id="Rectangle-Copy-2" fill="#EEEEEF" mask="url(#mask-5)" x="96.5390742" y="128.8656" width="33.1497289" height="9.46418787"></rect>
                    <rect id="Rectangle-Copy-3" fill="#EEEEEF" mask="url(#mask-5)" x="96.5390742" y="141.169044" width="33.1497289" height="9.46418787"></rect>
                    <rect id="Rectangle" fill="#EEEEEF" mask="url(#mask-5)" x="95.5919391" y="86.2767547" width="34.096864" height="5.67851272" rx="1.65711948"></rect>
                    <rect id="Rectangle-Copy" fill="#EEEEEF" mask="url(#mask-5)" x="95.5919391" y="77.7958263" width="34.096864" height="5.67851272" rx="1.65711948"></rect>
                    <rect id="Rectangle" fill="#EEEEEF" mask="url(#mask-5)" x="95.962728" y="97.1674697" width="34.5178129" height="17.2721429"></rect>
                    <path d="M70.7371024,139.797158 C74.3024475,137.756609 78.0236388,135.991648 81.8665993,134.51844 C89.1162538,131.547534 96.3729652,128.562857 103.880057,126.326859 C106.162424,125.632595 108.458541,125.034545 110.754677,124.42962 L130.605492,119.159576 C131.224214,121.103487 130.300224,126.148125 129.095507,127.815519 C125.33643,133.018649 121.564172,134.54017 115.488238,136.80416 C113.767348,137.441767 110.337394,137.445956 108.874671,138.570954 C107.81089,139.50707 106.86545,140.564824 106.058831,141.721304 C101.657337,147.234584 95.224954,151.440651 92.6797915,157.972893 C91.8244147,160.14116 91.4245174,162.507472 90.1627963,164.470675 C88.7531622,166.626825 86.5036866,168.063535 84.3035491,169.42447 C75.8684414,174.667746 67.1805801,179.966771 57.4907707,182.415462 C56.3459231,182.801633 55.1147188,182.862477 53.9399717,182.590936 C52.7945358,182.103216 51.8109654,181.313731 51.0980564,180.309807 C48.5247936,177.340348 45.7478314,174.447119 43.350385,171.339634 C41.0438276,168.341888 42.1579806,166.454749 44.5160494,163.88328 C49.8579642,157.922678 55.5216966,152.246234 61.4826736,146.878577 C64.3446032,144.250393 67.4420679,141.880237 70.7371024,139.797158 Z" id="Path" fill="#663C29" fill-rule="nonzero" mask="url(#mask-5)" transform="translate(86.443236, 150.958686) rotate(-50.000000) translate(-86.443236, -150.958686) "></path>
                </g>
                <path d="M92.0580746,99.844848 C92.1801613,99.6705759 92.4029949,99.5467976 92.7265753,99.4735132 C93.0501558,99.4002288 93.3738536,99.4002288 93.6976689,99.4735132 L93.6884742,107.653036 L93.6737813,120.723732 L91.7554818,125.038874 L92.0580746,99.844848 Z" id="Rectangle" fill="#663C29"></path>
            </g>
            <g id="bluetooth" transform="translate(105.000000, 95.000000)" fill="#000000" fill-rule="nonzero">
                <path d="M16.9995775,6.21373165 C16.9856694,5.67778471 16.7044183,5.18715107 16.2500897,4.9105837 L8.52341111,0.22300115 C8.04435704,-0.0660664412 7.44940279,-0.0754416063 6.96571272,0.202688292 C6.48202264,0.48081819 6.18222751,0.999577326 6.18222751,1.56208723 L6.18222751,9.05909426 L2.40388171,6.51217441 C1.68993661,6.03404099 0.733373809,6.2277944 0.260501082,6.94499453 C-0.21391698,7.66375719 -0.0222953522,8.63252425 0.688559073,9.1122202 L4.55498901,11.7185161 L0.688559073,14.324812 C-0.0222953522,14.8045079 -0.21391698,15.773275 0.260501082,16.4920377 C0.733373809,17.2092378 1.68993661,17.4014287 2.40388171,16.9248578 L6.18222751,14.3779379 L6.18222751,23.4374725 C6.18222751,24.0390456 6.52374671,24.5843677 7.05688752,24.8453098 C7.27168919,24.9499991 7.50039887,25 7.72756322,25 C8.07217308,25 8.41369228,24.884373 8.69339804,24.6578065 L16.4200766,18.4076964 C16.8048652,18.0967534 17.0196668,17.6170575 16.9980321,17.1201737 C16.9763974,16.6217274 16.721417,16.1639069 16.3119031,15.8873395 L10.1274696,11.7185161 L16.3119031,7.54969268 C16.7523238,7.25281245 17.0119402,6.74811606 16.9995775,6.21373165 Z M12.8395337,17.3014269 L9.27289893,20.1858527 L9.27289893,14.8982596 L12.8395337,17.3014269 Z M9.27289893,8.5387726 L9.27289893,4.32307336 L12.5660093,6.31998352 L9.27289893,8.5387726 Z" id="Shape"></path>
            </g>
        </g>
    </g>
</svg>