<svg xmlns="http://www.w3.org/2000/svg" xmlns:xlink="http://www.w3.org/1999/xlink" viewBox="0 0 144 144"><defs><linearGradient id="a" x1="-8.43%" x2="438.67%" y1="66.1%" y2="-77.82%"><stop offset="0%" stop-color="#010101" stop-opacity="0"/><stop offset="95%" stop-color="#010101"/></linearGradient><linearGradient id="b" x1="67.28%" x2="-26.78%" y1="23.81%" y2="166.51%"><stop offset="0%" stop-color="#010101" stop-opacity="0"/><stop offset="100%" stop-color="#010101"/></linearGradient><path id="c" d="M98.51 75.89l30.99-.02a3.77 3.77 0 013.77 3.77l-.04 60.83a3.77 3.77 0 01-3.77 3.77l-30.99.02a3.77 3.77 0 01-3.77-3.77l.04-60.83a3.77 3.77 0 013.77-3.77z"/></defs><g fill="none" fill-rule="evenodd"><g transform="translate(-41.33 -19)"><path fill="#DC0000" fill-rule="nonzero" d="M148.05 44l12.28 12.28L125.6 91l34.73 34.72L148.05 138l-34.72-34.72L78.6 138l-12.27-12.28L101.05 91 66.33 56.28 78.6 44l34.73 34.72L148.05 44z"/><path fill="#663C29" fill-rule="nonzero" d="M115.41 66.67c1.33 3.31-2.16 6.93-1.47 10.38.3 1.49 1.36 2.71 2.37 3.84 4.74 5.27 9.43 10.55 14.13 15.82 3.02-1.03 6.23-2.04 9.33-1.27 3.1.77 5.64 4.1 4.5 7.1-1.3 3.19-5.48 3.6-8.73 4.68-3.82 1.24-7.45 5.23-5.99 8.99 2.1-.76 4.28-1.5 6.5-1.29 2.23.21 4.5 1.63 4.96 3.83.6 3.16-2.55 5.68-5.42 7.2-2.86 1.51-6.17 3.43-6.36 6.68 2.47-.56 5.02-.61 7.5-.15 1.47.25 3.08.9 3.49 2.34.4 1.43-.78 2.85-1.97 3.86-5.56 4.62-13.3 6.54-18.12 11.82-.3.31-.58.65-.83 1-4.57 5.82-4.53 13.83-5.75 21.13a7 7 0 01-.17.88 55.9 55.9 0 01-5.3 15.87c-1.33 2.6-3.5 4.5-4.65 7.17-1.32 3.04-1.45 6.33-1.52 9.64-.18 9.7-2.2 35.9-1.02 45.54-7.1-3.4-15.97-5.8-21.75-8.18-5.23-2.15-7.41-4.11-13.1-9.62.59-1.95 2.93-19.83 2.96-20.02 1.4-8.46 2.83-16.91 4.29-25.37.06-.66.25-1.3.53-1.9 1.06-1.8 3.53-1.76 5.62-1.42-1.67-6.16-1.49-12.8-.72-19.15.8-7.05 2.15-14.03 3.47-21 1.2-6.43 2.46-12.85 3.66-19.28 1.4-7.1 2.78-14.35 5.29-21.2 2.15-5.84 5.1-11.4 6.96-17.34 1.93-6.03 2.83-10.66 6.03-16.09 1.26-2.1 3.39-5.43 5.65-6.22 2.27-.8 4.7-.5 5.63 1.73z"/><path fill="url(#a)" fill-rule="nonzero" d="M122.05 157.44c-.43 1.7-2.61 2.34-4.42 2.56-.46.15-.84.5-1.05.94a9.8 9.8 0 00-1.29 0c-7.34.24-13.4 5.55-19.73 9.4-.25.16-.5.31-.78.44-.56-1.86-.51-7.17 3.36-19.4.7-2.14 1.5-4.99 2.12-7.05.36-1.37.9-2.68 1.58-3.92a18 18 0 0110.4-7.73c.78-.32 1.65-.3 2.4.07.82.5.92 1.62.65 2.5-.27.88-.84 1.67-1.14 2.55-1.22 3.31 1.38 6.62 3.39 9.55a35.98 35.98 0 014.09 7.6c.4.77.54 1.64.42 2.5z" transform="rotate(-50 108.3 151.62)"/><path fill="#2E2E2E" fill-rule="nonzero" d="M97.9 71.36l32.82-.07a4.22 4.22 0 014.23 4.23l-.33 70.85a4.22 4.22 0 01-4.2 4.2l-32.82.07a4.22 4.22 0 01-4.22-4.24l.32-70.84a4.22 4.22 0 014.2-4.2z"/><path fill="url(#b)" fill-rule="nonzero" stroke="#222" stroke-width="1.04" d="M97.86 71.38l32.81-.11a4.22 4.22 0 014.24 4.23l-.24 70.85c-.01 2.32-1.89 4.2-4.2 4.2l-32.82.11a4.22 4.22 0 01-4.23-4.23l.24-70.85a4.2 4.2 0 014.2-4.2z" transform="rotate(.07 114.16 110.96)"/><path fill="#FFFBFF" fill-rule="nonzero" d="M98.73 75.9l30.68-.07a3.77 3.77 0 013.78 3.79l-.28 60.8a3.77 3.77 0 01-3.76 3.76l-30.68.07a3.77 3.77 0 01-3.78-3.8l.28-60.8a3.77 3.77 0 013.76-3.75z"/><mask id="d" fill="#fff"><use xlink:href="#c"/></mask><use fill="#FFFBFF" fill-rule="nonzero" xlink:href="#c"/><path fill="#EEEEEF" d="M97.54 116.56h33.15v9.46H97.54zm0 12.31h33.15v9.46H97.54zm0 12.3h33.15v9.46H97.54z" mask="url(#d)"/><rect width="34.1" height="5.68" x="96.59" y="86.28" fill="#EEEEEF" mask="url(#d)" rx="1.66"/><rect width="34.1" height="5.68" x="96.59" y="77.8" fill="#EEEEEF" mask="url(#d)" rx="1.66"/><path fill="#EEEEEF" d="M96.96 97.17h34.52v17.27H96.96z" mask="url(#d)"/><path fill="#663C29" fill-rule="nonzero" d="M71.74 139.8a80.2 80.2 0 0111.13-5.28c7.25-2.97 14.5-5.96 22.01-8.2 2.28-.69 4.58-1.29 6.87-1.89l19.86-5.27c.61 1.94-.31 6.99-1.51 8.66-3.76 5.2-7.54 6.72-13.61 8.98-1.72.64-5.15.65-6.62 1.77-1.06.94-2 2-2.81 3.15-4.4 5.51-10.84 9.72-13.38 16.25-.86 2.17-1.26 4.54-2.52 6.5-1.4 2.16-3.66 3.6-5.86 4.95-8.43 5.25-17.12 10.55-26.8 13a6.52 6.52 0 01-3.56.17 6.7 6.7 0 01-2.84-2.28c-2.58-2.97-5.35-5.86-7.75-8.97-2.3-3-1.2-4.89 1.17-7.46 5.34-5.96 11-11.63 16.96-17 2.86-2.63 5.96-5 9.26-7.08z" mask="url(#d)" transform="rotate(-50 87.44 150.96)"/></g><path fill="#663C29" d="M51.73 80.84c.12-.17.34-.3.67-.37.32-.07.65-.07.97 0l-.01 8.18-.01 13.07-1.92 4.32.3-25.2z"/><text fill="#4B0600" font-size="24" font-weight="600" transform="translate(-42 -19)"><tspan x="109" y="116">?</tspan></text></g></svg>