<?xml version="1.0" encoding="UTF-8"?>
<svg width="144px" height="144px" viewBox="0 0 144 144" version="1.1" xmlns="http://www.w3.org/2000/svg" xmlns:xlink="http://www.w3.org/1999/xlink">
    <title>notif-error-upgrade</title>
    <defs>
        <filter x="-4.7%" y="-6.5%" width="109.4%" height="112.9%" filterUnits="objectBoundingBox" id="filter-1">
            <feOffset dx="0" dy="0" in="SourceAlpha" result="shadowOffsetOuter1"></feOffset>
            <feGaussianBlur stdDeviation="2" in="shadowOffsetOuter1" result="shadowBlurOuter1"></feGaussianBlur>
            <feColorMatrix values="0 0 0 0 0   0 0 0 0 0   0 0 0 0 0  0 0 0 0.1 0" type="matrix" in="shadowBlurOuter1" result="shadowMatrixOuter1"></feColorMatrix>
            <feMerge>
                <feMergeNode in="shadowMatrixOuter1"></feMergeNode>
                <feMergeNode in="SourceGraphic"></feMergeNode>
            </feMerge>
        </filter>
        <linearGradient x1="-8.43351735%" y1="66.1019533%" x2="438.665933%" y2="-77.8206366%" id="linearGradient-2">
            <stop stop-color="#010101" stop-opacity="0" offset="0%"></stop>
            <stop stop-color="#010101" offset="95%"></stop>
        </linearGradient>
        <linearGradient x1="67.2777373%" y1="23.8054348%" x2="-26.7813426%" y2="166.507508%" id="linearGradient-3">
            <stop stop-color="#010101" stop-opacity="0" offset="0%"></stop>
            <stop stop-color="#010101" offset="100%"></stop>
        </linearGradient>
        <path d="M98.5099429,75.8903033 L129.499919,75.8687711 C131.582003,75.8673245 133.271038,77.554014 133.272485,79.6360976 C133.272486,79.637845 133.272486,79.6395924 133.272485,79.6413397 L133.230163,140.474601 C133.228716,142.554637 131.542874,144.240478 129.462837,144.241924 L98.4728605,144.263456 C96.3907769,144.264903 94.7017419,142.578213 94.7002952,140.496129 C94.700294,140.494382 94.700294,140.492635 94.7002952,140.490887 L94.7426164,79.6576265 C94.7440635,77.5775898 96.4299062,75.8917486 98.5099429,75.8903033 Z" id="path-4"></path>
    </defs>
    <g id="notif-error-upgrade" stroke="none" stroke-width="1" fill="none" fill-rule="evenodd">
        <g id="Group-16" transform="translate(-42.000000, -19.000000)">
            <g id="Group-6" transform="translate(0.671642, 0.000000)">
                <g id="Group-5">
                    <g id="Group-3" transform="translate(41.755224, 45.000000)"></g>
                    <g id="Visual/contact-tracing" transform="translate(41.755224, 45.000000)"></g>
                    <g id="Visual/contact-tracing" transform="translate(41.325373, 45.347826)"></g>
                    <g id="Group-4" filter="url(#filter-1)" transform="translate(102.589851, 154.800000) rotate(-50.000000) translate(-102.589851, -154.800000) translate(17.898507, 93.000000)"></g>
                    <g id="Group" transform="translate(22.325373, 0.000000)">
                        <g id="c-remove" transform="translate(0.856183, 0.856183)">
                            <path d="M124.867235,43.1438172 L137.143817,55.4203993 L102.419817,90.1438172 L137.143817,124.867235 L124.867235,137.143817 L90.1438172,102.419817 L55.4203993,137.143817 L43.1438172,124.867235 L77.8678172,90.1438172 L43.1438172,55.4203993 L55.4203993,43.1438172 L90.1438172,77.8668172 L124.867235,43.1438172 Z" id="Combined-Shape" fill="#DC0000" fill-rule="nonzero"></path>
                            <circle id="Oval" stroke="#DC0000" stroke-width="11.1666667" opacity="0" stroke-linecap="square" cx="90.1438172" cy="90.1438172" r="90.1438172"></circle>
                        </g>
                    </g>
                    <path d="M182.88755,109.735726 C181.20381,112.87589 176.188418,112.536136 173.992242,115.281565 C173.03896,116.459206 172.787974,118.065781 172.572474,119.567976 C171.580878,126.57818 170.554166,133.567632 169.534489,140.557063 C172.266466,142.210461 175.103527,144.016485 176.502193,146.883402 C177.900859,149.750319 176.995289,153.833617 173.959816,154.892264 C170.678114,155.944686 167.682575,153.006006 164.761024,151.221086 C161.355037,149.090009 155.966406,148.869533 154.028212,152.406692 C155.952665,153.527191 157.926143,154.724014 159.194166,156.562469 C160.462189,158.400924 160.834302,161.048413 159.443064,162.818236 C157.409447,165.312927 153.45074,164.518199 150.450135,163.296597 C147.449531,162.074995 143.85114,160.771734 141.242239,162.711986 C143.260303,164.248101 144.941638,166.172474 146.185657,168.369979 C146.93468,169.65383 147.471546,171.306745 146.630671,172.539668 C145.789795,173.772591 143.946448,173.778023 142.406434,173.511447 C135.290184,172.225505 128.852373,167.531246 121.705068,167.232533 C121.271738,167.206031 120.836961,167.207313 120.403467,167.236368 C113.008335,167.473663 106.900201,172.656753 100.521859,176.422499 C100.27055,176.580998 100.009273,176.723411 99.7396477,176.848856 C94.8925815,179.666807 89.6432908,181.740456 84.1727947,182.998296 C81.3214381,183.653204 78.480378,183.202767 75.6918093,184.038233 C72.5159502,184.986067 69.9138584,187.002768 67.3327301,189.068068 C59.7817493,195.171747 38.4214956,210.459018 31.7892915,217.566985 C29.8203549,209.939369 25.969933,201.599913 24.0738943,195.642188 C22.3594009,190.254913 22.4626975,187.323876 23.0272167,179.429375 C24.8940296,178.624431 40.1009955,168.925918 40.2631237,168.821165 C47.6399296,164.461585 55.037788,160.12048 62.4566986,155.797852 C63.0015173,155.428462 63.6071877,155.156088 64.2461191,154.993136 C66.308598,154.639475 67.8718733,156.56048 68.9499945,158.37864 C72.5958055,153.147193 77.8073324,149.009496 83.1576655,145.517894 C89.0721243,141.593627 95.2877022,138.148137 101.482255,134.674903 C107.176475,131.474258 112.898756,128.301338 118.600032,125.093721 C124.942396,121.599196 131.376551,117.993174 138.236561,115.512067 C144.096397,113.409297 150.249373,112.105106 155.99752,109.703744 C161.858237,107.302051 165.980815,105.016706 172.196312,103.983446 C174.610657,103.60094 178.531026,103.081915 180.595885,104.306275 C182.660745,105.530636 184.005524,107.584366 182.88755,109.735726 Z" id="Path" fill="#663C29" fill-rule="nonzero" transform="translate(102.974577, 160.553538) rotate(-50.000000) translate(-102.974577, -160.553538) "></path>
                    <path d="M122.053956,157.442565 C121.616066,159.137289 119.435765,159.776973 117.633719,160.002857 C117.172559,160.15369 116.792321,160.492329 116.583645,160.938052 C116.153615,160.910887 115.722145,160.912159 115.291947,160.941858 C107.95305,161.184059 101.890907,166.488569 95.5607416,170.342353 C95.3113302,170.504559 95.0520277,170.6503 94.7844419,170.778672 C94.2243658,168.923238 94.2679744,163.608004 98.1442012,151.379666 C98.848714,149.243009 99.6391117,146.394573 100.259629,144.329316 C100.62199,142.962141 101.151324,141.645804 101.835177,140.411276 C104.247356,136.614597 107.953679,133.85955 112.233372,132.681912 C113.015086,132.361386 113.89069,132.387176 114.648967,132.753061 C115.457449,133.241632 115.558865,134.365546 115.29094,135.248629 C115.023015,136.131711 114.44817,136.916085 114.152316,137.79925 C112.934642,141.111438 115.529205,144.419507 117.5384,147.345076 C119.199156,149.701808 120.572494,152.256545 121.628409,154.953475 C122.020866,155.716431 122.169606,156.586437 122.053956,157.442565 Z" id="Path" fill="url(#linearGradient-2)" fill-rule="nonzero" transform="translate(108.309238, 151.618736) rotate(-50.000000) translate(-108.309238, -151.618736) "></path>
                    <path d="M97.8609384,71.3781345 L130.673607,71.2663747 C133.002782,71.2584415 134.897383,73.1401799 134.905316,75.469355 C134.905349,75.4788684 134.905349,75.4883818 134.905317,75.4978951 L134.667169,146.347399 C134.659377,148.665464 132.782183,150.542711 130.464119,150.550568 L97.6514497,150.661789 C95.3222745,150.669683 93.4277048,148.787914 93.4198099,146.458739 C93.4197778,146.449248 93.4197776,146.439758 93.4198095,146.430268 L93.6579574,75.5813032 C93.6657491,73.2632655 95.5429011,71.3860297 97.8609384,71.3781345 Z" id="Rectangle" fill="#2E2E2E" fill-rule="nonzero" transform="translate(114.162563, 110.964047) rotate(0.070000) translate(-114.162563, -110.964047) "></path>
                    <path d="M97.8609384,71.3781345 L130.673607,71.2663747 C133.002782,71.2584415 134.897383,73.1401799 134.905316,75.469355 C134.905349,75.4788684 134.905349,75.4883818 134.905317,75.4978951 L134.667169,146.347399 C134.659377,148.665464 132.782183,150.542711 130.464119,150.550568 L97.6514497,150.661789 C95.3222745,150.669683 93.4277048,148.787914 93.4198099,146.458739 C93.4197778,146.449248 93.4197776,146.439758 93.4198095,146.430268 L93.6579574,75.5813032 C93.6657491,73.2632655 95.5429011,71.3860297 97.8609384,71.3781345 Z" id="Rectangle" stroke="#222222" stroke-width="1.03846154" fill="url(#linearGradient-3)" fill-rule="nonzero" transform="translate(114.162563, 110.964047) rotate(0.070000) translate(-114.162563, -110.964047) "></path>
                    <path d="M98.6898348,75.9171251 L129.369573,75.81263 C131.451645,75.8055385 133.145247,77.4876426 133.152338,79.5697146 C133.152367,79.5782187 133.152368,79.5867228 133.152339,79.5952269 L132.947945,140.402905 C132.94098,142.475022 131.262976,144.153101 129.19086,144.160158 L98.5111216,144.264653 C96.4290495,144.271745 94.7354478,142.589641 94.7283563,140.507569 C94.7283273,140.499065 94.7283271,140.490561 94.7283557,140.482057 L94.9327496,79.6743781 C94.9397146,77.6022619 96.6177189,75.9241827 98.6898348,75.9171251 Z" id="Rectangle" fill="#FFFBFF" fill-rule="nonzero" transform="translate(113.940347, 110.038642) rotate(0.070000) translate(-113.940347, -110.038642) "></path>
                    <g id="Group-2" transform="translate(50.907453, 28.640762)">
                        <g id="Group" transform="translate(0.052902, 0.225386)"></g>
                    </g>
                    <mask id="mask-5" fill="white">
                        <use xlink:href="#path-4"></use>
                    </mask>
                    <use id="Rectangle" fill="#FFFBFF" fill-rule="nonzero" xlink:href="#path-4"></use>
                    <rect id="Rectangle" fill="#EEEEEF" mask="url(#mask-5)" x="97.5390742" y="116.562156" width="33.1497289" height="9.46418787"></rect>
                    <rect id="Rectangle-Copy-2" fill="#EEEEEF" mask="url(#mask-5)" x="97.5390742" y="128.8656" width="33.1497289" height="9.46418787"></rect>
                    <rect id="Rectangle-Copy-3" fill="#EEEEEF" mask="url(#mask-5)" x="97.5390742" y="141.169044" width="33.1497289" height="9.46418787"></rect>
                    <rect id="Rectangle" fill="#EEEEEF" mask="url(#mask-5)" x="96.5919391" y="86.2767547" width="34.096864" height="5.67851272" rx="1.65711948"></rect>
                    <rect id="Rectangle-Copy" fill="#EEEEEF" mask="url(#mask-5)" x="96.5919391" y="77.7958263" width="34.096864" height="5.67851272" rx="1.65711948"></rect>
                    <rect id="Rectangle" fill="#EEEEEF" mask="url(#mask-5)" x="96.962728" y="97.1674697" width="34.5178129" height="17.2721429"></rect>
                    <path d="M71.7371024,139.797158 C75.3024475,137.756609 79.0236388,135.991648 82.8665993,134.51844 C90.1162538,131.547534 97.3729652,128.562857 104.880057,126.326859 C107.162424,125.632595 109.458541,125.034545 111.754677,124.42962 L131.605492,119.159576 C132.224214,121.103487 131.300224,126.148125 130.095507,127.815519 C126.33643,133.018649 122.564172,134.54017 116.488238,136.80416 C114.767348,137.441767 111.337394,137.445956 109.874671,138.570954 C108.81089,139.50707 107.86545,140.564824 107.058831,141.721304 C102.657337,147.234584 96.224954,151.440651 93.6797915,157.972893 C92.8244147,160.14116 92.4245174,162.507472 91.1627963,164.470675 C89.7531622,166.626825 87.5036866,168.063535 85.3035491,169.42447 C76.8684414,174.667746 68.1805801,179.966771 58.4907707,182.415462 C57.3459231,182.801633 56.1147188,182.862477 54.9399717,182.590936 C53.7945358,182.103216 52.8109654,181.313731 52.0980564,180.309807 C49.5247936,177.340348 46.7478314,174.447119 44.350385,171.339634 C42.0438276,168.341888 43.1579806,166.454749 45.5160494,163.88328 C50.8579642,157.922678 56.5216966,152.246234 62.4826736,146.878577 C65.3446032,144.250393 68.4420679,141.880237 71.7371024,139.797158 Z" id="Path" fill="#663C29" fill-rule="nonzero" mask="url(#mask-5)" transform="translate(87.443236, 150.958686) rotate(-50.000000) translate(-87.443236, -150.958686) "></path>
                </g>
                <path d="M93.0580746,99.844848 C93.1801613,99.6705759 93.4029949,99.5467976 93.7265753,99.4735132 C94.0501558,99.4002288 94.3738536,99.4002288 94.6976689,99.4735132 L94.6884742,107.653036 L94.6737813,120.723732 L92.7554818,125.038874 L93.0580746,99.844848 Z" id="Rectangle" fill="#663C29"></path>
            </g>
            <text id="?" font-family="SanFranciscoText-Heavy, San Francisco Text" font-size="24" font-weight="600" fill="#4B0600">
                <tspan x="109" y="116">?</tspan>
            </text>
        </g>
    </g>
</svg>