<svg width="40" height="40" xmlns="http://www.w3.org/2000/svg"><g fill="#FFF" fill-rule="evenodd"><path d="M22 25a2 2 0 01-3.995.149l-.005-.15h4zm-.371-13.732a4.98 4.98 0 011.312.68l-1.154 2.18a4 4 0 003.376 5.869 4.032 4.032 0 001.16 1.85L26.5 22h.5a.992.992 0 011.003.942.993.993 0 01-.881 1.041L27 23.99l-.002-.002-.024.012H13a1 1 0 01-.117-1.994L13 22h.5a4.04 4.04 0 001.485-2.767L15 19v-2.88c0-1.05.324-2.14.864-2.902l.139-.183.143-.178c1.324-1.569 3.533-2.255 5.483-1.589z" fill-rule="nonzero"/><path d="M30.064 3.507a2 2 0 012.704.832l5.678 10.725A2 2 0 0136.678 18H25.322a2 2 0 01-1.768-2.936L29.232 4.34a2 2 0 01.832-.832zM32 14h-2v2h2v-2zm0-7h-2v5h2V7z"/></g></svg>