<svg xmlns="http://www.w3.org/2000/svg" xmlns:xlink="http://www.w3.org/1999/xlink" viewBox="0 0 144 144"><defs/><defs><linearGradient id="d" x1="-8.33%" x2="438.01%" y1="66.1%" y2="-77.82%"><stop offset="0%" stop-color="#010101" stop-opacity="0"/><stop offset="95%" stop-color="#010101"/></linearGradient><linearGradient id="e" x1="67.49%" x2="-27.71%" y1="23.81%" y2="166.51%"><stop offset="0%" stop-color="#010101" stop-opacity="0"/><stop offset="100%" stop-color="#010101"/></linearGradient><ellipse id="a" cx="72" cy="72.35" rx="71.65" ry="72"/><filter id="b" width="109.4%" height="112.9%" x="-4.7%" y="-6.5%" filterUnits="objectBoundingBox"><feOffset in="SourceAlpha" result="shadowOffsetOuter1"/><feGaussianBlur in="shadowOffsetOuter1" result="shadowBlurOuter1" stdDeviation="2"/><feColorMatrix in="shadowBlurOuter1" result="shadowMatrixOuter1" values="0 0 0 0 0 0 0 0 0 0 0 0 0 0 0 0 0 0 0.1 0"/><feMerge><feMergeNode in="shadowMatrixOuter1"/><feMergeNode in="SourceGraphic"/></feMerge></filter><path id="f" d="M57.07 30.89l31.22-.02a3.77 3.77 0 013.78 3.77l-.05 60.83a3.77 3.77 0 01-3.76 3.77l-31.22.02a3.77 3.77 0 01-3.78-3.77l.05-60.83a3.77 3.77 0 013.76-3.77z"/></defs><g fill="none" fill-rule="evenodd"><g transform="translate(0 26)"><ellipse cx="72" cy="72.35" fill="#038543" opacity=".3" rx="55.04" ry="55.3"/><ellipse cx="72.52" cy="72.87" fill="#038543" opacity=".5" rx="38.94" ry="39.13"/><mask id="c" fill="#fff"><use xlink:href="#a"/></mask><use fill="#038543" opacity=".15" xlink:href="#a"/><path fill="#663C29" fill-rule="nonzero" d="M141.56 64.82c-1.67 3.15-6.7 2.8-8.9 5.54-.95 1.18-1.2 2.8-1.4 4.3-.98 7.03-1.99 14.04-2.99 21.05 2.74 1.67 5.6 3.49 7 6.37 1.41 2.88.52 6.98-2.52 8.03-3.29 1.05-6.3-1.91-9.23-3.71-3.42-2.15-8.83-2.39-10.76 1.16 1.93 1.13 3.91 2.33 5.2 4.18 1.27 1.85 1.65 4.51.26 6.28-2.03 2.5-6 1.69-9.01.45-3.02-1.23-6.63-2.55-9.24-.6a18.9 18.9 0 014.98 5.68c.75 1.3 1.3 2.95.45 4.19-.84 1.23-2.68 1.23-4.23.96-7.14-1.31-13.6-6.04-20.77-6.36-.43-.03-.87-.03-1.3 0-7.42.22-13.53 5.4-19.9 9.16-.26.16-.52.3-.8.42a55.67 55.67 0 01-15.58 6.13c-2.85.65-5.7.19-8.5 1.02-3.18.94-5.78 2.96-8.36 5.02-7.55 6.1-28.92 21.38-35.55 28.5-2-7.66-5.88-16.04-7.8-22.03-1.73-5.41-1.64-8.35-1.1-16.27 1.87-.8 17.09-10.5 17.25-10.6 7.38-4.35 14.79-8.68 22.21-13a5.67 5.67 0 011.8-.8c2.06-.35 3.63 1.58 4.72 3.4 3.64-5.23 8.85-9.37 14.2-12.86 5.92-3.92 12.14-7.36 18.34-10.82 5.7-3.2 11.43-6.36 17.13-9.57 6.35-3.48 12.79-7.08 19.66-9.55 5.87-2.1 12.03-3.39 17.79-5.78 5.87-2.4 10-4.67 16.22-5.7 2.42-.37 6.35-.88 8.42.36 2.08 1.23 3.43 3.3 2.31 5.45z" mask="url(#c)" transform="rotate(-50 61.57 115.59)"/><path fill="url(#d)" fill-rule="nonzero" d="M80.73 112.48c-.44 1.7-2.62 2.34-4.43 2.56-.46.15-.84.49-1.05.93a9.8 9.8 0 00-1.29 0c-7.36.23-13.42 5.53-19.75 9.38-.25.16-.51.3-.78.44-.57-1.87-.54-7.2 3.31-19.46.7-2.14 1.49-5 2.1-7.07.36-1.37.89-2.7 1.57-3.93a17.9 17.9 0 0110.4-7.72c.78-.32 1.66-.3 2.42.07.81.5.92 1.63.65 2.51-.26.89-.84 1.67-1.13 2.56-1.21 3.32 1.4 6.64 3.42 9.59a36.38 36.38 0 014.12 7.64c.4.77.55 1.64.44 2.5z" mask="url(#c)" transform="rotate(-50 66.97 106.59)"/><path fill="#2E2E2E" fill-rule="nonzero" d="M56.42 26.38l33.06-.11a4.22 4.22 0 014.23 4.23l-.24 70.85c0 2.32-1.89 4.2-4.2 4.2l-33.06.11a4.22 4.22 0 01-4.24-4.23l.24-70.85c.01-2.32 1.89-4.2 4.2-4.2z" mask="url(#c)" transform="rotate(.07 72.84 65.96)"/><path fill="url(#e)" fill-rule="nonzero" stroke="#222" stroke-width="1.04" d="M56.42 26.38l33.06-.11a4.22 4.22 0 014.23 4.23l-.24 70.85c0 2.32-1.89 4.2-4.2 4.2l-33.06.11a4.22 4.22 0 01-4.24-4.23l.24-70.85c.01-2.32 1.89-4.2 4.2-4.2z" mask="url(#c)" transform="rotate(.07 72.84 65.96)"/><path fill="#FFFBFF" fill-rule="nonzero" d="M57.25 30.92l30.91-.1a3.77 3.77 0 013.79 3.78l-.21 60.8a3.77 3.77 0 01-3.76 3.76l-30.9.1a3.77 3.77 0 01-3.79-3.78l.2-60.8a3.77 3.77 0 013.76-3.76z" mask="url(#c)" transform="rotate(.07 72.62 65.04)"/><mask id="g" fill="#fff"><use xlink:href="#f"/></mask><use fill="#FFFBFF" fill-rule="nonzero" xlink:href="#f"/><path fill="#EEEEEF" d="M56.12 71.56h33.35v9.46H56.12zM56.12 83.87h33.35v9.46H56.12zM56.12 96.17h33.35v9.46H56.12z" mask="url(#g)"/><rect width="34.3" height="5.68" x="55.17" y="41.28" fill="#EEEEEF" mask="url(#g)" rx="1.66"/><rect width="34.3" height="5.68" x="55.17" y="32.8" fill="#EEEEEF" mask="url(#g)" rx="1.66"/><path fill="#EEEEEF" d="M55.54 52.17h34.73v17.27H55.54z" mask="url(#g)"/><path fill="#663C29" fill-rule="nonzero" d="M30.2 94.72c3.57-2.04 7.3-3.8 11.15-5.27 7.26-2.96 14.52-5.93 22.04-8.15 2.29-.7 4.59-1.28 6.89-1.88l19.88-5.23c.63 1.95-.28 7-1.49 8.68-3.75 5.2-7.53 6.72-13.61 8.98-1.72.63-5.16.63-6.63 1.75-1.06.94-2 2-2.8 3.15-4.4 5.52-10.84 9.73-13.37 16.27-.85 2.18-1.25 4.55-2.5 6.52-1.41 2.16-3.66 3.6-5.87 4.95-8.44 5.24-17.13 10.53-26.84 12.96a6.53 6.53 0 01-3.56.16 6.78 6.78 0 01-2.85-2.3c-2.59-2.98-5.38-5.9-7.8-9.02-2.32-3.01-1.2-4.9 1.15-7.48 5.34-5.96 11-11.64 16.96-17.01 2.86-2.63 5.96-5 9.26-7.08z" mask="url(#g)" transform="rotate(-50 45.97 105.99)"/><g mask="url(#g)"><g transform="translate(58.8 51.6)"><circle cx="14.4" cy="14.4" r="10.8" fill="#FFF"/><path fill="#038543" d="M14.4 0a14.4 14.4 0 100 28.8 14.4 14.4 0 000-28.8zM12 20.9l-6.5-6.5 1.7-1.7 4.8 4.8 9.6-9.6 1.7 1.7L12 20.9z"/></g></g></g><path fill="#663C29" d="M51.61 80.84c.12-.17.35-.3.67-.37.33-.07.65-.07.98 0v8.18l-.02 13.07-1.93 4.32.3-25.2z"/></g></svg>